999
"DXF R12 Output" (www.mydxf.blogspot.com)
 0 
SECTION
 2 
HEADER
 9 
$ACADVER
 1 
AC1009
 9 
$EXTMIN
 10 
 0 
 20 
 0 
 9 
$EXTMAX
 10 
 8.5 
 20 
 11 
 0 
ENDSEC
 0 
SECTION
 2 
ENTITIES
0
LINE
8
Laag 1
10
19.192800
20
64.938800
11
19.192800
21
60.002800
0
LINE
8
Laag 1
10
19.192800
20
60.002800
11
17.078900
21
60.002800
0
LINE
8
Laag 1
10
17.078900
20
60.002800
11
17.078900
21
47.300000
0
LINE
8
Laag 1
10
17.078900
20
47.300000
11
19.192800
21
47.300000
0
LINE
8
Laag 1
10
19.192800
20
47.300000
11
19.192800
21
42.363900
0
LINE
8
Laag 1
10
19.192800
20
42.363900
11
27.662280
21
42.361924
0
LINE
8
Laag 1
10
27.662280
20
42.361924
11
27.662300
21
43.205800
0
LINE
8
Laag 1
10
27.662300
20
43.205800
11
29.070600
21
43.205800
0
LINE
8
Laag 1
10
29.070600
20
43.205800
11
29.070600
21
42.361900
0
LINE
8
Laag 1
10
29.070600
20
42.361900
11
37.540090
21
42.363876
0
LINE
8
Laag 1
10
37.540090
20
42.363876
11
37.540000
21
47.300000
0
LINE
8
Laag 1
10
37.540000
20
47.300000
11
39.653900
21
47.300000
0
LINE
8
Laag 1
10
39.653900
20
47.300000
11
39.653900
21
60.002800
0
LINE
8
Laag 1
10
39.653900
20
60.002800
11
37.540000
21
60.002800
0
LINE
8
Laag 1
10
37.540000
20
60.002800
11
37.540000
21
64.938800
0
LINE
8
Laag 1
10
37.540000
20
64.938800
11
29.074050
21
64.944094
0
LINE
8
Laag 1
10
29.074050
20
64.944094
11
29.074100
21
64.100300
0
LINE
8
Laag 1
10
29.074100
20
64.100300
11
27.665800
21
64.100300
0
LINE
8
Laag 1
10
27.665800
20
64.100300
11
27.665800
21
64.944100
0
LINE
8
Laag 1
10
27.665800
20
64.944100
11
19.192800
21
64.938800
0
LINE
8
Laag 1
10
-3.661560
20
64.938800
11
-3.661560
21
60.002800
0
LINE
8
Laag 1
10
-3.661560
20
60.002800
11
-5.775400
21
60.002800
0
LINE
8
Laag 1
10
-5.775400
20
60.002800
11
-5.775400
21
47.300000
0
LINE
8
Laag 1
10
-5.775400
20
47.300000
11
-3.661560
21
47.300000
0
LINE
8
Laag 1
10
-3.661560
20
47.300000
11
-3.661560
21
42.363900
0
LINE
8
Laag 1
10
-3.661560
20
42.363900
11
4.807920
21
42.361924
0
LINE
8
Laag 1
10
4.807920
20
42.361924
11
4.807930
21
43.205800
0
LINE
8
Laag 1
10
4.807930
20
43.205800
11
6.216210
21
43.205800
0
LINE
8
Laag 1
10
6.216210
20
43.205800
11
6.216210
21
42.361900
0
LINE
8
Laag 1
10
6.216210
20
42.361900
11
14.685700
21
42.363876
0
LINE
8
Laag 1
10
14.685700
20
42.363876
11
14.685700
21
47.300000
0
LINE
8
Laag 1
10
14.685700
20
47.300000
11
16.799500
21
47.300000
0
LINE
8
Laag 1
10
16.799500
20
47.300000
11
16.799500
21
60.002800
0
LINE
8
Laag 1
10
16.799500
20
60.002800
11
14.685700
21
60.002800
0
LINE
8
Laag 1
10
14.685700
20
60.002800
11
14.685700
21
64.938800
0
LINE
8
Laag 1
10
14.685700
20
64.938800
11
6.219750
21
64.944094
0
LINE
8
Laag 1
10
6.219750
20
64.944094
11
6.219750
21
64.100300
0
LINE
8
Laag 1
10
6.219750
20
64.100300
11
4.811460
21
64.100300
0
LINE
8
Laag 1
10
4.811460
20
64.100300
11
4.811460
21
64.944100
0
LINE
8
Laag 1
10
4.811460
20
64.944100
11
-3.661560
21
64.938800
 0 
ENDSEC
 0 
EOF