M48
; DRILL file {KiCad (5.99.0-12717-g57c7d663b0)} date Fri Oct 22 11:26:36 2021
; FORMAT={-:-/ absolute / inch / decimal}
; #@! TF.CreationDate,2021-10-22T11:26:36+02:00
; #@! TF.GenerationSoftware,Kicad,Pcbnew,(5.99.0-12717-g57c7d663b0)
; #@! TF.FileFunction,Plated,1,4,PTH
FMAT,2
INCH
; #@! TA.AperFunction,Plated,PTH,ViaDrill
T1C0.0157
; #@! TA.AperFunction,Plated,PTH,ComponentDrill
T2C0.0236
; #@! TA.AperFunction,Plated,PTH,ComponentDrill
T3C0.0315
; #@! TA.AperFunction,Plated,PTH,ComponentDrill
T4C0.0394
; #@! TA.AperFunction,Plated,PTH,ComponentDrill
T5C0.0591
; #@! TA.AperFunction,Plated,PTH,ComponentDrill
T6C0.0669
%
G90
G05
T1
X2.7406Y-2.9818
X2.7554Y-2.9453
X2.7726Y-3.0047
X2.7953Y-4.9606
X2.8346Y-2.9134
X2.874Y-3.0512
X2.8937Y-3.2598
X2.9173Y-4.0591
X2.9173Y-4.3366
X2.9532Y-3.4552
X2.9692Y-3.534
X3.0Y-3.0315
X3.0027Y-2.8768
X3.0217Y-4.2717
X3.0709Y-3.622
X3.0866Y-3.2205
X3.1299Y-4.124
X3.1299Y-4.4783
X3.1791Y-3.3071
X3.189Y-3.3873
X3.189Y-3.5827
X3.2579Y-3.4941
X3.2677Y-4.5571
X3.3022Y-3.7156
X3.3071Y-2.8366
X3.3318Y-3.4509
X3.3366Y-3.2677
X3.3465Y-2.8543
X3.3465Y-3.0217
X3.3563Y-4.4783
X3.3611Y-3.4801
X3.3858Y-2.8661
X3.3858Y-4.0846
X3.4144Y-3.1299
X3.435Y-4.2909
X3.435Y-4.3701
X3.4355Y-4.3302
X3.4577Y-2.9213
X3.4646Y-4.0866
X3.4744Y-3.6516
X3.4843Y-3.7894
X3.5039Y-2.8642
X3.5335Y-3.4449
X3.5428Y-4.0231
X3.5433Y-3.189
X3.5531Y-4.252
X3.5638Y-4.7232
X3.5827Y-5.1575
X3.5906Y-4.0787
X3.613Y-4.7232
X3.6299Y-3.1339
X3.6614Y-3.3071
X3.6614Y-3.4154
X3.6614Y-3.4744
X3.6622Y-4.7232
X3.6693Y-4.0709
X3.6713Y-2.6969
X3.6713Y-3.9075
X3.7303Y-2.6871
X3.7559Y-3.9606
X3.7598Y-4.5768
X3.7606Y-4.7232
X3.7834Y-2.8175
X3.7874Y-4.063
X3.7992Y-2.6772
X3.811Y-3.1969
X3.8583Y-3.1102
X3.8681Y-3.622
X3.874Y-3.6772
X3.8858Y-3.7323
X3.8937Y-5.0
X3.8976Y-4.311
X3.9055Y-3.4882
X3.9055Y-3.7835
X3.9267Y-3.3071
X3.9272Y-3.1102
X3.937Y-4.0551
X3.9409Y-3.8307
X3.9528Y-3.4882
X3.9567Y-2.6772
X3.9764Y-3.3071
X3.9921Y-3.5157
X3.9921Y-3.874
X4.0Y-3.563
X4.0Y-3.6142
X4.0Y-3.6654
X4.0118Y-3.7126
X4.0394Y-3.752
X4.0472Y-3.9055
X4.0551Y-3.3661
X4.0551Y-3.4449
X4.0551Y-4.9409
X4.0555Y-3.1815
X4.0787Y-3.7795
X4.0945Y-3.3593
X4.1102Y-3.9213
X4.126Y-3.7913
X4.1432Y-2.815
X4.1654Y-2.873
X4.1929Y-2.8346
X4.1929Y-3.3465
X4.2224Y-2.9823
X4.2224Y-3.0217
X4.2224Y-3.061
X4.2224Y-3.1014
X4.2717Y-3.3268
X4.2721Y-3.3666
X4.2913Y-2.6378
X4.2913Y-3.248
X4.2913Y-3.75
X4.2913Y-3.9665
X4.32Y-2.8101
X4.3228Y-3.0236
X4.3228Y-3.063
X4.3233Y-3.1024
X4.3622Y-2.8455
X4.3622Y-2.9025
X4.3701Y-3.6122
X4.3898Y-3.248
X4.3996Y-3.8583
X4.417Y-3.2798
X4.4173Y-2.8455
X4.4173Y-2.9291
X4.4405Y-3.1028
X4.4409Y-2.9843
X4.4409Y-3.0236
X4.4409Y-3.063
X4.4488Y-3.5827
X4.4567Y-2.7953
X4.4685Y-3.4961
X4.5079Y-3.4978
X4.5472Y-2.7824
X4.5669Y-3.189
X4.5669Y-3.2972
X4.5669Y-4.8819
X4.5857Y-3.563
X4.6063Y-2.9724
X4.626Y-3.3071
X4.6457Y-3.4252
X4.6614Y-2.7254
X4.6714Y-3.9075
X4.6949Y-2.8475
X4.6999Y-3.8583
X4.7047Y-3.1102
X4.7244Y-4.3504
X4.7244Y-4.8031
X4.7249Y-2.7948
X4.7284Y-3.7598
X4.7441Y-2.9712
X4.7441Y-4.8878
X4.7569Y-3.6614
X4.7569Y-4.0748
X4.7638Y-3.4252
X4.7638Y-3.5236
X4.7795Y-2.5591
X4.7795Y-2.8965
X4.7835Y-3.0315
X4.7835Y-3.622
X4.7855Y-3.3622
X4.7855Y-3.7297
X4.7885Y-2.8397
X4.814Y-3.5591
X4.814Y-3.7008
X4.8178Y-2.8689
X4.8425Y-3.0906
X4.8425Y-4.3504
X4.8425Y-4.877
X4.8583Y-2.874
X4.8623Y-2.9433
X4.871Y-4.2126
X4.8996Y-3.1014
X4.8996Y-3.9606
X4.9016Y-2.8445
X4.9213Y-3.0512
X4.9528Y-3.2087
X4.9528Y-3.622
X4.9528Y-3.7008
X5.0Y-2.5591
X5.0Y-5.1575
X5.0295Y-2.9921
X5.1181Y-4.0157
X5.1181Y-4.1535
X5.1181Y-4.2913
X5.1181Y-4.8425
X5.1969Y-3.0413
X5.2461Y-2.8445
X5.2854Y-3.7992
X5.4134Y-4.0157
X5.4134Y-4.1535
X5.4134Y-4.2913
X5.4331Y-3.5236
X5.4823Y-3.1693
X5.4823Y-3.876
X5.5118Y-3.6024
X5.5118Y-4.252
X5.7087Y-4.5669
X5.8031Y-4.1102
X5.8031Y-4.2835
T2
X5.7874Y-2.8051
X5.7874Y-2.9469
X5.7874Y-3.0886
X5.7874Y-3.2303
X5.7874Y-4.3445
X5.7874Y-4.4862
X5.7874Y-4.628
X5.7874Y-4.7697
X5.7874Y-4.9114
T3
X4.0157Y-2.5591
X4.0945Y-2.5591
X4.1732Y-2.5591
X4.252Y-2.5591
X4.3307Y-2.5591
X4.4094Y-2.5591
X4.4882Y-2.5591
X4.5669Y-2.5591
T4
X4.1898Y-5.0
X4.1898Y-5.1
X4.1929Y-4.3307
X4.2898Y-5.0
X4.2898Y-5.1
X4.2929Y-4.3307
X4.3898Y-5.0
X4.3898Y-5.1
X4.3929Y-4.3307
X5.0177Y-3.1583
X5.0177Y-3.2583
X5.0177Y-3.3583
X5.0177Y-3.4583
X5.0177Y-3.5583
X5.0177Y-3.6583
X5.0177Y-3.7583
X5.0177Y-3.8583
X5.0177Y-3.9583
X5.0177Y-4.0583
X5.0177Y-4.1583
X5.0177Y-4.2583
X5.0177Y-4.3583
X5.0177Y-4.4583
X5.0177Y-4.5583
X5.6177Y-3.1583
X5.6177Y-3.2583
X5.6177Y-3.3583
X5.6177Y-3.4583
X5.6177Y-3.5583
X5.6177Y-3.6583
X5.6177Y-3.7583
X5.6177Y-3.8583
X5.6177Y-3.9583
X5.6177Y-4.0583
X5.6177Y-4.1583
X5.6177Y-4.2583
X5.6177Y-4.3583
X5.6177Y-4.4583
X5.6177Y-4.5583
T5
X4.2913Y-3.8583
T6
X4.1913Y-3.7583
X4.1913Y-3.9583
X4.3913Y-3.7583
X4.3913Y-3.9583
T2
G00X2.8366Y-3.324
M15
G01X2.813Y-3.324
M16
G05
G00X2.8366Y-3.6642
M15
G01X2.813Y-3.6642
M16
G05
G00X3.011Y-3.324
M15
G01X2.9677Y-3.324
M16
G05
G00X3.011Y-3.6642
M15
G01X2.9677Y-3.6642
M16
G05
T0
M30
