%TF.GenerationSoftware,KiCad,Pcbnew,5.99.0-unknown-36d11f745e~142~ubuntu20.04.1*%
%TF.CreationDate,2021-10-28T09:57:52+02:00*%
%TF.ProjectId,Main_PCB_2,4d61696e-5f50-4434-925f-322e6b696361,rev?*%
%TF.SameCoordinates,Original*%
%TF.FileFunction,Soldermask,Top*%
%TF.FilePolarity,Negative*%
%FSLAX46Y46*%
G04 Gerber Fmt 4.6, Leading zero omitted, Abs format (unit mm)*
G04 Created by KiCad (PCBNEW 5.99.0-unknown-36d11f745e~142~ubuntu20.04.1) date 2021-10-28 09:57:52*
%MOMM*%
%LPD*%
G01*
G04 APERTURE LIST*
G04 Aperture macros list*
%AMRoundRect*
0 Rectangle with rounded corners*
0 $1 Rounding radius*
0 $2 $3 $4 $5 $6 $7 $8 $9 X,Y pos of 4 corners*
0 Add a 4 corners polygon primitive as box body*
4,1,4,$2,$3,$4,$5,$6,$7,$8,$9,$2,$3,0*
0 Add four circle primitives for the rounded corners*
1,1,$1+$1,$2,$3*
1,1,$1+$1,$4,$5*
1,1,$1+$1,$6,$7*
1,1,$1+$1,$8,$9*
0 Add four rect primitives between the rounded corners*
20,1,$1+$1,$2,$3,$4,$5,0*
20,1,$1+$1,$4,$5,$6,$7,0*
20,1,$1+$1,$6,$7,$8,$9,0*
20,1,$1+$1,$8,$9,$2,$3,0*%
G04 Aperture macros list end*
%ADD10RoundRect,0.250000X0.475000X-0.337500X0.475000X0.337500X-0.475000X0.337500X-0.475000X-0.337500X0*%
%ADD11RoundRect,0.150000X0.512500X0.150000X-0.512500X0.150000X-0.512500X-0.150000X0.512500X-0.150000X0*%
%ADD12RoundRect,0.237500X0.237500X-0.300000X0.237500X0.300000X-0.237500X0.300000X-0.237500X-0.300000X0*%
%ADD13RoundRect,0.237500X0.300000X0.237500X-0.300000X0.237500X-0.300000X-0.237500X0.300000X-0.237500X0*%
%ADD14RoundRect,0.250000X-0.600000X0.600000X-0.600000X-0.600000X0.600000X-0.600000X0.600000X0.600000X0*%
%ADD15C,1.700000*%
%ADD16RoundRect,0.237500X-0.250000X-0.237500X0.250000X-0.237500X0.250000X0.237500X-0.250000X0.237500X0*%
%ADD17RoundRect,0.237500X0.250000X0.237500X-0.250000X0.237500X-0.250000X-0.237500X0.250000X-0.237500X0*%
%ADD18R,0.760000X2.050000*%
%ADD19C,0.650000*%
%ADD20R,1.450000X0.600000*%
%ADD21R,1.450000X0.300000*%
%ADD22O,1.600000X1.000000*%
%ADD23O,2.100000X1.000000*%
%ADD24RoundRect,0.237500X0.237500X-0.250000X0.237500X0.250000X-0.237500X0.250000X-0.237500X-0.250000X0*%
%ADD25R,1.700000X1.000000*%
%ADD26R,1.800000X1.000000*%
%ADD27R,0.450000X1.400000*%
%ADD28RoundRect,0.250000X-0.550000X0.550000X-0.550000X-0.550000X0.550000X-0.550000X0.550000X0.550000X0*%
%ADD29C,1.600000*%
%ADD30R,1.981200X0.558800*%
%ADD31C,3.200000*%
%ADD32R,1.700000X1.700000*%
%ADD33O,1.700000X1.700000*%
%ADD34RoundRect,0.075000X-0.700000X-0.075000X0.700000X-0.075000X0.700000X0.075000X-0.700000X0.075000X0*%
%ADD35RoundRect,0.075000X-0.075000X-0.700000X0.075000X-0.700000X0.075000X0.700000X-0.075000X0.700000X0*%
%ADD36RoundRect,0.237500X-0.300000X-0.237500X0.300000X-0.237500X0.300000X0.237500X-0.300000X0.237500X0*%
%ADD37RoundRect,0.250000X-0.475000X0.337500X-0.475000X-0.337500X0.475000X-0.337500X0.475000X0.337500X0*%
%ADD38RoundRect,0.237500X-0.237500X0.250000X-0.237500X-0.250000X0.237500X-0.250000X0.237500X0.250000X0*%
%ADD39RoundRect,0.250000X0.550000X-0.550000X0.550000X0.550000X-0.550000X0.550000X-0.550000X-0.550000X0*%
%ADD40RoundRect,0.150000X0.675000X0.150000X-0.675000X0.150000X-0.675000X-0.150000X0.675000X-0.150000X0*%
%ADD41RoundRect,0.250000X-0.337500X-0.475000X0.337500X-0.475000X0.337500X0.475000X-0.337500X0.475000X0*%
%ADD42RoundRect,0.237500X-0.237500X0.300000X-0.237500X-0.300000X0.237500X-0.300000X0.237500X0.300000X0*%
%ADD43RoundRect,0.250000X-0.350000X-0.650000X0.350000X-0.650000X0.350000X0.650000X-0.350000X0.650000X0*%
%ADD44O,1.200000X1.800000*%
%ADD45R,1.050000X1.950000*%
%ADD46R,1.200000X0.600000*%
%ADD47C,2.050000*%
%ADD48C,2.250000*%
G04 APERTURE END LIST*
D10*
%TO.C,C19*%
X79440000Y-86037500D03*
X79440000Y-83962500D03*
%TD*%
D11*
%TO.C,U7*%
X81637500Y-89700000D03*
X81637500Y-88750000D03*
X81637500Y-87800000D03*
X79362500Y-87800000D03*
X79362500Y-88750000D03*
X79362500Y-89700000D03*
%TD*%
D12*
%TO.C,C6*%
X73250000Y-76362500D03*
X73250000Y-74637500D03*
%TD*%
D13*
%TO.C,C8*%
X118362500Y-71000000D03*
X116637500Y-71000000D03*
%TD*%
D14*
%TO.C,J2*%
X111500000Y-127000000D03*
D15*
X111500000Y-129540000D03*
X108960000Y-127000000D03*
X108960000Y-129540000D03*
X106420000Y-127000000D03*
X106420000Y-129540000D03*
%TD*%
D16*
%TO.C,R8*%
X79587500Y-112500000D03*
X81412500Y-112500000D03*
%TD*%
D17*
%TO.C,R14*%
X128162500Y-77750000D03*
X126337500Y-77750000D03*
%TD*%
D16*
%TO.C,R6*%
X79625000Y-110750000D03*
X81450000Y-110750000D03*
%TD*%
D18*
%TO.C,JP1*%
X90480000Y-121500000D03*
X90480000Y-117940000D03*
X91750000Y-121500000D03*
X91750000Y-117940000D03*
X93020000Y-121500000D03*
X93020000Y-117940000D03*
X94290000Y-121500000D03*
X94290000Y-117940000D03*
X95560000Y-121500000D03*
X95560000Y-117940000D03*
%TD*%
D19*
%TO.C,J3*%
X75400000Y-91640000D03*
X75400000Y-85860000D03*
D20*
X76845000Y-85500000D03*
X76845000Y-86300000D03*
D21*
X76845000Y-87500000D03*
X76845000Y-88500000D03*
X76845000Y-89000000D03*
X76845000Y-90000000D03*
D20*
X76845000Y-91200000D03*
X76845000Y-92000000D03*
X76845000Y-92000000D03*
X76845000Y-91200000D03*
D21*
X76845000Y-90500000D03*
X76845000Y-89500000D03*
X76845000Y-88000000D03*
X76845000Y-87000000D03*
D20*
X76845000Y-86300000D03*
X76845000Y-85500000D03*
D22*
X71750000Y-84430000D03*
D23*
X75930000Y-84430000D03*
X75930000Y-93070000D03*
D22*
X71750000Y-93070000D03*
%TD*%
D24*
%TO.C,R11*%
X85000000Y-86412500D03*
X85000000Y-84587500D03*
%TD*%
D25*
%TO.C,SW2*%
X77150000Y-103100000D03*
X70850000Y-103100000D03*
X70850000Y-106900000D03*
X77150000Y-106900000D03*
%TD*%
D17*
%TO.C,R5*%
X73515000Y-81750000D03*
X71690000Y-81750000D03*
%TD*%
D26*
%TO.C,Y1*%
X99000000Y-70250000D03*
X99000000Y-72750000D03*
%TD*%
D15*
%TO.C,U6*%
X127450000Y-80220000D03*
X127450000Y-82760000D03*
X127450000Y-85300000D03*
X127450000Y-87840000D03*
X127450000Y-90380000D03*
X127450000Y-92920000D03*
X127450000Y-95460000D03*
X127450000Y-98000000D03*
X127450000Y-100540000D03*
X127450000Y-103080000D03*
X127450000Y-105620000D03*
X127450000Y-108160000D03*
X127450000Y-110700000D03*
X127450000Y-113240000D03*
X127450000Y-115780000D03*
X142690000Y-115780000D03*
X142690000Y-113240000D03*
X142690000Y-110700000D03*
X142690000Y-108160000D03*
X142690000Y-105620000D03*
X142690000Y-103080000D03*
X142690000Y-100540000D03*
X142690000Y-98000000D03*
X142690000Y-95460000D03*
X142690000Y-92920000D03*
X142690000Y-90380000D03*
X142690000Y-87840000D03*
X142690000Y-85300000D03*
X142690000Y-82760000D03*
X142690000Y-80220000D03*
%TD*%
D25*
%TO.C,SW1*%
X77150000Y-110150000D03*
X70850000Y-110150000D03*
X70850000Y-113950000D03*
X77150000Y-113950000D03*
%TD*%
D27*
%TO.C,IC1*%
X69775000Y-77700000D03*
X70425000Y-77700000D03*
X71075000Y-77700000D03*
X71725000Y-77700000D03*
X71725000Y-73300000D03*
X71075000Y-73300000D03*
X70425000Y-73300000D03*
X69775000Y-73300000D03*
%TD*%
D16*
%TO.C,R2*%
X96087500Y-107500000D03*
X97912500Y-107500000D03*
%TD*%
D17*
%TO.C,R3*%
X97912500Y-109500000D03*
X96087500Y-109500000D03*
%TD*%
D28*
%TO.C,REF\u002A\u002A*%
X147000000Y-71250000D03*
D29*
X147000000Y-74850000D03*
X147000000Y-78450000D03*
X147000000Y-82050000D03*
%TD*%
D30*
%TO.C,U5*%
X106536200Y-86345000D03*
X106536200Y-87615000D03*
X106536200Y-88885000D03*
X106536200Y-90155000D03*
X111463800Y-90155000D03*
X111463800Y-88885000D03*
X111463800Y-87615000D03*
X111463800Y-86345000D03*
%TD*%
D31*
%TO.C,REF2*%
X80000000Y-119750000D03*
%TD*%
D32*
%TO.C,J4*%
X106500000Y-110000000D03*
D33*
X109040000Y-110000000D03*
X111580000Y-110000000D03*
%TD*%
D34*
%TO.C,U4*%
X103325000Y-71500000D03*
X103325000Y-72000000D03*
X103325000Y-72500000D03*
X103325000Y-73000000D03*
X103325000Y-73500000D03*
X103325000Y-74000000D03*
X103325000Y-74500000D03*
X103325000Y-75000000D03*
X103325000Y-75500000D03*
X103325000Y-76000000D03*
X103325000Y-76500000D03*
X103325000Y-77000000D03*
X103325000Y-77500000D03*
X103325000Y-78000000D03*
X103325000Y-78500000D03*
X103325000Y-79000000D03*
D35*
X105250000Y-80925000D03*
X105750000Y-80925000D03*
X106250000Y-80925000D03*
X106750000Y-80925000D03*
X107250000Y-80925000D03*
X107750000Y-80925000D03*
X108250000Y-80925000D03*
X108750000Y-80925000D03*
X109250000Y-80925000D03*
X109750000Y-80925000D03*
X110250000Y-80925000D03*
X110750000Y-80925000D03*
X111250000Y-80925000D03*
X111750000Y-80925000D03*
X112250000Y-80925000D03*
X112750000Y-80925000D03*
D34*
X114675000Y-79000000D03*
X114675000Y-78500000D03*
X114675000Y-78000000D03*
X114675000Y-77500000D03*
X114675000Y-77000000D03*
X114675000Y-76500000D03*
X114675000Y-76000000D03*
X114675000Y-75500000D03*
X114675000Y-75000000D03*
X114675000Y-74500000D03*
X114675000Y-74000000D03*
X114675000Y-73500000D03*
X114675000Y-73000000D03*
X114675000Y-72500000D03*
X114675000Y-72000000D03*
X114675000Y-71500000D03*
D35*
X112750000Y-69575000D03*
X112250000Y-69575000D03*
X111750000Y-69575000D03*
X111250000Y-69575000D03*
X110750000Y-69575000D03*
X110250000Y-69575000D03*
X109750000Y-69575000D03*
X109250000Y-69575000D03*
X108750000Y-69575000D03*
X108250000Y-69575000D03*
X107750000Y-69575000D03*
X107250000Y-69575000D03*
X106750000Y-69575000D03*
X106250000Y-69575000D03*
X105750000Y-69575000D03*
X105250000Y-69575000D03*
%TD*%
D31*
%TO.C,REF4*%
X138000000Y-119750000D03*
%TD*%
D16*
%TO.C,R7*%
X79587500Y-108000000D03*
X81412500Y-108000000D03*
%TD*%
D36*
%TO.C,C9*%
X104137500Y-84250000D03*
X105862500Y-84250000D03*
%TD*%
D13*
%TO.C,C3*%
X96862500Y-70500000D03*
X95137500Y-70500000D03*
%TD*%
D37*
%TO.C,C13*%
X92200000Y-76250000D03*
X92200000Y-78325000D03*
%TD*%
D38*
%TO.C,R13*%
X94000000Y-76287500D03*
X94000000Y-78112500D03*
%TD*%
D39*
%TO.C,REF\u002A\u002A*%
X147000000Y-124750000D03*
D29*
X147000000Y-121150000D03*
X147000000Y-117550000D03*
X147000000Y-113950000D03*
X147000000Y-110350000D03*
%TD*%
D10*
%TO.C,C18*%
X91250000Y-84287500D03*
X91250000Y-82212500D03*
%TD*%
D31*
%TO.C,REF1*%
X80000000Y-76250000D03*
%TD*%
D24*
%TO.C,R12*%
X95600000Y-78112500D03*
X95600000Y-76287500D03*
%TD*%
D40*
%TO.C,U8*%
X131825000Y-76005000D03*
X131825000Y-74735000D03*
X131825000Y-73465000D03*
X131825000Y-72195000D03*
X126575000Y-72195000D03*
X126575000Y-73465000D03*
X126575000Y-74735000D03*
X126575000Y-76005000D03*
%TD*%
D41*
%TO.C,C2*%
X83212500Y-112500000D03*
X85287500Y-112500000D03*
%TD*%
D13*
%TO.C,C4*%
X96862500Y-72500000D03*
X95137500Y-72500000D03*
%TD*%
D42*
%TO.C,C1*%
X92000000Y-86637500D03*
X92000000Y-88362500D03*
%TD*%
D31*
%TO.C,REF3*%
X138000000Y-76250000D03*
%TD*%
D36*
%TO.C,C5*%
X108137500Y-91750000D03*
X109862500Y-91750000D03*
%TD*%
D41*
%TO.C,C17*%
X87212500Y-82500000D03*
X89287500Y-82500000D03*
%TD*%
D17*
%TO.C,R4*%
X77015000Y-81750000D03*
X75190000Y-81750000D03*
%TD*%
D37*
%TO.C,C20*%
X83750000Y-108462500D03*
X83750000Y-110537500D03*
%TD*%
D43*
%TO.C,J5*%
X102000000Y-65000000D03*
D44*
X104000000Y-65000000D03*
X106000000Y-65000000D03*
X108000000Y-65000000D03*
X110000000Y-65000000D03*
X112000000Y-65000000D03*
X114000000Y-65000000D03*
X116000000Y-65000000D03*
%TD*%
D36*
%TO.C,C10*%
X113025000Y-83750000D03*
X114750000Y-83750000D03*
%TD*%
D16*
%TO.C,R9*%
X79587500Y-106000000D03*
X81412500Y-106000000D03*
%TD*%
D45*
%TO.C,U2*%
X86000000Y-105400000D03*
X88000000Y-105400000D03*
X90000000Y-105400000D03*
X92000000Y-105400000D03*
X94000000Y-105400000D03*
X96000000Y-105400000D03*
X98000000Y-105400000D03*
X100000000Y-105400000D03*
X100000000Y-90600000D03*
X98000000Y-90600000D03*
X96000000Y-90600000D03*
X94000000Y-90600000D03*
X92000000Y-90600000D03*
X90000000Y-90600000D03*
X88000000Y-90600000D03*
X86000000Y-90600000D03*
%TD*%
D42*
%TO.C,C16*%
X124670000Y-74022500D03*
X124670000Y-75747500D03*
%TD*%
D46*
%TO.C,PS2*%
X86750000Y-84550000D03*
X86750000Y-85500000D03*
X86750000Y-86450000D03*
X89250000Y-86450000D03*
X89250000Y-84550000D03*
%TD*%
D36*
%TO.C,C12*%
X98137500Y-77750000D03*
X99862500Y-77750000D03*
%TD*%
D42*
%TO.C,C11*%
X101500000Y-69637500D03*
X101500000Y-71362500D03*
%TD*%
D47*
%TO.C,J1*%
X109000000Y-98000000D03*
D48*
X106460000Y-100540000D03*
X111540000Y-95460000D03*
X106460000Y-95460000D03*
X111540000Y-100540000D03*
%TD*%
M02*
