%TF.GenerationSoftware,KiCad,Pcbnew,(5.99.0-12717-g57c7d663b0)*%
%TF.CreationDate,2021-10-22T11:26:34+02:00*%
%TF.ProjectId,Main_PCB,4d61696e-5f50-4434-922e-6b696361645f,rev?*%
%TF.SameCoordinates,Original*%
%TF.FileFunction,Soldermask,Bot*%
%TF.FilePolarity,Negative*%
%FSLAX46Y46*%
G04 Gerber Fmt 4.6, Leading zero omitted, Abs format (unit mm)*
G04 Created by KiCad (PCBNEW (5.99.0-12717-g57c7d663b0)) date 2021-10-22 11:26:34*
%MOMM*%
%LPD*%
G01*
G04 APERTURE LIST*
G04 Aperture macros list*
%AMRoundRect*
0 Rectangle with rounded corners*
0 $1 Rounding radius*
0 $2 $3 $4 $5 $6 $7 $8 $9 X,Y pos of 4 corners*
0 Add a 4 corners polygon primitive as box body*
4,1,4,$2,$3,$4,$5,$6,$7,$8,$9,$2,$3,0*
0 Add four circle primitives for the rounded corners*
1,1,$1+$1,$2,$3*
1,1,$1+$1,$4,$5*
1,1,$1+$1,$6,$7*
1,1,$1+$1,$8,$9*
0 Add four rect primitives between the rounded corners*
20,1,$1+$1,$2,$3,$4,$5,0*
20,1,$1+$1,$4,$5,$6,$7,0*
20,1,$1+$1,$6,$7,$8,$9,0*
20,1,$1+$1,$8,$9,$2,$3,0*%
G04 Aperture macros list end*
%ADD10RoundRect,0.250000X-0.550000X0.550000X-0.550000X-0.550000X0.550000X-0.550000X0.550000X0.550000X0*%
%ADD11C,1.600000*%
%ADD12RoundRect,0.250000X0.550000X-0.550000X0.550000X0.550000X-0.550000X0.550000X-0.550000X-0.550000X0*%
%ADD13RoundRect,0.250000X-0.600000X0.600000X-0.600000X-0.600000X0.600000X-0.600000X0.600000X0.600000X0*%
%ADD14C,1.700000*%
%ADD15C,0.650000*%
%ADD16O,1.600000X1.000000*%
%ADD17O,2.100000X1.000000*%
%ADD18C,3.200000*%
%ADD19R,1.700000X1.700000*%
%ADD20O,1.700000X1.700000*%
%ADD21RoundRect,0.250000X-0.350000X-0.650000X0.350000X-0.650000X0.350000X0.650000X-0.350000X0.650000X0*%
%ADD22O,1.200000X1.800000*%
%ADD23C,2.050000*%
%ADD24C,2.250000*%
G04 APERTURE END LIST*
D10*
%TO.C,REF\u002A\u002A*%
X147000000Y-71250000D03*
D11*
X147000000Y-74850000D03*
X147000000Y-78450000D03*
X147000000Y-82050000D03*
%TD*%
D12*
%TO.C,REF\u002A\u002A*%
X147000000Y-124750000D03*
D11*
X147000000Y-121150000D03*
X147000000Y-117550000D03*
X147000000Y-113950000D03*
X147000000Y-110350000D03*
%TD*%
D13*
%TO.C,J2*%
X111500000Y-127000000D03*
D14*
X111500000Y-129540000D03*
X108960000Y-127000000D03*
X108960000Y-129540000D03*
X106420000Y-127000000D03*
X106420000Y-129540000D03*
%TD*%
D15*
%TO.C,J3*%
X75400000Y-91640000D03*
X75400000Y-85860000D03*
D16*
X71750000Y-84430000D03*
D17*
X75930000Y-84430000D03*
X75930000Y-93070000D03*
D16*
X71750000Y-93070000D03*
%TD*%
D14*
%TO.C,U6*%
X127450000Y-80220000D03*
X127450000Y-82760000D03*
X127450000Y-85300000D03*
X127450000Y-87840000D03*
X127450000Y-90380000D03*
X127450000Y-92920000D03*
X127450000Y-95460000D03*
X127450000Y-98000000D03*
X127450000Y-100540000D03*
X127450000Y-103080000D03*
X127450000Y-105620000D03*
X127450000Y-108160000D03*
X127450000Y-110700000D03*
X127450000Y-113240000D03*
X127450000Y-115780000D03*
X142690000Y-115780000D03*
X142690000Y-113240000D03*
X142690000Y-110700000D03*
X142690000Y-108160000D03*
X142690000Y-105620000D03*
X142690000Y-103080000D03*
X142690000Y-100540000D03*
X142690000Y-98000000D03*
X142690000Y-95460000D03*
X142690000Y-92920000D03*
X142690000Y-90380000D03*
X142690000Y-87840000D03*
X142690000Y-85300000D03*
X142690000Y-82760000D03*
X142690000Y-80220000D03*
%TD*%
D18*
%TO.C,REF2*%
X80000000Y-119750000D03*
%TD*%
D19*
%TO.C,J4*%
X106500000Y-110000000D03*
D20*
X109040000Y-110000000D03*
X111580000Y-110000000D03*
%TD*%
D18*
%TO.C,REF4*%
X138000000Y-119750000D03*
%TD*%
%TO.C,REF1*%
X80000000Y-76250000D03*
%TD*%
%TO.C,REF3*%
X138000000Y-76250000D03*
%TD*%
D21*
%TO.C,J5*%
X102000000Y-65000000D03*
D22*
X104000000Y-65000000D03*
X106000000Y-65000000D03*
X108000000Y-65000000D03*
X110000000Y-65000000D03*
X112000000Y-65000000D03*
X114000000Y-65000000D03*
X116000000Y-65000000D03*
%TD*%
D23*
%TO.C,J1*%
X109000000Y-98000000D03*
D24*
X106460000Y-100540000D03*
X111540000Y-95460000D03*
X106460000Y-95460000D03*
X111540000Y-100540000D03*
%TD*%
M02*
