%TF.GenerationSoftware,KiCad,Pcbnew,5.99.0-unknown-36d11f745e~142~ubuntu20.04.1*%
%TF.CreationDate,2021-10-28T09:57:52+02:00*%
%TF.ProjectId,Main_PCB_2,4d61696e-5f50-4434-925f-322e6b696361,rev?*%
%TF.SameCoordinates,Original*%
%TF.FileFunction,Legend,Top*%
%TF.FilePolarity,Positive*%
%FSLAX46Y46*%
G04 Gerber Fmt 4.6, Leading zero omitted, Abs format (unit mm)*
G04 Created by KiCad (PCBNEW 5.99.0-unknown-36d11f745e~142~ubuntu20.04.1) date 2021-10-28 09:57:52*
%MOMM*%
%LPD*%
G01*
G04 APERTURE LIST*
%ADD10C,0.150000*%
%ADD11C,0.254000*%
%ADD12C,0.120000*%
%ADD13C,0.100000*%
%ADD14C,0.200000*%
%ADD15C,0.010000*%
G04 APERTURE END LIST*
D10*
X113928571Y-109928571D02*
X114071428Y-109976190D01*
X114119047Y-110023809D01*
X114166666Y-110119047D01*
X114166666Y-110261904D01*
X114119047Y-110357142D01*
X114071428Y-110404761D01*
X113976190Y-110452380D01*
X113595238Y-110452380D01*
X113595238Y-109452380D01*
X113928571Y-109452380D01*
X114023809Y-109500000D01*
X114071428Y-109547619D01*
X114119047Y-109642857D01*
X114119047Y-109738095D01*
X114071428Y-109833333D01*
X114023809Y-109880952D01*
X113928571Y-109928571D01*
X113595238Y-109928571D01*
X115023809Y-110452380D02*
X115023809Y-109928571D01*
X114976190Y-109833333D01*
X114880952Y-109785714D01*
X114690476Y-109785714D01*
X114595238Y-109833333D01*
X115023809Y-110404761D02*
X114928571Y-110452380D01*
X114690476Y-110452380D01*
X114595238Y-110404761D01*
X114547619Y-110309523D01*
X114547619Y-110214285D01*
X114595238Y-110119047D01*
X114690476Y-110071428D01*
X114928571Y-110071428D01*
X115023809Y-110023809D01*
X115357142Y-109785714D02*
X115738095Y-109785714D01*
X115500000Y-109452380D02*
X115500000Y-110309523D01*
X115547619Y-110404761D01*
X115642857Y-110452380D01*
X115738095Y-110452380D01*
X115928571Y-109785714D02*
X116309523Y-109785714D01*
X116071428Y-109452380D02*
X116071428Y-110309523D01*
X116119047Y-110404761D01*
X116214285Y-110452380D01*
X116309523Y-110452380D01*
X117023809Y-110404761D02*
X116928571Y-110452380D01*
X116738095Y-110452380D01*
X116642857Y-110404761D01*
X116595238Y-110309523D01*
X116595238Y-109928571D01*
X116642857Y-109833333D01*
X116738095Y-109785714D01*
X116928571Y-109785714D01*
X117023809Y-109833333D01*
X117071428Y-109928571D01*
X117071428Y-110023809D01*
X116595238Y-110119047D01*
X117500000Y-110452380D02*
X117500000Y-109785714D01*
X117500000Y-109976190D02*
X117547619Y-109880952D01*
X117595238Y-109833333D01*
X117690476Y-109785714D01*
X117785714Y-109785714D01*
X118023809Y-109785714D02*
X118261904Y-110452380D01*
X118500000Y-109785714D02*
X118261904Y-110452380D01*
X118166666Y-110690476D01*
X118119047Y-110738095D01*
X118023809Y-110785714D01*
X143857142Y-75202380D02*
X143380952Y-75202380D01*
X143380952Y-74202380D01*
X144190476Y-74678571D02*
X144523809Y-74678571D01*
X144666666Y-75202380D02*
X144190476Y-75202380D01*
X144190476Y-74202380D01*
X144666666Y-74202380D01*
X145095238Y-75202380D02*
X145095238Y-74202380D01*
X145333333Y-74202380D01*
X145476190Y-74250000D01*
X145571428Y-74345238D01*
X145619047Y-74440476D01*
X145666666Y-74630952D01*
X145666666Y-74773809D01*
X145619047Y-74964285D01*
X145571428Y-75059523D01*
X145476190Y-75154761D01*
X145333333Y-75202380D01*
X145095238Y-75202380D01*
X117642857Y-128647380D02*
X118214285Y-128647380D01*
X117928571Y-129647380D02*
X117928571Y-128647380D01*
X118690476Y-129647380D02*
X118595238Y-129599761D01*
X118547619Y-129552142D01*
X118500000Y-129456904D01*
X118500000Y-129171190D01*
X118547619Y-129075952D01*
X118595238Y-129028333D01*
X118690476Y-128980714D01*
X118833333Y-128980714D01*
X118928571Y-129028333D01*
X118976190Y-129075952D01*
X119023809Y-129171190D01*
X119023809Y-129456904D01*
X118976190Y-129552142D01*
X118928571Y-129599761D01*
X118833333Y-129647380D01*
X118690476Y-129647380D01*
X120214285Y-129647380D02*
X120214285Y-128980714D01*
X120214285Y-129075952D02*
X120261904Y-129028333D01*
X120357142Y-128980714D01*
X120500000Y-128980714D01*
X120595238Y-129028333D01*
X120642857Y-129123571D01*
X120642857Y-129647380D01*
X120642857Y-129123571D02*
X120690476Y-129028333D01*
X120785714Y-128980714D01*
X120928571Y-128980714D01*
X121023809Y-129028333D01*
X121071428Y-129123571D01*
X121071428Y-129647380D01*
X121690476Y-129647380D02*
X121595238Y-129599761D01*
X121547619Y-129552142D01*
X121500000Y-129456904D01*
X121500000Y-129171190D01*
X121547619Y-129075952D01*
X121595238Y-129028333D01*
X121690476Y-128980714D01*
X121833333Y-128980714D01*
X121928571Y-129028333D01*
X121976190Y-129075952D01*
X122023809Y-129171190D01*
X122023809Y-129456904D01*
X121976190Y-129552142D01*
X121928571Y-129599761D01*
X121833333Y-129647380D01*
X121690476Y-129647380D01*
X122452380Y-129647380D02*
X122452380Y-128980714D01*
X122452380Y-128647380D02*
X122404761Y-128695000D01*
X122452380Y-128742619D01*
X122500000Y-128695000D01*
X122452380Y-128647380D01*
X122452380Y-128742619D01*
X122880952Y-129599761D02*
X122976190Y-129647380D01*
X123166666Y-129647380D01*
X123261904Y-129599761D01*
X123309523Y-129504523D01*
X123309523Y-129456904D01*
X123261904Y-129361666D01*
X123166666Y-129314047D01*
X123023809Y-129314047D01*
X122928571Y-129266428D01*
X122880952Y-129171190D01*
X122880952Y-129123571D01*
X122928571Y-129028333D01*
X123023809Y-128980714D01*
X123166666Y-128980714D01*
X123261904Y-129028333D01*
X123595238Y-128980714D02*
X123976190Y-128980714D01*
X123738095Y-128647380D02*
X123738095Y-129504523D01*
X123785714Y-129599761D01*
X123880952Y-129647380D01*
X123976190Y-129647380D01*
X124738095Y-128980714D02*
X124738095Y-129647380D01*
X124309523Y-128980714D02*
X124309523Y-129504523D01*
X124357142Y-129599761D01*
X124452380Y-129647380D01*
X124595238Y-129647380D01*
X124690476Y-129599761D01*
X124738095Y-129552142D01*
X125214285Y-129647380D02*
X125214285Y-128980714D01*
X125214285Y-129171190D02*
X125261904Y-129075952D01*
X125309523Y-129028333D01*
X125404761Y-128980714D01*
X125500000Y-128980714D01*
X126214285Y-129599761D02*
X126119047Y-129647380D01*
X125928571Y-129647380D01*
X125833333Y-129599761D01*
X125785714Y-129504523D01*
X125785714Y-129123571D01*
X125833333Y-129028333D01*
X125928571Y-128980714D01*
X126119047Y-128980714D01*
X126214285Y-129028333D01*
X126261904Y-129123571D01*
X126261904Y-129218809D01*
X125785714Y-129314047D01*
X119738095Y-131209761D02*
X119833333Y-131257380D01*
X120023809Y-131257380D01*
X120119047Y-131209761D01*
X120166666Y-131114523D01*
X120166666Y-131066904D01*
X120119047Y-130971666D01*
X120023809Y-130924047D01*
X119880952Y-130924047D01*
X119785714Y-130876428D01*
X119738095Y-130781190D01*
X119738095Y-130733571D01*
X119785714Y-130638333D01*
X119880952Y-130590714D01*
X120023809Y-130590714D01*
X120119047Y-130638333D01*
X120976190Y-131209761D02*
X120880952Y-131257380D01*
X120690476Y-131257380D01*
X120595238Y-131209761D01*
X120547619Y-131114523D01*
X120547619Y-130733571D01*
X120595238Y-130638333D01*
X120690476Y-130590714D01*
X120880952Y-130590714D01*
X120976190Y-130638333D01*
X121023809Y-130733571D01*
X121023809Y-130828809D01*
X120547619Y-130924047D01*
X121452380Y-130590714D02*
X121452380Y-131257380D01*
X121452380Y-130685952D02*
X121500000Y-130638333D01*
X121595238Y-130590714D01*
X121738095Y-130590714D01*
X121833333Y-130638333D01*
X121880952Y-130733571D01*
X121880952Y-131257380D01*
X122309523Y-131209761D02*
X122404761Y-131257380D01*
X122595238Y-131257380D01*
X122690476Y-131209761D01*
X122738095Y-131114523D01*
X122738095Y-131066904D01*
X122690476Y-130971666D01*
X122595238Y-130924047D01*
X122452380Y-130924047D01*
X122357142Y-130876428D01*
X122309523Y-130781190D01*
X122309523Y-130733571D01*
X122357142Y-130638333D01*
X122452380Y-130590714D01*
X122595238Y-130590714D01*
X122690476Y-130638333D01*
X123309523Y-131257380D02*
X123214285Y-131209761D01*
X123166666Y-131162142D01*
X123119047Y-131066904D01*
X123119047Y-130781190D01*
X123166666Y-130685952D01*
X123214285Y-130638333D01*
X123309523Y-130590714D01*
X123452380Y-130590714D01*
X123547619Y-130638333D01*
X123595238Y-130685952D01*
X123642857Y-130781190D01*
X123642857Y-131066904D01*
X123595238Y-131162142D01*
X123547619Y-131209761D01*
X123452380Y-131257380D01*
X123309523Y-131257380D01*
X124071428Y-131257380D02*
X124071428Y-130590714D01*
X124071428Y-130781190D02*
X124119047Y-130685952D01*
X124166666Y-130638333D01*
X124261904Y-130590714D01*
X124357142Y-130590714D01*
X144452380Y-79583333D02*
X145452380Y-79250000D01*
X144452380Y-78916666D01*
X145357142Y-78011904D02*
X145404761Y-78059523D01*
X145452380Y-78202380D01*
X145452380Y-78297619D01*
X145404761Y-78440476D01*
X145309523Y-78535714D01*
X145214285Y-78583333D01*
X145023809Y-78630952D01*
X144880952Y-78630952D01*
X144690476Y-78583333D01*
X144595238Y-78535714D01*
X144500000Y-78440476D01*
X144452380Y-78297619D01*
X144452380Y-78202380D01*
X144500000Y-78059523D01*
X144547619Y-78011904D01*
X145357142Y-77011904D02*
X145404761Y-77059523D01*
X145452380Y-77202380D01*
X145452380Y-77297619D01*
X145404761Y-77440476D01*
X145309523Y-77535714D01*
X145214285Y-77583333D01*
X145023809Y-77630952D01*
X144880952Y-77630952D01*
X144690476Y-77583333D01*
X144595238Y-77535714D01*
X144500000Y-77440476D01*
X144452380Y-77297619D01*
X144452380Y-77202380D01*
X144500000Y-77059523D01*
X144547619Y-77011904D01*
X143035714Y-118154761D02*
X143178571Y-118202380D01*
X143416666Y-118202380D01*
X143511904Y-118154761D01*
X143559523Y-118107142D01*
X143607142Y-118011904D01*
X143607142Y-117916666D01*
X143559523Y-117821428D01*
X143511904Y-117773809D01*
X143416666Y-117726190D01*
X143226190Y-117678571D01*
X143130952Y-117630952D01*
X143083333Y-117583333D01*
X143035714Y-117488095D01*
X143035714Y-117392857D01*
X143083333Y-117297619D01*
X143130952Y-117250000D01*
X143226190Y-117202380D01*
X143464285Y-117202380D01*
X143607142Y-117250000D01*
X144035714Y-118202380D02*
X144035714Y-117202380D01*
X144273809Y-117202380D01*
X144416666Y-117250000D01*
X144511904Y-117345238D01*
X144559523Y-117440476D01*
X144607142Y-117630952D01*
X144607142Y-117773809D01*
X144559523Y-117964285D01*
X144511904Y-118059523D01*
X144416666Y-118154761D01*
X144273809Y-118202380D01*
X144035714Y-118202380D01*
X144988095Y-117916666D02*
X145464285Y-117916666D01*
X144892857Y-118202380D02*
X145226190Y-117202380D01*
X145559523Y-118202380D01*
X144500000Y-111261904D02*
X144452380Y-111357142D01*
X144452380Y-111500000D01*
X144500000Y-111642857D01*
X144595238Y-111738095D01*
X144690476Y-111785714D01*
X144880952Y-111833333D01*
X145023809Y-111833333D01*
X145214285Y-111785714D01*
X145309523Y-111738095D01*
X145404761Y-111642857D01*
X145452380Y-111500000D01*
X145452380Y-111404761D01*
X145404761Y-111261904D01*
X145357142Y-111214285D01*
X145023809Y-111214285D01*
X145023809Y-111404761D01*
X145452380Y-110785714D02*
X144452380Y-110785714D01*
X145452380Y-110214285D01*
X144452380Y-110214285D01*
X145452380Y-109738095D02*
X144452380Y-109738095D01*
X144452380Y-109500000D01*
X144500000Y-109357142D01*
X144595238Y-109261904D01*
X144690476Y-109214285D01*
X144880952Y-109166666D01*
X145023809Y-109166666D01*
X145214285Y-109214285D01*
X145309523Y-109261904D01*
X145404761Y-109357142D01*
X145452380Y-109500000D01*
X145452380Y-109738095D01*
X74047619Y-116452380D02*
X73714285Y-115976190D01*
X73476190Y-116452380D02*
X73476190Y-115452380D01*
X73857142Y-115452380D01*
X73952380Y-115500000D01*
X74000000Y-115547619D01*
X74047619Y-115642857D01*
X74047619Y-115785714D01*
X74000000Y-115880952D01*
X73952380Y-115928571D01*
X73857142Y-115976190D01*
X73476190Y-115976190D01*
X74476190Y-115928571D02*
X74809523Y-115928571D01*
X74952380Y-116452380D02*
X74476190Y-116452380D01*
X74476190Y-115452380D01*
X74952380Y-115452380D01*
X75333333Y-116404761D02*
X75476190Y-116452380D01*
X75714285Y-116452380D01*
X75809523Y-116404761D01*
X75857142Y-116357142D01*
X75904761Y-116261904D01*
X75904761Y-116166666D01*
X75857142Y-116071428D01*
X75809523Y-116023809D01*
X75714285Y-115976190D01*
X75523809Y-115928571D01*
X75428571Y-115880952D01*
X75380952Y-115833333D01*
X75333333Y-115738095D01*
X75333333Y-115642857D01*
X75380952Y-115547619D01*
X75428571Y-115500000D01*
X75523809Y-115452380D01*
X75761904Y-115452380D01*
X75904761Y-115500000D01*
X76333333Y-115928571D02*
X76666666Y-115928571D01*
X76809523Y-116452380D02*
X76333333Y-116452380D01*
X76333333Y-115452380D01*
X76809523Y-115452380D01*
X77095238Y-115452380D02*
X77666666Y-115452380D01*
X77380952Y-116452380D02*
X77380952Y-115452380D01*
X144452380Y-115333333D02*
X145452380Y-115000000D01*
X144452380Y-114666666D01*
X145357142Y-113761904D02*
X145404761Y-113809523D01*
X145452380Y-113952380D01*
X145452380Y-114047619D01*
X145404761Y-114190476D01*
X145309523Y-114285714D01*
X145214285Y-114333333D01*
X145023809Y-114380952D01*
X144880952Y-114380952D01*
X144690476Y-114333333D01*
X144595238Y-114285714D01*
X144500000Y-114190476D01*
X144452380Y-114047619D01*
X144452380Y-113952380D01*
X144500000Y-113809523D01*
X144547619Y-113761904D01*
X145357142Y-112761904D02*
X145404761Y-112809523D01*
X145452380Y-112952380D01*
X145452380Y-113047619D01*
X145404761Y-113190476D01*
X145309523Y-113285714D01*
X145214285Y-113333333D01*
X145023809Y-113380952D01*
X144880952Y-113380952D01*
X144690476Y-113333333D01*
X144595238Y-113285714D01*
X144500000Y-113190476D01*
X144452380Y-113047619D01*
X144452380Y-112952380D01*
X144500000Y-112809523D01*
X144547619Y-112761904D01*
X88976190Y-123647380D02*
X88976190Y-124361666D01*
X88928571Y-124504523D01*
X88833333Y-124599761D01*
X88690476Y-124647380D01*
X88595238Y-124647380D01*
X89452380Y-124266428D02*
X90214285Y-124266428D01*
X91166666Y-124647380D02*
X90690476Y-124647380D01*
X90690476Y-123647380D01*
X91500000Y-124647380D02*
X91500000Y-123980714D01*
X91500000Y-123647380D02*
X91452380Y-123695000D01*
X91500000Y-123742619D01*
X91547619Y-123695000D01*
X91500000Y-123647380D01*
X91500000Y-123742619D01*
X91976190Y-123980714D02*
X91976190Y-124647380D01*
X91976190Y-124075952D02*
X92023809Y-124028333D01*
X92119047Y-123980714D01*
X92261904Y-123980714D01*
X92357142Y-124028333D01*
X92404761Y-124123571D01*
X92404761Y-124647380D01*
X92880952Y-124647380D02*
X92880952Y-123647380D01*
X92976190Y-124266428D02*
X93261904Y-124647380D01*
X93261904Y-123980714D02*
X92880952Y-124361666D01*
X94452380Y-123980714D02*
X94452380Y-124980714D01*
X94452380Y-124028333D02*
X94547619Y-123980714D01*
X94738095Y-123980714D01*
X94833333Y-124028333D01*
X94880952Y-124075952D01*
X94928571Y-124171190D01*
X94928571Y-124456904D01*
X94880952Y-124552142D01*
X94833333Y-124599761D01*
X94738095Y-124647380D01*
X94547619Y-124647380D01*
X94452380Y-124599761D01*
X95357142Y-124647380D02*
X95357142Y-123980714D01*
X95357142Y-124171190D02*
X95404761Y-124075952D01*
X95452380Y-124028333D01*
X95547619Y-123980714D01*
X95642857Y-123980714D01*
X96119047Y-124647380D02*
X96023809Y-124599761D01*
X95976190Y-124552142D01*
X95928571Y-124456904D01*
X95928571Y-124171190D01*
X95976190Y-124075952D01*
X96023809Y-124028333D01*
X96119047Y-123980714D01*
X96261904Y-123980714D01*
X96357142Y-124028333D01*
X96404761Y-124075952D01*
X96452380Y-124171190D01*
X96452380Y-124456904D01*
X96404761Y-124552142D01*
X96357142Y-124599761D01*
X96261904Y-124647380D01*
X96119047Y-124647380D01*
X97309523Y-123980714D02*
X97309523Y-124790238D01*
X97261904Y-124885476D01*
X97214285Y-124933095D01*
X97119047Y-124980714D01*
X96976190Y-124980714D01*
X96880952Y-124933095D01*
X97309523Y-124599761D02*
X97214285Y-124647380D01*
X97023809Y-124647380D01*
X96928571Y-124599761D01*
X96880952Y-124552142D01*
X96833333Y-124456904D01*
X96833333Y-124171190D01*
X96880952Y-124075952D01*
X96928571Y-124028333D01*
X97023809Y-123980714D01*
X97214285Y-123980714D01*
X97309523Y-124028333D01*
X91738095Y-125590714D02*
X91738095Y-126590714D01*
X91738095Y-125638333D02*
X91833333Y-125590714D01*
X92023809Y-125590714D01*
X92119047Y-125638333D01*
X92166666Y-125685952D01*
X92214285Y-125781190D01*
X92214285Y-126066904D01*
X92166666Y-126162142D01*
X92119047Y-126209761D01*
X92023809Y-126257380D01*
X91833333Y-126257380D01*
X91738095Y-126209761D01*
X92785714Y-126257380D02*
X92690476Y-126209761D01*
X92642857Y-126162142D01*
X92595238Y-126066904D01*
X92595238Y-125781190D01*
X92642857Y-125685952D01*
X92690476Y-125638333D01*
X92785714Y-125590714D01*
X92928571Y-125590714D01*
X93023809Y-125638333D01*
X93071428Y-125685952D01*
X93119047Y-125781190D01*
X93119047Y-126066904D01*
X93071428Y-126162142D01*
X93023809Y-126209761D01*
X92928571Y-126257380D01*
X92785714Y-126257380D01*
X93547619Y-126257380D02*
X93547619Y-125590714D01*
X93547619Y-125781190D02*
X93595238Y-125685952D01*
X93642857Y-125638333D01*
X93738095Y-125590714D01*
X93833333Y-125590714D01*
X94023809Y-125590714D02*
X94404761Y-125590714D01*
X94166666Y-125257380D02*
X94166666Y-126114523D01*
X94214285Y-126209761D01*
X94309523Y-126257380D01*
X94404761Y-126257380D01*
X102238095Y-109452380D02*
X102238095Y-110261904D01*
X102285714Y-110357142D01*
X102333333Y-110404761D01*
X102428571Y-110452380D01*
X102619047Y-110452380D01*
X102714285Y-110404761D01*
X102761904Y-110357142D01*
X102809523Y-110261904D01*
X102809523Y-109452380D01*
X103238095Y-110404761D02*
X103380952Y-110452380D01*
X103619047Y-110452380D01*
X103714285Y-110404761D01*
X103761904Y-110357142D01*
X103809523Y-110261904D01*
X103809523Y-110166666D01*
X103761904Y-110071428D01*
X103714285Y-110023809D01*
X103619047Y-109976190D01*
X103428571Y-109928571D01*
X103333333Y-109880952D01*
X103285714Y-109833333D01*
X103238095Y-109738095D01*
X103238095Y-109642857D01*
X103285714Y-109547619D01*
X103333333Y-109500000D01*
X103428571Y-109452380D01*
X103666666Y-109452380D01*
X103809523Y-109500000D01*
X104571428Y-109928571D02*
X104714285Y-109976190D01*
X104761904Y-110023809D01*
X104809523Y-110119047D01*
X104809523Y-110261904D01*
X104761904Y-110357142D01*
X104714285Y-110404761D01*
X104619047Y-110452380D01*
X104238095Y-110452380D01*
X104238095Y-109452380D01*
X104571428Y-109452380D01*
X104666666Y-109500000D01*
X104714285Y-109547619D01*
X104761904Y-109642857D01*
X104761904Y-109738095D01*
X104714285Y-109833333D01*
X104666666Y-109880952D01*
X104571428Y-109928571D01*
X104238095Y-109928571D01*
X144500000Y-82761904D02*
X144452380Y-82857142D01*
X144452380Y-83000000D01*
X144500000Y-83142857D01*
X144595238Y-83238095D01*
X144690476Y-83285714D01*
X144880952Y-83333333D01*
X145023809Y-83333333D01*
X145214285Y-83285714D01*
X145309523Y-83238095D01*
X145404761Y-83142857D01*
X145452380Y-83000000D01*
X145452380Y-82904761D01*
X145404761Y-82761904D01*
X145357142Y-82714285D01*
X145023809Y-82714285D01*
X145023809Y-82904761D01*
X145452380Y-82285714D02*
X144452380Y-82285714D01*
X145452380Y-81714285D01*
X144452380Y-81714285D01*
X145452380Y-81238095D02*
X144452380Y-81238095D01*
X144452380Y-81000000D01*
X144500000Y-80857142D01*
X144595238Y-80761904D01*
X144690476Y-80714285D01*
X144880952Y-80666666D01*
X145023809Y-80666666D01*
X145214285Y-80714285D01*
X145309523Y-80761904D01*
X145404761Y-80857142D01*
X145452380Y-81000000D01*
X145452380Y-81238095D01*
X143059523Y-121654761D02*
X143202380Y-121702380D01*
X143440476Y-121702380D01*
X143535714Y-121654761D01*
X143583333Y-121607142D01*
X143630952Y-121511904D01*
X143630952Y-121416666D01*
X143583333Y-121321428D01*
X143535714Y-121273809D01*
X143440476Y-121226190D01*
X143250000Y-121178571D01*
X143154761Y-121130952D01*
X143107142Y-121083333D01*
X143059523Y-120988095D01*
X143059523Y-120892857D01*
X143107142Y-120797619D01*
X143154761Y-120750000D01*
X143250000Y-120702380D01*
X143488095Y-120702380D01*
X143630952Y-120750000D01*
X144630952Y-121607142D02*
X144583333Y-121654761D01*
X144440476Y-121702380D01*
X144345238Y-121702380D01*
X144202380Y-121654761D01*
X144107142Y-121559523D01*
X144059523Y-121464285D01*
X144011904Y-121273809D01*
X144011904Y-121130952D01*
X144059523Y-120940476D01*
X144107142Y-120845238D01*
X144202380Y-120750000D01*
X144345238Y-120702380D01*
X144440476Y-120702380D01*
X144583333Y-120750000D01*
X144630952Y-120797619D01*
X145535714Y-121702380D02*
X145059523Y-121702380D01*
X145059523Y-120702380D01*
X105309523Y-106785714D02*
X105309523Y-107785714D01*
X105309523Y-106833333D02*
X105404761Y-106785714D01*
X105595238Y-106785714D01*
X105690476Y-106833333D01*
X105738095Y-106880952D01*
X105785714Y-106976190D01*
X105785714Y-107261904D01*
X105738095Y-107357142D01*
X105690476Y-107404761D01*
X105595238Y-107452380D01*
X105404761Y-107452380D01*
X105309523Y-107404761D01*
X106357142Y-107452380D02*
X106261904Y-107404761D01*
X106214285Y-107357142D01*
X106166666Y-107261904D01*
X106166666Y-106976190D01*
X106214285Y-106880952D01*
X106261904Y-106833333D01*
X106357142Y-106785714D01*
X106500000Y-106785714D01*
X106595238Y-106833333D01*
X106642857Y-106880952D01*
X106690476Y-106976190D01*
X106690476Y-107261904D01*
X106642857Y-107357142D01*
X106595238Y-107404761D01*
X106500000Y-107452380D01*
X106357142Y-107452380D01*
X107023809Y-106785714D02*
X107214285Y-107452380D01*
X107404761Y-106976190D01*
X107595238Y-107452380D01*
X107785714Y-106785714D01*
X108547619Y-107404761D02*
X108452380Y-107452380D01*
X108261904Y-107452380D01*
X108166666Y-107404761D01*
X108119047Y-107309523D01*
X108119047Y-106928571D01*
X108166666Y-106833333D01*
X108261904Y-106785714D01*
X108452380Y-106785714D01*
X108547619Y-106833333D01*
X108595238Y-106928571D01*
X108595238Y-107023809D01*
X108119047Y-107119047D01*
X109023809Y-107452380D02*
X109023809Y-106785714D01*
X109023809Y-106976190D02*
X109071428Y-106880952D01*
X109119047Y-106833333D01*
X109214285Y-106785714D01*
X109309523Y-106785714D01*
X110404761Y-107452380D02*
X110404761Y-106785714D01*
X110404761Y-106452380D02*
X110357142Y-106500000D01*
X110404761Y-106547619D01*
X110452380Y-106500000D01*
X110404761Y-106452380D01*
X110404761Y-106547619D01*
X110880952Y-106785714D02*
X110880952Y-107452380D01*
X110880952Y-106880952D02*
X110928571Y-106833333D01*
X111023809Y-106785714D01*
X111166666Y-106785714D01*
X111261904Y-106833333D01*
X111309523Y-106928571D01*
X111309523Y-107452380D01*
X111785714Y-106785714D02*
X111785714Y-107785714D01*
X111785714Y-106833333D02*
X111880952Y-106785714D01*
X112071428Y-106785714D01*
X112166666Y-106833333D01*
X112214285Y-106880952D01*
X112261904Y-106976190D01*
X112261904Y-107261904D01*
X112214285Y-107357142D01*
X112166666Y-107404761D01*
X112071428Y-107452380D01*
X111880952Y-107452380D01*
X111785714Y-107404761D01*
X113119047Y-106785714D02*
X113119047Y-107452380D01*
X112690476Y-106785714D02*
X112690476Y-107309523D01*
X112738095Y-107404761D01*
X112833333Y-107452380D01*
X112976190Y-107452380D01*
X113071428Y-107404761D01*
X113119047Y-107357142D01*
X113452380Y-106785714D02*
X113833333Y-106785714D01*
X113595238Y-106452380D02*
X113595238Y-107309523D01*
X113642857Y-107404761D01*
X113738095Y-107452380D01*
X113833333Y-107452380D01*
X142607142Y-70702380D02*
X142940476Y-71702380D01*
X143273809Y-70702380D01*
X143940476Y-71178571D02*
X144083333Y-71226190D01*
X144130952Y-71273809D01*
X144178571Y-71369047D01*
X144178571Y-71511904D01*
X144130952Y-71607142D01*
X144083333Y-71654761D01*
X143988095Y-71702380D01*
X143607142Y-71702380D01*
X143607142Y-70702380D01*
X143940476Y-70702380D01*
X144035714Y-70750000D01*
X144083333Y-70797619D01*
X144130952Y-70892857D01*
X144130952Y-70988095D01*
X144083333Y-71083333D01*
X144035714Y-71130952D01*
X143940476Y-71178571D01*
X143607142Y-71178571D01*
X144559523Y-71416666D02*
X145035714Y-71416666D01*
X144464285Y-71702380D02*
X144797619Y-70702380D01*
X145130952Y-71702380D01*
X145321428Y-70702380D02*
X145892857Y-70702380D01*
X145607142Y-71702380D02*
X145607142Y-70702380D01*
X140619047Y-124202380D02*
X141238095Y-124202380D01*
X140904761Y-124583333D01*
X141047619Y-124583333D01*
X141142857Y-124630952D01*
X141190476Y-124678571D01*
X141238095Y-124773809D01*
X141238095Y-125011904D01*
X141190476Y-125107142D01*
X141142857Y-125154761D01*
X141047619Y-125202380D01*
X140761904Y-125202380D01*
X140666666Y-125154761D01*
X140619047Y-125107142D01*
X141571428Y-124535714D02*
X141809523Y-125202380D01*
X142047619Y-124535714D01*
X142333333Y-124202380D02*
X142952380Y-124202380D01*
X142619047Y-124583333D01*
X142761904Y-124583333D01*
X142857142Y-124630952D01*
X142904761Y-124678571D01*
X142952380Y-124773809D01*
X142952380Y-125011904D01*
X142904761Y-125107142D01*
X142857142Y-125154761D01*
X142761904Y-125202380D01*
X142476190Y-125202380D01*
X142380952Y-125154761D01*
X142333333Y-125107142D01*
X143380952Y-125202380D02*
X143380952Y-124202380D01*
X143380952Y-124583333D02*
X143476190Y-124535714D01*
X143666666Y-124535714D01*
X143761904Y-124583333D01*
X143809523Y-124630952D01*
X143857142Y-124726190D01*
X143857142Y-125011904D01*
X143809523Y-125107142D01*
X143761904Y-125154761D01*
X143666666Y-125202380D01*
X143476190Y-125202380D01*
X143380952Y-125154761D01*
X144714285Y-125202380D02*
X144714285Y-124678571D01*
X144666666Y-124583333D01*
X144571428Y-124535714D01*
X144380952Y-124535714D01*
X144285714Y-124583333D01*
X144714285Y-125154761D02*
X144619047Y-125202380D01*
X144380952Y-125202380D01*
X144285714Y-125154761D01*
X144238095Y-125059523D01*
X144238095Y-124964285D01*
X144285714Y-124869047D01*
X144380952Y-124821428D01*
X144619047Y-124821428D01*
X144714285Y-124773809D01*
X145047619Y-124535714D02*
X145428571Y-124535714D01*
X145190476Y-124202380D02*
X145190476Y-125059523D01*
X145238095Y-125154761D01*
X145333333Y-125202380D01*
X145428571Y-125202380D01*
X73666666Y-100928571D02*
X73809523Y-100976190D01*
X73857142Y-101023809D01*
X73904761Y-101119047D01*
X73904761Y-101261904D01*
X73857142Y-101357142D01*
X73809523Y-101404761D01*
X73714285Y-101452380D01*
X73333333Y-101452380D01*
X73333333Y-100452380D01*
X73666666Y-100452380D01*
X73761904Y-100500000D01*
X73809523Y-100547619D01*
X73857142Y-100642857D01*
X73857142Y-100738095D01*
X73809523Y-100833333D01*
X73761904Y-100880952D01*
X73666666Y-100928571D01*
X73333333Y-100928571D01*
X74523809Y-100452380D02*
X74714285Y-100452380D01*
X74809523Y-100500000D01*
X74904761Y-100595238D01*
X74952380Y-100785714D01*
X74952380Y-101119047D01*
X74904761Y-101309523D01*
X74809523Y-101404761D01*
X74714285Y-101452380D01*
X74523809Y-101452380D01*
X74428571Y-101404761D01*
X74333333Y-101309523D01*
X74285714Y-101119047D01*
X74285714Y-100785714D01*
X74333333Y-100595238D01*
X74428571Y-100500000D01*
X74523809Y-100452380D01*
X75571428Y-100452380D02*
X75761904Y-100452380D01*
X75857142Y-100500000D01*
X75952380Y-100595238D01*
X76000000Y-100785714D01*
X76000000Y-101119047D01*
X75952380Y-101309523D01*
X75857142Y-101404761D01*
X75761904Y-101452380D01*
X75571428Y-101452380D01*
X75476190Y-101404761D01*
X75380952Y-101309523D01*
X75333333Y-101119047D01*
X75333333Y-100785714D01*
X75380952Y-100595238D01*
X75476190Y-100500000D01*
X75571428Y-100452380D01*
X76285714Y-100452380D02*
X76857142Y-100452380D01*
X76571428Y-101452380D02*
X76571428Y-100452380D01*
X77380952Y-100452380D02*
X77476190Y-100452380D01*
X77571428Y-100500000D01*
X77619047Y-100547619D01*
X77666666Y-100642857D01*
X77714285Y-100833333D01*
X77714285Y-101071428D01*
X77666666Y-101261904D01*
X77619047Y-101357142D01*
X77571428Y-101404761D01*
X77476190Y-101452380D01*
X77380952Y-101452380D01*
X77285714Y-101404761D01*
X77238095Y-101357142D01*
X77190476Y-101261904D01*
X77142857Y-101071428D01*
X77142857Y-100833333D01*
X77190476Y-100642857D01*
X77238095Y-100547619D01*
X77285714Y-100500000D01*
X77380952Y-100452380D01*
%TO.C,C19*%
X81357142Y-85642857D02*
X81404761Y-85690476D01*
X81452380Y-85833333D01*
X81452380Y-85928571D01*
X81404761Y-86071428D01*
X81309523Y-86166666D01*
X81214285Y-86214285D01*
X81023809Y-86261904D01*
X80880952Y-86261904D01*
X80690476Y-86214285D01*
X80595238Y-86166666D01*
X80500000Y-86071428D01*
X80452380Y-85928571D01*
X80452380Y-85833333D01*
X80500000Y-85690476D01*
X80547619Y-85642857D01*
X81452380Y-84690476D02*
X81452380Y-85261904D01*
X81452380Y-84976190D02*
X80452380Y-84976190D01*
X80595238Y-85071428D01*
X80690476Y-85166666D01*
X80738095Y-85261904D01*
X81452380Y-84214285D02*
X81452380Y-84023809D01*
X81404761Y-83928571D01*
X81357142Y-83880952D01*
X81214285Y-83785714D01*
X81023809Y-83738095D01*
X80642857Y-83738095D01*
X80547619Y-83785714D01*
X80500000Y-83833333D01*
X80452380Y-83928571D01*
X80452380Y-84119047D01*
X80500000Y-84214285D01*
X80547619Y-84261904D01*
X80642857Y-84309523D01*
X80880952Y-84309523D01*
X80976190Y-84261904D01*
X81023809Y-84214285D01*
X81071428Y-84119047D01*
X81071428Y-83928571D01*
X81023809Y-83833333D01*
X80976190Y-83785714D01*
X80880952Y-83738095D01*
%TO.C,U7*%
X79738095Y-90602380D02*
X79738095Y-91411904D01*
X79785714Y-91507142D01*
X79833333Y-91554761D01*
X79928571Y-91602380D01*
X80119047Y-91602380D01*
X80214285Y-91554761D01*
X80261904Y-91507142D01*
X80309523Y-91411904D01*
X80309523Y-90602380D01*
X80690476Y-90602380D02*
X81357142Y-90602380D01*
X80928571Y-91602380D01*
%TO.C,C6*%
X75107142Y-75812933D02*
X75154761Y-75860552D01*
X75202380Y-76003409D01*
X75202380Y-76098647D01*
X75154761Y-76241505D01*
X75059523Y-76336743D01*
X74964285Y-76384362D01*
X74773809Y-76431981D01*
X74630952Y-76431981D01*
X74440476Y-76384362D01*
X74345238Y-76336743D01*
X74250000Y-76241505D01*
X74202380Y-76098647D01*
X74202380Y-76003409D01*
X74250000Y-75860552D01*
X74297619Y-75812933D01*
X74202380Y-74955790D02*
X74202380Y-75146267D01*
X74250000Y-75241505D01*
X74297619Y-75289124D01*
X74440476Y-75384362D01*
X74630952Y-75431981D01*
X75011904Y-75431981D01*
X75107142Y-75384362D01*
X75154761Y-75336743D01*
X75202380Y-75241505D01*
X75202380Y-75051028D01*
X75154761Y-74955790D01*
X75107142Y-74908171D01*
X75011904Y-74860552D01*
X74773809Y-74860552D01*
X74678571Y-74908171D01*
X74630952Y-74955790D01*
X74583333Y-75051028D01*
X74583333Y-75241505D01*
X74630952Y-75336743D01*
X74678571Y-75384362D01*
X74773809Y-75431981D01*
%TO.C,C8*%
X117333333Y-72787142D02*
X117285714Y-72834761D01*
X117142857Y-72882380D01*
X117047619Y-72882380D01*
X116904761Y-72834761D01*
X116809523Y-72739523D01*
X116761904Y-72644285D01*
X116714285Y-72453809D01*
X116714285Y-72310952D01*
X116761904Y-72120476D01*
X116809523Y-72025238D01*
X116904761Y-71930000D01*
X117047619Y-71882380D01*
X117142857Y-71882380D01*
X117285714Y-71930000D01*
X117333333Y-71977619D01*
X117904761Y-72310952D02*
X117809523Y-72263333D01*
X117761904Y-72215714D01*
X117714285Y-72120476D01*
X117714285Y-72072857D01*
X117761904Y-71977619D01*
X117809523Y-71930000D01*
X117904761Y-71882380D01*
X118095238Y-71882380D01*
X118190476Y-71930000D01*
X118238095Y-71977619D01*
X118285714Y-72072857D01*
X118285714Y-72120476D01*
X118238095Y-72215714D01*
X118190476Y-72263333D01*
X118095238Y-72310952D01*
X117904761Y-72310952D01*
X117809523Y-72358571D01*
X117761904Y-72406190D01*
X117714285Y-72501428D01*
X117714285Y-72691904D01*
X117761904Y-72787142D01*
X117809523Y-72834761D01*
X117904761Y-72882380D01*
X118095238Y-72882380D01*
X118190476Y-72834761D01*
X118238095Y-72787142D01*
X118285714Y-72691904D01*
X118285714Y-72501428D01*
X118238095Y-72406190D01*
X118190476Y-72358571D01*
X118095238Y-72310952D01*
%TO.C,J2*%
X117802380Y-127103333D02*
X118516666Y-127103333D01*
X118659523Y-127150952D01*
X118754761Y-127246190D01*
X118802380Y-127389047D01*
X118802380Y-127484285D01*
X117897619Y-126674761D02*
X117850000Y-126627142D01*
X117802380Y-126531904D01*
X117802380Y-126293809D01*
X117850000Y-126198571D01*
X117897619Y-126150952D01*
X117992857Y-126103333D01*
X118088095Y-126103333D01*
X118230952Y-126150952D01*
X118802380Y-126722380D01*
X118802380Y-126103333D01*
%TO.C,R8*%
X77583333Y-113202380D02*
X77250000Y-112726190D01*
X77011904Y-113202380D02*
X77011904Y-112202380D01*
X77392857Y-112202380D01*
X77488095Y-112250000D01*
X77535714Y-112297619D01*
X77583333Y-112392857D01*
X77583333Y-112535714D01*
X77535714Y-112630952D01*
X77488095Y-112678571D01*
X77392857Y-112726190D01*
X77011904Y-112726190D01*
X78154761Y-112630952D02*
X78059523Y-112583333D01*
X78011904Y-112535714D01*
X77964285Y-112440476D01*
X77964285Y-112392857D01*
X78011904Y-112297619D01*
X78059523Y-112250000D01*
X78154761Y-112202380D01*
X78345238Y-112202380D01*
X78440476Y-112250000D01*
X78488095Y-112297619D01*
X78535714Y-112392857D01*
X78535714Y-112440476D01*
X78488095Y-112535714D01*
X78440476Y-112583333D01*
X78345238Y-112630952D01*
X78154761Y-112630952D01*
X78059523Y-112678571D01*
X78011904Y-112726190D01*
X77964285Y-112821428D01*
X77964285Y-113011904D01*
X78011904Y-113107142D01*
X78059523Y-113154761D01*
X78154761Y-113202380D01*
X78345238Y-113202380D01*
X78440476Y-113154761D01*
X78488095Y-113107142D01*
X78535714Y-113011904D01*
X78535714Y-112821428D01*
X78488095Y-112726190D01*
X78440476Y-112678571D01*
X78345238Y-112630952D01*
%TO.C,R14*%
X129607142Y-78202380D02*
X129273809Y-77726190D01*
X129035714Y-78202380D02*
X129035714Y-77202380D01*
X129416666Y-77202380D01*
X129511904Y-77250000D01*
X129559523Y-77297619D01*
X129607142Y-77392857D01*
X129607142Y-77535714D01*
X129559523Y-77630952D01*
X129511904Y-77678571D01*
X129416666Y-77726190D01*
X129035714Y-77726190D01*
X130559523Y-78202380D02*
X129988095Y-78202380D01*
X130273809Y-78202380D02*
X130273809Y-77202380D01*
X130178571Y-77345238D01*
X130083333Y-77440476D01*
X129988095Y-77488095D01*
X131416666Y-77535714D02*
X131416666Y-78202380D01*
X131178571Y-77154761D02*
X130940476Y-77869047D01*
X131559523Y-77869047D01*
%TO.C,R6*%
X77583333Y-111952380D02*
X77250000Y-111476190D01*
X77011904Y-111952380D02*
X77011904Y-110952380D01*
X77392857Y-110952380D01*
X77488095Y-111000000D01*
X77535714Y-111047619D01*
X77583333Y-111142857D01*
X77583333Y-111285714D01*
X77535714Y-111380952D01*
X77488095Y-111428571D01*
X77392857Y-111476190D01*
X77011904Y-111476190D01*
X78440476Y-110952380D02*
X78250000Y-110952380D01*
X78154761Y-111000000D01*
X78107142Y-111047619D01*
X78011904Y-111190476D01*
X77964285Y-111380952D01*
X77964285Y-111761904D01*
X78011904Y-111857142D01*
X78059523Y-111904761D01*
X78154761Y-111952380D01*
X78345238Y-111952380D01*
X78440476Y-111904761D01*
X78488095Y-111857142D01*
X78535714Y-111761904D01*
X78535714Y-111523809D01*
X78488095Y-111428571D01*
X78440476Y-111380952D01*
X78345238Y-111333333D01*
X78154761Y-111333333D01*
X78059523Y-111380952D01*
X78011904Y-111428571D01*
X77964285Y-111523809D01*
%TO.C,JP1*%
X87956226Y-119202091D02*
X87956226Y-119916754D01*
X87908582Y-120059687D01*
X87813294Y-120154975D01*
X87670361Y-120202619D01*
X87575073Y-120202619D01*
X88432668Y-120202619D02*
X88432668Y-119202091D01*
X88813822Y-119202091D01*
X88909110Y-119249736D01*
X88956754Y-119297380D01*
X89004398Y-119392668D01*
X89004398Y-119535601D01*
X88956754Y-119630889D01*
X88909110Y-119678533D01*
X88813822Y-119726177D01*
X88432668Y-119726177D01*
X89957282Y-120202619D02*
X89385552Y-120202619D01*
X89671417Y-120202619D02*
X89671417Y-119202091D01*
X89576129Y-119345024D01*
X89480840Y-119440312D01*
X89385552Y-119487956D01*
%TO.C,J3*%
X72062380Y-89083333D02*
X72776666Y-89083333D01*
X72919523Y-89130952D01*
X73014761Y-89226190D01*
X73062380Y-89369047D01*
X73062380Y-89464285D01*
X72062380Y-88702380D02*
X72062380Y-88083333D01*
X72443333Y-88416666D01*
X72443333Y-88273809D01*
X72490952Y-88178571D01*
X72538571Y-88130952D01*
X72633809Y-88083333D01*
X72871904Y-88083333D01*
X72967142Y-88130952D01*
X73014761Y-88178571D01*
X73062380Y-88273809D01*
X73062380Y-88559523D01*
X73014761Y-88654761D01*
X72967142Y-88702380D01*
%TO.C,R11*%
X84022380Y-86142857D02*
X83546190Y-86476190D01*
X84022380Y-86714285D02*
X83022380Y-86714285D01*
X83022380Y-86333333D01*
X83070000Y-86238095D01*
X83117619Y-86190476D01*
X83212857Y-86142857D01*
X83355714Y-86142857D01*
X83450952Y-86190476D01*
X83498571Y-86238095D01*
X83546190Y-86333333D01*
X83546190Y-86714285D01*
X84022380Y-85190476D02*
X84022380Y-85761904D01*
X84022380Y-85476190D02*
X83022380Y-85476190D01*
X83165238Y-85571428D01*
X83260476Y-85666666D01*
X83308095Y-85761904D01*
X84022380Y-84238095D02*
X84022380Y-84809523D01*
X84022380Y-84523809D02*
X83022380Y-84523809D01*
X83165238Y-84619047D01*
X83260476Y-84714285D01*
X83308095Y-84809523D01*
%TO.C,SW2*%
X72666666Y-105404761D02*
X72809523Y-105452380D01*
X73047619Y-105452380D01*
X73142857Y-105404761D01*
X73190476Y-105357142D01*
X73238095Y-105261904D01*
X73238095Y-105166666D01*
X73190476Y-105071428D01*
X73142857Y-105023809D01*
X73047619Y-104976190D01*
X72857142Y-104928571D01*
X72761904Y-104880952D01*
X72714285Y-104833333D01*
X72666666Y-104738095D01*
X72666666Y-104642857D01*
X72714285Y-104547619D01*
X72761904Y-104500000D01*
X72857142Y-104452380D01*
X73095238Y-104452380D01*
X73238095Y-104500000D01*
X73571428Y-104452380D02*
X73809523Y-105452380D01*
X74000000Y-104738095D01*
X74190476Y-105452380D01*
X74428571Y-104452380D01*
X74761904Y-104547619D02*
X74809523Y-104500000D01*
X74904761Y-104452380D01*
X75142857Y-104452380D01*
X75238095Y-104500000D01*
X75285714Y-104547619D01*
X75333333Y-104642857D01*
X75333333Y-104738095D01*
X75285714Y-104880952D01*
X74714285Y-105452380D01*
X75333333Y-105452380D01*
%TO.C,R5*%
X72435833Y-83632380D02*
X72102500Y-83156190D01*
X71864404Y-83632380D02*
X71864404Y-82632380D01*
X72245357Y-82632380D01*
X72340595Y-82680000D01*
X72388214Y-82727619D01*
X72435833Y-82822857D01*
X72435833Y-82965714D01*
X72388214Y-83060952D01*
X72340595Y-83108571D01*
X72245357Y-83156190D01*
X71864404Y-83156190D01*
X73340595Y-82632380D02*
X72864404Y-82632380D01*
X72816785Y-83108571D01*
X72864404Y-83060952D01*
X72959642Y-83013333D01*
X73197738Y-83013333D01*
X73292976Y-83060952D01*
X73340595Y-83108571D01*
X73388214Y-83203809D01*
X73388214Y-83441904D01*
X73340595Y-83537142D01*
X73292976Y-83584761D01*
X73197738Y-83632380D01*
X72959642Y-83632380D01*
X72864404Y-83584761D01*
X72816785Y-83537142D01*
%TO.C,Y1*%
X98976190Y-74726190D02*
X99452380Y-74726190D01*
X98452380Y-75059523D02*
X98976190Y-74726190D01*
X98452380Y-74392857D01*
X99452380Y-73535714D02*
X99452380Y-74107142D01*
X99452380Y-73821428D02*
X98452380Y-73821428D01*
X98595238Y-73916666D01*
X98690476Y-74011904D01*
X98738095Y-74107142D01*
%TO.C,U6*%
X135238095Y-89722380D02*
X135238095Y-90531904D01*
X135285714Y-90627142D01*
X135333333Y-90674761D01*
X135428571Y-90722380D01*
X135619047Y-90722380D01*
X135714285Y-90674761D01*
X135761904Y-90627142D01*
X135809523Y-90531904D01*
X135809523Y-89722380D01*
X136714285Y-89722380D02*
X136523809Y-89722380D01*
X136428571Y-89770000D01*
X136380952Y-89817619D01*
X136285714Y-89960476D01*
X136238095Y-90150952D01*
X136238095Y-90531904D01*
X136285714Y-90627142D01*
X136333333Y-90674761D01*
X136428571Y-90722380D01*
X136619047Y-90722380D01*
X136714285Y-90674761D01*
X136761904Y-90627142D01*
X136809523Y-90531904D01*
X136809523Y-90293809D01*
X136761904Y-90198571D01*
X136714285Y-90150952D01*
X136619047Y-90103333D01*
X136428571Y-90103333D01*
X136333333Y-90150952D01*
X136285714Y-90198571D01*
X136238095Y-90293809D01*
%TO.C,SW1*%
X72666666Y-112404761D02*
X72809523Y-112452380D01*
X73047619Y-112452380D01*
X73142857Y-112404761D01*
X73190476Y-112357142D01*
X73238095Y-112261904D01*
X73238095Y-112166666D01*
X73190476Y-112071428D01*
X73142857Y-112023809D01*
X73047619Y-111976190D01*
X72857142Y-111928571D01*
X72761904Y-111880952D01*
X72714285Y-111833333D01*
X72666666Y-111738095D01*
X72666666Y-111642857D01*
X72714285Y-111547619D01*
X72761904Y-111500000D01*
X72857142Y-111452380D01*
X73095238Y-111452380D01*
X73238095Y-111500000D01*
X73571428Y-111452380D02*
X73809523Y-112452380D01*
X74000000Y-111738095D01*
X74190476Y-112452380D01*
X74428571Y-111452380D01*
X75333333Y-112452380D02*
X74761904Y-112452380D01*
X75047619Y-112452380D02*
X75047619Y-111452380D01*
X74952380Y-111595238D01*
X74857142Y-111690476D01*
X74761904Y-111738095D01*
D11*
%TO.C,IC1*%
X70760238Y-70074523D02*
X70760238Y-68804523D01*
X72090714Y-69953571D02*
X72030238Y-70014047D01*
X71848809Y-70074523D01*
X71727857Y-70074523D01*
X71546428Y-70014047D01*
X71425476Y-69893095D01*
X71365000Y-69772142D01*
X71304523Y-69530238D01*
X71304523Y-69348809D01*
X71365000Y-69106904D01*
X71425476Y-68985952D01*
X71546428Y-68865000D01*
X71727857Y-68804523D01*
X71848809Y-68804523D01*
X72030238Y-68865000D01*
X72090714Y-68925476D01*
X73300238Y-70074523D02*
X72574523Y-70074523D01*
X72937380Y-70074523D02*
X72937380Y-68804523D01*
X72816428Y-68985952D01*
X72695476Y-69106904D01*
X72574523Y-69167380D01*
D10*
%TO.C,R2*%
X94333333Y-107952380D02*
X94000000Y-107476190D01*
X93761904Y-107952380D02*
X93761904Y-106952380D01*
X94142857Y-106952380D01*
X94238095Y-107000000D01*
X94285714Y-107047619D01*
X94333333Y-107142857D01*
X94333333Y-107285714D01*
X94285714Y-107380952D01*
X94238095Y-107428571D01*
X94142857Y-107476190D01*
X93761904Y-107476190D01*
X94714285Y-107047619D02*
X94761904Y-107000000D01*
X94857142Y-106952380D01*
X95095238Y-106952380D01*
X95190476Y-107000000D01*
X95238095Y-107047619D01*
X95285714Y-107142857D01*
X95285714Y-107238095D01*
X95238095Y-107380952D01*
X94666666Y-107952380D01*
X95285714Y-107952380D01*
%TO.C,R3*%
X94333333Y-109952380D02*
X94000000Y-109476190D01*
X93761904Y-109952380D02*
X93761904Y-108952380D01*
X94142857Y-108952380D01*
X94238095Y-109000000D01*
X94285714Y-109047619D01*
X94333333Y-109142857D01*
X94333333Y-109285714D01*
X94285714Y-109380952D01*
X94238095Y-109428571D01*
X94142857Y-109476190D01*
X93761904Y-109476190D01*
X94666666Y-108952380D02*
X95285714Y-108952380D01*
X94952380Y-109333333D01*
X95095238Y-109333333D01*
X95190476Y-109380952D01*
X95238095Y-109428571D01*
X95285714Y-109523809D01*
X95285714Y-109761904D01*
X95238095Y-109857142D01*
X95190476Y-109904761D01*
X95095238Y-109952380D01*
X94809523Y-109952380D01*
X94714285Y-109904761D01*
X94666666Y-109857142D01*
%TO.C,REF\u002A\u002A*%
X147452380Y-87333333D02*
X146976190Y-87666666D01*
X147452380Y-87904761D02*
X146452380Y-87904761D01*
X146452380Y-87523809D01*
X146500000Y-87428571D01*
X146547619Y-87380952D01*
X146642857Y-87333333D01*
X146785714Y-87333333D01*
X146880952Y-87380952D01*
X146928571Y-87428571D01*
X146976190Y-87523809D01*
X146976190Y-87904761D01*
X146928571Y-86904761D02*
X146928571Y-86571428D01*
X147452380Y-86428571D02*
X147452380Y-86904761D01*
X146452380Y-86904761D01*
X146452380Y-86428571D01*
X146928571Y-85666666D02*
X146928571Y-86000000D01*
X147452380Y-86000000D02*
X146452380Y-86000000D01*
X146452380Y-85523809D01*
X146452380Y-85000000D02*
X146690476Y-85000000D01*
X146595238Y-85238095D02*
X146690476Y-85000000D01*
X146595238Y-84761904D01*
X146880952Y-85142857D02*
X146690476Y-85000000D01*
X146880952Y-84857142D01*
X146452380Y-84238095D02*
X146690476Y-84238095D01*
X146595238Y-84476190D02*
X146690476Y-84238095D01*
X146595238Y-84000000D01*
X146880952Y-84380952D02*
X146690476Y-84238095D01*
X146880952Y-84095238D01*
%TO.C,U5*%
X108238095Y-87702380D02*
X108238095Y-88511904D01*
X108285714Y-88607142D01*
X108333333Y-88654761D01*
X108428571Y-88702380D01*
X108619047Y-88702380D01*
X108714285Y-88654761D01*
X108761904Y-88607142D01*
X108809523Y-88511904D01*
X108809523Y-87702380D01*
X109761904Y-87702380D02*
X109285714Y-87702380D01*
X109238095Y-88178571D01*
X109285714Y-88130952D01*
X109380952Y-88083333D01*
X109619047Y-88083333D01*
X109714285Y-88130952D01*
X109761904Y-88178571D01*
X109809523Y-88273809D01*
X109809523Y-88511904D01*
X109761904Y-88607142D01*
X109714285Y-88654761D01*
X109619047Y-88702380D01*
X109380952Y-88702380D01*
X109285714Y-88654761D01*
X109238095Y-88607142D01*
X113766666Y-96552380D02*
X113766666Y-96076190D01*
X114052380Y-96647619D02*
X113052380Y-96314285D01*
X114052380Y-95980952D01*
X113052380Y-95790476D02*
X113052380Y-95219047D01*
X114052380Y-95504761D02*
X113052380Y-95504761D01*
X113528571Y-94885714D02*
X113528571Y-94552380D01*
X114052380Y-94409523D02*
X114052380Y-94885714D01*
X113052380Y-94885714D01*
X113052380Y-94409523D01*
X113957142Y-93409523D02*
X114004761Y-93457142D01*
X114052380Y-93600000D01*
X114052380Y-93695238D01*
X114004761Y-93838095D01*
X113909523Y-93933333D01*
X113814285Y-93980952D01*
X113623809Y-94028571D01*
X113480952Y-94028571D01*
X113290476Y-93980952D01*
X113195238Y-93933333D01*
X113100000Y-93838095D01*
X113052380Y-93695238D01*
X113052380Y-93600000D01*
X113100000Y-93457142D01*
X113147619Y-93409523D01*
X113957142Y-92409523D02*
X114004761Y-92457142D01*
X114052380Y-92600000D01*
X114052380Y-92695238D01*
X114004761Y-92838095D01*
X113909523Y-92933333D01*
X113814285Y-92980952D01*
X113623809Y-93028571D01*
X113480952Y-93028571D01*
X113290476Y-92980952D01*
X113195238Y-92933333D01*
X113100000Y-92838095D01*
X113052380Y-92695238D01*
X113052380Y-92600000D01*
X113100000Y-92457142D01*
X113147619Y-92409523D01*
X113052380Y-91504761D02*
X113052380Y-91980952D01*
X113528571Y-92028571D01*
X113480952Y-91980952D01*
X113433333Y-91885714D01*
X113433333Y-91647619D01*
X113480952Y-91552380D01*
X113528571Y-91504761D01*
X113623809Y-91457142D01*
X113861904Y-91457142D01*
X113957142Y-91504761D01*
X114004761Y-91552380D01*
X114052380Y-91647619D01*
X114052380Y-91885714D01*
X114004761Y-91980952D01*
X113957142Y-92028571D01*
X113052380Y-90838095D02*
X113052380Y-90742857D01*
X113100000Y-90647619D01*
X113147619Y-90600000D01*
X113242857Y-90552380D01*
X113433333Y-90504761D01*
X113671428Y-90504761D01*
X113861904Y-90552380D01*
X113957142Y-90600000D01*
X114004761Y-90647619D01*
X114052380Y-90742857D01*
X114052380Y-90838095D01*
X114004761Y-90933333D01*
X113957142Y-90980952D01*
X113861904Y-91028571D01*
X113671428Y-91076190D01*
X113433333Y-91076190D01*
X113242857Y-91028571D01*
X113147619Y-90980952D01*
X113100000Y-90933333D01*
X113052380Y-90838095D01*
X113480952Y-89933333D02*
X113433333Y-90028571D01*
X113385714Y-90076190D01*
X113290476Y-90123809D01*
X113242857Y-90123809D01*
X113147619Y-90076190D01*
X113100000Y-90028571D01*
X113052380Y-89933333D01*
X113052380Y-89742857D01*
X113100000Y-89647619D01*
X113147619Y-89600000D01*
X113242857Y-89552380D01*
X113290476Y-89552380D01*
X113385714Y-89600000D01*
X113433333Y-89647619D01*
X113480952Y-89742857D01*
X113480952Y-89933333D01*
X113528571Y-90028571D01*
X113576190Y-90076190D01*
X113671428Y-90123809D01*
X113861904Y-90123809D01*
X113957142Y-90076190D01*
X114004761Y-90028571D01*
X114052380Y-89933333D01*
X114052380Y-89742857D01*
X114004761Y-89647619D01*
X113957142Y-89600000D01*
X113861904Y-89552380D01*
X113671428Y-89552380D01*
X113576190Y-89600000D01*
X113528571Y-89647619D01*
X113480952Y-89742857D01*
X113766666Y-89171428D02*
X113766666Y-88695238D01*
X114052380Y-89266666D02*
X113052380Y-88933333D01*
X114052380Y-88600000D01*
X113671428Y-88266666D02*
X113671428Y-87504761D01*
X114004761Y-87076190D02*
X114052380Y-86933333D01*
X114052380Y-86695238D01*
X114004761Y-86600000D01*
X113957142Y-86552380D01*
X113861904Y-86504761D01*
X113766666Y-86504761D01*
X113671428Y-86552380D01*
X113623809Y-86600000D01*
X113576190Y-86695238D01*
X113528571Y-86885714D01*
X113480952Y-86980952D01*
X113433333Y-87028571D01*
X113338095Y-87076190D01*
X113242857Y-87076190D01*
X113147619Y-87028571D01*
X113100000Y-86980952D01*
X113052380Y-86885714D01*
X113052380Y-86647619D01*
X113100000Y-86504761D01*
X114004761Y-86123809D02*
X114052380Y-85980952D01*
X114052380Y-85742857D01*
X114004761Y-85647619D01*
X113957142Y-85600000D01*
X113861904Y-85552380D01*
X113766666Y-85552380D01*
X113671428Y-85600000D01*
X113623809Y-85647619D01*
X113576190Y-85742857D01*
X113528571Y-85933333D01*
X113480952Y-86028571D01*
X113433333Y-86076190D01*
X113338095Y-86123809D01*
X113242857Y-86123809D01*
X113147619Y-86076190D01*
X113100000Y-86028571D01*
X113052380Y-85933333D01*
X113052380Y-85695238D01*
X113100000Y-85552380D01*
X114052380Y-85123809D02*
X113052380Y-85123809D01*
X113528571Y-85123809D02*
X113528571Y-84552380D01*
X114052380Y-84552380D02*
X113052380Y-84552380D01*
X114052380Y-84076190D02*
X113052380Y-84076190D01*
X113052380Y-83838095D01*
X113100000Y-83695238D01*
X113195238Y-83600000D01*
X113290476Y-83552380D01*
X113480952Y-83504761D01*
X113623809Y-83504761D01*
X113814285Y-83552380D01*
X113909523Y-83600000D01*
X114004761Y-83695238D01*
X114052380Y-83838095D01*
X114052380Y-84076190D01*
X113766666Y-83123809D02*
X113766666Y-82647619D01*
X114052380Y-83219047D02*
X113052380Y-82885714D01*
X114052380Y-82552380D01*
X113671428Y-82219047D02*
X113671428Y-81457142D01*
X113052380Y-81123809D02*
X113052380Y-80552380D01*
X114052380Y-80838095D02*
X113052380Y-80838095D01*
%TO.C,J4*%
X108452380Y-112833333D02*
X109166666Y-112833333D01*
X109309523Y-112880952D01*
X109404761Y-112976190D01*
X109452380Y-113119047D01*
X109452380Y-113214285D01*
X108785714Y-111928571D02*
X109452380Y-111928571D01*
X108404761Y-112166666D02*
X109119047Y-112404761D01*
X109119047Y-111785714D01*
%TO.C,U4*%
X108238095Y-74652380D02*
X108238095Y-75461904D01*
X108285714Y-75557142D01*
X108333333Y-75604761D01*
X108428571Y-75652380D01*
X108619047Y-75652380D01*
X108714285Y-75604761D01*
X108761904Y-75557142D01*
X108809523Y-75461904D01*
X108809523Y-74652380D01*
X109714285Y-74985714D02*
X109714285Y-75652380D01*
X109476190Y-74604761D02*
X109238095Y-75319047D01*
X109857142Y-75319047D01*
%TO.C,R7*%
X82833333Y-107702380D02*
X82500000Y-107226190D01*
X82261904Y-107702380D02*
X82261904Y-106702380D01*
X82642857Y-106702380D01*
X82738095Y-106750000D01*
X82785714Y-106797619D01*
X82833333Y-106892857D01*
X82833333Y-107035714D01*
X82785714Y-107130952D01*
X82738095Y-107178571D01*
X82642857Y-107226190D01*
X82261904Y-107226190D01*
X83166666Y-106702380D02*
X83833333Y-106702380D01*
X83404761Y-107702380D01*
%TO.C,C9*%
X104833333Y-83177142D02*
X104785714Y-83224761D01*
X104642857Y-83272380D01*
X104547619Y-83272380D01*
X104404761Y-83224761D01*
X104309523Y-83129523D01*
X104261904Y-83034285D01*
X104214285Y-82843809D01*
X104214285Y-82700952D01*
X104261904Y-82510476D01*
X104309523Y-82415238D01*
X104404761Y-82320000D01*
X104547619Y-82272380D01*
X104642857Y-82272380D01*
X104785714Y-82320000D01*
X104833333Y-82367619D01*
X105309523Y-83272380D02*
X105500000Y-83272380D01*
X105595238Y-83224761D01*
X105642857Y-83177142D01*
X105738095Y-83034285D01*
X105785714Y-82843809D01*
X105785714Y-82462857D01*
X105738095Y-82367619D01*
X105690476Y-82320000D01*
X105595238Y-82272380D01*
X105404761Y-82272380D01*
X105309523Y-82320000D01*
X105261904Y-82367619D01*
X105214285Y-82462857D01*
X105214285Y-82700952D01*
X105261904Y-82796190D01*
X105309523Y-82843809D01*
X105404761Y-82891428D01*
X105595238Y-82891428D01*
X105690476Y-82843809D01*
X105738095Y-82796190D01*
X105785714Y-82700952D01*
%TO.C,C3*%
X93333333Y-70857142D02*
X93285714Y-70904761D01*
X93142857Y-70952380D01*
X93047619Y-70952380D01*
X92904761Y-70904761D01*
X92809523Y-70809523D01*
X92761904Y-70714285D01*
X92714285Y-70523809D01*
X92714285Y-70380952D01*
X92761904Y-70190476D01*
X92809523Y-70095238D01*
X92904761Y-70000000D01*
X93047619Y-69952380D01*
X93142857Y-69952380D01*
X93285714Y-70000000D01*
X93333333Y-70047619D01*
X93666666Y-69952380D02*
X94285714Y-69952380D01*
X93952380Y-70333333D01*
X94095238Y-70333333D01*
X94190476Y-70380952D01*
X94238095Y-70428571D01*
X94285714Y-70523809D01*
X94285714Y-70761904D01*
X94238095Y-70857142D01*
X94190476Y-70904761D01*
X94095238Y-70952380D01*
X93809523Y-70952380D01*
X93714285Y-70904761D01*
X93666666Y-70857142D01*
%TO.C,C13*%
X92957142Y-81042857D02*
X93004761Y-81090476D01*
X93052380Y-81233333D01*
X93052380Y-81328571D01*
X93004761Y-81471428D01*
X92909523Y-81566666D01*
X92814285Y-81614285D01*
X92623809Y-81661904D01*
X92480952Y-81661904D01*
X92290476Y-81614285D01*
X92195238Y-81566666D01*
X92100000Y-81471428D01*
X92052380Y-81328571D01*
X92052380Y-81233333D01*
X92100000Y-81090476D01*
X92147619Y-81042857D01*
X93052380Y-80090476D02*
X93052380Y-80661904D01*
X93052380Y-80376190D02*
X92052380Y-80376190D01*
X92195238Y-80471428D01*
X92290476Y-80566666D01*
X92338095Y-80661904D01*
X92052380Y-79757142D02*
X92052380Y-79138095D01*
X92433333Y-79471428D01*
X92433333Y-79328571D01*
X92480952Y-79233333D01*
X92528571Y-79185714D01*
X92623809Y-79138095D01*
X92861904Y-79138095D01*
X92957142Y-79185714D01*
X93004761Y-79233333D01*
X93052380Y-79328571D01*
X93052380Y-79614285D01*
X93004761Y-79709523D01*
X92957142Y-79757142D01*
%TO.C,R13*%
X94452380Y-80842857D02*
X93976190Y-81176190D01*
X94452380Y-81414285D02*
X93452380Y-81414285D01*
X93452380Y-81033333D01*
X93500000Y-80938095D01*
X93547619Y-80890476D01*
X93642857Y-80842857D01*
X93785714Y-80842857D01*
X93880952Y-80890476D01*
X93928571Y-80938095D01*
X93976190Y-81033333D01*
X93976190Y-81414285D01*
X94452380Y-79890476D02*
X94452380Y-80461904D01*
X94452380Y-80176190D02*
X93452380Y-80176190D01*
X93595238Y-80271428D01*
X93690476Y-80366666D01*
X93738095Y-80461904D01*
X93452380Y-79557142D02*
X93452380Y-78938095D01*
X93833333Y-79271428D01*
X93833333Y-79128571D01*
X93880952Y-79033333D01*
X93928571Y-78985714D01*
X94023809Y-78938095D01*
X94261904Y-78938095D01*
X94357142Y-78985714D01*
X94404761Y-79033333D01*
X94452380Y-79128571D01*
X94452380Y-79414285D01*
X94404761Y-79509523D01*
X94357142Y-79557142D01*
%TO.C,REF\u002A\u002A*%
X147952380Y-105333333D02*
X147476190Y-105666666D01*
X147952380Y-105904761D02*
X146952380Y-105904761D01*
X146952380Y-105523809D01*
X147000000Y-105428571D01*
X147047619Y-105380952D01*
X147142857Y-105333333D01*
X147285714Y-105333333D01*
X147380952Y-105380952D01*
X147428571Y-105428571D01*
X147476190Y-105523809D01*
X147476190Y-105904761D01*
X147428571Y-104904761D02*
X147428571Y-104571428D01*
X147952380Y-104428571D02*
X147952380Y-104904761D01*
X146952380Y-104904761D01*
X146952380Y-104428571D01*
X147428571Y-103666666D02*
X147428571Y-104000000D01*
X147952380Y-104000000D02*
X146952380Y-104000000D01*
X146952380Y-103523809D01*
X146952380Y-103000000D02*
X147190476Y-103000000D01*
X147095238Y-103238095D02*
X147190476Y-103000000D01*
X147095238Y-102761904D01*
X147380952Y-103142857D02*
X147190476Y-103000000D01*
X147380952Y-102857142D01*
X146952380Y-102238095D02*
X147190476Y-102238095D01*
X147095238Y-102476190D02*
X147190476Y-102238095D01*
X147095238Y-102000000D01*
X147380952Y-102380952D02*
X147190476Y-102238095D01*
X147380952Y-102095238D01*
%TO.C,C18*%
X93357142Y-83842857D02*
X93404761Y-83890476D01*
X93452380Y-84033333D01*
X93452380Y-84128571D01*
X93404761Y-84271428D01*
X93309523Y-84366666D01*
X93214285Y-84414285D01*
X93023809Y-84461904D01*
X92880952Y-84461904D01*
X92690476Y-84414285D01*
X92595238Y-84366666D01*
X92500000Y-84271428D01*
X92452380Y-84128571D01*
X92452380Y-84033333D01*
X92500000Y-83890476D01*
X92547619Y-83842857D01*
X93452380Y-82890476D02*
X93452380Y-83461904D01*
X93452380Y-83176190D02*
X92452380Y-83176190D01*
X92595238Y-83271428D01*
X92690476Y-83366666D01*
X92738095Y-83461904D01*
X92880952Y-82319047D02*
X92833333Y-82414285D01*
X92785714Y-82461904D01*
X92690476Y-82509523D01*
X92642857Y-82509523D01*
X92547619Y-82461904D01*
X92500000Y-82414285D01*
X92452380Y-82319047D01*
X92452380Y-82128571D01*
X92500000Y-82033333D01*
X92547619Y-81985714D01*
X92642857Y-81938095D01*
X92690476Y-81938095D01*
X92785714Y-81985714D01*
X92833333Y-82033333D01*
X92880952Y-82128571D01*
X92880952Y-82319047D01*
X92928571Y-82414285D01*
X92976190Y-82461904D01*
X93071428Y-82509523D01*
X93261904Y-82509523D01*
X93357142Y-82461904D01*
X93404761Y-82414285D01*
X93452380Y-82319047D01*
X93452380Y-82128571D01*
X93404761Y-82033333D01*
X93357142Y-81985714D01*
X93261904Y-81938095D01*
X93071428Y-81938095D01*
X92976190Y-81985714D01*
X92928571Y-82033333D01*
X92880952Y-82128571D01*
%TO.C,R12*%
X96052380Y-80842857D02*
X95576190Y-81176190D01*
X96052380Y-81414285D02*
X95052380Y-81414285D01*
X95052380Y-81033333D01*
X95100000Y-80938095D01*
X95147619Y-80890476D01*
X95242857Y-80842857D01*
X95385714Y-80842857D01*
X95480952Y-80890476D01*
X95528571Y-80938095D01*
X95576190Y-81033333D01*
X95576190Y-81414285D01*
X96052380Y-79890476D02*
X96052380Y-80461904D01*
X96052380Y-80176190D02*
X95052380Y-80176190D01*
X95195238Y-80271428D01*
X95290476Y-80366666D01*
X95338095Y-80461904D01*
X95147619Y-79509523D02*
X95100000Y-79461904D01*
X95052380Y-79366666D01*
X95052380Y-79128571D01*
X95100000Y-79033333D01*
X95147619Y-78985714D01*
X95242857Y-78938095D01*
X95338095Y-78938095D01*
X95480952Y-78985714D01*
X96052380Y-79557142D01*
X96052380Y-78938095D01*
%TO.C,U8*%
X128438095Y-76952380D02*
X128438095Y-77761904D01*
X128485714Y-77857142D01*
X128533333Y-77904761D01*
X128628571Y-77952380D01*
X128819047Y-77952380D01*
X128914285Y-77904761D01*
X128961904Y-77857142D01*
X129009523Y-77761904D01*
X129009523Y-76952380D01*
X129628571Y-77380952D02*
X129533333Y-77333333D01*
X129485714Y-77285714D01*
X129438095Y-77190476D01*
X129438095Y-77142857D01*
X129485714Y-77047619D01*
X129533333Y-77000000D01*
X129628571Y-76952380D01*
X129819047Y-76952380D01*
X129914285Y-77000000D01*
X129961904Y-77047619D01*
X130009523Y-77142857D01*
X130009523Y-77190476D01*
X129961904Y-77285714D01*
X129914285Y-77333333D01*
X129819047Y-77380952D01*
X129628571Y-77380952D01*
X129533333Y-77428571D01*
X129485714Y-77476190D01*
X129438095Y-77571428D01*
X129438095Y-77761904D01*
X129485714Y-77857142D01*
X129533333Y-77904761D01*
X129628571Y-77952380D01*
X129819047Y-77952380D01*
X129914285Y-77904761D01*
X129961904Y-77857142D01*
X130009523Y-77761904D01*
X130009523Y-77571428D01*
X129961904Y-77476190D01*
X129914285Y-77428571D01*
X129819047Y-77380952D01*
%TO.C,C2*%
X87045833Y-112857142D02*
X86998214Y-112904761D01*
X86855357Y-112952380D01*
X86760119Y-112952380D01*
X86617261Y-112904761D01*
X86522023Y-112809523D01*
X86474404Y-112714285D01*
X86426785Y-112523809D01*
X86426785Y-112380952D01*
X86474404Y-112190476D01*
X86522023Y-112095238D01*
X86617261Y-112000000D01*
X86760119Y-111952380D01*
X86855357Y-111952380D01*
X86998214Y-112000000D01*
X87045833Y-112047619D01*
X87426785Y-112047619D02*
X87474404Y-112000000D01*
X87569642Y-111952380D01*
X87807738Y-111952380D01*
X87902976Y-112000000D01*
X87950595Y-112047619D01*
X87998214Y-112142857D01*
X87998214Y-112238095D01*
X87950595Y-112380952D01*
X87379166Y-112952380D01*
X87998214Y-112952380D01*
%TO.C,C4*%
X93333333Y-72857142D02*
X93285714Y-72904761D01*
X93142857Y-72952380D01*
X93047619Y-72952380D01*
X92904761Y-72904761D01*
X92809523Y-72809523D01*
X92761904Y-72714285D01*
X92714285Y-72523809D01*
X92714285Y-72380952D01*
X92761904Y-72190476D01*
X92809523Y-72095238D01*
X92904761Y-72000000D01*
X93047619Y-71952380D01*
X93142857Y-71952380D01*
X93285714Y-72000000D01*
X93333333Y-72047619D01*
X94190476Y-72285714D02*
X94190476Y-72952380D01*
X93952380Y-71904761D02*
X93714285Y-72619047D01*
X94333333Y-72619047D01*
%TO.C,C1*%
X93787142Y-87666666D02*
X93834761Y-87714285D01*
X93882380Y-87857142D01*
X93882380Y-87952380D01*
X93834761Y-88095238D01*
X93739523Y-88190476D01*
X93644285Y-88238095D01*
X93453809Y-88285714D01*
X93310952Y-88285714D01*
X93120476Y-88238095D01*
X93025238Y-88190476D01*
X92930000Y-88095238D01*
X92882380Y-87952380D01*
X92882380Y-87857142D01*
X92930000Y-87714285D01*
X92977619Y-87666666D01*
X93882380Y-86714285D02*
X93882380Y-87285714D01*
X93882380Y-87000000D02*
X92882380Y-87000000D01*
X93025238Y-87095238D01*
X93120476Y-87190476D01*
X93168095Y-87285714D01*
%TO.C,C5*%
X106333333Y-92357142D02*
X106285714Y-92404761D01*
X106142857Y-92452380D01*
X106047619Y-92452380D01*
X105904761Y-92404761D01*
X105809523Y-92309523D01*
X105761904Y-92214285D01*
X105714285Y-92023809D01*
X105714285Y-91880952D01*
X105761904Y-91690476D01*
X105809523Y-91595238D01*
X105904761Y-91500000D01*
X106047619Y-91452380D01*
X106142857Y-91452380D01*
X106285714Y-91500000D01*
X106333333Y-91547619D01*
X107238095Y-91452380D02*
X106761904Y-91452380D01*
X106714285Y-91928571D01*
X106761904Y-91880952D01*
X106857142Y-91833333D01*
X107095238Y-91833333D01*
X107190476Y-91880952D01*
X107238095Y-91928571D01*
X107285714Y-92023809D01*
X107285714Y-92261904D01*
X107238095Y-92357142D01*
X107190476Y-92404761D01*
X107095238Y-92452380D01*
X106857142Y-92452380D01*
X106761904Y-92404761D01*
X106714285Y-92357142D01*
%TO.C,C17*%
X87607142Y-81177142D02*
X87559523Y-81224761D01*
X87416666Y-81272380D01*
X87321428Y-81272380D01*
X87178571Y-81224761D01*
X87083333Y-81129523D01*
X87035714Y-81034285D01*
X86988095Y-80843809D01*
X86988095Y-80700952D01*
X87035714Y-80510476D01*
X87083333Y-80415238D01*
X87178571Y-80320000D01*
X87321428Y-80272380D01*
X87416666Y-80272380D01*
X87559523Y-80320000D01*
X87607142Y-80367619D01*
X88559523Y-81272380D02*
X87988095Y-81272380D01*
X88273809Y-81272380D02*
X88273809Y-80272380D01*
X88178571Y-80415238D01*
X88083333Y-80510476D01*
X87988095Y-80558095D01*
X88892857Y-80272380D02*
X89559523Y-80272380D01*
X89130952Y-81272380D01*
%TO.C,R4*%
X75935833Y-83632380D02*
X75602500Y-83156190D01*
X75364404Y-83632380D02*
X75364404Y-82632380D01*
X75745357Y-82632380D01*
X75840595Y-82680000D01*
X75888214Y-82727619D01*
X75935833Y-82822857D01*
X75935833Y-82965714D01*
X75888214Y-83060952D01*
X75840595Y-83108571D01*
X75745357Y-83156190D01*
X75364404Y-83156190D01*
X76792976Y-82965714D02*
X76792976Y-83632380D01*
X76554880Y-82584761D02*
X76316785Y-83299047D01*
X76935833Y-83299047D01*
%TO.C,C20*%
X85857142Y-110642857D02*
X85904761Y-110690476D01*
X85952380Y-110833333D01*
X85952380Y-110928571D01*
X85904761Y-111071428D01*
X85809523Y-111166666D01*
X85714285Y-111214285D01*
X85523809Y-111261904D01*
X85380952Y-111261904D01*
X85190476Y-111214285D01*
X85095238Y-111166666D01*
X85000000Y-111071428D01*
X84952380Y-110928571D01*
X84952380Y-110833333D01*
X85000000Y-110690476D01*
X85047619Y-110642857D01*
X85047619Y-110261904D02*
X85000000Y-110214285D01*
X84952380Y-110119047D01*
X84952380Y-109880952D01*
X85000000Y-109785714D01*
X85047619Y-109738095D01*
X85142857Y-109690476D01*
X85238095Y-109690476D01*
X85380952Y-109738095D01*
X85952380Y-110309523D01*
X85952380Y-109690476D01*
X84952380Y-109071428D02*
X84952380Y-108976190D01*
X85000000Y-108880952D01*
X85047619Y-108833333D01*
X85142857Y-108785714D01*
X85333333Y-108738095D01*
X85571428Y-108738095D01*
X85761904Y-108785714D01*
X85857142Y-108833333D01*
X85904761Y-108880952D01*
X85952380Y-108976190D01*
X85952380Y-109071428D01*
X85904761Y-109166666D01*
X85857142Y-109214285D01*
X85761904Y-109261904D01*
X85571428Y-109309523D01*
X85333333Y-109309523D01*
X85142857Y-109261904D01*
X85047619Y-109214285D01*
X85000000Y-109166666D01*
X84952380Y-109071428D01*
%TO.C,J5*%
X108666666Y-61752380D02*
X108666666Y-62466666D01*
X108619047Y-62609523D01*
X108523809Y-62704761D01*
X108380952Y-62752380D01*
X108285714Y-62752380D01*
X109619047Y-61752380D02*
X109142857Y-61752380D01*
X109095238Y-62228571D01*
X109142857Y-62180952D01*
X109238095Y-62133333D01*
X109476190Y-62133333D01*
X109571428Y-62180952D01*
X109619047Y-62228571D01*
X109666666Y-62323809D01*
X109666666Y-62561904D01*
X109619047Y-62657142D01*
X109571428Y-62704761D01*
X109476190Y-62752380D01*
X109238095Y-62752380D01*
X109142857Y-62704761D01*
X109095238Y-62657142D01*
%TO.C,C10*%
X113244642Y-82677142D02*
X113197023Y-82724761D01*
X113054166Y-82772380D01*
X112958928Y-82772380D01*
X112816071Y-82724761D01*
X112720833Y-82629523D01*
X112673214Y-82534285D01*
X112625595Y-82343809D01*
X112625595Y-82200952D01*
X112673214Y-82010476D01*
X112720833Y-81915238D01*
X112816071Y-81820000D01*
X112958928Y-81772380D01*
X113054166Y-81772380D01*
X113197023Y-81820000D01*
X113244642Y-81867619D01*
X114197023Y-82772380D02*
X113625595Y-82772380D01*
X113911309Y-82772380D02*
X113911309Y-81772380D01*
X113816071Y-81915238D01*
X113720833Y-82010476D01*
X113625595Y-82058095D01*
X114816071Y-81772380D02*
X114911309Y-81772380D01*
X115006547Y-81820000D01*
X115054166Y-81867619D01*
X115101785Y-81962857D01*
X115149404Y-82153333D01*
X115149404Y-82391428D01*
X115101785Y-82581904D01*
X115054166Y-82677142D01*
X115006547Y-82724761D01*
X114911309Y-82772380D01*
X114816071Y-82772380D01*
X114720833Y-82724761D01*
X114673214Y-82677142D01*
X114625595Y-82581904D01*
X114577976Y-82391428D01*
X114577976Y-82153333D01*
X114625595Y-81962857D01*
X114673214Y-81867619D01*
X114720833Y-81820000D01*
X114816071Y-81772380D01*
%TO.C,R9*%
X82833333Y-106202380D02*
X82500000Y-105726190D01*
X82261904Y-106202380D02*
X82261904Y-105202380D01*
X82642857Y-105202380D01*
X82738095Y-105250000D01*
X82785714Y-105297619D01*
X82833333Y-105392857D01*
X82833333Y-105535714D01*
X82785714Y-105630952D01*
X82738095Y-105678571D01*
X82642857Y-105726190D01*
X82261904Y-105726190D01*
X83309523Y-106202380D02*
X83500000Y-106202380D01*
X83595238Y-106154761D01*
X83642857Y-106107142D01*
X83738095Y-105964285D01*
X83785714Y-105773809D01*
X83785714Y-105392857D01*
X83738095Y-105297619D01*
X83690476Y-105250000D01*
X83595238Y-105202380D01*
X83404761Y-105202380D01*
X83309523Y-105250000D01*
X83261904Y-105297619D01*
X83214285Y-105392857D01*
X83214285Y-105630952D01*
X83261904Y-105726190D01*
X83309523Y-105773809D01*
X83404761Y-105821428D01*
X83595238Y-105821428D01*
X83690476Y-105773809D01*
X83738095Y-105726190D01*
X83785714Y-105630952D01*
%TO.C,U2*%
X82948158Y-103196857D02*
X83759230Y-103196857D01*
X83854651Y-103149147D01*
X83902361Y-103101437D01*
X83950071Y-103006016D01*
X83950071Y-102815176D01*
X83902361Y-102719755D01*
X83854651Y-102672045D01*
X83759230Y-102624335D01*
X82948158Y-102624335D01*
X83043578Y-102194944D02*
X82995868Y-102147234D01*
X82948158Y-102051813D01*
X82948158Y-101813263D01*
X82995868Y-101717842D01*
X83043578Y-101670132D01*
X83138998Y-101622422D01*
X83234419Y-101622422D01*
X83377549Y-101670132D01*
X83950071Y-102242654D01*
X83950071Y-101622422D01*
%TO.C,C16*%
X124977142Y-78527857D02*
X125024761Y-78575476D01*
X125072380Y-78718333D01*
X125072380Y-78813571D01*
X125024761Y-78956428D01*
X124929523Y-79051666D01*
X124834285Y-79099285D01*
X124643809Y-79146904D01*
X124500952Y-79146904D01*
X124310476Y-79099285D01*
X124215238Y-79051666D01*
X124120000Y-78956428D01*
X124072380Y-78813571D01*
X124072380Y-78718333D01*
X124120000Y-78575476D01*
X124167619Y-78527857D01*
X125072380Y-77575476D02*
X125072380Y-78146904D01*
X125072380Y-77861190D02*
X124072380Y-77861190D01*
X124215238Y-77956428D01*
X124310476Y-78051666D01*
X124358095Y-78146904D01*
X124072380Y-76718333D02*
X124072380Y-76908809D01*
X124120000Y-77004047D01*
X124167619Y-77051666D01*
X124310476Y-77146904D01*
X124500952Y-77194523D01*
X124881904Y-77194523D01*
X124977142Y-77146904D01*
X125024761Y-77099285D01*
X125072380Y-77004047D01*
X125072380Y-76813571D01*
X125024761Y-76718333D01*
X124977142Y-76670714D01*
X124881904Y-76623095D01*
X124643809Y-76623095D01*
X124548571Y-76670714D01*
X124500952Y-76718333D01*
X124453333Y-76813571D01*
X124453333Y-77004047D01*
X124500952Y-77099285D01*
X124548571Y-77146904D01*
X124643809Y-77194523D01*
D11*
%TO.C,PS2*%
X86457857Y-88824523D02*
X86457857Y-87554523D01*
X86941666Y-87554523D01*
X87062619Y-87615000D01*
X87123095Y-87675476D01*
X87183571Y-87796428D01*
X87183571Y-87977857D01*
X87123095Y-88098809D01*
X87062619Y-88159285D01*
X86941666Y-88219761D01*
X86457857Y-88219761D01*
X87667380Y-88764047D02*
X87848809Y-88824523D01*
X88151190Y-88824523D01*
X88272142Y-88764047D01*
X88332619Y-88703571D01*
X88393095Y-88582619D01*
X88393095Y-88461666D01*
X88332619Y-88340714D01*
X88272142Y-88280238D01*
X88151190Y-88219761D01*
X87909285Y-88159285D01*
X87788333Y-88098809D01*
X87727857Y-88038333D01*
X87667380Y-87917380D01*
X87667380Y-87796428D01*
X87727857Y-87675476D01*
X87788333Y-87615000D01*
X87909285Y-87554523D01*
X88211666Y-87554523D01*
X88393095Y-87615000D01*
X88876904Y-87675476D02*
X88937380Y-87615000D01*
X89058333Y-87554523D01*
X89360714Y-87554523D01*
X89481666Y-87615000D01*
X89542142Y-87675476D01*
X89602619Y-87796428D01*
X89602619Y-87917380D01*
X89542142Y-88098809D01*
X88816428Y-88824523D01*
X89602619Y-88824523D01*
D10*
%TO.C,C12*%
X98357142Y-76677142D02*
X98309523Y-76724761D01*
X98166666Y-76772380D01*
X98071428Y-76772380D01*
X97928571Y-76724761D01*
X97833333Y-76629523D01*
X97785714Y-76534285D01*
X97738095Y-76343809D01*
X97738095Y-76200952D01*
X97785714Y-76010476D01*
X97833333Y-75915238D01*
X97928571Y-75820000D01*
X98071428Y-75772380D01*
X98166666Y-75772380D01*
X98309523Y-75820000D01*
X98357142Y-75867619D01*
X99309523Y-76772380D02*
X98738095Y-76772380D01*
X99023809Y-76772380D02*
X99023809Y-75772380D01*
X98928571Y-75915238D01*
X98833333Y-76010476D01*
X98738095Y-76058095D01*
X99690476Y-75867619D02*
X99738095Y-75820000D01*
X99833333Y-75772380D01*
X100071428Y-75772380D01*
X100166666Y-75820000D01*
X100214285Y-75867619D01*
X100261904Y-75962857D01*
X100261904Y-76058095D01*
X100214285Y-76200952D01*
X99642857Y-76772380D01*
X100261904Y-76772380D01*
%TO.C,C11*%
X103287142Y-70142857D02*
X103334761Y-70190476D01*
X103382380Y-70333333D01*
X103382380Y-70428571D01*
X103334761Y-70571428D01*
X103239523Y-70666666D01*
X103144285Y-70714285D01*
X102953809Y-70761904D01*
X102810952Y-70761904D01*
X102620476Y-70714285D01*
X102525238Y-70666666D01*
X102430000Y-70571428D01*
X102382380Y-70428571D01*
X102382380Y-70333333D01*
X102430000Y-70190476D01*
X102477619Y-70142857D01*
X103382380Y-69190476D02*
X103382380Y-69761904D01*
X103382380Y-69476190D02*
X102382380Y-69476190D01*
X102525238Y-69571428D01*
X102620476Y-69666666D01*
X102668095Y-69761904D01*
X103382380Y-68238095D02*
X103382380Y-68809523D01*
X103382380Y-68523809D02*
X102382380Y-68523809D01*
X102525238Y-68619047D01*
X102620476Y-68714285D01*
X102668095Y-68809523D01*
D12*
%TO.C,C19*%
X80175000Y-85261252D02*
X80175000Y-84738748D01*
X78705000Y-85261252D02*
X78705000Y-84738748D01*
%TO.C,U7*%
X80500000Y-87190000D02*
X81300000Y-87190000D01*
X80500000Y-90310000D02*
X79700000Y-90310000D01*
X80500000Y-90310000D02*
X82300000Y-90310000D01*
X80500000Y-87190000D02*
X79700000Y-87190000D01*
%TO.C,C6*%
X73760000Y-75646267D02*
X73760000Y-75353733D01*
X72740000Y-75646267D02*
X72740000Y-75353733D01*
%TO.C,C8*%
X117646267Y-71510000D02*
X117353733Y-71510000D01*
X117646267Y-70490000D02*
X117353733Y-70490000D01*
%TO.C,J2*%
X111150000Y-122865000D02*
X111500000Y-123535000D01*
X116710000Y-132830000D02*
X101210000Y-132830000D01*
X106910000Y-125020000D02*
X106910000Y-125020000D01*
X116710000Y-123710000D02*
X116710000Y-132830000D01*
X102510000Y-131520000D02*
X102510000Y-125020000D01*
X115410000Y-125020000D02*
X115410000Y-131520000D01*
X111010000Y-123710000D02*
X111010000Y-125020000D01*
X106910000Y-125020000D02*
X106910000Y-123710000D01*
X101210000Y-132830000D02*
X101210000Y-123710000D01*
X111010000Y-125020000D02*
X115410000Y-125020000D01*
X102510000Y-125020000D02*
X106910000Y-125020000D01*
X115410000Y-131520000D02*
X102510000Y-131520000D01*
X111500000Y-123535000D02*
X111850000Y-122865000D01*
X101210000Y-123710000D02*
X116710000Y-123710000D01*
X111850000Y-122865000D02*
X111150000Y-122865000D01*
%TO.C,R8*%
X80245276Y-113022500D02*
X80754724Y-113022500D01*
X80245276Y-111977500D02*
X80754724Y-111977500D01*
%TO.C,R14*%
X127504724Y-77227500D02*
X126995276Y-77227500D01*
X127504724Y-78272500D02*
X126995276Y-78272500D01*
%TO.C,R6*%
X80282776Y-110227500D02*
X80792224Y-110227500D01*
X80282776Y-111272500D02*
X80792224Y-111272500D01*
D13*
%TO.C,JP1*%
X87445000Y-117920000D02*
X87445000Y-121520000D01*
X89845000Y-117170000D02*
X86695000Y-117170000D01*
X86695000Y-117170000D02*
X86695000Y-122270000D01*
X98595000Y-117920000D02*
X96195000Y-117920000D01*
X89845000Y-122270000D02*
X86695000Y-122270000D01*
X96195000Y-122270000D02*
X99345000Y-122270000D01*
X99345000Y-122270000D02*
X99345000Y-117170000D01*
X99345000Y-117170000D02*
X96195000Y-117170000D01*
X89845000Y-117920000D02*
X87445000Y-117920000D01*
X96195000Y-121520000D02*
X98595000Y-121520000D01*
X87445000Y-121520000D02*
X89845000Y-121520000D01*
X98595000Y-121520000D02*
X98595000Y-117920000D01*
D12*
%TO.C,J3*%
X70800000Y-93450000D02*
X69150000Y-93450000D01*
X74700000Y-84050000D02*
X72700000Y-84050000D01*
X74700000Y-93450000D02*
X72700000Y-93450000D01*
X69150000Y-84050000D02*
X69150000Y-93450000D01*
X70800000Y-84050000D02*
X69150000Y-84050000D01*
%TO.C,R11*%
X84477500Y-85754724D02*
X84477500Y-85245276D01*
X85522500Y-85754724D02*
X85522500Y-85245276D01*
%TO.C,SW2*%
X72750000Y-107750000D02*
X75250000Y-107750000D01*
X72300000Y-102700000D02*
X72750000Y-102250000D01*
X76750000Y-104000000D02*
X76750000Y-106000000D01*
X75700000Y-102700000D02*
X75250000Y-102250000D01*
X72750000Y-102250000D02*
X75250000Y-102250000D01*
X72300000Y-107300000D02*
X72750000Y-107750000D01*
X75700000Y-107300000D02*
X75250000Y-107750000D01*
X71250000Y-104000000D02*
X71250000Y-106000000D01*
%TO.C,R5*%
X72857224Y-82272500D02*
X72347776Y-82272500D01*
X72857224Y-81227500D02*
X72347776Y-81227500D01*
%TO.C,Y1*%
X98125000Y-72175000D02*
X98125000Y-70825000D01*
X99875000Y-72175000D02*
X99875000Y-70825000D01*
%TO.C,SW1*%
X75700000Y-109750000D02*
X75250000Y-109300000D01*
X72300000Y-114350000D02*
X72750000Y-114800000D01*
X76750000Y-111050000D02*
X76750000Y-113050000D01*
X72750000Y-109300000D02*
X75250000Y-109300000D01*
X72300000Y-109750000D02*
X72750000Y-109300000D01*
X75700000Y-114350000D02*
X75250000Y-114800000D01*
X72750000Y-114800000D02*
X75250000Y-114800000D01*
X71250000Y-111050000D02*
X71250000Y-113050000D01*
D14*
%TO.C,IC1*%
X69250000Y-74350000D02*
X72250000Y-74350000D01*
X72250000Y-76650000D02*
X69250000Y-76650000D01*
X69250000Y-76650000D02*
X69250000Y-74350000D01*
X72250000Y-74350000D02*
X72250000Y-76650000D01*
X69200000Y-78400000D02*
X69200000Y-77000000D01*
D12*
%TO.C,R2*%
X96745276Y-108022500D02*
X97254724Y-108022500D01*
X96745276Y-106977500D02*
X97254724Y-106977500D01*
%TO.C,R3*%
X97254724Y-108977500D02*
X96745276Y-108977500D01*
X97254724Y-110022500D02*
X96745276Y-110022500D01*
%TO.C,U5*%
X111082800Y-85671900D02*
X106917200Y-85671900D01*
X106917200Y-90828100D02*
X111082800Y-90828100D01*
%TO.C,J4*%
X107770000Y-108670000D02*
X112910000Y-108670000D01*
X107770000Y-111330000D02*
X112910000Y-111330000D01*
X106500000Y-111330000D02*
X105170000Y-111330000D01*
X105170000Y-111330000D02*
X105170000Y-110000000D01*
X107770000Y-111330000D02*
X107770000Y-108670000D01*
X112910000Y-111330000D02*
X112910000Y-108670000D01*
%TO.C,U4*%
X104840000Y-70140000D02*
X103890000Y-70140000D01*
X104840000Y-80360000D02*
X103890000Y-80360000D01*
X114110000Y-70140000D02*
X114110000Y-71090000D01*
X113160000Y-80360000D02*
X114110000Y-80360000D01*
X114110000Y-80360000D02*
X114110000Y-79410000D01*
X103890000Y-80360000D02*
X103890000Y-79410000D01*
X103890000Y-70140000D02*
X103890000Y-71090000D01*
X103890000Y-71090000D02*
X102550000Y-71090000D01*
X113160000Y-70140000D02*
X114110000Y-70140000D01*
%TO.C,R7*%
X80245276Y-107477500D02*
X80754724Y-107477500D01*
X80245276Y-108522500D02*
X80754724Y-108522500D01*
%TO.C,C9*%
X104853733Y-84760000D02*
X105146267Y-84760000D01*
X104853733Y-83740000D02*
X105146267Y-83740000D01*
%TO.C,C3*%
X96146267Y-71010000D02*
X95853733Y-71010000D01*
X96146267Y-69990000D02*
X95853733Y-69990000D01*
%TO.C,C13*%
X91465000Y-77026248D02*
X91465000Y-77548752D01*
X92935000Y-77026248D02*
X92935000Y-77548752D01*
%TO.C,R13*%
X93477500Y-76945276D02*
X93477500Y-77454724D01*
X94522500Y-76945276D02*
X94522500Y-77454724D01*
%TO.C,C18*%
X91985000Y-83511252D02*
X91985000Y-82988748D01*
X90515000Y-83511252D02*
X90515000Y-82988748D01*
%TO.C,R12*%
X96122500Y-77454724D02*
X96122500Y-76945276D01*
X95077500Y-77454724D02*
X95077500Y-76945276D01*
%TO.C,U8*%
X129200000Y-71540000D02*
X131150000Y-71540000D01*
X129200000Y-76660000D02*
X132650000Y-76660000D01*
X129200000Y-76660000D02*
X127250000Y-76660000D01*
X129200000Y-71540000D02*
X127250000Y-71540000D01*
%TO.C,C2*%
X83988748Y-113235000D02*
X84511252Y-113235000D01*
X83988748Y-111765000D02*
X84511252Y-111765000D01*
%TO.C,C4*%
X96146267Y-71990000D02*
X95853733Y-71990000D01*
X96146267Y-73010000D02*
X95853733Y-73010000D01*
%TO.C,C1*%
X92510000Y-87353733D02*
X92510000Y-87646267D01*
X91490000Y-87353733D02*
X91490000Y-87646267D01*
%TO.C,C5*%
X108853733Y-91240000D02*
X109146267Y-91240000D01*
X108853733Y-92260000D02*
X109146267Y-92260000D01*
%TO.C,C17*%
X87988748Y-83235000D02*
X88511252Y-83235000D01*
X87988748Y-81765000D02*
X88511252Y-81765000D01*
%TO.C,R4*%
X76357224Y-82272500D02*
X75847776Y-82272500D01*
X76357224Y-81227500D02*
X75847776Y-81227500D01*
%TO.C,C20*%
X84485000Y-109238748D02*
X84485000Y-109761252D01*
X83015000Y-109238748D02*
X83015000Y-109761252D01*
%TO.C,J5*%
X99890000Y-65800000D02*
X100290000Y-65800000D01*
X117710000Y-65400000D02*
X117710000Y-67260000D01*
X101890000Y-63090000D02*
X99590000Y-63090000D01*
X109000000Y-63790000D02*
X100290000Y-63790000D01*
X100290000Y-65000000D02*
X100690000Y-65000000D01*
X100690000Y-65400000D02*
X100290000Y-65400000D01*
X117310000Y-65000000D02*
X117310000Y-65400000D01*
X99590000Y-63090000D02*
X99590000Y-65390000D01*
X100290000Y-63790000D02*
X100290000Y-65000000D01*
X99890000Y-63390000D02*
X99890000Y-67260000D01*
X100690000Y-65000000D02*
X100690000Y-65400000D01*
X109000000Y-63790000D02*
X117710000Y-63790000D01*
X118110000Y-67260000D02*
X118110000Y-63390000D01*
X117710000Y-65000000D02*
X117310000Y-65000000D01*
X118110000Y-65800000D02*
X117710000Y-65800000D01*
X100290000Y-65400000D02*
X100290000Y-67260000D01*
X99890000Y-67260000D02*
X118110000Y-67260000D01*
X117710000Y-63790000D02*
X117710000Y-65000000D01*
X117310000Y-65400000D02*
X117710000Y-65400000D01*
X118110000Y-63390000D02*
X99890000Y-63390000D01*
%TO.C,C10*%
X113741233Y-84260000D02*
X114033767Y-84260000D01*
X113741233Y-83240000D02*
X114033767Y-83240000D01*
%TO.C,R9*%
X80245276Y-106522500D02*
X80754724Y-106522500D01*
X80245276Y-105477500D02*
X80754724Y-105477500D01*
D14*
%TO.C,U2*%
X101000000Y-90000000D02*
X101000000Y-106000000D01*
X85000000Y-106000000D02*
X85000000Y-90000000D01*
X86291547Y-107750000D02*
G75*
G03*
X86291547Y-107750000I-291547J0D01*
G01*
D15*
X85800000Y-108011500D02*
X85800000Y-107500000D01*
X85800000Y-107500000D02*
X86192200Y-107500000D01*
X86192200Y-107500000D02*
X86192200Y-108011500D01*
X86192200Y-108011500D02*
X85800000Y-108011500D01*
G36*
X86192200Y-108011500D02*
G01*
X85800000Y-108011500D01*
X85800000Y-107500000D01*
X86192200Y-107500000D01*
X86192200Y-108011500D01*
G37*
X86192200Y-108011500D02*
X85800000Y-108011500D01*
X85800000Y-107500000D01*
X86192200Y-107500000D01*
X86192200Y-108011500D01*
D12*
%TO.C,C16*%
X124160000Y-74738733D02*
X124160000Y-75031267D01*
X125180000Y-74738733D02*
X125180000Y-75031267D01*
D14*
%TO.C,PS2*%
X88300000Y-84050000D02*
X88300000Y-86950000D01*
X86150000Y-84000000D02*
X87350000Y-84000000D01*
X87700000Y-86950000D02*
X87700000Y-84050000D01*
X87700000Y-84050000D02*
X88300000Y-84050000D01*
X88300000Y-86950000D02*
X87700000Y-86950000D01*
D12*
%TO.C,C12*%
X98853733Y-77240000D02*
X99146267Y-77240000D01*
X98853733Y-78260000D02*
X99146267Y-78260000D01*
%TO.C,C11*%
X102010000Y-70353733D02*
X102010000Y-70646267D01*
X100990000Y-70353733D02*
X100990000Y-70646267D01*
%TD*%
M02*
