%TF.GenerationSoftware,KiCad,Pcbnew,(5.99.0-12717-g57c7d663b0)*%
%TF.CreationDate,2021-10-15T20:59:05+02:00*%
%TF.ProjectId,Main_PCB,4d61696e-5f50-4434-922e-6b696361645f,rev?*%
%TF.SameCoordinates,Original*%
%TF.FileFunction,Soldermask,Top*%
%TF.FilePolarity,Negative*%
%FSLAX46Y46*%
G04 Gerber Fmt 4.6, Leading zero omitted, Abs format (unit mm)*
G04 Created by KiCad (PCBNEW (5.99.0-12717-g57c7d663b0)) date 2021-10-15 20:59:05*
%MOMM*%
%LPD*%
G01*
G04 APERTURE LIST*
G04 Aperture macros list*
%AMRoundRect*
0 Rectangle with rounded corners*
0 $1 Rounding radius*
0 $2 $3 $4 $5 $6 $7 $8 $9 X,Y pos of 4 corners*
0 Add a 4 corners polygon primitive as box body*
4,1,4,$2,$3,$4,$5,$6,$7,$8,$9,$2,$3,0*
0 Add four circle primitives for the rounded corners*
1,1,$1+$1,$2,$3*
1,1,$1+$1,$4,$5*
1,1,$1+$1,$6,$7*
1,1,$1+$1,$8,$9*
0 Add four rect primitives between the rounded corners*
20,1,$1+$1,$2,$3,$4,$5,0*
20,1,$1+$1,$4,$5,$6,$7,0*
20,1,$1+$1,$6,$7,$8,$9,0*
20,1,$1+$1,$8,$9,$2,$3,0*%
G04 Aperture macros list end*
%ADD10C,0.150000*%
%ADD11C,0.300000*%
%ADD12RoundRect,0.237500X-0.237500X0.250000X-0.237500X-0.250000X0.237500X-0.250000X0.237500X0.250000X0*%
%ADD13RoundRect,0.237500X0.237500X-0.250000X0.237500X0.250000X-0.237500X0.250000X-0.237500X-0.250000X0*%
%ADD14RoundRect,0.250000X-0.475000X0.337500X-0.475000X-0.337500X0.475000X-0.337500X0.475000X0.337500X0*%
%ADD15C,1.785000*%
%ADD16C,1.980000*%
%ADD17RoundRect,0.237500X-0.287500X-0.237500X0.287500X-0.237500X0.287500X0.237500X-0.287500X0.237500X0*%
%ADD18RoundRect,0.250000X0.475000X-0.337500X0.475000X0.337500X-0.475000X0.337500X-0.475000X-0.337500X0*%
%ADD19RoundRect,0.150000X0.512500X0.150000X-0.512500X0.150000X-0.512500X-0.150000X0.512500X-0.150000X0*%
%ADD20RoundRect,0.237500X-0.300000X-0.237500X0.300000X-0.237500X0.300000X0.237500X-0.300000X0.237500X0*%
%ADD21RoundRect,0.237500X0.300000X0.237500X-0.300000X0.237500X-0.300000X-0.237500X0.300000X-0.237500X0*%
%ADD22RoundRect,0.250000X-0.600000X0.600000X-0.600000X-0.600000X0.600000X-0.600000X0.600000X0.600000X0*%
%ADD23C,1.700000*%
%ADD24RoundRect,0.237500X-0.250000X-0.237500X0.250000X-0.237500X0.250000X0.237500X-0.250000X0.237500X0*%
%ADD25R,0.760000X2.050000*%
%ADD26O,1.600000X1.000000*%
%ADD27O,2.100000X1.000000*%
%ADD28R,1.450000X0.600000*%
%ADD29R,1.450000X0.300000*%
%ADD30C,0.650000*%
%ADD31R,1.700000X1.000000*%
%ADD32RoundRect,0.237500X0.250000X0.237500X-0.250000X0.237500X-0.250000X-0.237500X0.250000X-0.237500X0*%
%ADD33R,1.800000X1.000000*%
%ADD34R,1.400000X0.450000*%
%ADD35R,0.700000X0.750000*%
%ADD36R,1.981200X0.558800*%
%ADD37C,3.200000*%
%ADD38R,1.700000X1.700000*%
%ADD39O,1.700000X1.700000*%
%ADD40R,1.400000X0.600000*%
%ADD41RoundRect,0.075000X-0.075000X-0.700000X0.075000X-0.700000X0.075000X0.700000X-0.075000X0.700000X0*%
%ADD42RoundRect,0.075000X-0.700000X-0.075000X0.700000X-0.075000X0.700000X0.075000X-0.700000X0.075000X0*%
%ADD43C,2.250000*%
%ADD44C,2.050000*%
%ADD45R,1.200000X0.600000*%
%ADD46RoundRect,0.250000X-0.337500X-0.475000X0.337500X-0.475000X0.337500X0.475000X-0.337500X0.475000X0*%
%ADD47RoundRect,0.237500X-0.237500X0.300000X-0.237500X-0.300000X0.237500X-0.300000X0.237500X0.300000X0*%
%ADD48RoundRect,0.250000X0.325000X0.450000X-0.325000X0.450000X-0.325000X-0.450000X0.325000X-0.450000X0*%
%ADD49R,1.050000X1.950000*%
G04 APERTURE END LIST*
D10*
X199750000Y-69500000D02*
X206000000Y-69500000D01*
X206000000Y-69500000D02*
X206000000Y-74250000D01*
X206000000Y-74250000D02*
X199750000Y-74250000D01*
X199750000Y-74250000D02*
X199750000Y-69500000D01*
G36*
X199750000Y-69500000D02*
G01*
X206000000Y-69500000D01*
X206000000Y-74250000D01*
X199750000Y-74250000D01*
X199750000Y-69500000D01*
G37*
X197250000Y-70250000D02*
X206500000Y-70250000D01*
X206500000Y-70250000D02*
X206500000Y-72750000D01*
X206500000Y-72750000D02*
X197250000Y-72750000D01*
X197250000Y-72750000D02*
X197250000Y-70250000D01*
G36*
X197250000Y-70250000D02*
G01*
X206500000Y-70250000D01*
X206500000Y-72750000D01*
X197250000Y-72750000D01*
X197250000Y-70250000D01*
G37*
D11*
%TO.C,G\u002A\u002A\u002A*%
X200657428Y-72238000D02*
X200512285Y-72165428D01*
X200294571Y-72165428D01*
X200076857Y-72238000D01*
X199931714Y-72383142D01*
X199859142Y-72528285D01*
X199786571Y-72818571D01*
X199786571Y-73036285D01*
X199859142Y-73326571D01*
X199931714Y-73471714D01*
X200076857Y-73616857D01*
X200294571Y-73689428D01*
X200439714Y-73689428D01*
X200657428Y-73616857D01*
X200730000Y-73544285D01*
X200730000Y-73036285D01*
X200439714Y-73036285D01*
X201600857Y-72165428D02*
X201600857Y-72528285D01*
X201238000Y-72383142D02*
X201600857Y-72528285D01*
X201963714Y-72383142D01*
X201383142Y-72818571D02*
X201600857Y-72528285D01*
X201818571Y-72818571D01*
X202762000Y-72165428D02*
X202762000Y-72528285D01*
X202399142Y-72383142D02*
X202762000Y-72528285D01*
X203124857Y-72383142D01*
X202544285Y-72818571D02*
X202762000Y-72528285D01*
X202979714Y-72818571D01*
X203923142Y-72165428D02*
X203923142Y-72528285D01*
X203560285Y-72383142D02*
X203923142Y-72528285D01*
X204286000Y-72383142D01*
X203705428Y-72818571D02*
X203923142Y-72528285D01*
X204140857Y-72818571D01*
G36*
X203964663Y-71158477D02*
G01*
X204032432Y-71181775D01*
X204092252Y-71218891D01*
X204123389Y-71246955D01*
X204162436Y-71295903D01*
X204195674Y-71354893D01*
X204221017Y-71418922D01*
X204236385Y-71482987D01*
X204240110Y-71527331D01*
X204240229Y-71557550D01*
X203466625Y-71557550D01*
X203466625Y-71538694D01*
X203469866Y-71510502D01*
X203478595Y-71472638D01*
X203491322Y-71429955D01*
X203506556Y-71387308D01*
X203522807Y-71349552D01*
X203527660Y-71339900D01*
X203568844Y-71277425D01*
X203620280Y-71227317D01*
X203682071Y-71189509D01*
X203754317Y-71163932D01*
X203806959Y-71153831D01*
X203889366Y-71149121D01*
X203964663Y-71158477D01*
G37*
G36*
X205263104Y-73598522D02*
G01*
X205281840Y-73607422D01*
X205296415Y-73621072D01*
X205314107Y-73645677D01*
X205325227Y-73676236D01*
X205330659Y-73716185D01*
X205331498Y-73757487D01*
X205326624Y-73813958D01*
X205313517Y-73856719D01*
X205293628Y-73884583D01*
X205265028Y-73901148D01*
X205230393Y-73906658D01*
X205196241Y-73900169D01*
X205193653Y-73899072D01*
X205169240Y-73882001D01*
X205152043Y-73854786D01*
X205141264Y-73815623D01*
X205136441Y-73769575D01*
X205137087Y-73708666D01*
X205146454Y-73661157D01*
X205164682Y-73626802D01*
X205191915Y-73605357D01*
X205228293Y-73596577D01*
X205236853Y-73596319D01*
X205263104Y-73598522D01*
G37*
G36*
X204680802Y-73601391D02*
G01*
X204707212Y-73617707D01*
X204726613Y-73646915D01*
X204736783Y-73674997D01*
X204744220Y-73714801D01*
X204746102Y-73759419D01*
X204742685Y-73802950D01*
X204734227Y-73839494D01*
X204729105Y-73851587D01*
X204704898Y-73884043D01*
X204674046Y-73903188D01*
X204639026Y-73908056D01*
X204606248Y-73899546D01*
X204580513Y-73879213D01*
X204561874Y-73845063D01*
X204550701Y-73797928D01*
X204548007Y-73769343D01*
X204549118Y-73710691D01*
X204559280Y-73663340D01*
X204578079Y-73628028D01*
X204605100Y-73605490D01*
X204639928Y-73596463D01*
X204645470Y-73596319D01*
X204680802Y-73601391D01*
G37*
G36*
X202555044Y-73592074D02*
G01*
X202580490Y-73604315D01*
X202604153Y-73626592D01*
X202621639Y-73653625D01*
X202628553Y-73680135D01*
X202628554Y-73680403D01*
X202626449Y-73685791D01*
X202618456Y-73689421D01*
X202602058Y-73691619D01*
X202574737Y-73692710D01*
X202533978Y-73693019D01*
X202530980Y-73693020D01*
X202433405Y-73693020D01*
X202438844Y-73671351D01*
X202454763Y-73635863D01*
X202480638Y-73609079D01*
X202513062Y-73593323D01*
X202548627Y-73590921D01*
X202555044Y-73592074D01*
G37*
G36*
X201419343Y-73601426D02*
G01*
X201447673Y-73617299D01*
X201467499Y-73645011D01*
X201479411Y-73685455D01*
X201483996Y-73739525D01*
X201484087Y-73751606D01*
X201480473Y-73807699D01*
X201469688Y-73850197D01*
X201451307Y-73880141D01*
X201424910Y-73898573D01*
X201424344Y-73898812D01*
X201399525Y-73907774D01*
X201380671Y-73909134D01*
X201359535Y-73902894D01*
X201349895Y-73898838D01*
X201328241Y-73885470D01*
X201312081Y-73868947D01*
X201312073Y-73868934D01*
X201300005Y-73840143D01*
X201292397Y-73800893D01*
X201289360Y-73756247D01*
X201291007Y-73711265D01*
X201297451Y-73671010D01*
X201307088Y-73643685D01*
X201329963Y-73614544D01*
X201361114Y-73598981D01*
X201381920Y-73596499D01*
X201419343Y-73601426D01*
G37*
G36*
X201994926Y-73586431D02*
G01*
X202016777Y-73607402D01*
X202029044Y-73638572D01*
X202029864Y-73678137D01*
X202029744Y-73679057D01*
X202018503Y-73713341D01*
X201997177Y-73736871D01*
X201968607Y-73748104D01*
X201935636Y-73745494D01*
X201919417Y-73739040D01*
X201901757Y-73722726D01*
X201887737Y-73695704D01*
X201887432Y-73694838D01*
X201880494Y-73670539D01*
X201880481Y-73651034D01*
X201887394Y-73626667D01*
X201887432Y-73626558D01*
X201897854Y-73603172D01*
X201911897Y-73589838D01*
X201929914Y-73582306D01*
X201965350Y-73577464D01*
X201994926Y-73586431D01*
G37*
G36*
X201993906Y-74032324D02*
G01*
X202024944Y-74034597D01*
X202046847Y-74037864D01*
X202051630Y-74039245D01*
X202069264Y-74053236D01*
X202078817Y-74074799D01*
X202077807Y-74097101D01*
X202074876Y-74103230D01*
X202054046Y-74123071D01*
X202022112Y-74138269D01*
X201983627Y-74147995D01*
X201943146Y-74151424D01*
X201905222Y-74147729D01*
X201879125Y-74138751D01*
X201855810Y-74119524D01*
X201846944Y-74095358D01*
X201852982Y-74069314D01*
X201866170Y-74051752D01*
X201877245Y-74041998D01*
X201889342Y-74035989D01*
X201906547Y-74032830D01*
X201932945Y-74031628D01*
X201958818Y-74031472D01*
X201993906Y-74032324D01*
G37*
G36*
X197614212Y-73825373D02*
G01*
X197486206Y-73575708D01*
X197372925Y-73319586D01*
X197355926Y-73274291D01*
X197274433Y-73057142D01*
X197190794Y-72788514D01*
X197122070Y-72513836D01*
X197068324Y-72233247D01*
X197053072Y-72133724D01*
X197041398Y-72049205D01*
X197031860Y-71972096D01*
X197024263Y-71899293D01*
X197018408Y-71827693D01*
X197014099Y-71754191D01*
X197011139Y-71675685D01*
X197009331Y-71589069D01*
X197008478Y-71491240D01*
X197008344Y-71428616D01*
X197008635Y-71325016D01*
X197009721Y-71234322D01*
X197011813Y-71153337D01*
X197015122Y-71078861D01*
X197019860Y-71007696D01*
X197026236Y-70936642D01*
X197034463Y-70862501D01*
X197044752Y-70782073D01*
X197046177Y-70771859D01*
X197440282Y-70771859D01*
X197798382Y-71726776D01*
X197843339Y-71846655D01*
X197886989Y-71963035D01*
X197928967Y-72074947D01*
X197968912Y-72181426D01*
X198006460Y-72281505D01*
X198041248Y-72374217D01*
X198072914Y-72458594D01*
X198101095Y-72533671D01*
X198125428Y-72598480D01*
X198145550Y-72652055D01*
X198161098Y-72693428D01*
X198171710Y-72721633D01*
X198176993Y-72735626D01*
X198197503Y-72789558D01*
X198239282Y-72797886D01*
X198273574Y-72803730D01*
X198309845Y-72808471D01*
X198321352Y-72809592D01*
X198345258Y-72810620D01*
X198381802Y-72810991D01*
X198427701Y-72810780D01*
X198479673Y-72810066D01*
X198534436Y-72808924D01*
X198588708Y-72807431D01*
X198639207Y-72805664D01*
X198682651Y-72803700D01*
X198715758Y-72801615D01*
X198732001Y-72799995D01*
X198771964Y-72794511D01*
X199156186Y-71783185D01*
X199202578Y-71661024D01*
X199247343Y-71543054D01*
X199290150Y-71430148D01*
X199330670Y-71323178D01*
X199368575Y-71223017D01*
X199403534Y-71130538D01*
X199435218Y-71046612D01*
X199463298Y-70972113D01*
X199469042Y-70956842D01*
X199714129Y-70956842D01*
X199714459Y-71009674D01*
X199716000Y-71061369D01*
X199718696Y-71107853D01*
X199722490Y-71145048D01*
X199725605Y-71162690D01*
X199732213Y-71190894D01*
X199862839Y-71193109D01*
X199993465Y-71195323D01*
X199993465Y-71993155D01*
X199993503Y-72129361D01*
X199993625Y-72250241D01*
X199993840Y-72356586D01*
X199994157Y-72449186D01*
X199994588Y-72528833D01*
X199995142Y-72596317D01*
X199995829Y-72652429D01*
X199996659Y-72697959D01*
X199997642Y-72733699D01*
X199998787Y-72760440D01*
X200000105Y-72778971D01*
X200001606Y-72790084D01*
X200003300Y-72794569D01*
X200003538Y-72794708D01*
X200024525Y-72799312D01*
X200058851Y-72803207D01*
X200103751Y-72806361D01*
X200156460Y-72808742D01*
X200214216Y-72810315D01*
X200274252Y-72811050D01*
X200333806Y-72810913D01*
X200390112Y-72809871D01*
X200440407Y-72807892D01*
X200481927Y-72804943D01*
X200511906Y-72800992D01*
X200513230Y-72800731D01*
X200545464Y-72794238D01*
X200547509Y-71780960D01*
X200549550Y-70770020D01*
X200770251Y-70770020D01*
X200772750Y-70777696D01*
X200780585Y-70799584D01*
X200793429Y-70834807D01*
X200810957Y-70882487D01*
X200832842Y-70941747D01*
X200858760Y-71011710D01*
X200888383Y-71091497D01*
X200921387Y-71180233D01*
X200957445Y-71277038D01*
X200996230Y-71381036D01*
X201037419Y-71491350D01*
X201080683Y-71607102D01*
X201125699Y-71727414D01*
X201144699Y-71778159D01*
X201199160Y-71923377D01*
X201250255Y-72059199D01*
X201297790Y-72185122D01*
X201341571Y-72300643D01*
X201381405Y-72405259D01*
X201417097Y-72498465D01*
X201448455Y-72579759D01*
X201475284Y-72648637D01*
X201497391Y-72704596D01*
X201514582Y-72747132D01*
X201526664Y-72775743D01*
X201533442Y-72789925D01*
X201534586Y-72791425D01*
X201552198Y-72796643D01*
X201583392Y-72801096D01*
X201625646Y-72804743D01*
X201676442Y-72807543D01*
X201733259Y-72809455D01*
X201793577Y-72810438D01*
X201854877Y-72810450D01*
X201914639Y-72809450D01*
X201970343Y-72807398D01*
X202019469Y-72804252D01*
X202059324Y-72799995D01*
X202098502Y-72794511D01*
X202419968Y-71948382D01*
X202469216Y-71818756D01*
X202906843Y-71818756D01*
X202908666Y-71892508D01*
X202912736Y-71960584D01*
X202919051Y-72018655D01*
X202922008Y-72037024D01*
X202945629Y-72148006D01*
X202974597Y-72245886D01*
X203010101Y-72333135D01*
X203053335Y-72412224D01*
X203105490Y-72485621D01*
X203167757Y-72555799D01*
X203176523Y-72564680D01*
X203258759Y-72637917D01*
X203347548Y-72698872D01*
X203444357Y-72748225D01*
X203550649Y-72786658D01*
X203667890Y-72814851D01*
X203740610Y-72826658D01*
X203792408Y-72831921D01*
X203856086Y-72835494D01*
X203927494Y-72837377D01*
X204002483Y-72837568D01*
X204076905Y-72836068D01*
X204146610Y-72832875D01*
X204207449Y-72827991D01*
X204219015Y-72826714D01*
X204341931Y-72809218D01*
X204453555Y-72786550D01*
X204558129Y-72757828D01*
X204572302Y-72753321D01*
X204607711Y-72741988D01*
X204632779Y-72732639D01*
X204633641Y-72732093D01*
X205027752Y-72732093D01*
X205075187Y-72749850D01*
X205124010Y-72766178D01*
X205183438Y-72783044D01*
X205248065Y-72799131D01*
X205312487Y-72813121D01*
X205371298Y-72823696D01*
X205387854Y-72826116D01*
X205442294Y-72831716D01*
X205507274Y-72835523D01*
X205578509Y-72837536D01*
X205651718Y-72837751D01*
X205722616Y-72836167D01*
X205786921Y-72832782D01*
X205840350Y-72827594D01*
X205849347Y-72826341D01*
X205969484Y-72802241D01*
X206079977Y-72767326D01*
X206180191Y-72722102D01*
X206269489Y-72667076D01*
X206347236Y-72602757D01*
X206412795Y-72529650D01*
X206465530Y-72448263D01*
X206504806Y-72359103D01*
X206524996Y-72287670D01*
X206531069Y-72255654D01*
X206534690Y-72223622D01*
X206536100Y-72187072D01*
X206535539Y-72141504D01*
X206534454Y-72110385D01*
X206530865Y-72047203D01*
X206525110Y-71995764D01*
X206516227Y-71951739D01*
X206503254Y-71910801D01*
X206485232Y-71868619D01*
X206477017Y-71851681D01*
X206434362Y-71782024D01*
X206379855Y-71721789D01*
X206316173Y-71672013D01*
X206284883Y-71652144D01*
X206252646Y-71634169D01*
X206217176Y-71617168D01*
X206176184Y-71600221D01*
X206127385Y-71582409D01*
X206068490Y-71562813D01*
X205997212Y-71540513D01*
X205963724Y-71530329D01*
X205885266Y-71506137D01*
X205820946Y-71485052D01*
X205769255Y-71466311D01*
X205728686Y-71449146D01*
X205697732Y-71432794D01*
X205674886Y-71416488D01*
X205658640Y-71399464D01*
X205647486Y-71380957D01*
X205642001Y-71367012D01*
X205635918Y-71333756D01*
X205636279Y-71295917D01*
X205642442Y-71259866D01*
X205653767Y-71231971D01*
X205655905Y-71228837D01*
X205686388Y-71196959D01*
X205725538Y-71172994D01*
X205774919Y-71156429D01*
X205836091Y-71146754D01*
X205910618Y-71143454D01*
X205916371Y-71143449D01*
X205992379Y-71145996D01*
X206063973Y-71154002D01*
X206136313Y-71168379D01*
X206214560Y-71190040D01*
X206256699Y-71203614D01*
X206293213Y-71215699D01*
X206323960Y-71225650D01*
X206345842Y-71232481D01*
X206355760Y-71235204D01*
X206355920Y-71235215D01*
X206363883Y-71227823D01*
X206374864Y-71207360D01*
X206387986Y-71176392D01*
X206402375Y-71137488D01*
X206417157Y-71093215D01*
X206431455Y-71046141D01*
X206444395Y-70998835D01*
X206455101Y-70953863D01*
X206459894Y-70930122D01*
X206467571Y-70888515D01*
X206471486Y-70859733D01*
X206470283Y-70840666D01*
X206462606Y-70828201D01*
X206447097Y-70819229D01*
X206422400Y-70810637D01*
X206405457Y-70805280D01*
X206303107Y-70775044D01*
X206208438Y-70752566D01*
X206115603Y-70736846D01*
X206018750Y-70726888D01*
X205916371Y-70721815D01*
X205787508Y-70722377D01*
X205670947Y-70732180D01*
X205565556Y-70751562D01*
X205470201Y-70780865D01*
X205383749Y-70820427D01*
X205305066Y-70870590D01*
X205240485Y-70924585D01*
X205180764Y-70990109D01*
X205134381Y-71062367D01*
X205101005Y-71142278D01*
X205080307Y-71230758D01*
X205071958Y-71328726D01*
X205072722Y-71392054D01*
X205076596Y-71453835D01*
X205082715Y-71504060D01*
X205091970Y-71547235D01*
X205105248Y-71587864D01*
X205116965Y-71616188D01*
X205153316Y-71680115D01*
X205203401Y-71738240D01*
X205267556Y-71790796D01*
X205346116Y-71838012D01*
X205439415Y-71880121D01*
X205547790Y-71917353D01*
X205557773Y-71920319D01*
X205645610Y-71946398D01*
X205719282Y-71968997D01*
X205780210Y-71988742D01*
X205829814Y-72006256D01*
X205869516Y-72022163D01*
X205900736Y-72037086D01*
X205924895Y-72051650D01*
X205943414Y-72066478D01*
X205957713Y-72082195D01*
X205969214Y-72099424D01*
X205970399Y-72101491D01*
X205983469Y-72137152D01*
X205988874Y-72180034D01*
X205986254Y-72222992D01*
X205978041Y-72252844D01*
X205961792Y-72278605D01*
X205935345Y-72306919D01*
X205903149Y-72333608D01*
X205869915Y-72354363D01*
X205829774Y-72372083D01*
X205787179Y-72384776D01*
X205738732Y-72393027D01*
X205681037Y-72397426D01*
X205614182Y-72398568D01*
X205534125Y-72396252D01*
X205460483Y-72389110D01*
X205388145Y-72376245D01*
X205311999Y-72356757D01*
X205231545Y-72331315D01*
X205195882Y-72319386D01*
X205166407Y-72309800D01*
X205146098Y-72303505D01*
X205137931Y-72301450D01*
X205137897Y-72301471D01*
X205134685Y-72309104D01*
X205126948Y-72328431D01*
X205116010Y-72356131D01*
X205108426Y-72375476D01*
X205087040Y-72435725D01*
X205067439Y-72501322D01*
X205050917Y-72567155D01*
X205038769Y-72628113D01*
X205032639Y-72674660D01*
X205027752Y-72732093D01*
X204633641Y-72732093D01*
X204648866Y-72722450D01*
X204657332Y-72708599D01*
X204659537Y-72688263D01*
X204656839Y-72658621D01*
X204650598Y-72616850D01*
X204647561Y-72597081D01*
X204621032Y-72474040D01*
X204581019Y-72359359D01*
X204567230Y-72327028D01*
X204556491Y-72307447D01*
X204545520Y-72298546D01*
X204531035Y-72298253D01*
X204509754Y-72304499D01*
X204499624Y-72308010D01*
X204434966Y-72328016D01*
X204360168Y-72347046D01*
X204281203Y-72363707D01*
X204207995Y-72376038D01*
X204155133Y-72381768D01*
X204094647Y-72385155D01*
X204030310Y-72386278D01*
X203965893Y-72385217D01*
X203905167Y-72382051D01*
X203851903Y-72376858D01*
X203809874Y-72369718D01*
X203801047Y-72367496D01*
X203725487Y-72340636D01*
X203656492Y-72304388D01*
X203596475Y-72260479D01*
X203547851Y-72210635D01*
X203516957Y-72164282D01*
X203491358Y-72104470D01*
X203471325Y-72032934D01*
X203462569Y-71986659D01*
X203457150Y-71952411D01*
X204106014Y-71952411D01*
X204223645Y-71952395D01*
X204326198Y-71952334D01*
X204414710Y-71952205D01*
X204490219Y-71951986D01*
X204553765Y-71951654D01*
X204606385Y-71951186D01*
X204649118Y-71950561D01*
X204683000Y-71949755D01*
X204709072Y-71948748D01*
X204728371Y-71947515D01*
X204741934Y-71946035D01*
X204750801Y-71944285D01*
X204756009Y-71942243D01*
X204758597Y-71939886D01*
X204759325Y-71938309D01*
X204761398Y-71925494D01*
X204764068Y-71899879D01*
X204767039Y-71864757D01*
X204770018Y-71823420D01*
X204771079Y-71806957D01*
X204774347Y-71659685D01*
X204765134Y-71522539D01*
X204743406Y-71395404D01*
X204709126Y-71278165D01*
X204662259Y-71170709D01*
X204602770Y-71072921D01*
X204530624Y-70984685D01*
X204511126Y-70964622D01*
X204425733Y-70889535D01*
X204334027Y-70828513D01*
X204234115Y-70780473D01*
X204129070Y-70745654D01*
X204101464Y-70738505D01*
X204077069Y-70733176D01*
X204052763Y-70729400D01*
X204025427Y-70726909D01*
X203991940Y-70725438D01*
X203949184Y-70724717D01*
X203894037Y-70724481D01*
X203881631Y-70724469D01*
X203821029Y-70724653D01*
X203773384Y-70725447D01*
X203735543Y-70727070D01*
X203704351Y-70729743D01*
X203676654Y-70733685D01*
X203649296Y-70739118D01*
X203639401Y-70741369D01*
X203521949Y-70776263D01*
X203411911Y-70824763D01*
X203365504Y-70850478D01*
X203315298Y-70884437D01*
X203260781Y-70928698D01*
X203205718Y-70979619D01*
X203153874Y-71033555D01*
X203109014Y-71086862D01*
X203081506Y-71125332D01*
X203024646Y-71226897D01*
X202977580Y-71340513D01*
X202940695Y-71465145D01*
X202922008Y-71553521D01*
X202914848Y-71606709D01*
X202909934Y-71671529D01*
X202907265Y-71743653D01*
X202906843Y-71818756D01*
X202469216Y-71818756D01*
X202478995Y-71793018D01*
X202532561Y-71652021D01*
X202580928Y-71524691D01*
X202624357Y-71410327D01*
X202663111Y-71308230D01*
X202697451Y-71217700D01*
X202727639Y-71138036D01*
X202753936Y-71068540D01*
X202776605Y-71008510D01*
X202795906Y-70957246D01*
X202812102Y-70914050D01*
X202825454Y-70878221D01*
X202836224Y-70849058D01*
X202844674Y-70825862D01*
X202851066Y-70807933D01*
X202855660Y-70794571D01*
X202858720Y-70785076D01*
X202860506Y-70778748D01*
X202861280Y-70774887D01*
X202861304Y-70772792D01*
X202860840Y-70771765D01*
X202860150Y-70771105D01*
X202860137Y-70771093D01*
X202850566Y-70767898D01*
X202828814Y-70763261D01*
X202798664Y-70757939D01*
X202780243Y-70755051D01*
X202734960Y-70750080D01*
X202677742Y-70746579D01*
X202612708Y-70744565D01*
X202543974Y-70744060D01*
X202475658Y-70745084D01*
X202411877Y-70747656D01*
X202356749Y-70751796D01*
X202346070Y-70752933D01*
X202308243Y-70757639D01*
X202283384Y-70762049D01*
X202268394Y-70767077D01*
X202260169Y-70773635D01*
X202256993Y-70779123D01*
X202253714Y-70789192D01*
X202246314Y-70813637D01*
X202235118Y-70851344D01*
X202220449Y-70901196D01*
X202202635Y-70962078D01*
X202181998Y-71032876D01*
X202158865Y-71112475D01*
X202133560Y-71199759D01*
X202106409Y-71293613D01*
X202077736Y-71392922D01*
X202047866Y-71496571D01*
X202044230Y-71509200D01*
X202014267Y-71613215D01*
X201985489Y-71712969D01*
X201958218Y-71807354D01*
X201932776Y-71895260D01*
X201909486Y-71975579D01*
X201888671Y-72047201D01*
X201870652Y-72109016D01*
X201855752Y-72159916D01*
X201844294Y-72198792D01*
X201836600Y-72224534D01*
X201832992Y-72236033D01*
X201832844Y-72236413D01*
X201829465Y-72231452D01*
X201821763Y-72211075D01*
X201809770Y-72175383D01*
X201793517Y-72124476D01*
X201773034Y-72058457D01*
X201748353Y-71977426D01*
X201719505Y-71881485D01*
X201686521Y-71770735D01*
X201649432Y-71645277D01*
X201608922Y-71507439D01*
X201391098Y-70764419D01*
X201359112Y-70756338D01*
X201339635Y-70753613D01*
X201306700Y-70751430D01*
X201262956Y-70749781D01*
X201211051Y-70748660D01*
X201153636Y-70748059D01*
X201093359Y-70747970D01*
X201032869Y-70748388D01*
X200974815Y-70749305D01*
X200921847Y-70750714D01*
X200876614Y-70752608D01*
X200841765Y-70754979D01*
X200820151Y-70757778D01*
X200794614Y-70763403D01*
X200776452Y-70767915D01*
X200770251Y-70770020D01*
X200549550Y-70770020D01*
X200549555Y-70767682D01*
X200140561Y-70769770D01*
X199731568Y-70771859D01*
X199720980Y-70832297D01*
X199717332Y-70864078D01*
X199715068Y-70906952D01*
X199714129Y-70956842D01*
X199469042Y-70956842D01*
X199487446Y-70907913D01*
X199507331Y-70854883D01*
X199522624Y-70813898D01*
X199532996Y-70785829D01*
X199538119Y-70771548D01*
X199538621Y-70769850D01*
X199530422Y-70767883D01*
X199509749Y-70764187D01*
X199480075Y-70759360D01*
X199456917Y-70755795D01*
X199410634Y-70750321D01*
X199357286Y-70746505D01*
X199299135Y-70744264D01*
X199238440Y-70743516D01*
X199177462Y-70744176D01*
X199118462Y-70746164D01*
X199063699Y-70749395D01*
X199015436Y-70753788D01*
X198975931Y-70759259D01*
X198947446Y-70765726D01*
X198932242Y-70773106D01*
X198930796Y-70775051D01*
X198927701Y-70784513D01*
X198920486Y-70808373D01*
X198909471Y-70845535D01*
X198894974Y-70894902D01*
X198877313Y-70955379D01*
X198856808Y-71025870D01*
X198833777Y-71105278D01*
X198808538Y-71192509D01*
X198781411Y-71286464D01*
X198752714Y-71386050D01*
X198722766Y-71490170D01*
X198715581Y-71515178D01*
X198685463Y-71619874D01*
X198656557Y-71720057D01*
X198629175Y-71814656D01*
X198603633Y-71902601D01*
X198580245Y-71982821D01*
X198559323Y-72054244D01*
X198541183Y-72115800D01*
X198526137Y-72166418D01*
X198514500Y-72205028D01*
X198506585Y-72230557D01*
X198502707Y-72241937D01*
X198502401Y-72242446D01*
X198499570Y-72234897D01*
X198492538Y-72212940D01*
X198481623Y-72177637D01*
X198467142Y-72130050D01*
X198449415Y-72071240D01*
X198428758Y-72002270D01*
X198405490Y-71924201D01*
X198379927Y-71838096D01*
X198352389Y-71745018D01*
X198323192Y-71646026D01*
X198292655Y-71542185D01*
X198282382Y-71507186D01*
X198251435Y-71401839D01*
X198221700Y-71300892D01*
X198193498Y-71205417D01*
X198167150Y-71116488D01*
X198142975Y-71035177D01*
X198121295Y-70962557D01*
X198102430Y-70899700D01*
X198086701Y-70847680D01*
X198074427Y-70807569D01*
X198065930Y-70780441D01*
X198061530Y-70767367D01*
X198061041Y-70766327D01*
X198047385Y-70760812D01*
X198019962Y-70756092D01*
X197981105Y-70752188D01*
X197933144Y-70749122D01*
X197878413Y-70746914D01*
X197819241Y-70745585D01*
X197757962Y-70745156D01*
X197696906Y-70745648D01*
X197638405Y-70747083D01*
X197584792Y-70749480D01*
X197538397Y-70752862D01*
X197501552Y-70757248D01*
X197481927Y-70761122D01*
X197440282Y-70771859D01*
X197046177Y-70771859D01*
X197056645Y-70696814D01*
X197103882Y-70424029D01*
X197166722Y-70154077D01*
X197182363Y-70100717D01*
X199873299Y-70100717D01*
X199879450Y-70169321D01*
X199899005Y-70235748D01*
X199931972Y-70297793D01*
X199978354Y-70353247D01*
X199981357Y-70356121D01*
X200028222Y-70393755D01*
X200079808Y-70423889D01*
X200130463Y-70443290D01*
X200136468Y-70444804D01*
X200187515Y-70451853D01*
X200245137Y-70451910D01*
X200301534Y-70445269D01*
X200334327Y-70437350D01*
X200396336Y-70410280D01*
X200453078Y-70370285D01*
X200501785Y-70320145D01*
X200539692Y-70262640D01*
X200561689Y-70208921D01*
X200569458Y-70168961D01*
X200572990Y-70120115D01*
X200572283Y-70069048D01*
X200567338Y-70022424D01*
X200561689Y-69997106D01*
X200538177Y-69941338D01*
X200502711Y-69887213D01*
X200459046Y-69839987D01*
X200436017Y-69821122D01*
X200372355Y-69783757D01*
X200304113Y-69760820D01*
X200233555Y-69752175D01*
X200162942Y-69757684D01*
X200094537Y-69777209D01*
X200030602Y-69810612D01*
X199982637Y-69848696D01*
X199935222Y-69903928D01*
X199901191Y-69965814D01*
X199880548Y-70032146D01*
X199873299Y-70100717D01*
X197182363Y-70100717D01*
X197244776Y-69887795D01*
X197337654Y-69626024D01*
X197444965Y-69369600D01*
X197566321Y-69119363D01*
X197701331Y-68876152D01*
X197849605Y-68640805D01*
X198010754Y-68414162D01*
X198184388Y-68197060D01*
X198257679Y-68112595D01*
X198452986Y-67904656D01*
X198658107Y-67709352D01*
X198872556Y-67526921D01*
X199095849Y-67357600D01*
X199327502Y-67201626D01*
X199567030Y-67059237D01*
X199813949Y-66930670D01*
X200067773Y-66816162D01*
X200328019Y-66715952D01*
X200594202Y-66630275D01*
X200865837Y-66559371D01*
X201142440Y-66503475D01*
X201423527Y-66462826D01*
X201671579Y-66440032D01*
X201721607Y-66437489D01*
X201783783Y-66435664D01*
X201855372Y-66434527D01*
X201933637Y-66434051D01*
X202015841Y-66434208D01*
X202099250Y-66434969D01*
X202181126Y-66436307D01*
X202258734Y-66438193D01*
X202329336Y-66440598D01*
X202390197Y-66443496D01*
X202438581Y-66446858D01*
X202451269Y-66448056D01*
X202669995Y-66474177D01*
X202876708Y-66506327D01*
X203074567Y-66545095D01*
X203266731Y-66591067D01*
X203365895Y-66618140D01*
X203636443Y-66703043D01*
X203898640Y-66801472D01*
X204152973Y-66913691D01*
X204399935Y-67039964D01*
X204640014Y-67180555D01*
X204873700Y-67335727D01*
X205101484Y-67505745D01*
X205267672Y-67642245D01*
X205313624Y-67682879D01*
X205367877Y-67733131D01*
X205428015Y-67790578D01*
X205491623Y-67852799D01*
X205556285Y-67917373D01*
X205619588Y-67981878D01*
X205679114Y-68043893D01*
X205732450Y-68100995D01*
X205777180Y-68150765D01*
X205791886Y-68167801D01*
X205973849Y-68393555D01*
X206140918Y-68625408D01*
X206293134Y-68863461D01*
X206430539Y-69107812D01*
X206553175Y-69358562D01*
X206661086Y-69615808D01*
X206754313Y-69879652D01*
X206832898Y-70150192D01*
X206896883Y-70427527D01*
X206946312Y-70711758D01*
X206976531Y-70955106D01*
X206981411Y-71013516D01*
X206985611Y-71084843D01*
X206989080Y-71165900D01*
X206991767Y-71253499D01*
X206993622Y-71344452D01*
X206994594Y-71435573D01*
X206994634Y-71523673D01*
X206993690Y-71605566D01*
X206991713Y-71678064D01*
X206988864Y-71734835D01*
X206962229Y-72021912D01*
X206920831Y-72302683D01*
X206864564Y-72577542D01*
X206793323Y-72846885D01*
X206707001Y-73111107D01*
X206605493Y-73370603D01*
X206488693Y-73625769D01*
X206475337Y-73652728D01*
X206363231Y-73866161D01*
X206245631Y-74067462D01*
X206120531Y-74259518D01*
X205985929Y-74445219D01*
X205839819Y-74627450D01*
X205680199Y-74809100D01*
X205650454Y-74841338D01*
X205633711Y-74858912D01*
X205606110Y-74887307D01*
X205568205Y-74925966D01*
X205520550Y-74974332D01*
X205463699Y-75031848D01*
X205398208Y-75097956D01*
X205324632Y-75172099D01*
X205243524Y-75253720D01*
X205155439Y-75342261D01*
X205060932Y-75437166D01*
X204960558Y-75537876D01*
X204854871Y-75643835D01*
X204744427Y-75754486D01*
X204629778Y-75869270D01*
X204511481Y-75987631D01*
X204390090Y-76109012D01*
X204266159Y-76232855D01*
X204170264Y-76328628D01*
X204020760Y-76477912D01*
X203882201Y-76616258D01*
X203754124Y-76744109D01*
X203636062Y-76861909D01*
X203527549Y-76970101D01*
X203428121Y-77069127D01*
X203337311Y-77159431D01*
X203254654Y-77241456D01*
X203179685Y-77315646D01*
X203111938Y-77382442D01*
X203050947Y-77442289D01*
X202996248Y-77495629D01*
X202947374Y-77542906D01*
X202903860Y-77584562D01*
X202865240Y-77621040D01*
X202831049Y-77652785D01*
X202800822Y-77680239D01*
X202774093Y-77703844D01*
X202750396Y-77724045D01*
X202729265Y-77741283D01*
X202710237Y-77756003D01*
X202692843Y-77768648D01*
X202676621Y-77779659D01*
X202661103Y-77789482D01*
X202645824Y-77798558D01*
X202630319Y-77807331D01*
X202614122Y-77816244D01*
X202598252Y-77824924D01*
X202493921Y-77874933D01*
X202380244Y-77916350D01*
X202262469Y-77947423D01*
X202193401Y-77960160D01*
X202158526Y-77964063D01*
X202112369Y-77967167D01*
X202059114Y-77969396D01*
X202002944Y-77970676D01*
X201948044Y-77970931D01*
X201898596Y-77970085D01*
X201858786Y-77968064D01*
X201842862Y-77966469D01*
X201716401Y-77942848D01*
X201589684Y-77905387D01*
X201466718Y-77855589D01*
X201351508Y-77794955D01*
X201302307Y-77763896D01*
X201269753Y-77740504D01*
X201229968Y-77709453D01*
X201187311Y-77674276D01*
X201146144Y-77638510D01*
X201133597Y-77627150D01*
X201115208Y-77609791D01*
X201086263Y-77581783D01*
X201047387Y-77543750D01*
X200999204Y-77496317D01*
X200942336Y-77440111D01*
X200877407Y-77375757D01*
X200805041Y-77303880D01*
X200725862Y-77225107D01*
X200640492Y-77140062D01*
X200549557Y-77049372D01*
X200453679Y-76953661D01*
X200353482Y-76853556D01*
X200249589Y-76749682D01*
X200142625Y-76642665D01*
X200033212Y-76533129D01*
X199921975Y-76421702D01*
X199809537Y-76309008D01*
X199696521Y-76195673D01*
X199583552Y-76082322D01*
X199471253Y-75969582D01*
X199360247Y-75858077D01*
X199251158Y-75748434D01*
X199144610Y-75641277D01*
X199041226Y-75537233D01*
X198941630Y-75436927D01*
X198846445Y-75340984D01*
X198756296Y-75250031D01*
X198671806Y-75164693D01*
X198593597Y-75085595D01*
X198522295Y-75013362D01*
X198458522Y-74948622D01*
X198402903Y-74891998D01*
X198356060Y-74844118D01*
X198318618Y-74805605D01*
X198291200Y-74777086D01*
X198274429Y-74759187D01*
X198272221Y-74756726D01*
X198085947Y-74534256D01*
X197914146Y-74304783D01*
X197782202Y-74106498D01*
X201714422Y-74106498D01*
X201716074Y-74152310D01*
X201730225Y-74192726D01*
X201748766Y-74214320D01*
X201779406Y-74233946D01*
X201818129Y-74249423D01*
X201847831Y-74256609D01*
X201889704Y-74260896D01*
X201940037Y-74261318D01*
X201992357Y-74258210D01*
X202040193Y-74251907D01*
X202069713Y-74245142D01*
X202124852Y-74222415D01*
X202169358Y-74190998D01*
X202201849Y-74152436D01*
X202220938Y-74108276D01*
X202225635Y-74071021D01*
X202220628Y-74023791D01*
X202204862Y-73986165D01*
X202190850Y-73967981D01*
X202173769Y-73952195D01*
X202153752Y-73940358D01*
X202128108Y-73931794D01*
X202094149Y-73925824D01*
X202049186Y-73921771D01*
X201997334Y-73919211D01*
X201950127Y-73917174D01*
X201916451Y-73915012D01*
X201893722Y-73912341D01*
X201879354Y-73908773D01*
X201870766Y-73903924D01*
X201866936Y-73899736D01*
X201860270Y-73878086D01*
X201862436Y-73867503D01*
X201866528Y-73859780D01*
X201874059Y-73854495D01*
X201888042Y-73850957D01*
X201911493Y-73848473D01*
X201947424Y-73846352D01*
X201956571Y-73845901D01*
X202001351Y-73842960D01*
X202033953Y-73838737D01*
X202058306Y-73832533D01*
X202076661Y-73824550D01*
X202122757Y-73792507D01*
X202142286Y-73768268D01*
X202285423Y-73768268D01*
X202293556Y-73832869D01*
X202313489Y-73890889D01*
X202344434Y-73940414D01*
X202385605Y-73979525D01*
X202411682Y-73995573D01*
X202451643Y-74010077D01*
X202502539Y-74019257D01*
X202560010Y-74022872D01*
X202619698Y-74020681D01*
X202677242Y-74012444D01*
X202685386Y-74010680D01*
X202714559Y-74003604D01*
X202731332Y-73997570D01*
X202739110Y-73990462D01*
X202741296Y-73980162D01*
X202741371Y-73975874D01*
X202854188Y-73975874D01*
X202856726Y-73989641D01*
X202866264Y-73999876D01*
X202885684Y-74008350D01*
X202917871Y-74016832D01*
X202922684Y-74017924D01*
X202950404Y-74021378D01*
X202987909Y-74022505D01*
X203029255Y-74021499D01*
X203068498Y-74018556D01*
X203099693Y-74013870D01*
X203107530Y-74011879D01*
X203161009Y-73989115D01*
X203201571Y-73957139D01*
X203228842Y-73916418D01*
X203242446Y-73867421D01*
X203244012Y-73841646D01*
X203239242Y-73795661D01*
X203225495Y-73762067D01*
X203321289Y-73762067D01*
X203324494Y-73814459D01*
X203333161Y-73854992D01*
X203359541Y-73913903D01*
X203396076Y-73960310D01*
X203442818Y-73994269D01*
X203484138Y-74011454D01*
X203515443Y-74017674D01*
X203556868Y-74021126D01*
X203602650Y-74021778D01*
X203647023Y-74019596D01*
X203678254Y-74015355D01*
X203829091Y-74015355D01*
X203972894Y-74015355D01*
X203975613Y-73848144D01*
X203976688Y-73790902D01*
X203977950Y-73747414D01*
X203979623Y-73715320D01*
X203981929Y-73692256D01*
X203985091Y-73675861D01*
X203989332Y-73663773D01*
X203993798Y-73655374D01*
X204019054Y-73626443D01*
X204051352Y-73611944D01*
X204074904Y-73610038D01*
X204094813Y-73611840D01*
X204110489Y-73617129D01*
X204122429Y-73627612D01*
X204131130Y-73644998D01*
X204137088Y-73670994D01*
X204140801Y-73707311D01*
X204142767Y-73755655D01*
X204143481Y-73817735D01*
X204143528Y-73845870D01*
X204143528Y-74015355D01*
X204296637Y-74015355D01*
X204296637Y-73823417D01*
X204296438Y-73770670D01*
X204395079Y-73770670D01*
X204395230Y-73773476D01*
X204405413Y-73843747D01*
X204427156Y-73903455D01*
X204460144Y-73952146D01*
X204504065Y-73989366D01*
X204558605Y-74014663D01*
X204562512Y-74015884D01*
X204591430Y-74020866D01*
X204630087Y-74022516D01*
X204672491Y-74021012D01*
X204712651Y-74016535D01*
X204740400Y-74010567D01*
X204771383Y-73998534D01*
X204798940Y-73980168D01*
X204825404Y-73955436D01*
X204855901Y-73919351D01*
X204876898Y-73881725D01*
X204889729Y-73838698D01*
X204895727Y-73786407D01*
X204896583Y-73750241D01*
X204985629Y-73750241D01*
X204985841Y-73790896D01*
X204987043Y-73819900D01*
X204990080Y-73841718D01*
X204995801Y-73860815D01*
X205005050Y-73881657D01*
X205013898Y-73899321D01*
X205047301Y-73949678D01*
X205089511Y-73987893D01*
X205138873Y-74012517D01*
X205145706Y-74014637D01*
X205178412Y-74020314D01*
X205220240Y-74022372D01*
X205264634Y-74020926D01*
X205305038Y-74016090D01*
X205324984Y-74011507D01*
X205370711Y-73990419D01*
X205412442Y-73957240D01*
X205445464Y-73915982D01*
X205453048Y-73902471D01*
X205473619Y-73847428D01*
X205483983Y-73786551D01*
X205484368Y-73735767D01*
X205595200Y-73735767D01*
X205595631Y-73793301D01*
X205596783Y-73839428D01*
X205598817Y-73875719D01*
X205601897Y-73903743D01*
X205606186Y-73925070D01*
X205611845Y-73941269D01*
X205619037Y-73953910D01*
X205627926Y-73964562D01*
X205636545Y-73972869D01*
X205661353Y-73992675D01*
X205686395Y-74005154D01*
X205716259Y-74011639D01*
X205755534Y-74013461D01*
X205775349Y-74013172D01*
X205847875Y-74011326D01*
X205850475Y-73979447D01*
X205850905Y-73950603D01*
X205848464Y-73923118D01*
X205848095Y-73921024D01*
X205843736Y-73904376D01*
X205835580Y-73896710D01*
X205818463Y-73894566D01*
X205808467Y-73894479D01*
X205779552Y-73891010D01*
X205760274Y-73879431D01*
X205758467Y-73877529D01*
X205754450Y-73872239D01*
X205751157Y-73865031D01*
X205748487Y-73854283D01*
X205746340Y-73838373D01*
X205744615Y-73815678D01*
X205743211Y-73784576D01*
X205742028Y-73743444D01*
X205740964Y-73690659D01*
X205739919Y-73624600D01*
X205739087Y-73565267D01*
X205735058Y-73269955D01*
X205598065Y-73269955D01*
X205595847Y-73580203D01*
X205595326Y-73665258D01*
X205595200Y-73735767D01*
X205484368Y-73735767D01*
X205484461Y-73723580D01*
X205475377Y-73662251D01*
X205457053Y-73606306D01*
X205429813Y-73559482D01*
X205422695Y-73550820D01*
X205400733Y-73530492D01*
X205372324Y-73510068D01*
X205357039Y-73501116D01*
X205336636Y-73491177D01*
X205317856Y-73484831D01*
X205296127Y-73481291D01*
X205266875Y-73479769D01*
X205231409Y-73479473D01*
X205190743Y-73479979D01*
X205161891Y-73481928D01*
X205140573Y-73485968D01*
X205122504Y-73492745D01*
X205113479Y-73497293D01*
X205063267Y-73533060D01*
X205023663Y-73580943D01*
X205006443Y-73612387D01*
X204997241Y-73633632D01*
X204991212Y-73653324D01*
X204987703Y-73675795D01*
X204986061Y-73705373D01*
X204985630Y-73746389D01*
X204985629Y-73750241D01*
X204896583Y-73750241D01*
X204896602Y-73749429D01*
X204894048Y-73689751D01*
X204885507Y-73641721D01*
X204869659Y-73601561D01*
X204845183Y-73565492D01*
X204824422Y-73542849D01*
X204785363Y-73510451D01*
X204742707Y-73489363D01*
X204692672Y-73478190D01*
X204641987Y-73475444D01*
X204577237Y-73482306D01*
X204521157Y-73502336D01*
X204474441Y-73534695D01*
X204437781Y-73578545D01*
X204411872Y-73633050D01*
X204397406Y-73697371D01*
X204395079Y-73770670D01*
X204296438Y-73770670D01*
X204296385Y-73756508D01*
X204295554Y-73703596D01*
X204294033Y-73662568D01*
X204291711Y-73631311D01*
X204288476Y-73607712D01*
X204284351Y-73590106D01*
X204264287Y-73543284D01*
X204235252Y-73509170D01*
X204196460Y-73487269D01*
X204147123Y-73477087D01*
X204103968Y-73476771D01*
X204070155Y-73479874D01*
X204045620Y-73485989D01*
X204023550Y-73497231D01*
X204011072Y-73505603D01*
X203974699Y-73531241D01*
X203970273Y-73269955D01*
X203833281Y-73269955D01*
X203829091Y-74015355D01*
X203678254Y-74015355D01*
X203684226Y-74014544D01*
X203692259Y-74012692D01*
X203714296Y-74006217D01*
X203724807Y-73998668D01*
X203727913Y-73985110D01*
X203727901Y-73970023D01*
X203724734Y-73941182D01*
X203717785Y-73914059D01*
X203716576Y-73910937D01*
X203708251Y-73894151D01*
X203698345Y-73888550D01*
X203680351Y-73890991D01*
X203676905Y-73891775D01*
X203652528Y-73895473D01*
X203620486Y-73897910D01*
X203598149Y-73898481D01*
X203553009Y-73893322D01*
X203518692Y-73877323D01*
X203494619Y-73849781D01*
X203480210Y-73809995D01*
X203474884Y-73757264D01*
X203474828Y-73749429D01*
X203479965Y-73694115D01*
X203495114Y-73651404D01*
X203520255Y-73621320D01*
X203555363Y-73603885D01*
X203600418Y-73599124D01*
X203615705Y-73600154D01*
X203654183Y-73604066D01*
X203679682Y-73606006D01*
X203695292Y-73605233D01*
X203704103Y-73601003D01*
X203709206Y-73592575D01*
X203713691Y-73579207D01*
X203714610Y-73576401D01*
X203720995Y-73549401D01*
X203723091Y-73523893D01*
X203722856Y-73519993D01*
X203719421Y-73504337D01*
X203710048Y-73494913D01*
X203690228Y-73487773D01*
X203684201Y-73486165D01*
X203658153Y-73481499D01*
X203623070Y-73477929D01*
X203586030Y-73476152D01*
X203581759Y-73476092D01*
X203513760Y-73481280D01*
X203456261Y-73498508D01*
X203408680Y-73528111D01*
X203370438Y-73570425D01*
X203346980Y-73611900D01*
X203332876Y-73654733D01*
X203324198Y-73706806D01*
X203321289Y-73762067D01*
X203225495Y-73762067D01*
X203224014Y-73758449D01*
X203196953Y-73728459D01*
X203156682Y-73704143D01*
X203104699Y-73684816D01*
X203065175Y-73672091D01*
X203038935Y-73661446D01*
X203023541Y-73651431D01*
X203016553Y-73640594D01*
X203015356Y-73631677D01*
X203022288Y-73610061D01*
X203041825Y-73595917D01*
X203072080Y-73589672D01*
X203111163Y-73591751D01*
X203151887Y-73600958D01*
X203176424Y-73606843D01*
X203194507Y-73608602D01*
X203200600Y-73607002D01*
X203209213Y-73591122D01*
X203217469Y-73566338D01*
X203223312Y-73539774D01*
X203224873Y-73522902D01*
X203222744Y-73507930D01*
X203213548Y-73498519D01*
X203193077Y-73490607D01*
X203190625Y-73489857D01*
X203167738Y-73485407D01*
X203134125Y-73481911D01*
X203095169Y-73479838D01*
X203071764Y-73479473D01*
X203031040Y-73479980D01*
X203001846Y-73481973D01*
X202979616Y-73486158D01*
X202959782Y-73493242D01*
X202948342Y-73498581D01*
X202907799Y-73526717D01*
X202879995Y-73564593D01*
X202865439Y-73611448D01*
X202863961Y-73624106D01*
X202865250Y-73673539D01*
X202878678Y-73713997D01*
X202905081Y-73746555D01*
X202945295Y-73772289D01*
X202993031Y-73790222D01*
X203036850Y-73804129D01*
X203066931Y-73816116D01*
X203085357Y-73827359D01*
X203094206Y-73839035D01*
X203095816Y-73848351D01*
X203091392Y-73871285D01*
X203076041Y-73887520D01*
X203066250Y-73893273D01*
X203043516Y-73899656D01*
X203010908Y-73902157D01*
X202974164Y-73900886D01*
X202939024Y-73895953D01*
X202918655Y-73890450D01*
X202897662Y-73883204D01*
X202884285Y-73878889D01*
X202882137Y-73878363D01*
X202877570Y-73885400D01*
X202871084Y-73903141D01*
X202864128Y-73926527D01*
X202858152Y-73950502D01*
X202854605Y-73970007D01*
X202854188Y-73975874D01*
X202741371Y-73975874D01*
X202741371Y-73975853D01*
X202739308Y-73959331D01*
X202734102Y-73936399D01*
X202727232Y-73912098D01*
X202720176Y-73891470D01*
X202714410Y-73879558D01*
X202712802Y-73878363D01*
X202704097Y-73880231D01*
X202684444Y-73885078D01*
X202663516Y-73890450D01*
X202605277Y-73900805D01*
X202552838Y-73900697D01*
X202507974Y-73890683D01*
X202472456Y-73871320D01*
X202448058Y-73843164D01*
X202438883Y-73819939D01*
X202433405Y-73797779D01*
X202765239Y-73797779D01*
X202770517Y-73776751D01*
X202773453Y-73748485D01*
X202771892Y-73710955D01*
X202766571Y-73670143D01*
X202758229Y-73632027D01*
X202749507Y-73606648D01*
X202719591Y-73555504D01*
X202680512Y-73517370D01*
X202631716Y-73491878D01*
X202572654Y-73478663D01*
X202555008Y-73477160D01*
X202488614Y-73480074D01*
X202430190Y-73496760D01*
X202380511Y-73526572D01*
X202340351Y-73568858D01*
X202310488Y-73622972D01*
X202291696Y-73688263D01*
X202289876Y-73699005D01*
X202285423Y-73768268D01*
X202142286Y-73768268D01*
X202154808Y-73752725D01*
X202172578Y-73705622D01*
X202175831Y-73651616D01*
X202175622Y-73648907D01*
X202171930Y-73604378D01*
X202249810Y-73604378D01*
X202249810Y-73481506D01*
X202206542Y-73485095D01*
X202171791Y-73491374D01*
X202144251Y-73502759D01*
X202140669Y-73505149D01*
X202118064Y-73521615D01*
X202073575Y-73501247D01*
X202017667Y-73482918D01*
X201958425Y-73476198D01*
X201899689Y-73480745D01*
X201845294Y-73496218D01*
X201799079Y-73522276D01*
X201794276Y-73526089D01*
X201761698Y-73562729D01*
X201741330Y-73606730D01*
X201733367Y-73654713D01*
X201738005Y-73703296D01*
X201755439Y-73749099D01*
X201779482Y-73782277D01*
X201798874Y-73803038D01*
X201781766Y-73818521D01*
X201757455Y-73849521D01*
X201744062Y-73886071D01*
X201742134Y-73923819D01*
X201752215Y-73958418D01*
X201762299Y-73973618D01*
X201782466Y-73997585D01*
X201754963Y-74025088D01*
X201727524Y-74063146D01*
X201714422Y-74106498D01*
X197782202Y-74106498D01*
X197756879Y-74068443D01*
X197725720Y-74015355D01*
X200565610Y-74015355D01*
X200717572Y-74015355D01*
X200720160Y-73842668D01*
X200721118Y-73785192D01*
X200722191Y-73741542D01*
X200723608Y-73709429D01*
X200725596Y-73686563D01*
X200728384Y-73670654D01*
X200732200Y-73659414D01*
X200737272Y-73650552D01*
X200739634Y-73647253D01*
X200762535Y-73626398D01*
X200791731Y-73613017D01*
X200821117Y-73609347D01*
X200835156Y-73612281D01*
X200849928Y-73619044D01*
X200861419Y-73628061D01*
X200870074Y-73641315D01*
X200876343Y-73660792D01*
X200880673Y-73688473D01*
X200883512Y-73726344D01*
X200885307Y-73776387D01*
X200886493Y-73839704D01*
X200889071Y-74015355D01*
X201032995Y-74015355D01*
X201032917Y-73807852D01*
X201032845Y-73747765D01*
X201137754Y-73747765D01*
X201143253Y-73822481D01*
X201159697Y-73885438D01*
X201187010Y-73936556D01*
X201225114Y-73975753D01*
X201273932Y-74002949D01*
X201333388Y-74018064D01*
X201399651Y-74021159D01*
X201437748Y-74019131D01*
X201465448Y-74015262D01*
X201488465Y-74008264D01*
X201512510Y-73996848D01*
X201516211Y-73994863D01*
X201562891Y-73962061D01*
X201597865Y-73920062D01*
X201621585Y-73867951D01*
X201634502Y-73804814D01*
X201637373Y-73749429D01*
X201632520Y-73678386D01*
X201617530Y-73619068D01*
X201591765Y-73570176D01*
X201554583Y-73530410D01*
X201516498Y-73504472D01*
X201495412Y-73493168D01*
X201477399Y-73485905D01*
X201457877Y-73481794D01*
X201432268Y-73479949D01*
X201395990Y-73479480D01*
X201387564Y-73479473D01*
X201348778Y-73479779D01*
X201321537Y-73481289D01*
X201301272Y-73484891D01*
X201283414Y-73491473D01*
X201263394Y-73501923D01*
X201258830Y-73504498D01*
X201211776Y-73538303D01*
X201176819Y-73580102D01*
X201153309Y-73631202D01*
X201140595Y-73692910D01*
X201137754Y-73747765D01*
X201032845Y-73747765D01*
X201032841Y-73744461D01*
X201032553Y-73694973D01*
X201031883Y-73657173D01*
X201030659Y-73628848D01*
X201028710Y-73607784D01*
X201025865Y-73591767D01*
X201021954Y-73578583D01*
X201016804Y-73566017D01*
X201013717Y-73559284D01*
X200991695Y-73523359D01*
X200963041Y-73498799D01*
X200924963Y-73483901D01*
X200879093Y-73477258D01*
X200826498Y-73478311D01*
X200781526Y-73488891D01*
X200746960Y-73508216D01*
X200737837Y-73516900D01*
X200732243Y-73522548D01*
X200728148Y-73523870D01*
X200725219Y-73518866D01*
X200723126Y-73505536D01*
X200721534Y-73481880D01*
X200720113Y-73445898D01*
X200718719Y-73401779D01*
X200714689Y-73269955D01*
X200658449Y-73267530D01*
X200627208Y-73266940D01*
X200600216Y-73267756D01*
X200583909Y-73269698D01*
X200565610Y-73274291D01*
X200565610Y-74015355D01*
X197725720Y-74015355D01*
X197614212Y-73825373D01*
G37*
%TD*%
D12*
%TO.C,R13*%
X94000000Y-76287500D03*
X94000000Y-78112500D03*
%TD*%
D13*
%TO.C,R12*%
X95600000Y-78112500D03*
X95600000Y-76287500D03*
%TD*%
D14*
%TO.C,C13*%
X92200000Y-76250000D03*
X92200000Y-78325000D03*
%TD*%
D15*
%TO.C,U3*%
X162570000Y-90790000D03*
X162570000Y-105210000D03*
X217430000Y-105210000D03*
X217430000Y-90790000D03*
D16*
X162570000Y-84060000D03*
%TD*%
D17*
%TO.C,F2*%
X156125000Y-105000000D03*
X157875000Y-105000000D03*
%TD*%
D18*
%TO.C,C19*%
X79440000Y-86037500D03*
X79440000Y-83962500D03*
%TD*%
D19*
%TO.C,U7*%
X81637500Y-89700000D03*
X81637500Y-88750000D03*
X81637500Y-87800000D03*
X79362500Y-87800000D03*
X79362500Y-88750000D03*
X79362500Y-89700000D03*
%TD*%
D20*
%TO.C,C6*%
X122387500Y-130000000D03*
X124112500Y-130000000D03*
%TD*%
D21*
%TO.C,C8*%
X117525000Y-71250000D03*
X119250000Y-71250000D03*
%TD*%
D22*
%TO.C,J2*%
X111500000Y-127000000D03*
D23*
X111500000Y-129540000D03*
X108960000Y-127000000D03*
X108960000Y-129540000D03*
X106420000Y-127000000D03*
X106420000Y-129540000D03*
%TD*%
D24*
%TO.C,R8*%
X79587500Y-112500000D03*
X81412500Y-112500000D03*
%TD*%
%TO.C,R6*%
X79625000Y-110750000D03*
X81450000Y-110750000D03*
%TD*%
D25*
%TO.C,JP1*%
X90480000Y-121500000D03*
X90480000Y-117940000D03*
X91750000Y-121500000D03*
X91750000Y-117940000D03*
X93020000Y-121500000D03*
X93020000Y-117940000D03*
X94290000Y-121500000D03*
X94290000Y-117940000D03*
X95560000Y-121500000D03*
X95560000Y-117940000D03*
%TD*%
D26*
%TO.C,J3*%
X71640000Y-93070000D03*
D27*
X75820000Y-93070000D03*
X75820000Y-84430000D03*
D26*
X71640000Y-84430000D03*
D28*
X76735000Y-85500000D03*
X76735000Y-86300000D03*
D29*
X76735000Y-87000000D03*
X76735000Y-88000000D03*
X76735000Y-89500000D03*
X76735000Y-90500000D03*
D28*
X76735000Y-91200000D03*
X76735000Y-92000000D03*
X76735000Y-92000000D03*
X76735000Y-91200000D03*
D29*
X76735000Y-90000000D03*
X76735000Y-89000000D03*
X76735000Y-88500000D03*
X76735000Y-87500000D03*
D28*
X76735000Y-86300000D03*
X76735000Y-85500000D03*
D30*
X75290000Y-85860000D03*
X75290000Y-91640000D03*
%TD*%
D13*
%TO.C,R11*%
X85000000Y-86412500D03*
X85000000Y-84587500D03*
%TD*%
D31*
%TO.C,SW2*%
X77150000Y-103100000D03*
X70850000Y-103100000D03*
X70850000Y-106900000D03*
X77150000Y-106900000D03*
%TD*%
D32*
%TO.C,R10*%
X186892500Y-78015000D03*
X185067500Y-78015000D03*
%TD*%
%TO.C,R5*%
X73515000Y-81750000D03*
X71690000Y-81750000D03*
%TD*%
D33*
%TO.C,Y1*%
X98693750Y-74000000D03*
X98693750Y-71500000D03*
%TD*%
D17*
%TO.C,F1*%
X156125000Y-90500000D03*
X157875000Y-90500000D03*
%TD*%
D31*
%TO.C,SW1*%
X77150000Y-110150000D03*
X70850000Y-110150000D03*
X70850000Y-113950000D03*
X77150000Y-113950000D03*
%TD*%
D34*
%TO.C,IC1*%
X121050000Y-126525000D03*
X121050000Y-127175000D03*
X121050000Y-127825000D03*
X121050000Y-128475000D03*
X125450000Y-128475000D03*
X125450000Y-127825000D03*
X125450000Y-127175000D03*
X125450000Y-126525000D03*
%TD*%
D24*
%TO.C,R2*%
X96087500Y-107500000D03*
X97912500Y-107500000D03*
%TD*%
D20*
%TO.C,C14*%
X175137500Y-119500000D03*
X176862500Y-119500000D03*
%TD*%
D32*
%TO.C,R3*%
X97912500Y-109500000D03*
X96087500Y-109500000D03*
%TD*%
D35*
%TO.C,U1*%
X190600000Y-122018750D03*
X189400000Y-122018750D03*
X189400000Y-120668750D03*
X190600000Y-120668750D03*
%TD*%
D36*
%TO.C,U5*%
X107036200Y-86345000D03*
X107036200Y-87615000D03*
X107036200Y-88885000D03*
X107036200Y-90155000D03*
X111963800Y-90155000D03*
X111963800Y-88885000D03*
X111963800Y-87615000D03*
X111963800Y-86345000D03*
%TD*%
D37*
%TO.C,REF\u002A\u002A*%
X80000000Y-119750000D03*
%TD*%
%TO.C,*%
X161000000Y-76250000D03*
%TD*%
D21*
%TO.C,C15*%
X186862500Y-119500000D03*
X185137500Y-119500000D03*
%TD*%
D38*
%TO.C,J4*%
X106500000Y-110000000D03*
D39*
X109040000Y-110000000D03*
X111580000Y-110000000D03*
%TD*%
D37*
%TO.C,REF\u002A\u002A*%
X219000000Y-119750000D03*
%TD*%
D40*
%TO.C,IC2*%
X124750000Y-73000000D03*
X124750000Y-73950000D03*
X124750000Y-74900000D03*
X127250000Y-74900000D03*
X127250000Y-73000000D03*
%TD*%
D37*
%TO.C,REF\u002A\u002A*%
X161000000Y-76250000D03*
%TD*%
D41*
%TO.C,U4*%
X105250000Y-69575000D03*
X105750000Y-69575000D03*
X106250000Y-69575000D03*
X106750000Y-69575000D03*
X107250000Y-69575000D03*
X107750000Y-69575000D03*
X108250000Y-69575000D03*
X108750000Y-69575000D03*
X109250000Y-69575000D03*
X109750000Y-69575000D03*
X110250000Y-69575000D03*
X110750000Y-69575000D03*
X111250000Y-69575000D03*
X111750000Y-69575000D03*
X112250000Y-69575000D03*
X112750000Y-69575000D03*
D42*
X114675000Y-71500000D03*
X114675000Y-72000000D03*
X114675000Y-72500000D03*
X114675000Y-73000000D03*
X114675000Y-73500000D03*
X114675000Y-74000000D03*
X114675000Y-74500000D03*
X114675000Y-75000000D03*
X114675000Y-75500000D03*
X114675000Y-76000000D03*
X114675000Y-76500000D03*
X114675000Y-77000000D03*
X114675000Y-77500000D03*
X114675000Y-78000000D03*
X114675000Y-78500000D03*
X114675000Y-79000000D03*
D41*
X112750000Y-80925000D03*
X112250000Y-80925000D03*
X111750000Y-80925000D03*
X111250000Y-80925000D03*
X110750000Y-80925000D03*
X110250000Y-80925000D03*
X109750000Y-80925000D03*
X109250000Y-80925000D03*
X108750000Y-80925000D03*
X108250000Y-80925000D03*
X107750000Y-80925000D03*
X107250000Y-80925000D03*
X106750000Y-80925000D03*
X106250000Y-80925000D03*
X105750000Y-80925000D03*
X105250000Y-80925000D03*
D42*
X103325000Y-79000000D03*
X103325000Y-78500000D03*
X103325000Y-78000000D03*
X103325000Y-77500000D03*
X103325000Y-77000000D03*
X103325000Y-76500000D03*
X103325000Y-76000000D03*
X103325000Y-75500000D03*
X103325000Y-75000000D03*
X103325000Y-74500000D03*
X103325000Y-74000000D03*
X103325000Y-73500000D03*
X103325000Y-73000000D03*
X103325000Y-72500000D03*
X103325000Y-72000000D03*
X103325000Y-71500000D03*
%TD*%
D37*
%TO.C,REF\u002A\u002A*%
X138000000Y-119750000D03*
%TD*%
%TO.C,REF\u002A\u002A*%
X161000000Y-119750000D03*
%TD*%
D24*
%TO.C,R7*%
X79587500Y-108000000D03*
X81412500Y-108000000D03*
%TD*%
D20*
%TO.C,C9*%
X105862500Y-84250000D03*
X104137500Y-84250000D03*
%TD*%
D21*
%TO.C,C3*%
X94831250Y-71750000D03*
X96556250Y-71750000D03*
%TD*%
D18*
%TO.C,C18*%
X91250000Y-82212500D03*
X91250000Y-84287500D03*
%TD*%
D37*
%TO.C,REF\u002A\u002A*%
X80000000Y-76250000D03*
%TD*%
D43*
%TO.C,J1*%
X111540000Y-100540000D03*
X106460000Y-95460000D03*
X111540000Y-95460000D03*
X106460000Y-100540000D03*
D44*
X109000000Y-98000000D03*
%TD*%
D12*
%TO.C,R1*%
X179000000Y-119587500D03*
X179000000Y-121412500D03*
%TD*%
D20*
%TO.C,C7*%
X190862500Y-118068750D03*
X189137500Y-118068750D03*
%TD*%
D45*
%TO.C,PS1*%
X180750000Y-119550000D03*
X180750000Y-120500000D03*
X180750000Y-121450000D03*
X183250000Y-121450000D03*
X183250000Y-119550000D03*
%TD*%
D46*
%TO.C,C2*%
X83212500Y-112500000D03*
X85287500Y-112500000D03*
%TD*%
D21*
%TO.C,C4*%
X94831250Y-73750000D03*
X96556250Y-73750000D03*
%TD*%
D47*
%TO.C,C1*%
X92000000Y-86637500D03*
X92000000Y-88362500D03*
%TD*%
D37*
%TO.C,REF\u002A\u002A*%
X138000000Y-76250000D03*
%TD*%
D20*
%TO.C,C5*%
X108637500Y-91750000D03*
X110362500Y-91750000D03*
%TD*%
D37*
%TO.C,REF\u002A\u002A*%
X219000000Y-76250000D03*
%TD*%
D46*
%TO.C,C17*%
X87212500Y-82500000D03*
X89287500Y-82500000D03*
%TD*%
D48*
%TO.C,D1*%
X191050000Y-78000000D03*
X189000000Y-78000000D03*
%TD*%
D32*
%TO.C,R4*%
X77015000Y-81750000D03*
X75190000Y-81750000D03*
%TD*%
D14*
%TO.C,C20*%
X83750000Y-108462500D03*
X83750000Y-110537500D03*
%TD*%
D20*
%TO.C,C10*%
X114750000Y-83750000D03*
X113025000Y-83750000D03*
%TD*%
D24*
%TO.C,R9*%
X79587500Y-106000000D03*
X81412500Y-106000000D03*
%TD*%
D49*
%TO.C,U2*%
X86000000Y-90600000D03*
X88000000Y-90600000D03*
X90000000Y-90600000D03*
X92000000Y-90600000D03*
X94000000Y-90600000D03*
X96000000Y-90600000D03*
X98000000Y-90600000D03*
X100000000Y-90600000D03*
X100000000Y-105400000D03*
X98000000Y-105400000D03*
X96000000Y-105400000D03*
X94000000Y-105400000D03*
X92000000Y-105400000D03*
X90000000Y-105400000D03*
X88000000Y-105400000D03*
X86000000Y-105400000D03*
%TD*%
D20*
%TO.C,C16*%
X125137500Y-76950000D03*
X126862500Y-76950000D03*
%TD*%
D45*
%TO.C,PS2*%
X86750000Y-84550000D03*
X86750000Y-85500000D03*
X86750000Y-86450000D03*
X89250000Y-86450000D03*
X89250000Y-84550000D03*
%TD*%
D20*
%TO.C,C12*%
X99862500Y-77750000D03*
X98137500Y-77750000D03*
%TD*%
D47*
%TO.C,C11*%
X102000000Y-69750000D03*
X102000000Y-68025000D03*
%TD*%
M02*
