M48
; DRILL file {KiCad (5.99.0-12717-g57c7d663b0)} date Fri Oct 15 20:31:20 2021
; FORMAT={-:-/ absolute / inch / decimal}
; #@! TF.CreationDate,2021-10-15T20:31:20+02:00
; #@! TF.GenerationSoftware,Kicad,Pcbnew,(5.99.0-12717-g57c7d663b0)
; #@! TF.FileFunction,Plated,1,4,PTH
FMAT,2
INCH
; #@! TA.AperFunction,Plated,PTH,ViaDrill
T1C0.0157
; #@! TA.AperFunction,Plated,PTH,ComponentDrill
T2C0.0236
; #@! TA.AperFunction,Plated,PTH,ComponentDrill
T3C0.0394
; #@! TA.AperFunction,Plated,PTH,ComponentDrill
T4C0.0469
; #@! TA.AperFunction,Plated,PTH,ComponentDrill
T5C0.0591
; #@! TA.AperFunction,Plated,PTH,ComponentDrill
T6C0.0669
%
G90
G05
T1
X2.8937Y-3.1791
X2.9173Y-4.0591
X2.9173Y-4.3366
X2.9532Y-3.4552
X2.9692Y-3.534
X3.0217Y-4.2717
X3.0315Y-3.1791
X3.0709Y-3.622
X3.1299Y-4.124
X3.1299Y-4.4783
X3.1791Y-3.3071
X3.2579Y-3.4941
X3.2677Y-4.5571
X3.3071Y-3.7106
X3.3318Y-3.4509
X3.3563Y-4.4783
X3.3611Y-3.4801
X3.3858Y-4.0846
X3.435Y-4.2909
X3.435Y-4.3701
X3.4355Y-4.3302
X3.4646Y-2.9528
X3.4646Y-4.065
X3.5335Y-3.4449
X3.5433Y-3.189
X3.5433Y-3.9764
X3.5638Y-4.7232
X3.5827Y-4.0551
X3.613Y-4.7232
X3.6299Y-3.1339
X3.6614Y-3.3071
X3.6614Y-3.4154
X3.6614Y-3.4744
X3.6622Y-4.7232
X3.6693Y-4.0709
X3.7335Y-2.861
X3.7598Y-4.5768
X3.7606Y-4.7232
X3.811Y-3.1969
X3.8189Y-4.0846
X3.8583Y-3.1102
X3.8681Y-3.622
X3.874Y-3.6772
X3.8858Y-3.7323
X3.8937Y-5.0
X3.8976Y-4.311
X3.9055Y-3.4882
X3.9055Y-3.7835
X3.9272Y-3.1102
X3.937Y-4.0846
X3.9409Y-3.8307
X3.9528Y-3.4882
X3.9764Y-2.7416
X3.9921Y-3.5157
X3.9921Y-3.874
X4.0Y-3.563
X4.0Y-3.6142
X4.0Y-3.6654
X4.0Y-4.0709
X4.0118Y-3.7126
X4.0394Y-3.752
X4.0472Y-3.9055
X4.0551Y-3.3169
X4.0555Y-3.1815
X4.0787Y-3.7795
X4.1102Y-3.9213
X4.126Y-3.7913
X4.1339Y-3.001
X4.1469Y-2.6378
X4.1634Y-2.815
X4.1711Y-2.9191
X4.2224Y-2.9823
X4.2224Y-3.0217
X4.2224Y-3.061
X4.2224Y-3.1014
X4.2224Y-3.3169
X4.2913Y-3.75
X4.2913Y-3.9665
X4.32Y-2.8101
X4.3228Y-3.0236
X4.3228Y-3.063
X4.3233Y-3.1024
X4.3307Y-4.1929
X4.3622Y-2.8455
X4.3622Y-2.9291
X4.3898Y-3.6122
X4.3996Y-3.8583
X4.4173Y-2.8455
X4.4405Y-3.1028
X4.4409Y-2.9291
X4.4409Y-3.0236
X4.4409Y-3.063
X4.4567Y-2.7953
X4.5026Y-3.3412
X4.5354Y-3.4961
X4.5669Y-3.2972
X4.5748Y-3.3937
X4.6063Y-3.4803
X4.6314Y-2.7657
X4.6427Y-4.0079
X4.6614Y-4.3701
X4.6693Y-4.3228
X4.6949Y-2.8475
X4.6998Y-3.685
X4.7003Y-2.7657
X4.7087Y-3.4567
X4.7441Y-2.9203
X4.7441Y-4.2126
X4.7638Y-4.0079
X4.7736Y-5.1181
X4.7835Y-4.9242
X4.7879Y-2.7318
X4.7885Y-2.8397
X4.8178Y-2.8689
X4.8346Y-4.1102
X4.8583Y-2.8898
X4.8583Y-2.9449
X4.8583Y-4.8543
X4.8622Y-4.8031
X4.8632Y-4.2126
X4.8819Y-3.0295
X4.8976Y-2.7746
X4.8976Y-4.0079
X4.9409Y-5.1181
X4.9902Y-3.0787
X4.9902Y-5.0591
X5.0689Y-2.872
X5.1102Y-2.874
X5.8031Y-4.1102
X5.8031Y-4.2835
X5.9685Y-4.626
X5.9724Y-4.7992
X6.5512Y-4.9134
X6.6457Y-4.7087
X6.9265Y-4.7361
X7.1654Y-4.7441
X7.1811Y-4.9173
X7.2933Y-4.6457
X7.4016Y-4.6484
X7.5236Y-4.8701
X7.5591Y-4.6484
X7.5699Y-3.0709
T3
X4.1898Y-5.0
X4.1898Y-5.1
X4.1929Y-4.3307
X4.2898Y-5.0
X4.2898Y-5.1
X4.2929Y-4.3307
X4.3898Y-5.0
X4.3898Y-5.1
X4.3929Y-4.3307
T4
X6.4004Y-3.5744
X6.4004Y-4.1421
X8.5602Y-3.5744
X8.5602Y-4.1421
T5
X4.2913Y-3.8583
T6
X4.1913Y-3.7583
X4.1913Y-3.9583
X4.3913Y-3.7583
X4.3913Y-3.9583
T2
G00X2.8323Y-3.324
M15
G01X2.8087Y-3.324
M16
G05
G00X2.8323Y-3.6642
M15
G01X2.8087Y-3.6642
M16
G05
G00X3.0067Y-3.324
M15
G01X2.9634Y-3.324
M16
G05
G00X3.0067Y-3.6642
M15
G01X2.9634Y-3.6642
M16
G05
T0
M30
