%TF.GenerationSoftware,KiCad,Pcbnew,(5.99.0-12717-g57c7d663b0)*%
%TF.CreationDate,2021-10-15T20:31:15+02:00*%
%TF.ProjectId,Main_PCB,4d61696e-5f50-4434-922e-6b696361645f,rev?*%
%TF.SameCoordinates,Original*%
%TF.FileFunction,Legend,Top*%
%TF.FilePolarity,Positive*%
%FSLAX46Y46*%
G04 Gerber Fmt 4.6, Leading zero omitted, Abs format (unit mm)*
G04 Created by KiCad (PCBNEW (5.99.0-12717-g57c7d663b0)) date 2021-10-15 20:31:15*
%MOMM*%
%LPD*%
G01*
G04 APERTURE LIST*
%ADD10C,0.150000*%
%ADD11C,0.254000*%
%ADD12C,0.120000*%
%ADD13C,0.100000*%
%ADD14C,0.200000*%
%ADD15C,0.010000*%
G04 APERTURE END LIST*
D10*
X74047619Y-116452380D02*
X73714285Y-115976190D01*
X73476190Y-116452380D02*
X73476190Y-115452380D01*
X73857142Y-115452380D01*
X73952380Y-115500000D01*
X74000000Y-115547619D01*
X74047619Y-115642857D01*
X74047619Y-115785714D01*
X74000000Y-115880952D01*
X73952380Y-115928571D01*
X73857142Y-115976190D01*
X73476190Y-115976190D01*
X74476190Y-115928571D02*
X74809523Y-115928571D01*
X74952380Y-116452380D02*
X74476190Y-116452380D01*
X74476190Y-115452380D01*
X74952380Y-115452380D01*
X75333333Y-116404761D02*
X75476190Y-116452380D01*
X75714285Y-116452380D01*
X75809523Y-116404761D01*
X75857142Y-116357142D01*
X75904761Y-116261904D01*
X75904761Y-116166666D01*
X75857142Y-116071428D01*
X75809523Y-116023809D01*
X75714285Y-115976190D01*
X75523809Y-115928571D01*
X75428571Y-115880952D01*
X75380952Y-115833333D01*
X75333333Y-115738095D01*
X75333333Y-115642857D01*
X75380952Y-115547619D01*
X75428571Y-115500000D01*
X75523809Y-115452380D01*
X75761904Y-115452380D01*
X75904761Y-115500000D01*
X76333333Y-115928571D02*
X76666666Y-115928571D01*
X76809523Y-116452380D02*
X76333333Y-116452380D01*
X76333333Y-115452380D01*
X76809523Y-115452380D01*
X77095238Y-115452380D02*
X77666666Y-115452380D01*
X77380952Y-116452380D02*
X77380952Y-115452380D01*
X73666666Y-100928571D02*
X73809523Y-100976190D01*
X73857142Y-101023809D01*
X73904761Y-101119047D01*
X73904761Y-101261904D01*
X73857142Y-101357142D01*
X73809523Y-101404761D01*
X73714285Y-101452380D01*
X73333333Y-101452380D01*
X73333333Y-100452380D01*
X73666666Y-100452380D01*
X73761904Y-100500000D01*
X73809523Y-100547619D01*
X73857142Y-100642857D01*
X73857142Y-100738095D01*
X73809523Y-100833333D01*
X73761904Y-100880952D01*
X73666666Y-100928571D01*
X73333333Y-100928571D01*
X74523809Y-100452380D02*
X74714285Y-100452380D01*
X74809523Y-100500000D01*
X74904761Y-100595238D01*
X74952380Y-100785714D01*
X74952380Y-101119047D01*
X74904761Y-101309523D01*
X74809523Y-101404761D01*
X74714285Y-101452380D01*
X74523809Y-101452380D01*
X74428571Y-101404761D01*
X74333333Y-101309523D01*
X74285714Y-101119047D01*
X74285714Y-100785714D01*
X74333333Y-100595238D01*
X74428571Y-100500000D01*
X74523809Y-100452380D01*
X75571428Y-100452380D02*
X75761904Y-100452380D01*
X75857142Y-100500000D01*
X75952380Y-100595238D01*
X76000000Y-100785714D01*
X76000000Y-101119047D01*
X75952380Y-101309523D01*
X75857142Y-101404761D01*
X75761904Y-101452380D01*
X75571428Y-101452380D01*
X75476190Y-101404761D01*
X75380952Y-101309523D01*
X75333333Y-101119047D01*
X75333333Y-100785714D01*
X75380952Y-100595238D01*
X75476190Y-100500000D01*
X75571428Y-100452380D01*
X76285714Y-100452380D02*
X76857142Y-100452380D01*
X76571428Y-101452380D02*
X76571428Y-100452380D01*
X77380952Y-100452380D02*
X77476190Y-100452380D01*
X77571428Y-100500000D01*
X77619047Y-100547619D01*
X77666666Y-100642857D01*
X77714285Y-100833333D01*
X77714285Y-101071428D01*
X77666666Y-101261904D01*
X77619047Y-101357142D01*
X77571428Y-101404761D01*
X77476190Y-101452380D01*
X77380952Y-101452380D01*
X77285714Y-101404761D01*
X77238095Y-101357142D01*
X77190476Y-101261904D01*
X77142857Y-101071428D01*
X77142857Y-100833333D01*
X77190476Y-100642857D01*
X77238095Y-100547619D01*
X77285714Y-100500000D01*
X77380952Y-100452380D01*
X113928571Y-109928571D02*
X114071428Y-109976190D01*
X114119047Y-110023809D01*
X114166666Y-110119047D01*
X114166666Y-110261904D01*
X114119047Y-110357142D01*
X114071428Y-110404761D01*
X113976190Y-110452380D01*
X113595238Y-110452380D01*
X113595238Y-109452380D01*
X113928571Y-109452380D01*
X114023809Y-109500000D01*
X114071428Y-109547619D01*
X114119047Y-109642857D01*
X114119047Y-109738095D01*
X114071428Y-109833333D01*
X114023809Y-109880952D01*
X113928571Y-109928571D01*
X113595238Y-109928571D01*
X115023809Y-110452380D02*
X115023809Y-109928571D01*
X114976190Y-109833333D01*
X114880952Y-109785714D01*
X114690476Y-109785714D01*
X114595238Y-109833333D01*
X115023809Y-110404761D02*
X114928571Y-110452380D01*
X114690476Y-110452380D01*
X114595238Y-110404761D01*
X114547619Y-110309523D01*
X114547619Y-110214285D01*
X114595238Y-110119047D01*
X114690476Y-110071428D01*
X114928571Y-110071428D01*
X115023809Y-110023809D01*
X115357142Y-109785714D02*
X115738095Y-109785714D01*
X115500000Y-109452380D02*
X115500000Y-110309523D01*
X115547619Y-110404761D01*
X115642857Y-110452380D01*
X115738095Y-110452380D01*
X115928571Y-109785714D02*
X116309523Y-109785714D01*
X116071428Y-109452380D02*
X116071428Y-110309523D01*
X116119047Y-110404761D01*
X116214285Y-110452380D01*
X116309523Y-110452380D01*
X117023809Y-110404761D02*
X116928571Y-110452380D01*
X116738095Y-110452380D01*
X116642857Y-110404761D01*
X116595238Y-110309523D01*
X116595238Y-109928571D01*
X116642857Y-109833333D01*
X116738095Y-109785714D01*
X116928571Y-109785714D01*
X117023809Y-109833333D01*
X117071428Y-109928571D01*
X117071428Y-110023809D01*
X116595238Y-110119047D01*
X117500000Y-110452380D02*
X117500000Y-109785714D01*
X117500000Y-109976190D02*
X117547619Y-109880952D01*
X117595238Y-109833333D01*
X117690476Y-109785714D01*
X117785714Y-109785714D01*
X118023809Y-109785714D02*
X118261904Y-110452380D01*
X118500000Y-109785714D02*
X118261904Y-110452380D01*
X118166666Y-110690476D01*
X118119047Y-110738095D01*
X118023809Y-110785714D01*
X105309523Y-106785714D02*
X105309523Y-107785714D01*
X105309523Y-106833333D02*
X105404761Y-106785714D01*
X105595238Y-106785714D01*
X105690476Y-106833333D01*
X105738095Y-106880952D01*
X105785714Y-106976190D01*
X105785714Y-107261904D01*
X105738095Y-107357142D01*
X105690476Y-107404761D01*
X105595238Y-107452380D01*
X105404761Y-107452380D01*
X105309523Y-107404761D01*
X106357142Y-107452380D02*
X106261904Y-107404761D01*
X106214285Y-107357142D01*
X106166666Y-107261904D01*
X106166666Y-106976190D01*
X106214285Y-106880952D01*
X106261904Y-106833333D01*
X106357142Y-106785714D01*
X106500000Y-106785714D01*
X106595238Y-106833333D01*
X106642857Y-106880952D01*
X106690476Y-106976190D01*
X106690476Y-107261904D01*
X106642857Y-107357142D01*
X106595238Y-107404761D01*
X106500000Y-107452380D01*
X106357142Y-107452380D01*
X107023809Y-106785714D02*
X107214285Y-107452380D01*
X107404761Y-106976190D01*
X107595238Y-107452380D01*
X107785714Y-106785714D01*
X108547619Y-107404761D02*
X108452380Y-107452380D01*
X108261904Y-107452380D01*
X108166666Y-107404761D01*
X108119047Y-107309523D01*
X108119047Y-106928571D01*
X108166666Y-106833333D01*
X108261904Y-106785714D01*
X108452380Y-106785714D01*
X108547619Y-106833333D01*
X108595238Y-106928571D01*
X108595238Y-107023809D01*
X108119047Y-107119047D01*
X109023809Y-107452380D02*
X109023809Y-106785714D01*
X109023809Y-106976190D02*
X109071428Y-106880952D01*
X109119047Y-106833333D01*
X109214285Y-106785714D01*
X109309523Y-106785714D01*
X110404761Y-107452380D02*
X110404761Y-106785714D01*
X110404761Y-106452380D02*
X110357142Y-106500000D01*
X110404761Y-106547619D01*
X110452380Y-106500000D01*
X110404761Y-106452380D01*
X110404761Y-106547619D01*
X110880952Y-106785714D02*
X110880952Y-107452380D01*
X110880952Y-106880952D02*
X110928571Y-106833333D01*
X111023809Y-106785714D01*
X111166666Y-106785714D01*
X111261904Y-106833333D01*
X111309523Y-106928571D01*
X111309523Y-107452380D01*
X111785714Y-106785714D02*
X111785714Y-107785714D01*
X111785714Y-106833333D02*
X111880952Y-106785714D01*
X112071428Y-106785714D01*
X112166666Y-106833333D01*
X112214285Y-106880952D01*
X112261904Y-106976190D01*
X112261904Y-107261904D01*
X112214285Y-107357142D01*
X112166666Y-107404761D01*
X112071428Y-107452380D01*
X111880952Y-107452380D01*
X111785714Y-107404761D01*
X113119047Y-106785714D02*
X113119047Y-107452380D01*
X112690476Y-106785714D02*
X112690476Y-107309523D01*
X112738095Y-107404761D01*
X112833333Y-107452380D01*
X112976190Y-107452380D01*
X113071428Y-107404761D01*
X113119047Y-107357142D01*
X113452380Y-106785714D02*
X113833333Y-106785714D01*
X113595238Y-106452380D02*
X113595238Y-107309523D01*
X113642857Y-107404761D01*
X113738095Y-107452380D01*
X113833333Y-107452380D01*
X102238095Y-109452380D02*
X102238095Y-110261904D01*
X102285714Y-110357142D01*
X102333333Y-110404761D01*
X102428571Y-110452380D01*
X102619047Y-110452380D01*
X102714285Y-110404761D01*
X102761904Y-110357142D01*
X102809523Y-110261904D01*
X102809523Y-109452380D01*
X103238095Y-110404761D02*
X103380952Y-110452380D01*
X103619047Y-110452380D01*
X103714285Y-110404761D01*
X103761904Y-110357142D01*
X103809523Y-110261904D01*
X103809523Y-110166666D01*
X103761904Y-110071428D01*
X103714285Y-110023809D01*
X103619047Y-109976190D01*
X103428571Y-109928571D01*
X103333333Y-109880952D01*
X103285714Y-109833333D01*
X103238095Y-109738095D01*
X103238095Y-109642857D01*
X103285714Y-109547619D01*
X103333333Y-109500000D01*
X103428571Y-109452380D01*
X103666666Y-109452380D01*
X103809523Y-109500000D01*
X104571428Y-109928571D02*
X104714285Y-109976190D01*
X104761904Y-110023809D01*
X104809523Y-110119047D01*
X104809523Y-110261904D01*
X104761904Y-110357142D01*
X104714285Y-110404761D01*
X104619047Y-110452380D01*
X104238095Y-110452380D01*
X104238095Y-109452380D01*
X104571428Y-109452380D01*
X104666666Y-109500000D01*
X104714285Y-109547619D01*
X104761904Y-109642857D01*
X104761904Y-109738095D01*
X104714285Y-109833333D01*
X104666666Y-109880952D01*
X104571428Y-109928571D01*
X104238095Y-109928571D01*
%TO.C,R13*%
X94452380Y-80842857D02*
X93976190Y-81176190D01*
X94452380Y-81414285D02*
X93452380Y-81414285D01*
X93452380Y-81033333D01*
X93500000Y-80938095D01*
X93547619Y-80890476D01*
X93642857Y-80842857D01*
X93785714Y-80842857D01*
X93880952Y-80890476D01*
X93928571Y-80938095D01*
X93976190Y-81033333D01*
X93976190Y-81414285D01*
X94452380Y-79890476D02*
X94452380Y-80461904D01*
X94452380Y-80176190D02*
X93452380Y-80176190D01*
X93595238Y-80271428D01*
X93690476Y-80366666D01*
X93738095Y-80461904D01*
X93452380Y-79557142D02*
X93452380Y-78938095D01*
X93833333Y-79271428D01*
X93833333Y-79128571D01*
X93880952Y-79033333D01*
X93928571Y-78985714D01*
X94023809Y-78938095D01*
X94261904Y-78938095D01*
X94357142Y-78985714D01*
X94404761Y-79033333D01*
X94452380Y-79128571D01*
X94452380Y-79414285D01*
X94404761Y-79509523D01*
X94357142Y-79557142D01*
%TO.C,R12*%
X96052380Y-80842857D02*
X95576190Y-81176190D01*
X96052380Y-81414285D02*
X95052380Y-81414285D01*
X95052380Y-81033333D01*
X95100000Y-80938095D01*
X95147619Y-80890476D01*
X95242857Y-80842857D01*
X95385714Y-80842857D01*
X95480952Y-80890476D01*
X95528571Y-80938095D01*
X95576190Y-81033333D01*
X95576190Y-81414285D01*
X96052380Y-79890476D02*
X96052380Y-80461904D01*
X96052380Y-80176190D02*
X95052380Y-80176190D01*
X95195238Y-80271428D01*
X95290476Y-80366666D01*
X95338095Y-80461904D01*
X95147619Y-79509523D02*
X95100000Y-79461904D01*
X95052380Y-79366666D01*
X95052380Y-79128571D01*
X95100000Y-79033333D01*
X95147619Y-78985714D01*
X95242857Y-78938095D01*
X95338095Y-78938095D01*
X95480952Y-78985714D01*
X96052380Y-79557142D01*
X96052380Y-78938095D01*
%TO.C,C13*%
X92957142Y-81042857D02*
X93004761Y-81090476D01*
X93052380Y-81233333D01*
X93052380Y-81328571D01*
X93004761Y-81471428D01*
X92909523Y-81566666D01*
X92814285Y-81614285D01*
X92623809Y-81661904D01*
X92480952Y-81661904D01*
X92290476Y-81614285D01*
X92195238Y-81566666D01*
X92100000Y-81471428D01*
X92052380Y-81328571D01*
X92052380Y-81233333D01*
X92100000Y-81090476D01*
X92147619Y-81042857D01*
X93052380Y-80090476D02*
X93052380Y-80661904D01*
X93052380Y-80376190D02*
X92052380Y-80376190D01*
X92195238Y-80471428D01*
X92290476Y-80566666D01*
X92338095Y-80661904D01*
X92052380Y-79757142D02*
X92052380Y-79138095D01*
X92433333Y-79471428D01*
X92433333Y-79328571D01*
X92480952Y-79233333D01*
X92528571Y-79185714D01*
X92623809Y-79138095D01*
X92861904Y-79138095D01*
X92957142Y-79185714D01*
X93004761Y-79233333D01*
X93052380Y-79328571D01*
X93052380Y-79614285D01*
X93004761Y-79709523D01*
X92957142Y-79757142D01*
D11*
%TO.C,U3*%
X189032380Y-97304523D02*
X189032380Y-98332619D01*
X189092857Y-98453571D01*
X189153333Y-98514047D01*
X189274285Y-98574523D01*
X189516190Y-98574523D01*
X189637142Y-98514047D01*
X189697619Y-98453571D01*
X189758095Y-98332619D01*
X189758095Y-97304523D01*
X190241904Y-97304523D02*
X191028095Y-97304523D01*
X190604761Y-97788333D01*
X190786190Y-97788333D01*
X190907142Y-97848809D01*
X190967619Y-97909285D01*
X191028095Y-98030238D01*
X191028095Y-98332619D01*
X190967619Y-98453571D01*
X190907142Y-98514047D01*
X190786190Y-98574523D01*
X190423333Y-98574523D01*
X190302380Y-98514047D01*
X190241904Y-98453571D01*
D10*
%TO.C,F2*%
X156666666Y-103498571D02*
X156333333Y-103498571D01*
X156333333Y-104022380D02*
X156333333Y-103022380D01*
X156809523Y-103022380D01*
X157142857Y-103117619D02*
X157190476Y-103070000D01*
X157285714Y-103022380D01*
X157523809Y-103022380D01*
X157619047Y-103070000D01*
X157666666Y-103117619D01*
X157714285Y-103212857D01*
X157714285Y-103308095D01*
X157666666Y-103450952D01*
X157095238Y-104022380D01*
X157714285Y-104022380D01*
%TO.C,C19*%
X78117142Y-85642857D02*
X78164761Y-85690476D01*
X78212380Y-85833333D01*
X78212380Y-85928571D01*
X78164761Y-86071428D01*
X78069523Y-86166666D01*
X77974285Y-86214285D01*
X77783809Y-86261904D01*
X77640952Y-86261904D01*
X77450476Y-86214285D01*
X77355238Y-86166666D01*
X77260000Y-86071428D01*
X77212380Y-85928571D01*
X77212380Y-85833333D01*
X77260000Y-85690476D01*
X77307619Y-85642857D01*
X78212380Y-84690476D02*
X78212380Y-85261904D01*
X78212380Y-84976190D02*
X77212380Y-84976190D01*
X77355238Y-85071428D01*
X77450476Y-85166666D01*
X77498095Y-85261904D01*
X78212380Y-84214285D02*
X78212380Y-84023809D01*
X78164761Y-83928571D01*
X78117142Y-83880952D01*
X77974285Y-83785714D01*
X77783809Y-83738095D01*
X77402857Y-83738095D01*
X77307619Y-83785714D01*
X77260000Y-83833333D01*
X77212380Y-83928571D01*
X77212380Y-84119047D01*
X77260000Y-84214285D01*
X77307619Y-84261904D01*
X77402857Y-84309523D01*
X77640952Y-84309523D01*
X77736190Y-84261904D01*
X77783809Y-84214285D01*
X77831428Y-84119047D01*
X77831428Y-83928571D01*
X77783809Y-83833333D01*
X77736190Y-83785714D01*
X77640952Y-83738095D01*
%TO.C,U7*%
X79738095Y-90602380D02*
X79738095Y-91411904D01*
X79785714Y-91507142D01*
X79833333Y-91554761D01*
X79928571Y-91602380D01*
X80119047Y-91602380D01*
X80214285Y-91554761D01*
X80261904Y-91507142D01*
X80309523Y-91411904D01*
X80309523Y-90602380D01*
X80690476Y-90602380D02*
X81357142Y-90602380D01*
X80928571Y-91602380D01*
%TO.C,C6*%
X122983333Y-128867142D02*
X122935714Y-128914761D01*
X122792857Y-128962380D01*
X122697619Y-128962380D01*
X122554761Y-128914761D01*
X122459523Y-128819523D01*
X122411904Y-128724285D01*
X122364285Y-128533809D01*
X122364285Y-128390952D01*
X122411904Y-128200476D01*
X122459523Y-128105238D01*
X122554761Y-128010000D01*
X122697619Y-127962380D01*
X122792857Y-127962380D01*
X122935714Y-128010000D01*
X122983333Y-128057619D01*
X123840476Y-127962380D02*
X123650000Y-127962380D01*
X123554761Y-128010000D01*
X123507142Y-128057619D01*
X123411904Y-128200476D01*
X123364285Y-128390952D01*
X123364285Y-128771904D01*
X123411904Y-128867142D01*
X123459523Y-128914761D01*
X123554761Y-128962380D01*
X123745238Y-128962380D01*
X123840476Y-128914761D01*
X123888095Y-128867142D01*
X123935714Y-128771904D01*
X123935714Y-128533809D01*
X123888095Y-128438571D01*
X123840476Y-128390952D01*
X123745238Y-128343333D01*
X123554761Y-128343333D01*
X123459523Y-128390952D01*
X123411904Y-128438571D01*
X123364285Y-128533809D01*
%TO.C,C8*%
X118220833Y-73037142D02*
X118173214Y-73084761D01*
X118030357Y-73132380D01*
X117935119Y-73132380D01*
X117792261Y-73084761D01*
X117697023Y-72989523D01*
X117649404Y-72894285D01*
X117601785Y-72703809D01*
X117601785Y-72560952D01*
X117649404Y-72370476D01*
X117697023Y-72275238D01*
X117792261Y-72180000D01*
X117935119Y-72132380D01*
X118030357Y-72132380D01*
X118173214Y-72180000D01*
X118220833Y-72227619D01*
X118792261Y-72560952D02*
X118697023Y-72513333D01*
X118649404Y-72465714D01*
X118601785Y-72370476D01*
X118601785Y-72322857D01*
X118649404Y-72227619D01*
X118697023Y-72180000D01*
X118792261Y-72132380D01*
X118982738Y-72132380D01*
X119077976Y-72180000D01*
X119125595Y-72227619D01*
X119173214Y-72322857D01*
X119173214Y-72370476D01*
X119125595Y-72465714D01*
X119077976Y-72513333D01*
X118982738Y-72560952D01*
X118792261Y-72560952D01*
X118697023Y-72608571D01*
X118649404Y-72656190D01*
X118601785Y-72751428D01*
X118601785Y-72941904D01*
X118649404Y-73037142D01*
X118697023Y-73084761D01*
X118792261Y-73132380D01*
X118982738Y-73132380D01*
X119077976Y-73084761D01*
X119125595Y-73037142D01*
X119173214Y-72941904D01*
X119173214Y-72751428D01*
X119125595Y-72656190D01*
X119077976Y-72608571D01*
X118982738Y-72560952D01*
%TO.C,J2*%
X117802380Y-127103333D02*
X118516666Y-127103333D01*
X118659523Y-127150952D01*
X118754761Y-127246190D01*
X118802380Y-127389047D01*
X118802380Y-127484285D01*
X117897619Y-126674761D02*
X117850000Y-126627142D01*
X117802380Y-126531904D01*
X117802380Y-126293809D01*
X117850000Y-126198571D01*
X117897619Y-126150952D01*
X117992857Y-126103333D01*
X118088095Y-126103333D01*
X118230952Y-126150952D01*
X118802380Y-126722380D01*
X118802380Y-126103333D01*
%TO.C,R8*%
X77583333Y-113202380D02*
X77250000Y-112726190D01*
X77011904Y-113202380D02*
X77011904Y-112202380D01*
X77392857Y-112202380D01*
X77488095Y-112250000D01*
X77535714Y-112297619D01*
X77583333Y-112392857D01*
X77583333Y-112535714D01*
X77535714Y-112630952D01*
X77488095Y-112678571D01*
X77392857Y-112726190D01*
X77011904Y-112726190D01*
X78154761Y-112630952D02*
X78059523Y-112583333D01*
X78011904Y-112535714D01*
X77964285Y-112440476D01*
X77964285Y-112392857D01*
X78011904Y-112297619D01*
X78059523Y-112250000D01*
X78154761Y-112202380D01*
X78345238Y-112202380D01*
X78440476Y-112250000D01*
X78488095Y-112297619D01*
X78535714Y-112392857D01*
X78535714Y-112440476D01*
X78488095Y-112535714D01*
X78440476Y-112583333D01*
X78345238Y-112630952D01*
X78154761Y-112630952D01*
X78059523Y-112678571D01*
X78011904Y-112726190D01*
X77964285Y-112821428D01*
X77964285Y-113011904D01*
X78011904Y-113107142D01*
X78059523Y-113154761D01*
X78154761Y-113202380D01*
X78345238Y-113202380D01*
X78440476Y-113154761D01*
X78488095Y-113107142D01*
X78535714Y-113011904D01*
X78535714Y-112821428D01*
X78488095Y-112726190D01*
X78440476Y-112678571D01*
X78345238Y-112630952D01*
%TO.C,R6*%
X77583333Y-111952380D02*
X77250000Y-111476190D01*
X77011904Y-111952380D02*
X77011904Y-110952380D01*
X77392857Y-110952380D01*
X77488095Y-111000000D01*
X77535714Y-111047619D01*
X77583333Y-111142857D01*
X77583333Y-111285714D01*
X77535714Y-111380952D01*
X77488095Y-111428571D01*
X77392857Y-111476190D01*
X77011904Y-111476190D01*
X78440476Y-110952380D02*
X78250000Y-110952380D01*
X78154761Y-111000000D01*
X78107142Y-111047619D01*
X78011904Y-111190476D01*
X77964285Y-111380952D01*
X77964285Y-111761904D01*
X78011904Y-111857142D01*
X78059523Y-111904761D01*
X78154761Y-111952380D01*
X78345238Y-111952380D01*
X78440476Y-111904761D01*
X78488095Y-111857142D01*
X78535714Y-111761904D01*
X78535714Y-111523809D01*
X78488095Y-111428571D01*
X78440476Y-111380952D01*
X78345238Y-111333333D01*
X78154761Y-111333333D01*
X78059523Y-111380952D01*
X78011904Y-111428571D01*
X77964285Y-111523809D01*
%TO.C,JP1*%
X87956226Y-119202091D02*
X87956226Y-119916754D01*
X87908582Y-120059687D01*
X87813294Y-120154975D01*
X87670361Y-120202619D01*
X87575073Y-120202619D01*
X88432668Y-120202619D02*
X88432668Y-119202091D01*
X88813822Y-119202091D01*
X88909110Y-119249736D01*
X88956754Y-119297380D01*
X89004398Y-119392668D01*
X89004398Y-119535601D01*
X88956754Y-119630889D01*
X88909110Y-119678533D01*
X88813822Y-119726177D01*
X88432668Y-119726177D01*
X89957282Y-120202619D02*
X89385552Y-120202619D01*
X89671417Y-120202619D02*
X89671417Y-119202091D01*
X89576129Y-119345024D01*
X89480840Y-119440312D01*
X89385552Y-119487956D01*
%TO.C,J3*%
X77787380Y-89083333D02*
X78501666Y-89083333D01*
X78644523Y-89130952D01*
X78739761Y-89226190D01*
X78787380Y-89369047D01*
X78787380Y-89464285D01*
X77787380Y-88702380D02*
X77787380Y-88083333D01*
X78168333Y-88416666D01*
X78168333Y-88273809D01*
X78215952Y-88178571D01*
X78263571Y-88130952D01*
X78358809Y-88083333D01*
X78596904Y-88083333D01*
X78692142Y-88130952D01*
X78739761Y-88178571D01*
X78787380Y-88273809D01*
X78787380Y-88559523D01*
X78739761Y-88654761D01*
X78692142Y-88702380D01*
%TO.C,R11*%
X84022380Y-86142857D02*
X83546190Y-86476190D01*
X84022380Y-86714285D02*
X83022380Y-86714285D01*
X83022380Y-86333333D01*
X83070000Y-86238095D01*
X83117619Y-86190476D01*
X83212857Y-86142857D01*
X83355714Y-86142857D01*
X83450952Y-86190476D01*
X83498571Y-86238095D01*
X83546190Y-86333333D01*
X83546190Y-86714285D01*
X84022380Y-85190476D02*
X84022380Y-85761904D01*
X84022380Y-85476190D02*
X83022380Y-85476190D01*
X83165238Y-85571428D01*
X83260476Y-85666666D01*
X83308095Y-85761904D01*
X84022380Y-84238095D02*
X84022380Y-84809523D01*
X84022380Y-84523809D02*
X83022380Y-84523809D01*
X83165238Y-84619047D01*
X83260476Y-84714285D01*
X83308095Y-84809523D01*
%TO.C,SW2*%
X72666666Y-105404761D02*
X72809523Y-105452380D01*
X73047619Y-105452380D01*
X73142857Y-105404761D01*
X73190476Y-105357142D01*
X73238095Y-105261904D01*
X73238095Y-105166666D01*
X73190476Y-105071428D01*
X73142857Y-105023809D01*
X73047619Y-104976190D01*
X72857142Y-104928571D01*
X72761904Y-104880952D01*
X72714285Y-104833333D01*
X72666666Y-104738095D01*
X72666666Y-104642857D01*
X72714285Y-104547619D01*
X72761904Y-104500000D01*
X72857142Y-104452380D01*
X73095238Y-104452380D01*
X73238095Y-104500000D01*
X73571428Y-104452380D02*
X73809523Y-105452380D01*
X74000000Y-104738095D01*
X74190476Y-105452380D01*
X74428571Y-104452380D01*
X74761904Y-104547619D02*
X74809523Y-104500000D01*
X74904761Y-104452380D01*
X75142857Y-104452380D01*
X75238095Y-104500000D01*
X75285714Y-104547619D01*
X75333333Y-104642857D01*
X75333333Y-104738095D01*
X75285714Y-104880952D01*
X74714285Y-105452380D01*
X75333333Y-105452380D01*
%TO.C,R10*%
X185337142Y-79897380D02*
X185003809Y-79421190D01*
X184765714Y-79897380D02*
X184765714Y-78897380D01*
X185146666Y-78897380D01*
X185241904Y-78945000D01*
X185289523Y-78992619D01*
X185337142Y-79087857D01*
X185337142Y-79230714D01*
X185289523Y-79325952D01*
X185241904Y-79373571D01*
X185146666Y-79421190D01*
X184765714Y-79421190D01*
X186289523Y-79897380D02*
X185718095Y-79897380D01*
X186003809Y-79897380D02*
X186003809Y-78897380D01*
X185908571Y-79040238D01*
X185813333Y-79135476D01*
X185718095Y-79183095D01*
X186908571Y-78897380D02*
X187003809Y-78897380D01*
X187099047Y-78945000D01*
X187146666Y-78992619D01*
X187194285Y-79087857D01*
X187241904Y-79278333D01*
X187241904Y-79516428D01*
X187194285Y-79706904D01*
X187146666Y-79802142D01*
X187099047Y-79849761D01*
X187003809Y-79897380D01*
X186908571Y-79897380D01*
X186813333Y-79849761D01*
X186765714Y-79802142D01*
X186718095Y-79706904D01*
X186670476Y-79516428D01*
X186670476Y-79278333D01*
X186718095Y-79087857D01*
X186765714Y-78992619D01*
X186813333Y-78945000D01*
X186908571Y-78897380D01*
%TO.C,R5*%
X72435833Y-83632380D02*
X72102500Y-83156190D01*
X71864404Y-83632380D02*
X71864404Y-82632380D01*
X72245357Y-82632380D01*
X72340595Y-82680000D01*
X72388214Y-82727619D01*
X72435833Y-82822857D01*
X72435833Y-82965714D01*
X72388214Y-83060952D01*
X72340595Y-83108571D01*
X72245357Y-83156190D01*
X71864404Y-83156190D01*
X73340595Y-82632380D02*
X72864404Y-82632380D01*
X72816785Y-83108571D01*
X72864404Y-83060952D01*
X72959642Y-83013333D01*
X73197738Y-83013333D01*
X73292976Y-83060952D01*
X73340595Y-83108571D01*
X73388214Y-83203809D01*
X73388214Y-83441904D01*
X73340595Y-83537142D01*
X73292976Y-83584761D01*
X73197738Y-83632380D01*
X72959642Y-83632380D01*
X72864404Y-83584761D01*
X72816785Y-83537142D01*
%TO.C,Y1*%
X96669940Y-73226190D02*
X97146130Y-73226190D01*
X96146130Y-73559523D02*
X96669940Y-73226190D01*
X96146130Y-72892857D01*
X97146130Y-72035714D02*
X97146130Y-72607142D01*
X97146130Y-72321428D02*
X96146130Y-72321428D01*
X96288988Y-72416666D01*
X96384226Y-72511904D01*
X96431845Y-72607142D01*
%TO.C,F1*%
X156666666Y-88998571D02*
X156333333Y-88998571D01*
X156333333Y-89522380D02*
X156333333Y-88522380D01*
X156809523Y-88522380D01*
X157714285Y-89522380D02*
X157142857Y-89522380D01*
X157428571Y-89522380D02*
X157428571Y-88522380D01*
X157333333Y-88665238D01*
X157238095Y-88760476D01*
X157142857Y-88808095D01*
%TO.C,SW1*%
X72666666Y-112404761D02*
X72809523Y-112452380D01*
X73047619Y-112452380D01*
X73142857Y-112404761D01*
X73190476Y-112357142D01*
X73238095Y-112261904D01*
X73238095Y-112166666D01*
X73190476Y-112071428D01*
X73142857Y-112023809D01*
X73047619Y-111976190D01*
X72857142Y-111928571D01*
X72761904Y-111880952D01*
X72714285Y-111833333D01*
X72666666Y-111738095D01*
X72666666Y-111642857D01*
X72714285Y-111547619D01*
X72761904Y-111500000D01*
X72857142Y-111452380D01*
X73095238Y-111452380D01*
X73238095Y-111500000D01*
X73571428Y-111452380D02*
X73809523Y-112452380D01*
X74000000Y-111738095D01*
X74190476Y-112452380D01*
X74428571Y-111452380D01*
X75333333Y-112452380D02*
X74761904Y-112452380D01*
X75047619Y-112452380D02*
X75047619Y-111452380D01*
X74952380Y-111595238D01*
X74857142Y-111690476D01*
X74761904Y-111738095D01*
D11*
%TO.C,IC1*%
X122010238Y-128074523D02*
X122010238Y-126804523D01*
X123340714Y-127953571D02*
X123280238Y-128014047D01*
X123098809Y-128074523D01*
X122977857Y-128074523D01*
X122796428Y-128014047D01*
X122675476Y-127893095D01*
X122615000Y-127772142D01*
X122554523Y-127530238D01*
X122554523Y-127348809D01*
X122615000Y-127106904D01*
X122675476Y-126985952D01*
X122796428Y-126865000D01*
X122977857Y-126804523D01*
X123098809Y-126804523D01*
X123280238Y-126865000D01*
X123340714Y-126925476D01*
X124550238Y-128074523D02*
X123824523Y-128074523D01*
X124187380Y-128074523D02*
X124187380Y-126804523D01*
X124066428Y-126985952D01*
X123945476Y-127106904D01*
X123824523Y-127167380D01*
D10*
%TO.C,R2*%
X94333333Y-107952380D02*
X94000000Y-107476190D01*
X93761904Y-107952380D02*
X93761904Y-106952380D01*
X94142857Y-106952380D01*
X94238095Y-107000000D01*
X94285714Y-107047619D01*
X94333333Y-107142857D01*
X94333333Y-107285714D01*
X94285714Y-107380952D01*
X94238095Y-107428571D01*
X94142857Y-107476190D01*
X93761904Y-107476190D01*
X94714285Y-107047619D02*
X94761904Y-107000000D01*
X94857142Y-106952380D01*
X95095238Y-106952380D01*
X95190476Y-107000000D01*
X95238095Y-107047619D01*
X95285714Y-107142857D01*
X95285714Y-107238095D01*
X95238095Y-107380952D01*
X94666666Y-107952380D01*
X95285714Y-107952380D01*
%TO.C,C14*%
X175357142Y-118427142D02*
X175309523Y-118474761D01*
X175166666Y-118522380D01*
X175071428Y-118522380D01*
X174928571Y-118474761D01*
X174833333Y-118379523D01*
X174785714Y-118284285D01*
X174738095Y-118093809D01*
X174738095Y-117950952D01*
X174785714Y-117760476D01*
X174833333Y-117665238D01*
X174928571Y-117570000D01*
X175071428Y-117522380D01*
X175166666Y-117522380D01*
X175309523Y-117570000D01*
X175357142Y-117617619D01*
X176309523Y-118522380D02*
X175738095Y-118522380D01*
X176023809Y-118522380D02*
X176023809Y-117522380D01*
X175928571Y-117665238D01*
X175833333Y-117760476D01*
X175738095Y-117808095D01*
X177166666Y-117855714D02*
X177166666Y-118522380D01*
X176928571Y-117474761D02*
X176690476Y-118189047D01*
X177309523Y-118189047D01*
%TO.C,R3*%
X94333333Y-109952380D02*
X94000000Y-109476190D01*
X93761904Y-109952380D02*
X93761904Y-108952380D01*
X94142857Y-108952380D01*
X94238095Y-109000000D01*
X94285714Y-109047619D01*
X94333333Y-109142857D01*
X94333333Y-109285714D01*
X94285714Y-109380952D01*
X94238095Y-109428571D01*
X94142857Y-109476190D01*
X93761904Y-109476190D01*
X94666666Y-108952380D02*
X95285714Y-108952380D01*
X94952380Y-109333333D01*
X95095238Y-109333333D01*
X95190476Y-109380952D01*
X95238095Y-109428571D01*
X95285714Y-109523809D01*
X95285714Y-109761904D01*
X95238095Y-109857142D01*
X95190476Y-109904761D01*
X95095238Y-109952380D01*
X94809523Y-109952380D01*
X94714285Y-109904761D01*
X94666666Y-109857142D01*
D11*
%TO.C,U1*%
X191832380Y-120304523D02*
X191832380Y-121332619D01*
X191892857Y-121453571D01*
X191953333Y-121514047D01*
X192074285Y-121574523D01*
X192316190Y-121574523D01*
X192437142Y-121514047D01*
X192497619Y-121453571D01*
X192558095Y-121332619D01*
X192558095Y-120304523D01*
X193828095Y-121574523D02*
X193102380Y-121574523D01*
X193465238Y-121574523D02*
X193465238Y-120304523D01*
X193344285Y-120485952D01*
X193223333Y-120606904D01*
X193102380Y-120667380D01*
D10*
%TO.C,U5*%
X108738095Y-87702380D02*
X108738095Y-88511904D01*
X108785714Y-88607142D01*
X108833333Y-88654761D01*
X108928571Y-88702380D01*
X109119047Y-88702380D01*
X109214285Y-88654761D01*
X109261904Y-88607142D01*
X109309523Y-88511904D01*
X109309523Y-87702380D01*
X110261904Y-87702380D02*
X109785714Y-87702380D01*
X109738095Y-88178571D01*
X109785714Y-88130952D01*
X109880952Y-88083333D01*
X110119047Y-88083333D01*
X110214285Y-88130952D01*
X110261904Y-88178571D01*
X110309523Y-88273809D01*
X110309523Y-88511904D01*
X110261904Y-88607142D01*
X110214285Y-88654761D01*
X110119047Y-88702380D01*
X109880952Y-88702380D01*
X109785714Y-88654761D01*
X109738095Y-88607142D01*
X101693886Y-93566666D02*
X102170076Y-93566666D01*
X101598647Y-93852380D02*
X101931981Y-92852380D01*
X102265314Y-93852380D01*
X102455790Y-92852380D02*
X103027219Y-92852380D01*
X102741505Y-93852380D02*
X102741505Y-92852380D01*
X103360552Y-93328571D02*
X103693886Y-93328571D01*
X103836743Y-93852380D02*
X103360552Y-93852380D01*
X103360552Y-92852380D01*
X103836743Y-92852380D01*
X104836743Y-93757142D02*
X104789124Y-93804761D01*
X104646267Y-93852380D01*
X104551028Y-93852380D01*
X104408171Y-93804761D01*
X104312933Y-93709523D01*
X104265314Y-93614285D01*
X104217695Y-93423809D01*
X104217695Y-93280952D01*
X104265314Y-93090476D01*
X104312933Y-92995238D01*
X104408171Y-92900000D01*
X104551028Y-92852380D01*
X104646267Y-92852380D01*
X104789124Y-92900000D01*
X104836743Y-92947619D01*
X105836743Y-93757142D02*
X105789124Y-93804761D01*
X105646267Y-93852380D01*
X105551028Y-93852380D01*
X105408171Y-93804761D01*
X105312933Y-93709523D01*
X105265314Y-93614285D01*
X105217695Y-93423809D01*
X105217695Y-93280952D01*
X105265314Y-93090476D01*
X105312933Y-92995238D01*
X105408171Y-92900000D01*
X105551028Y-92852380D01*
X105646267Y-92852380D01*
X105789124Y-92900000D01*
X105836743Y-92947619D01*
X106741505Y-92852380D02*
X106265314Y-92852380D01*
X106217695Y-93328571D01*
X106265314Y-93280952D01*
X106360552Y-93233333D01*
X106598647Y-93233333D01*
X106693886Y-93280952D01*
X106741505Y-93328571D01*
X106789124Y-93423809D01*
X106789124Y-93661904D01*
X106741505Y-93757142D01*
X106693886Y-93804761D01*
X106598647Y-93852380D01*
X106360552Y-93852380D01*
X106265314Y-93804761D01*
X106217695Y-93757142D01*
X107408171Y-92852380D02*
X107503409Y-92852380D01*
X107598647Y-92900000D01*
X107646267Y-92947619D01*
X107693886Y-93042857D01*
X107741505Y-93233333D01*
X107741505Y-93471428D01*
X107693886Y-93661904D01*
X107646267Y-93757142D01*
X107598647Y-93804761D01*
X107503409Y-93852380D01*
X107408171Y-93852380D01*
X107312933Y-93804761D01*
X107265314Y-93757142D01*
X107217695Y-93661904D01*
X107170076Y-93471428D01*
X107170076Y-93233333D01*
X107217695Y-93042857D01*
X107265314Y-92947619D01*
X107312933Y-92900000D01*
X107408171Y-92852380D01*
X108312933Y-93280952D02*
X108217695Y-93233333D01*
X108170076Y-93185714D01*
X108122457Y-93090476D01*
X108122457Y-93042857D01*
X108170076Y-92947619D01*
X108217695Y-92900000D01*
X108312933Y-92852380D01*
X108503409Y-92852380D01*
X108598647Y-92900000D01*
X108646267Y-92947619D01*
X108693886Y-93042857D01*
X108693886Y-93090476D01*
X108646267Y-93185714D01*
X108598647Y-93233333D01*
X108503409Y-93280952D01*
X108312933Y-93280952D01*
X108217695Y-93328571D01*
X108170076Y-93376190D01*
X108122457Y-93471428D01*
X108122457Y-93661904D01*
X108170076Y-93757142D01*
X108217695Y-93804761D01*
X108312933Y-93852380D01*
X108503409Y-93852380D01*
X108598647Y-93804761D01*
X108646267Y-93757142D01*
X108693886Y-93661904D01*
X108693886Y-93471428D01*
X108646267Y-93376190D01*
X108598647Y-93328571D01*
X108503409Y-93280952D01*
X109074838Y-93566666D02*
X109551028Y-93566666D01*
X108979600Y-93852380D02*
X109312933Y-92852380D01*
X109646267Y-93852380D01*
X109979600Y-93471428D02*
X110741505Y-93471428D01*
X111170076Y-93804761D02*
X111312933Y-93852380D01*
X111551028Y-93852380D01*
X111646267Y-93804761D01*
X111693886Y-93757142D01*
X111741505Y-93661904D01*
X111741505Y-93566666D01*
X111693886Y-93471428D01*
X111646267Y-93423809D01*
X111551028Y-93376190D01*
X111360552Y-93328571D01*
X111265314Y-93280952D01*
X111217695Y-93233333D01*
X111170076Y-93138095D01*
X111170076Y-93042857D01*
X111217695Y-92947619D01*
X111265314Y-92900000D01*
X111360552Y-92852380D01*
X111598647Y-92852380D01*
X111741505Y-92900000D01*
X112122457Y-93804761D02*
X112265314Y-93852380D01*
X112503409Y-93852380D01*
X112598647Y-93804761D01*
X112646267Y-93757142D01*
X112693886Y-93661904D01*
X112693886Y-93566666D01*
X112646267Y-93471428D01*
X112598647Y-93423809D01*
X112503409Y-93376190D01*
X112312933Y-93328571D01*
X112217695Y-93280952D01*
X112170076Y-93233333D01*
X112122457Y-93138095D01*
X112122457Y-93042857D01*
X112170076Y-92947619D01*
X112217695Y-92900000D01*
X112312933Y-92852380D01*
X112551028Y-92852380D01*
X112693886Y-92900000D01*
X113122457Y-93852380D02*
X113122457Y-92852380D01*
X113122457Y-93328571D02*
X113693886Y-93328571D01*
X113693886Y-93852380D02*
X113693886Y-92852380D01*
X114170076Y-93852380D02*
X114170076Y-92852380D01*
X114408171Y-92852380D01*
X114551028Y-92900000D01*
X114646266Y-92995238D01*
X114693886Y-93090476D01*
X114741505Y-93280952D01*
X114741505Y-93423809D01*
X114693886Y-93614285D01*
X114646266Y-93709523D01*
X114551028Y-93804761D01*
X114408171Y-93852380D01*
X114170076Y-93852380D01*
X115122457Y-93566666D02*
X115598647Y-93566666D01*
X115027219Y-93852380D02*
X115360552Y-92852380D01*
X115693886Y-93852380D01*
X116027219Y-93471428D02*
X116789124Y-93471428D01*
X117122457Y-92852380D02*
X117693886Y-92852380D01*
X117408171Y-93852380D02*
X117408171Y-92852380D01*
%TO.C,REF\u002A\u002A*%
X76252380Y-121083333D02*
X75776190Y-121416666D01*
X76252380Y-121654761D02*
X75252380Y-121654761D01*
X75252380Y-121273809D01*
X75300000Y-121178571D01*
X75347619Y-121130952D01*
X75442857Y-121083333D01*
X75585714Y-121083333D01*
X75680952Y-121130952D01*
X75728571Y-121178571D01*
X75776190Y-121273809D01*
X75776190Y-121654761D01*
X75728571Y-120654761D02*
X75728571Y-120321428D01*
X76252380Y-120178571D02*
X76252380Y-120654761D01*
X75252380Y-120654761D01*
X75252380Y-120178571D01*
X75728571Y-119416666D02*
X75728571Y-119750000D01*
X76252380Y-119750000D02*
X75252380Y-119750000D01*
X75252380Y-119273809D01*
X75252380Y-118750000D02*
X75490476Y-118750000D01*
X75395238Y-118988095D02*
X75490476Y-118750000D01*
X75395238Y-118511904D01*
X75680952Y-118892857D02*
X75490476Y-118750000D01*
X75680952Y-118607142D01*
X75252380Y-117988095D02*
X75490476Y-117988095D01*
X75395238Y-118226190D02*
X75490476Y-117988095D01*
X75395238Y-117750000D01*
X75680952Y-118130952D02*
X75490476Y-117988095D01*
X75680952Y-117845238D01*
%TO.C,*%
%TO.C,C15*%
X185357142Y-121287142D02*
X185309523Y-121334761D01*
X185166666Y-121382380D01*
X185071428Y-121382380D01*
X184928571Y-121334761D01*
X184833333Y-121239523D01*
X184785714Y-121144285D01*
X184738095Y-120953809D01*
X184738095Y-120810952D01*
X184785714Y-120620476D01*
X184833333Y-120525238D01*
X184928571Y-120430000D01*
X185071428Y-120382380D01*
X185166666Y-120382380D01*
X185309523Y-120430000D01*
X185357142Y-120477619D01*
X186309523Y-121382380D02*
X185738095Y-121382380D01*
X186023809Y-121382380D02*
X186023809Y-120382380D01*
X185928571Y-120525238D01*
X185833333Y-120620476D01*
X185738095Y-120668095D01*
X187214285Y-120382380D02*
X186738095Y-120382380D01*
X186690476Y-120858571D01*
X186738095Y-120810952D01*
X186833333Y-120763333D01*
X187071428Y-120763333D01*
X187166666Y-120810952D01*
X187214285Y-120858571D01*
X187261904Y-120953809D01*
X187261904Y-121191904D01*
X187214285Y-121287142D01*
X187166666Y-121334761D01*
X187071428Y-121382380D01*
X186833333Y-121382380D01*
X186738095Y-121334761D01*
X186690476Y-121287142D01*
%TO.C,J4*%
X108452380Y-112833333D02*
X109166666Y-112833333D01*
X109309523Y-112880952D01*
X109404761Y-112976190D01*
X109452380Y-113119047D01*
X109452380Y-113214285D01*
X108785714Y-111928571D02*
X109452380Y-111928571D01*
X108404761Y-112166666D02*
X109119047Y-112404761D01*
X109119047Y-111785714D01*
%TO.C,REF\u002A\u002A*%
X215252380Y-121083333D02*
X214776190Y-121416666D01*
X215252380Y-121654761D02*
X214252380Y-121654761D01*
X214252380Y-121273809D01*
X214300000Y-121178571D01*
X214347619Y-121130952D01*
X214442857Y-121083333D01*
X214585714Y-121083333D01*
X214680952Y-121130952D01*
X214728571Y-121178571D01*
X214776190Y-121273809D01*
X214776190Y-121654761D01*
X214728571Y-120654761D02*
X214728571Y-120321428D01*
X215252380Y-120178571D02*
X215252380Y-120654761D01*
X214252380Y-120654761D01*
X214252380Y-120178571D01*
X214728571Y-119416666D02*
X214728571Y-119750000D01*
X215252380Y-119750000D02*
X214252380Y-119750000D01*
X214252380Y-119273809D01*
X214252380Y-118750000D02*
X214490476Y-118750000D01*
X214395238Y-118988095D02*
X214490476Y-118750000D01*
X214395238Y-118511904D01*
X214680952Y-118892857D02*
X214490476Y-118750000D01*
X214680952Y-118607142D01*
X214252380Y-117988095D02*
X214490476Y-117988095D01*
X214395238Y-118226190D02*
X214490476Y-117988095D01*
X214395238Y-117750000D01*
X214680952Y-118130952D02*
X214490476Y-117988095D01*
X214680952Y-117845238D01*
D11*
%TO.C,IC2*%
X124760238Y-72074523D02*
X124760238Y-70804523D01*
X126090714Y-71953571D02*
X126030238Y-72014047D01*
X125848809Y-72074523D01*
X125727857Y-72074523D01*
X125546428Y-72014047D01*
X125425476Y-71893095D01*
X125365000Y-71772142D01*
X125304523Y-71530238D01*
X125304523Y-71348809D01*
X125365000Y-71106904D01*
X125425476Y-70985952D01*
X125546428Y-70865000D01*
X125727857Y-70804523D01*
X125848809Y-70804523D01*
X126030238Y-70865000D01*
X126090714Y-70925476D01*
X126574523Y-70925476D02*
X126635000Y-70865000D01*
X126755952Y-70804523D01*
X127058333Y-70804523D01*
X127179285Y-70865000D01*
X127239761Y-70925476D01*
X127300238Y-71046428D01*
X127300238Y-71167380D01*
X127239761Y-71348809D01*
X126514047Y-72074523D01*
X127300238Y-72074523D01*
D10*
%TO.C,REF\u002A\u002A*%
X157252380Y-77583333D02*
X156776190Y-77916666D01*
X157252380Y-78154761D02*
X156252380Y-78154761D01*
X156252380Y-77773809D01*
X156300000Y-77678571D01*
X156347619Y-77630952D01*
X156442857Y-77583333D01*
X156585714Y-77583333D01*
X156680952Y-77630952D01*
X156728571Y-77678571D01*
X156776190Y-77773809D01*
X156776190Y-78154761D01*
X156728571Y-77154761D02*
X156728571Y-76821428D01*
X157252380Y-76678571D02*
X157252380Y-77154761D01*
X156252380Y-77154761D01*
X156252380Y-76678571D01*
X156728571Y-75916666D02*
X156728571Y-76250000D01*
X157252380Y-76250000D02*
X156252380Y-76250000D01*
X156252380Y-75773809D01*
X156252380Y-75250000D02*
X156490476Y-75250000D01*
X156395238Y-75488095D02*
X156490476Y-75250000D01*
X156395238Y-75011904D01*
X156680952Y-75392857D02*
X156490476Y-75250000D01*
X156680952Y-75107142D01*
X156252380Y-74488095D02*
X156490476Y-74488095D01*
X156395238Y-74726190D02*
X156490476Y-74488095D01*
X156395238Y-74250000D01*
X156680952Y-74630952D02*
X156490476Y-74488095D01*
X156680952Y-74345238D01*
%TO.C,U4*%
X108238095Y-67302380D02*
X108238095Y-68111904D01*
X108285714Y-68207142D01*
X108333333Y-68254761D01*
X108428571Y-68302380D01*
X108619047Y-68302380D01*
X108714285Y-68254761D01*
X108761904Y-68207142D01*
X108809523Y-68111904D01*
X108809523Y-67302380D01*
X109714285Y-67635714D02*
X109714285Y-68302380D01*
X109476190Y-67254761D02*
X109238095Y-67969047D01*
X109857142Y-67969047D01*
%TO.C,REF\u002A\u002A*%
X134252380Y-121083333D02*
X133776190Y-121416666D01*
X134252380Y-121654761D02*
X133252380Y-121654761D01*
X133252380Y-121273809D01*
X133300000Y-121178571D01*
X133347619Y-121130952D01*
X133442857Y-121083333D01*
X133585714Y-121083333D01*
X133680952Y-121130952D01*
X133728571Y-121178571D01*
X133776190Y-121273809D01*
X133776190Y-121654761D01*
X133728571Y-120654761D02*
X133728571Y-120321428D01*
X134252380Y-120178571D02*
X134252380Y-120654761D01*
X133252380Y-120654761D01*
X133252380Y-120178571D01*
X133728571Y-119416666D02*
X133728571Y-119750000D01*
X134252380Y-119750000D02*
X133252380Y-119750000D01*
X133252380Y-119273809D01*
X133252380Y-118750000D02*
X133490476Y-118750000D01*
X133395238Y-118988095D02*
X133490476Y-118750000D01*
X133395238Y-118511904D01*
X133680952Y-118892857D02*
X133490476Y-118750000D01*
X133680952Y-118607142D01*
X133252380Y-117988095D02*
X133490476Y-117988095D01*
X133395238Y-118226190D02*
X133490476Y-117988095D01*
X133395238Y-117750000D01*
X133680952Y-118130952D02*
X133490476Y-117988095D01*
X133680952Y-117845238D01*
X157252380Y-121083333D02*
X156776190Y-121416666D01*
X157252380Y-121654761D02*
X156252380Y-121654761D01*
X156252380Y-121273809D01*
X156300000Y-121178571D01*
X156347619Y-121130952D01*
X156442857Y-121083333D01*
X156585714Y-121083333D01*
X156680952Y-121130952D01*
X156728571Y-121178571D01*
X156776190Y-121273809D01*
X156776190Y-121654761D01*
X156728571Y-120654761D02*
X156728571Y-120321428D01*
X157252380Y-120178571D02*
X157252380Y-120654761D01*
X156252380Y-120654761D01*
X156252380Y-120178571D01*
X156728571Y-119416666D02*
X156728571Y-119750000D01*
X157252380Y-119750000D02*
X156252380Y-119750000D01*
X156252380Y-119273809D01*
X156252380Y-118750000D02*
X156490476Y-118750000D01*
X156395238Y-118988095D02*
X156490476Y-118750000D01*
X156395238Y-118511904D01*
X156680952Y-118892857D02*
X156490476Y-118750000D01*
X156680952Y-118607142D01*
X156252380Y-117988095D02*
X156490476Y-117988095D01*
X156395238Y-118226190D02*
X156490476Y-117988095D01*
X156395238Y-117750000D01*
X156680952Y-118130952D02*
X156490476Y-117988095D01*
X156680952Y-117845238D01*
%TO.C,R7*%
X82833333Y-107702380D02*
X82500000Y-107226190D01*
X82261904Y-107702380D02*
X82261904Y-106702380D01*
X82642857Y-106702380D01*
X82738095Y-106750000D01*
X82785714Y-106797619D01*
X82833333Y-106892857D01*
X82833333Y-107035714D01*
X82785714Y-107130952D01*
X82738095Y-107178571D01*
X82642857Y-107226190D01*
X82261904Y-107226190D01*
X83166666Y-106702380D02*
X83833333Y-106702380D01*
X83404761Y-107702380D01*
%TO.C,C9*%
X104833333Y-83177142D02*
X104785714Y-83224761D01*
X104642857Y-83272380D01*
X104547619Y-83272380D01*
X104404761Y-83224761D01*
X104309523Y-83129523D01*
X104261904Y-83034285D01*
X104214285Y-82843809D01*
X104214285Y-82700952D01*
X104261904Y-82510476D01*
X104309523Y-82415238D01*
X104404761Y-82320000D01*
X104547619Y-82272380D01*
X104642857Y-82272380D01*
X104785714Y-82320000D01*
X104833333Y-82367619D01*
X105309523Y-83272380D02*
X105500000Y-83272380D01*
X105595238Y-83224761D01*
X105642857Y-83177142D01*
X105738095Y-83034285D01*
X105785714Y-82843809D01*
X105785714Y-82462857D01*
X105738095Y-82367619D01*
X105690476Y-82320000D01*
X105595238Y-82272380D01*
X105404761Y-82272380D01*
X105309523Y-82320000D01*
X105261904Y-82367619D01*
X105214285Y-82462857D01*
X105214285Y-82700952D01*
X105261904Y-82796190D01*
X105309523Y-82843809D01*
X105404761Y-82891428D01*
X105595238Y-82891428D01*
X105690476Y-82843809D01*
X105738095Y-82796190D01*
X105785714Y-82700952D01*
%TO.C,C3*%
X93027083Y-72107142D02*
X92979464Y-72154761D01*
X92836607Y-72202380D01*
X92741369Y-72202380D01*
X92598511Y-72154761D01*
X92503273Y-72059523D01*
X92455654Y-71964285D01*
X92408035Y-71773809D01*
X92408035Y-71630952D01*
X92455654Y-71440476D01*
X92503273Y-71345238D01*
X92598511Y-71250000D01*
X92741369Y-71202380D01*
X92836607Y-71202380D01*
X92979464Y-71250000D01*
X93027083Y-71297619D01*
X93360416Y-71202380D02*
X93979464Y-71202380D01*
X93646130Y-71583333D01*
X93788988Y-71583333D01*
X93884226Y-71630952D01*
X93931845Y-71678571D01*
X93979464Y-71773809D01*
X93979464Y-72011904D01*
X93931845Y-72107142D01*
X93884226Y-72154761D01*
X93788988Y-72202380D01*
X93503273Y-72202380D01*
X93408035Y-72154761D01*
X93360416Y-72107142D01*
%TO.C,C18*%
X93357142Y-83842857D02*
X93404761Y-83890476D01*
X93452380Y-84033333D01*
X93452380Y-84128571D01*
X93404761Y-84271428D01*
X93309523Y-84366666D01*
X93214285Y-84414285D01*
X93023809Y-84461904D01*
X92880952Y-84461904D01*
X92690476Y-84414285D01*
X92595238Y-84366666D01*
X92500000Y-84271428D01*
X92452380Y-84128571D01*
X92452380Y-84033333D01*
X92500000Y-83890476D01*
X92547619Y-83842857D01*
X93452380Y-82890476D02*
X93452380Y-83461904D01*
X93452380Y-83176190D02*
X92452380Y-83176190D01*
X92595238Y-83271428D01*
X92690476Y-83366666D01*
X92738095Y-83461904D01*
X92880952Y-82319047D02*
X92833333Y-82414285D01*
X92785714Y-82461904D01*
X92690476Y-82509523D01*
X92642857Y-82509523D01*
X92547619Y-82461904D01*
X92500000Y-82414285D01*
X92452380Y-82319047D01*
X92452380Y-82128571D01*
X92500000Y-82033333D01*
X92547619Y-81985714D01*
X92642857Y-81938095D01*
X92690476Y-81938095D01*
X92785714Y-81985714D01*
X92833333Y-82033333D01*
X92880952Y-82128571D01*
X92880952Y-82319047D01*
X92928571Y-82414285D01*
X92976190Y-82461904D01*
X93071428Y-82509523D01*
X93261904Y-82509523D01*
X93357142Y-82461904D01*
X93404761Y-82414285D01*
X93452380Y-82319047D01*
X93452380Y-82128571D01*
X93404761Y-82033333D01*
X93357142Y-81985714D01*
X93261904Y-81938095D01*
X93071428Y-81938095D01*
X92976190Y-81985714D01*
X92928571Y-82033333D01*
X92880952Y-82128571D01*
%TO.C,REF\u002A\u002A*%
X76252380Y-77583333D02*
X75776190Y-77916666D01*
X76252380Y-78154761D02*
X75252380Y-78154761D01*
X75252380Y-77773809D01*
X75300000Y-77678571D01*
X75347619Y-77630952D01*
X75442857Y-77583333D01*
X75585714Y-77583333D01*
X75680952Y-77630952D01*
X75728571Y-77678571D01*
X75776190Y-77773809D01*
X75776190Y-78154761D01*
X75728571Y-77154761D02*
X75728571Y-76821428D01*
X76252380Y-76678571D02*
X76252380Y-77154761D01*
X75252380Y-77154761D01*
X75252380Y-76678571D01*
X75728571Y-75916666D02*
X75728571Y-76250000D01*
X76252380Y-76250000D02*
X75252380Y-76250000D01*
X75252380Y-75773809D01*
X75252380Y-75250000D02*
X75490476Y-75250000D01*
X75395238Y-75488095D02*
X75490476Y-75250000D01*
X75395238Y-75011904D01*
X75680952Y-75392857D02*
X75490476Y-75250000D01*
X75680952Y-75107142D01*
X75252380Y-74488095D02*
X75490476Y-74488095D01*
X75395238Y-74726190D02*
X75490476Y-74488095D01*
X75395238Y-74250000D01*
X75680952Y-74630952D02*
X75490476Y-74488095D01*
X75680952Y-74345238D01*
%TO.C,R1*%
X179452380Y-123166666D02*
X178976190Y-123500000D01*
X179452380Y-123738095D02*
X178452380Y-123738095D01*
X178452380Y-123357142D01*
X178500000Y-123261904D01*
X178547619Y-123214285D01*
X178642857Y-123166666D01*
X178785714Y-123166666D01*
X178880952Y-123214285D01*
X178928571Y-123261904D01*
X178976190Y-123357142D01*
X178976190Y-123738095D01*
X179452380Y-122214285D02*
X179452380Y-122785714D01*
X179452380Y-122500000D02*
X178452380Y-122500000D01*
X178595238Y-122595238D01*
X178690476Y-122690476D01*
X178738095Y-122785714D01*
%TO.C,C7*%
X189833333Y-116995892D02*
X189785714Y-117043511D01*
X189642857Y-117091130D01*
X189547619Y-117091130D01*
X189404761Y-117043511D01*
X189309523Y-116948273D01*
X189261904Y-116853035D01*
X189214285Y-116662559D01*
X189214285Y-116519702D01*
X189261904Y-116329226D01*
X189309523Y-116233988D01*
X189404761Y-116138750D01*
X189547619Y-116091130D01*
X189642857Y-116091130D01*
X189785714Y-116138750D01*
X189833333Y-116186369D01*
X190166666Y-116091130D02*
X190833333Y-116091130D01*
X190404761Y-117091130D01*
D11*
%TO.C,PS1*%
X180457857Y-118474523D02*
X180457857Y-117204523D01*
X180941666Y-117204523D01*
X181062619Y-117265000D01*
X181123095Y-117325476D01*
X181183571Y-117446428D01*
X181183571Y-117627857D01*
X181123095Y-117748809D01*
X181062619Y-117809285D01*
X180941666Y-117869761D01*
X180457857Y-117869761D01*
X181667380Y-118414047D02*
X181848809Y-118474523D01*
X182151190Y-118474523D01*
X182272142Y-118414047D01*
X182332619Y-118353571D01*
X182393095Y-118232619D01*
X182393095Y-118111666D01*
X182332619Y-117990714D01*
X182272142Y-117930238D01*
X182151190Y-117869761D01*
X181909285Y-117809285D01*
X181788333Y-117748809D01*
X181727857Y-117688333D01*
X181667380Y-117567380D01*
X181667380Y-117446428D01*
X181727857Y-117325476D01*
X181788333Y-117265000D01*
X181909285Y-117204523D01*
X182211666Y-117204523D01*
X182393095Y-117265000D01*
X183602619Y-118474523D02*
X182876904Y-118474523D01*
X183239761Y-118474523D02*
X183239761Y-117204523D01*
X183118809Y-117385952D01*
X182997857Y-117506904D01*
X182876904Y-117567380D01*
D10*
%TO.C,C2*%
X87045833Y-112857142D02*
X86998214Y-112904761D01*
X86855357Y-112952380D01*
X86760119Y-112952380D01*
X86617261Y-112904761D01*
X86522023Y-112809523D01*
X86474404Y-112714285D01*
X86426785Y-112523809D01*
X86426785Y-112380952D01*
X86474404Y-112190476D01*
X86522023Y-112095238D01*
X86617261Y-112000000D01*
X86760119Y-111952380D01*
X86855357Y-111952380D01*
X86998214Y-112000000D01*
X87045833Y-112047619D01*
X87426785Y-112047619D02*
X87474404Y-112000000D01*
X87569642Y-111952380D01*
X87807738Y-111952380D01*
X87902976Y-112000000D01*
X87950595Y-112047619D01*
X87998214Y-112142857D01*
X87998214Y-112238095D01*
X87950595Y-112380952D01*
X87379166Y-112952380D01*
X87998214Y-112952380D01*
%TO.C,C4*%
X93027083Y-74107142D02*
X92979464Y-74154761D01*
X92836607Y-74202380D01*
X92741369Y-74202380D01*
X92598511Y-74154761D01*
X92503273Y-74059523D01*
X92455654Y-73964285D01*
X92408035Y-73773809D01*
X92408035Y-73630952D01*
X92455654Y-73440476D01*
X92503273Y-73345238D01*
X92598511Y-73250000D01*
X92741369Y-73202380D01*
X92836607Y-73202380D01*
X92979464Y-73250000D01*
X93027083Y-73297619D01*
X93884226Y-73535714D02*
X93884226Y-74202380D01*
X93646130Y-73154761D02*
X93408035Y-73869047D01*
X94027083Y-73869047D01*
%TO.C,C1*%
X93787142Y-87666666D02*
X93834761Y-87714285D01*
X93882380Y-87857142D01*
X93882380Y-87952380D01*
X93834761Y-88095238D01*
X93739523Y-88190476D01*
X93644285Y-88238095D01*
X93453809Y-88285714D01*
X93310952Y-88285714D01*
X93120476Y-88238095D01*
X93025238Y-88190476D01*
X92930000Y-88095238D01*
X92882380Y-87952380D01*
X92882380Y-87857142D01*
X92930000Y-87714285D01*
X92977619Y-87666666D01*
X93882380Y-86714285D02*
X93882380Y-87285714D01*
X93882380Y-87000000D02*
X92882380Y-87000000D01*
X93025238Y-87095238D01*
X93120476Y-87190476D01*
X93168095Y-87285714D01*
%TO.C,C5*%
X109333333Y-90677142D02*
X109285714Y-90724761D01*
X109142857Y-90772380D01*
X109047619Y-90772380D01*
X108904761Y-90724761D01*
X108809523Y-90629523D01*
X108761904Y-90534285D01*
X108714285Y-90343809D01*
X108714285Y-90200952D01*
X108761904Y-90010476D01*
X108809523Y-89915238D01*
X108904761Y-89820000D01*
X109047619Y-89772380D01*
X109142857Y-89772380D01*
X109285714Y-89820000D01*
X109333333Y-89867619D01*
X110238095Y-89772380D02*
X109761904Y-89772380D01*
X109714285Y-90248571D01*
X109761904Y-90200952D01*
X109857142Y-90153333D01*
X110095238Y-90153333D01*
X110190476Y-90200952D01*
X110238095Y-90248571D01*
X110285714Y-90343809D01*
X110285714Y-90581904D01*
X110238095Y-90677142D01*
X110190476Y-90724761D01*
X110095238Y-90772380D01*
X109857142Y-90772380D01*
X109761904Y-90724761D01*
X109714285Y-90677142D01*
%TO.C,REF\u002A\u002A*%
X215252380Y-77583333D02*
X214776190Y-77916666D01*
X215252380Y-78154761D02*
X214252380Y-78154761D01*
X214252380Y-77773809D01*
X214300000Y-77678571D01*
X214347619Y-77630952D01*
X214442857Y-77583333D01*
X214585714Y-77583333D01*
X214680952Y-77630952D01*
X214728571Y-77678571D01*
X214776190Y-77773809D01*
X214776190Y-78154761D01*
X214728571Y-77154761D02*
X214728571Y-76821428D01*
X215252380Y-76678571D02*
X215252380Y-77154761D01*
X214252380Y-77154761D01*
X214252380Y-76678571D01*
X214728571Y-75916666D02*
X214728571Y-76250000D01*
X215252380Y-76250000D02*
X214252380Y-76250000D01*
X214252380Y-75773809D01*
X214252380Y-75250000D02*
X214490476Y-75250000D01*
X214395238Y-75488095D02*
X214490476Y-75250000D01*
X214395238Y-75011904D01*
X214680952Y-75392857D02*
X214490476Y-75250000D01*
X214680952Y-75107142D01*
X214252380Y-74488095D02*
X214490476Y-74488095D01*
X214395238Y-74726190D02*
X214490476Y-74488095D01*
X214395238Y-74250000D01*
X214680952Y-74630952D02*
X214490476Y-74488095D01*
X214680952Y-74345238D01*
%TO.C,C17*%
X87607142Y-81177142D02*
X87559523Y-81224761D01*
X87416666Y-81272380D01*
X87321428Y-81272380D01*
X87178571Y-81224761D01*
X87083333Y-81129523D01*
X87035714Y-81034285D01*
X86988095Y-80843809D01*
X86988095Y-80700952D01*
X87035714Y-80510476D01*
X87083333Y-80415238D01*
X87178571Y-80320000D01*
X87321428Y-80272380D01*
X87416666Y-80272380D01*
X87559523Y-80320000D01*
X87607142Y-80367619D01*
X88559523Y-81272380D02*
X87988095Y-81272380D01*
X88273809Y-81272380D02*
X88273809Y-80272380D01*
X88178571Y-80415238D01*
X88083333Y-80510476D01*
X87988095Y-80558095D01*
X88892857Y-80272380D02*
X89559523Y-80272380D01*
X89130952Y-81272380D01*
%TO.C,D1*%
X189286904Y-80102380D02*
X189286904Y-79102380D01*
X189525000Y-79102380D01*
X189667857Y-79150000D01*
X189763095Y-79245238D01*
X189810714Y-79340476D01*
X189858333Y-79530952D01*
X189858333Y-79673809D01*
X189810714Y-79864285D01*
X189763095Y-79959523D01*
X189667857Y-80054761D01*
X189525000Y-80102380D01*
X189286904Y-80102380D01*
X190810714Y-80102380D02*
X190239285Y-80102380D01*
X190525000Y-80102380D02*
X190525000Y-79102380D01*
X190429761Y-79245238D01*
X190334523Y-79340476D01*
X190239285Y-79388095D01*
%TO.C,R4*%
X75935833Y-83632380D02*
X75602500Y-83156190D01*
X75364404Y-83632380D02*
X75364404Y-82632380D01*
X75745357Y-82632380D01*
X75840595Y-82680000D01*
X75888214Y-82727619D01*
X75935833Y-82822857D01*
X75935833Y-82965714D01*
X75888214Y-83060952D01*
X75840595Y-83108571D01*
X75745357Y-83156190D01*
X75364404Y-83156190D01*
X76792976Y-82965714D02*
X76792976Y-83632380D01*
X76554880Y-82584761D02*
X76316785Y-83299047D01*
X76935833Y-83299047D01*
%TO.C,C20*%
X85857142Y-110642857D02*
X85904761Y-110690476D01*
X85952380Y-110833333D01*
X85952380Y-110928571D01*
X85904761Y-111071428D01*
X85809523Y-111166666D01*
X85714285Y-111214285D01*
X85523809Y-111261904D01*
X85380952Y-111261904D01*
X85190476Y-111214285D01*
X85095238Y-111166666D01*
X85000000Y-111071428D01*
X84952380Y-110928571D01*
X84952380Y-110833333D01*
X85000000Y-110690476D01*
X85047619Y-110642857D01*
X85047619Y-110261904D02*
X85000000Y-110214285D01*
X84952380Y-110119047D01*
X84952380Y-109880952D01*
X85000000Y-109785714D01*
X85047619Y-109738095D01*
X85142857Y-109690476D01*
X85238095Y-109690476D01*
X85380952Y-109738095D01*
X85952380Y-110309523D01*
X85952380Y-109690476D01*
X84952380Y-109071428D02*
X84952380Y-108976190D01*
X85000000Y-108880952D01*
X85047619Y-108833333D01*
X85142857Y-108785714D01*
X85333333Y-108738095D01*
X85571428Y-108738095D01*
X85761904Y-108785714D01*
X85857142Y-108833333D01*
X85904761Y-108880952D01*
X85952380Y-108976190D01*
X85952380Y-109071428D01*
X85904761Y-109166666D01*
X85857142Y-109214285D01*
X85761904Y-109261904D01*
X85571428Y-109309523D01*
X85333333Y-109309523D01*
X85142857Y-109261904D01*
X85047619Y-109214285D01*
X85000000Y-109166666D01*
X84952380Y-109071428D01*
%TO.C,C10*%
X113244642Y-82677142D02*
X113197023Y-82724761D01*
X113054166Y-82772380D01*
X112958928Y-82772380D01*
X112816071Y-82724761D01*
X112720833Y-82629523D01*
X112673214Y-82534285D01*
X112625595Y-82343809D01*
X112625595Y-82200952D01*
X112673214Y-82010476D01*
X112720833Y-81915238D01*
X112816071Y-81820000D01*
X112958928Y-81772380D01*
X113054166Y-81772380D01*
X113197023Y-81820000D01*
X113244642Y-81867619D01*
X114197023Y-82772380D02*
X113625595Y-82772380D01*
X113911309Y-82772380D02*
X113911309Y-81772380D01*
X113816071Y-81915238D01*
X113720833Y-82010476D01*
X113625595Y-82058095D01*
X114816071Y-81772380D02*
X114911309Y-81772380D01*
X115006547Y-81820000D01*
X115054166Y-81867619D01*
X115101785Y-81962857D01*
X115149404Y-82153333D01*
X115149404Y-82391428D01*
X115101785Y-82581904D01*
X115054166Y-82677142D01*
X115006547Y-82724761D01*
X114911309Y-82772380D01*
X114816071Y-82772380D01*
X114720833Y-82724761D01*
X114673214Y-82677142D01*
X114625595Y-82581904D01*
X114577976Y-82391428D01*
X114577976Y-82153333D01*
X114625595Y-81962857D01*
X114673214Y-81867619D01*
X114720833Y-81820000D01*
X114816071Y-81772380D01*
%TO.C,R9*%
X82833333Y-106202380D02*
X82500000Y-105726190D01*
X82261904Y-106202380D02*
X82261904Y-105202380D01*
X82642857Y-105202380D01*
X82738095Y-105250000D01*
X82785714Y-105297619D01*
X82833333Y-105392857D01*
X82833333Y-105535714D01*
X82785714Y-105630952D01*
X82738095Y-105678571D01*
X82642857Y-105726190D01*
X82261904Y-105726190D01*
X83309523Y-106202380D02*
X83500000Y-106202380D01*
X83595238Y-106154761D01*
X83642857Y-106107142D01*
X83738095Y-105964285D01*
X83785714Y-105773809D01*
X83785714Y-105392857D01*
X83738095Y-105297619D01*
X83690476Y-105250000D01*
X83595238Y-105202380D01*
X83404761Y-105202380D01*
X83309523Y-105250000D01*
X83261904Y-105297619D01*
X83214285Y-105392857D01*
X83214285Y-105630952D01*
X83261904Y-105726190D01*
X83309523Y-105773809D01*
X83404761Y-105821428D01*
X83595238Y-105821428D01*
X83690476Y-105773809D01*
X83738095Y-105726190D01*
X83785714Y-105630952D01*
%TO.C,U2*%
X82948158Y-103196857D02*
X83759230Y-103196857D01*
X83854651Y-103149147D01*
X83902361Y-103101437D01*
X83950071Y-103006016D01*
X83950071Y-102815176D01*
X83902361Y-102719755D01*
X83854651Y-102672045D01*
X83759230Y-102624335D01*
X82948158Y-102624335D01*
X83043578Y-102194944D02*
X82995868Y-102147234D01*
X82948158Y-102051813D01*
X82948158Y-101813263D01*
X82995868Y-101717842D01*
X83043578Y-101670132D01*
X83138998Y-101622422D01*
X83234419Y-101622422D01*
X83377549Y-101670132D01*
X83950071Y-102242654D01*
X83950071Y-101622422D01*
%TO.C,C16*%
X125357142Y-78857142D02*
X125309523Y-78904761D01*
X125166666Y-78952380D01*
X125071428Y-78952380D01*
X124928571Y-78904761D01*
X124833333Y-78809523D01*
X124785714Y-78714285D01*
X124738095Y-78523809D01*
X124738095Y-78380952D01*
X124785714Y-78190476D01*
X124833333Y-78095238D01*
X124928571Y-78000000D01*
X125071428Y-77952380D01*
X125166666Y-77952380D01*
X125309523Y-78000000D01*
X125357142Y-78047619D01*
X126309523Y-78952380D02*
X125738095Y-78952380D01*
X126023809Y-78952380D02*
X126023809Y-77952380D01*
X125928571Y-78095238D01*
X125833333Y-78190476D01*
X125738095Y-78238095D01*
X127166666Y-77952380D02*
X126976190Y-77952380D01*
X126880952Y-78000000D01*
X126833333Y-78047619D01*
X126738095Y-78190476D01*
X126690476Y-78380952D01*
X126690476Y-78761904D01*
X126738095Y-78857142D01*
X126785714Y-78904761D01*
X126880952Y-78952380D01*
X127071428Y-78952380D01*
X127166666Y-78904761D01*
X127214285Y-78857142D01*
X127261904Y-78761904D01*
X127261904Y-78523809D01*
X127214285Y-78428571D01*
X127166666Y-78380952D01*
X127071428Y-78333333D01*
X126880952Y-78333333D01*
X126785714Y-78380952D01*
X126738095Y-78428571D01*
X126690476Y-78523809D01*
D11*
%TO.C,PS2*%
X86457857Y-88824523D02*
X86457857Y-87554523D01*
X86941666Y-87554523D01*
X87062619Y-87615000D01*
X87123095Y-87675476D01*
X87183571Y-87796428D01*
X87183571Y-87977857D01*
X87123095Y-88098809D01*
X87062619Y-88159285D01*
X86941666Y-88219761D01*
X86457857Y-88219761D01*
X87667380Y-88764047D02*
X87848809Y-88824523D01*
X88151190Y-88824523D01*
X88272142Y-88764047D01*
X88332619Y-88703571D01*
X88393095Y-88582619D01*
X88393095Y-88461666D01*
X88332619Y-88340714D01*
X88272142Y-88280238D01*
X88151190Y-88219761D01*
X87909285Y-88159285D01*
X87788333Y-88098809D01*
X87727857Y-88038333D01*
X87667380Y-87917380D01*
X87667380Y-87796428D01*
X87727857Y-87675476D01*
X87788333Y-87615000D01*
X87909285Y-87554523D01*
X88211666Y-87554523D01*
X88393095Y-87615000D01*
X88876904Y-87675476D02*
X88937380Y-87615000D01*
X89058333Y-87554523D01*
X89360714Y-87554523D01*
X89481666Y-87615000D01*
X89542142Y-87675476D01*
X89602619Y-87796428D01*
X89602619Y-87917380D01*
X89542142Y-88098809D01*
X88816428Y-88824523D01*
X89602619Y-88824523D01*
D10*
%TO.C,C12*%
X98357142Y-76677142D02*
X98309523Y-76724761D01*
X98166666Y-76772380D01*
X98071428Y-76772380D01*
X97928571Y-76724761D01*
X97833333Y-76629523D01*
X97785714Y-76534285D01*
X97738095Y-76343809D01*
X97738095Y-76200952D01*
X97785714Y-76010476D01*
X97833333Y-75915238D01*
X97928571Y-75820000D01*
X98071428Y-75772380D01*
X98166666Y-75772380D01*
X98309523Y-75820000D01*
X98357142Y-75867619D01*
X99309523Y-76772380D02*
X98738095Y-76772380D01*
X99023809Y-76772380D02*
X99023809Y-75772380D01*
X98928571Y-75915238D01*
X98833333Y-76010476D01*
X98738095Y-76058095D01*
X99690476Y-75867619D02*
X99738095Y-75820000D01*
X99833333Y-75772380D01*
X100071428Y-75772380D01*
X100166666Y-75820000D01*
X100214285Y-75867619D01*
X100261904Y-75962857D01*
X100261904Y-76058095D01*
X100214285Y-76200952D01*
X99642857Y-76772380D01*
X100261904Y-76772380D01*
%TO.C,C11*%
X103787142Y-69530357D02*
X103834761Y-69577976D01*
X103882380Y-69720833D01*
X103882380Y-69816071D01*
X103834761Y-69958928D01*
X103739523Y-70054166D01*
X103644285Y-70101785D01*
X103453809Y-70149404D01*
X103310952Y-70149404D01*
X103120476Y-70101785D01*
X103025238Y-70054166D01*
X102930000Y-69958928D01*
X102882380Y-69816071D01*
X102882380Y-69720833D01*
X102930000Y-69577976D01*
X102977619Y-69530357D01*
X103882380Y-68577976D02*
X103882380Y-69149404D01*
X103882380Y-68863690D02*
X102882380Y-68863690D01*
X103025238Y-68958928D01*
X103120476Y-69054166D01*
X103168095Y-69149404D01*
X103882380Y-67625595D02*
X103882380Y-68197023D01*
X103882380Y-67911309D02*
X102882380Y-67911309D01*
X103025238Y-68006547D01*
X103120476Y-68101785D01*
X103168095Y-68197023D01*
D12*
%TO.C,R13*%
X94522500Y-76945276D02*
X94522500Y-77454724D01*
X93477500Y-76945276D02*
X93477500Y-77454724D01*
%TO.C,R12*%
X95077500Y-77454724D02*
X95077500Y-76945276D01*
X96122500Y-77454724D02*
X96122500Y-76945276D01*
%TO.C,C13*%
X92935000Y-77026248D02*
X92935000Y-77548752D01*
X91465000Y-77026248D02*
X91465000Y-77548752D01*
D13*
%TO.C,U3*%
X160035000Y-83000000D02*
X160035000Y-112985000D01*
X160035000Y-112985000D02*
X219965000Y-113000000D01*
X219965000Y-113000000D02*
X219965000Y-83000000D01*
X219965000Y-83000000D02*
X164000000Y-83000000D01*
D12*
%TO.C,F2*%
X156828733Y-104490000D02*
X157171267Y-104490000D01*
X156828733Y-105510000D02*
X157171267Y-105510000D01*
%TO.C,C19*%
X80175000Y-85261252D02*
X80175000Y-84738748D01*
X78705000Y-85261252D02*
X78705000Y-84738748D01*
%TO.C,U7*%
X80500000Y-87190000D02*
X81300000Y-87190000D01*
X80500000Y-90310000D02*
X79700000Y-90310000D01*
X80500000Y-90310000D02*
X82300000Y-90310000D01*
X80500000Y-87190000D02*
X79700000Y-87190000D01*
%TO.C,C6*%
X123103733Y-130510000D02*
X123396267Y-130510000D01*
X123103733Y-129490000D02*
X123396267Y-129490000D01*
%TO.C,C8*%
X118533767Y-70740000D02*
X118241233Y-70740000D01*
X118533767Y-71760000D02*
X118241233Y-71760000D01*
%TO.C,J2*%
X111000000Y-122320000D02*
X111500000Y-123320000D01*
X116710000Y-132830000D02*
X101210000Y-132830000D01*
X106910000Y-125020000D02*
X106910000Y-125020000D01*
X116710000Y-123710000D02*
X116710000Y-132830000D01*
X102510000Y-131520000D02*
X102510000Y-125020000D01*
X115410000Y-125020000D02*
X115410000Y-131520000D01*
X111010000Y-123710000D02*
X111010000Y-125020000D01*
X106910000Y-125020000D02*
X106910000Y-123710000D01*
X101210000Y-132830000D02*
X101210000Y-123710000D01*
X111010000Y-125020000D02*
X115410000Y-125020000D01*
X102510000Y-125020000D02*
X106910000Y-125020000D01*
X115410000Y-131520000D02*
X102510000Y-131520000D01*
X111500000Y-123320000D02*
X112000000Y-122320000D01*
X101210000Y-123710000D02*
X116710000Y-123710000D01*
X112000000Y-122320000D02*
X111000000Y-122320000D01*
%TO.C,R8*%
X80245276Y-113022500D02*
X80754724Y-113022500D01*
X80245276Y-111977500D02*
X80754724Y-111977500D01*
%TO.C,R6*%
X80282776Y-110227500D02*
X80792224Y-110227500D01*
X80282776Y-111272500D02*
X80792224Y-111272500D01*
D13*
%TO.C,JP1*%
X87445000Y-117920000D02*
X87445000Y-121520000D01*
X89845000Y-117170000D02*
X86695000Y-117170000D01*
X86695000Y-117170000D02*
X86695000Y-122270000D01*
X98595000Y-117920000D02*
X96195000Y-117920000D01*
X89845000Y-122270000D02*
X86695000Y-122270000D01*
X96195000Y-122270000D02*
X99345000Y-122270000D01*
X99345000Y-122270000D02*
X99345000Y-117170000D01*
X99345000Y-117170000D02*
X96195000Y-117170000D01*
X89845000Y-117920000D02*
X87445000Y-117920000D01*
X96195000Y-121520000D02*
X98595000Y-121520000D01*
X87445000Y-121520000D02*
X89845000Y-121520000D01*
X98595000Y-121520000D02*
X98595000Y-117920000D01*
D12*
%TO.C,J3*%
X70690000Y-84050000D02*
X68790000Y-84050000D01*
X68790000Y-84050000D02*
X68790000Y-93450000D01*
X74590000Y-93450000D02*
X72590000Y-93450000D01*
X74590000Y-84050000D02*
X72590000Y-84050000D01*
X70690000Y-93450000D02*
X68790000Y-93450000D01*
%TO.C,R11*%
X84477500Y-85754724D02*
X84477500Y-85245276D01*
X85522500Y-85754724D02*
X85522500Y-85245276D01*
%TO.C,SW2*%
X72750000Y-107750000D02*
X75250000Y-107750000D01*
X72300000Y-102700000D02*
X72750000Y-102250000D01*
X76750000Y-104000000D02*
X76750000Y-106000000D01*
X75700000Y-102700000D02*
X75250000Y-102250000D01*
X72750000Y-102250000D02*
X75250000Y-102250000D01*
X72300000Y-107300000D02*
X72750000Y-107750000D01*
X75700000Y-107300000D02*
X75250000Y-107750000D01*
X71250000Y-104000000D02*
X71250000Y-106000000D01*
%TO.C,R10*%
X186234724Y-77492500D02*
X185725276Y-77492500D01*
X186234724Y-78537500D02*
X185725276Y-78537500D01*
%TO.C,R5*%
X72857224Y-82272500D02*
X72347776Y-82272500D01*
X72857224Y-81227500D02*
X72347776Y-81227500D01*
%TO.C,Y1*%
X99568750Y-73425000D02*
X99568750Y-72075000D01*
X97818750Y-73425000D02*
X97818750Y-72075000D01*
%TO.C,F1*%
X156828733Y-91010000D02*
X157171267Y-91010000D01*
X156828733Y-89990000D02*
X157171267Y-89990000D01*
%TO.C,SW1*%
X75700000Y-109750000D02*
X75250000Y-109300000D01*
X72300000Y-114350000D02*
X72750000Y-114800000D01*
X76750000Y-111050000D02*
X76750000Y-113050000D01*
X72750000Y-109300000D02*
X75250000Y-109300000D01*
X72300000Y-109750000D02*
X72750000Y-109300000D01*
X75700000Y-114350000D02*
X75250000Y-114800000D01*
X72750000Y-114800000D02*
X75250000Y-114800000D01*
X71250000Y-111050000D02*
X71250000Y-113050000D01*
D14*
%TO.C,IC1*%
X124400000Y-126000000D02*
X124400000Y-129000000D01*
X122100000Y-129000000D02*
X122100000Y-126000000D01*
X122100000Y-126000000D02*
X124400000Y-126000000D01*
X124400000Y-129000000D02*
X122100000Y-129000000D01*
X120350000Y-125950000D02*
X121750000Y-125950000D01*
D12*
%TO.C,R2*%
X96745276Y-108022500D02*
X97254724Y-108022500D01*
X96745276Y-106977500D02*
X97254724Y-106977500D01*
%TO.C,C14*%
X175853733Y-118990000D02*
X176146267Y-118990000D01*
X175853733Y-120010000D02*
X176146267Y-120010000D01*
%TO.C,R3*%
X97254724Y-108977500D02*
X96745276Y-108977500D01*
X97254724Y-110022500D02*
X96745276Y-110022500D01*
D14*
%TO.C,U1*%
X190600000Y-119843750D02*
G75*
G03*
X190800000Y-119843750I100000J0D01*
G01*
X190800000Y-119843750D02*
G75*
G03*
X190600000Y-119843750I-100000J0D01*
G01*
D13*
X190100000Y-120343750D02*
X189900000Y-120343750D01*
X189000000Y-121443750D02*
X189000000Y-121243750D01*
D14*
X190800000Y-119843750D02*
X190800000Y-119843750D01*
D13*
X190100000Y-122343750D02*
X189900000Y-122343750D01*
D14*
X190600000Y-119843750D02*
X190600000Y-119843750D01*
D13*
X191000000Y-121443750D02*
X191000000Y-121243750D01*
D12*
%TO.C,U5*%
X111582800Y-85671900D02*
X107417200Y-85671900D01*
X107417200Y-90828100D02*
X111582800Y-90828100D01*
%TO.C,C15*%
X186146267Y-118990000D02*
X185853733Y-118990000D01*
X186146267Y-120010000D02*
X185853733Y-120010000D01*
%TO.C,J4*%
X107770000Y-108670000D02*
X112910000Y-108670000D01*
X107770000Y-111330000D02*
X112910000Y-111330000D01*
X106500000Y-111330000D02*
X105170000Y-111330000D01*
X105170000Y-111330000D02*
X105170000Y-110000000D01*
X107770000Y-111330000D02*
X107770000Y-108670000D01*
X112910000Y-111330000D02*
X112910000Y-108670000D01*
D14*
%TO.C,IC2*%
X124050000Y-72450000D02*
X125450000Y-72450000D01*
X126200000Y-72500000D02*
X126200000Y-75400000D01*
X125800000Y-75400000D02*
X125800000Y-72500000D01*
X125800000Y-72500000D02*
X126200000Y-72500000D01*
X126200000Y-75400000D02*
X125800000Y-75400000D01*
D12*
%TO.C,U4*%
X113160000Y-70140000D02*
X114110000Y-70140000D01*
X103890000Y-71090000D02*
X102550000Y-71090000D01*
X103890000Y-70140000D02*
X103890000Y-71090000D01*
X103890000Y-80360000D02*
X103890000Y-79410000D01*
X114110000Y-80360000D02*
X114110000Y-79410000D01*
X113160000Y-80360000D02*
X114110000Y-80360000D01*
X114110000Y-70140000D02*
X114110000Y-71090000D01*
X104840000Y-80360000D02*
X103890000Y-80360000D01*
X104840000Y-70140000D02*
X103890000Y-70140000D01*
%TO.C,R7*%
X80245276Y-107477500D02*
X80754724Y-107477500D01*
X80245276Y-108522500D02*
X80754724Y-108522500D01*
%TO.C,C9*%
X104853733Y-83740000D02*
X105146267Y-83740000D01*
X104853733Y-84760000D02*
X105146267Y-84760000D01*
%TO.C,C3*%
X95840017Y-71240000D02*
X95547483Y-71240000D01*
X95840017Y-72260000D02*
X95547483Y-72260000D01*
%TO.C,C18*%
X90515000Y-83511252D02*
X90515000Y-82988748D01*
X91985000Y-83511252D02*
X91985000Y-82988748D01*
%TO.C,R1*%
X179522500Y-120245276D02*
X179522500Y-120754724D01*
X178477500Y-120245276D02*
X178477500Y-120754724D01*
%TO.C,C7*%
X189853733Y-118578750D02*
X190146267Y-118578750D01*
X189853733Y-117558750D02*
X190146267Y-117558750D01*
D14*
%TO.C,PS1*%
X182300000Y-119050000D02*
X182300000Y-121950000D01*
X181700000Y-119050000D02*
X182300000Y-119050000D01*
X182300000Y-121950000D02*
X181700000Y-121950000D01*
X180150000Y-119000000D02*
X181350000Y-119000000D01*
X181700000Y-121950000D02*
X181700000Y-119050000D01*
D12*
%TO.C,C2*%
X83988748Y-113235000D02*
X84511252Y-113235000D01*
X83988748Y-111765000D02*
X84511252Y-111765000D01*
%TO.C,C4*%
X95840017Y-74260000D02*
X95547483Y-74260000D01*
X95840017Y-73240000D02*
X95547483Y-73240000D01*
%TO.C,C1*%
X92510000Y-87353733D02*
X92510000Y-87646267D01*
X91490000Y-87353733D02*
X91490000Y-87646267D01*
%TO.C,C5*%
X109353733Y-91240000D02*
X109646267Y-91240000D01*
X109353733Y-92260000D02*
X109646267Y-92260000D01*
%TO.C,C17*%
X87988748Y-83235000D02*
X88511252Y-83235000D01*
X87988748Y-81765000D02*
X88511252Y-81765000D01*
%TO.C,D1*%
X191885000Y-77040000D02*
X189025000Y-77040000D01*
X191885000Y-78960000D02*
X191885000Y-77040000D01*
X189025000Y-78960000D02*
X191885000Y-78960000D01*
%TO.C,R4*%
X76357224Y-82272500D02*
X75847776Y-82272500D01*
X76357224Y-81227500D02*
X75847776Y-81227500D01*
%TO.C,C20*%
X84485000Y-109238748D02*
X84485000Y-109761252D01*
X83015000Y-109238748D02*
X83015000Y-109761252D01*
%TO.C,C10*%
X113741233Y-83240000D02*
X114033767Y-83240000D01*
X113741233Y-84260000D02*
X114033767Y-84260000D01*
%TO.C,R9*%
X80245276Y-106522500D02*
X80754724Y-106522500D01*
X80245276Y-105477500D02*
X80754724Y-105477500D01*
D15*
%TO.C,U2*%
X85800000Y-108011500D02*
X85800000Y-107500000D01*
X85800000Y-107500000D02*
X86192200Y-107500000D01*
X86192200Y-107500000D02*
X86192200Y-108011500D01*
X86192200Y-108011500D02*
X85800000Y-108011500D01*
G36*
X86192200Y-108011500D02*
G01*
X85800000Y-108011500D01*
X85800000Y-107500000D01*
X86192200Y-107500000D01*
X86192200Y-108011500D01*
G37*
X86192200Y-108011500D02*
X85800000Y-108011500D01*
X85800000Y-107500000D01*
X86192200Y-107500000D01*
X86192200Y-108011500D01*
D14*
X86291547Y-107750000D02*
G75*
G03*
X86291547Y-107750000I-291547J0D01*
G01*
X85000000Y-106000000D02*
X85000000Y-90000000D01*
X101000000Y-90000000D02*
X101000000Y-106000000D01*
D12*
%TO.C,C16*%
X125853733Y-77460000D02*
X126146267Y-77460000D01*
X125853733Y-76440000D02*
X126146267Y-76440000D01*
D14*
%TO.C,PS2*%
X88300000Y-84050000D02*
X88300000Y-86950000D01*
X86150000Y-84000000D02*
X87350000Y-84000000D01*
X87700000Y-86950000D02*
X87700000Y-84050000D01*
X87700000Y-84050000D02*
X88300000Y-84050000D01*
X88300000Y-86950000D02*
X87700000Y-86950000D01*
D12*
%TO.C,C12*%
X98853733Y-78260000D02*
X99146267Y-78260000D01*
X98853733Y-77240000D02*
X99146267Y-77240000D01*
%TO.C,C11*%
X101490000Y-68741233D02*
X101490000Y-69033767D01*
X102510000Y-68741233D02*
X102510000Y-69033767D01*
%TD*%
M02*
