%TF.GenerationSoftware,KiCad,Pcbnew,(5.99.0-12717-g57c7d663b0)*%
%TF.CreationDate,2021-10-15T20:59:05+02:00*%
%TF.ProjectId,Main_PCB,4d61696e-5f50-4434-922e-6b696361645f,rev?*%
%TF.SameCoordinates,Original*%
%TF.FileFunction,Profile,NP*%
%FSLAX46Y46*%
G04 Gerber Fmt 4.6, Leading zero omitted, Abs format (unit mm)*
G04 Created by KiCad (PCBNEW (5.99.0-12717-g57c7d663b0)) date 2021-10-15 20:59:05*
%MOMM*%
%LPD*%
G01*
G04 APERTURE LIST*
%TA.AperFunction,Profile*%
%ADD10C,0.100000*%
%TD*%
G04 APERTURE END LIST*
D10*
X146000000Y-95500000D02*
X146000000Y-100500000D01*
X150500000Y-95000000D02*
G75*
G02*
X150000000Y-94500000I0J500000D01*
G01*
X149000000Y-104500000D02*
X149000000Y-101500000D01*
X149000000Y-91500000D02*
G75*
G02*
X150000000Y-91500000I500000J0D01*
G01*
X150000000Y-104500000D02*
G75*
G02*
X149000000Y-104500000I-500000J0D01*
G01*
X152500000Y-95000000D02*
G75*
G02*
X153000000Y-95500000I0J-500000D01*
G01*
X153000000Y-100500000D02*
G75*
G02*
X152500000Y-101000000I-500000J0D01*
G01*
X148500000Y-95000000D02*
X147000000Y-95000000D01*
X149000000Y-94500000D02*
G75*
G02*
X148500000Y-95000000I-500000J0D01*
G01*
X148500000Y-101000000D02*
G75*
G02*
X149000000Y-101500000I0J-500000D01*
G01*
X146000000Y-95500000D02*
G75*
G02*
X146500000Y-95000000I500000J0D01*
G01*
X146500000Y-101000000D02*
X148500000Y-101000000D01*
X146500000Y-101000000D02*
G75*
G02*
X146000000Y-100500000I0J500000D01*
G01*
X150000000Y-101500000D02*
G75*
G02*
X150500000Y-101000000I500000J0D01*
G01*
X149000000Y-94500000D02*
X149000000Y-91500000D01*
X150500000Y-95000000D02*
X152500000Y-95000000D01*
X150000000Y-91500000D02*
X150000000Y-94500000D01*
X152500000Y-101000000D02*
X150500000Y-101000000D01*
X150000000Y-101500000D02*
X150000000Y-104500000D01*
X153000000Y-95500000D02*
X153000000Y-100500000D01*
X147000000Y-95000000D02*
X146500000Y-95000000D01*
X149000000Y-78500000D02*
G75*
G02*
X150000000Y-78500000I500000J0D01*
G01*
X150000000Y-78500000D02*
X150000000Y-87500000D01*
X150000000Y-87500000D02*
G75*
G02*
X149000000Y-87500000I-500000J0D01*
G01*
X149000000Y-87500000D02*
X149000000Y-78500000D01*
X150000000Y-108500000D02*
X150000000Y-117500000D01*
X150000000Y-117500000D02*
G75*
G02*
X149000000Y-117500000I-500000J0D01*
G01*
X149000000Y-117500000D02*
X149000000Y-108500000D01*
X149000000Y-108500000D02*
G75*
G02*
X150000000Y-108500000I500000J0D01*
G01*
X127000000Y-133000000D02*
X91000000Y-133000000D01*
X183500000Y-127000000D02*
G75*
G02*
X185500000Y-125000000I2000000J0D01*
G01*
X194500000Y-125000000D02*
G75*
G02*
X196500000Y-127000000I0J-2000000D01*
G01*
X183500000Y-131000000D02*
G75*
G02*
X181500000Y-133000000I-2000000J0D01*
G01*
X198500000Y-133000000D02*
G75*
G02*
X196500000Y-131000000I0J2000000D01*
G01*
X198500000Y-133000000D02*
X208000000Y-133000000D01*
X196500000Y-127000000D02*
X196500000Y-131000000D01*
X185500000Y-125000000D02*
X194500000Y-125000000D01*
X183500000Y-131000000D02*
X183500000Y-127000000D01*
X172000000Y-133000000D02*
X181500000Y-133000000D01*
X117000000Y-122000000D02*
X117000000Y-114000000D01*
X170000000Y-66000000D02*
G75*
G02*
X168000000Y-68000000I-2000000J0D01*
G01*
X170000000Y-66000000D02*
X170000000Y-65000000D01*
X91000000Y-133000000D02*
G75*
G02*
X89000000Y-131000000I0J2000000D01*
G01*
X91000000Y-63000000D02*
X127000000Y-63000000D01*
X230000000Y-126000000D02*
G75*
G02*
X228000000Y-128000000I-2000000J0D01*
G01*
X212000000Y-68000000D02*
X228000000Y-68000000D01*
X170000000Y-131000000D02*
X170000000Y-130000000D01*
X210000000Y-130000000D02*
G75*
G02*
X212000000Y-128000000I2000000J0D01*
G01*
X170000000Y-65000000D02*
G75*
G02*
X172000000Y-63000000I2000000J0D01*
G01*
X69500000Y-95000000D02*
X71500000Y-95000000D01*
X168000000Y-128000000D02*
X152000000Y-128000000D01*
X127000000Y-63000000D02*
G75*
G02*
X129000000Y-65000000I0J-2000000D01*
G01*
X168000000Y-128000000D02*
G75*
G02*
X170000000Y-130000000I0J-2000000D01*
G01*
X152000000Y-68000000D02*
X155000000Y-68000000D01*
X229500000Y-95000000D02*
G75*
G03*
X230000000Y-94500000I0J500000D01*
G01*
X227500000Y-101000000D02*
G75*
G02*
X227000000Y-100500000I0J500000D01*
G01*
X101500000Y-122500000D02*
X116500000Y-122500000D01*
X229500000Y-95000000D02*
X228000000Y-95000000D01*
X150000000Y-121500000D02*
X150000000Y-126000000D01*
X230000000Y-101500000D02*
X230000000Y-126000000D01*
X71000000Y-68000000D02*
X74000000Y-68000000D01*
X228000000Y-95000000D02*
X227500000Y-95000000D01*
X150000000Y-74500000D02*
G75*
G02*
X149000000Y-74500000I-500000J0D01*
G01*
X116500000Y-122500000D02*
G75*
G03*
X117000000Y-122000000I0J500000D01*
G01*
X72000000Y-95500000D02*
X72000000Y-100500000D01*
X72000000Y-95500000D02*
G75*
G03*
X71500000Y-95000000I-500000J0D01*
G01*
X131000000Y-68000000D02*
X147000000Y-68000000D01*
X71500000Y-101000000D02*
X69500000Y-101000000D01*
X149000000Y-126000000D02*
G75*
G02*
X147000000Y-128000000I-2000000J0D01*
G01*
X87000000Y-128000000D02*
G75*
G02*
X89000000Y-130000000I0J-2000000D01*
G01*
X69000000Y-101500000D02*
G75*
G02*
X69500000Y-101000000I500000J0D01*
G01*
X149000000Y-126000000D02*
X149000000Y-121500000D01*
X227000000Y-95500000D02*
X227000000Y-100500000D01*
X228000000Y-128000000D02*
X212000000Y-128000000D01*
X69000000Y-101500000D02*
X69000000Y-126000000D01*
X87000000Y-128000000D02*
X71000000Y-128000000D01*
X147000000Y-68000000D02*
G75*
G02*
X149000000Y-70000000I0J-2000000D01*
G01*
X147000000Y-128000000D02*
X131000000Y-128000000D01*
X210000000Y-65000000D02*
X210000000Y-66000000D01*
X69000000Y-70000000D02*
X69000000Y-94500000D01*
X172000000Y-133000000D02*
G75*
G02*
X170000000Y-131000000I0J2000000D01*
G01*
X69000000Y-70000000D02*
G75*
G02*
X71000000Y-68000000I2000000J0D01*
G01*
X117000000Y-114000000D02*
G75*
G03*
X116500000Y-113500000I-500000J0D01*
G01*
X116500000Y-113500000D02*
X101500000Y-113500000D01*
X230000000Y-101500000D02*
G75*
G03*
X229500000Y-101000000I-500000J0D01*
G01*
X101000000Y-114000000D02*
X101000000Y-122000000D01*
X131000000Y-68000000D02*
G75*
G02*
X129000000Y-66000000I0J2000000D01*
G01*
X129000000Y-131000000D02*
G75*
G02*
X127000000Y-133000000I-2000000J0D01*
G01*
X227500000Y-101000000D02*
X229500000Y-101000000D01*
X129000000Y-130000000D02*
X129000000Y-131000000D01*
X89000000Y-131000000D02*
X89000000Y-130000000D01*
X150000000Y-70000000D02*
X150000000Y-74500000D01*
X212000000Y-68000000D02*
G75*
G02*
X210000000Y-66000000I0J2000000D01*
G01*
X149000000Y-74500000D02*
X149000000Y-70000000D01*
X230000000Y-70000000D02*
X230000000Y-94500000D01*
X89000000Y-66000000D02*
G75*
G02*
X87000000Y-68000000I-2000000J0D01*
G01*
X89000000Y-65000000D02*
G75*
G02*
X91000000Y-63000000I2000000J0D01*
G01*
X89000000Y-66000000D02*
X89000000Y-65000000D01*
X150000000Y-70000000D02*
G75*
G02*
X152000000Y-68000000I2000000J0D01*
G01*
X129000000Y-65000000D02*
X129000000Y-66000000D01*
X152000000Y-128000000D02*
G75*
G02*
X150000000Y-126000000I0J2000000D01*
G01*
X101500000Y-122500000D02*
G75*
G02*
X101000000Y-122000000I0J500000D01*
G01*
X71500000Y-101000000D02*
G75*
G03*
X72000000Y-100500000I0J500000D01*
G01*
X71000000Y-128000000D02*
G75*
G02*
X69000000Y-126000000I0J2000000D01*
G01*
X210000000Y-130000000D02*
X210000000Y-131000000D01*
X74000000Y-68000000D02*
X87000000Y-68000000D01*
X210000000Y-131000000D02*
G75*
G02*
X208000000Y-133000000I-2000000J0D01*
G01*
X101000000Y-114000000D02*
G75*
G02*
X101500000Y-113500000I500000J0D01*
G01*
X228000000Y-68000000D02*
G75*
G02*
X230000000Y-70000000I0J-2000000D01*
G01*
X208000000Y-63000000D02*
G75*
G02*
X210000000Y-65000000I0J-2000000D01*
G01*
X129000000Y-130000000D02*
G75*
G02*
X131000000Y-128000000I2000000J0D01*
G01*
X172000000Y-63000000D02*
X208000000Y-63000000D01*
X149000000Y-121500000D02*
G75*
G02*
X150000000Y-121500000I500000J0D01*
G01*
X155000000Y-68000000D02*
X168000000Y-68000000D01*
X227000000Y-95500000D02*
G75*
G02*
X227500000Y-95000000I500000J0D01*
G01*
X69500000Y-95000000D02*
G75*
G02*
X69000000Y-94500000I0J500000D01*
G01*
M02*
