%TF.GenerationSoftware,KiCad,Pcbnew,(5.99.0-12717-g57c7d663b0)*%
%TF.CreationDate,2021-10-15T20:59:05+02:00*%
%TF.ProjectId,Main_PCB,4d61696e-5f50-4434-922e-6b696361645f,rev?*%
%TF.SameCoordinates,Original*%
%TF.FileFunction,Paste,Top*%
%TF.FilePolarity,Positive*%
%FSLAX46Y46*%
G04 Gerber Fmt 4.6, Leading zero omitted, Abs format (unit mm)*
G04 Created by KiCad (PCBNEW (5.99.0-12717-g57c7d663b0)) date 2021-10-15 20:59:05*
%MOMM*%
%LPD*%
G01*
G04 APERTURE LIST*
G04 Aperture macros list*
%AMRoundRect*
0 Rectangle with rounded corners*
0 $1 Rounding radius*
0 $2 $3 $4 $5 $6 $7 $8 $9 X,Y pos of 4 corners*
0 Add a 4 corners polygon primitive as box body*
4,1,4,$2,$3,$4,$5,$6,$7,$8,$9,$2,$3,0*
0 Add four circle primitives for the rounded corners*
1,1,$1+$1,$2,$3*
1,1,$1+$1,$4,$5*
1,1,$1+$1,$6,$7*
1,1,$1+$1,$8,$9*
0 Add four rect primitives between the rounded corners*
20,1,$1+$1,$2,$3,$4,$5,0*
20,1,$1+$1,$4,$5,$6,$7,0*
20,1,$1+$1,$6,$7,$8,$9,0*
20,1,$1+$1,$8,$9,$2,$3,0*%
G04 Aperture macros list end*
%ADD10RoundRect,0.237500X-0.237500X0.250000X-0.237500X-0.250000X0.237500X-0.250000X0.237500X0.250000X0*%
%ADD11RoundRect,0.237500X0.237500X-0.250000X0.237500X0.250000X-0.237500X0.250000X-0.237500X-0.250000X0*%
%ADD12RoundRect,0.250000X-0.475000X0.337500X-0.475000X-0.337500X0.475000X-0.337500X0.475000X0.337500X0*%
%ADD13RoundRect,0.237500X-0.287500X-0.237500X0.287500X-0.237500X0.287500X0.237500X-0.287500X0.237500X0*%
%ADD14RoundRect,0.250000X0.475000X-0.337500X0.475000X0.337500X-0.475000X0.337500X-0.475000X-0.337500X0*%
%ADD15RoundRect,0.150000X0.512500X0.150000X-0.512500X0.150000X-0.512500X-0.150000X0.512500X-0.150000X0*%
%ADD16RoundRect,0.237500X-0.300000X-0.237500X0.300000X-0.237500X0.300000X0.237500X-0.300000X0.237500X0*%
%ADD17RoundRect,0.237500X0.300000X0.237500X-0.300000X0.237500X-0.300000X-0.237500X0.300000X-0.237500X0*%
%ADD18RoundRect,0.237500X-0.250000X-0.237500X0.250000X-0.237500X0.250000X0.237500X-0.250000X0.237500X0*%
%ADD19R,0.760000X2.050000*%
%ADD20R,1.450000X0.600000*%
%ADD21R,1.450000X0.300000*%
%ADD22R,1.700000X1.000000*%
%ADD23RoundRect,0.237500X0.250000X0.237500X-0.250000X0.237500X-0.250000X-0.237500X0.250000X-0.237500X0*%
%ADD24R,1.800000X1.000000*%
%ADD25R,1.400000X0.450000*%
%ADD26R,0.700000X0.750000*%
%ADD27R,1.981200X0.558800*%
%ADD28R,1.400000X0.600000*%
%ADD29RoundRect,0.075000X-0.075000X-0.700000X0.075000X-0.700000X0.075000X0.700000X-0.075000X0.700000X0*%
%ADD30RoundRect,0.075000X-0.700000X-0.075000X0.700000X-0.075000X0.700000X0.075000X-0.700000X0.075000X0*%
%ADD31R,1.200000X0.600000*%
%ADD32RoundRect,0.250000X-0.337500X-0.475000X0.337500X-0.475000X0.337500X0.475000X-0.337500X0.475000X0*%
%ADD33RoundRect,0.237500X-0.237500X0.300000X-0.237500X-0.300000X0.237500X-0.300000X0.237500X0.300000X0*%
%ADD34RoundRect,0.250000X0.325000X0.450000X-0.325000X0.450000X-0.325000X-0.450000X0.325000X-0.450000X0*%
%ADD35R,1.050000X1.950000*%
G04 APERTURE END LIST*
D10*
%TO.C,R13*%
X94000000Y-76287500D03*
X94000000Y-78112500D03*
%TD*%
D11*
%TO.C,R12*%
X95600000Y-78112500D03*
X95600000Y-76287500D03*
%TD*%
D12*
%TO.C,C13*%
X92200000Y-76250000D03*
X92200000Y-78325000D03*
%TD*%
D13*
%TO.C,F2*%
X156125000Y-105000000D03*
X157875000Y-105000000D03*
%TD*%
D14*
%TO.C,C19*%
X79440000Y-86037500D03*
X79440000Y-83962500D03*
%TD*%
D15*
%TO.C,U7*%
X81637500Y-89700000D03*
X81637500Y-88750000D03*
X81637500Y-87800000D03*
X79362500Y-87800000D03*
X79362500Y-88750000D03*
X79362500Y-89700000D03*
%TD*%
D16*
%TO.C,C6*%
X122387500Y-130000000D03*
X124112500Y-130000000D03*
%TD*%
D17*
%TO.C,C8*%
X117525000Y-71250000D03*
X119250000Y-71250000D03*
%TD*%
D18*
%TO.C,R8*%
X79587500Y-112500000D03*
X81412500Y-112500000D03*
%TD*%
%TO.C,R6*%
X79625000Y-110750000D03*
X81450000Y-110750000D03*
%TD*%
D19*
%TO.C,JP1*%
X90480000Y-121500000D03*
X90480000Y-117940000D03*
X91750000Y-121500000D03*
X91750000Y-117940000D03*
X93020000Y-121500000D03*
X93020000Y-117940000D03*
X94290000Y-121500000D03*
X94290000Y-117940000D03*
X95560000Y-121500000D03*
X95560000Y-117940000D03*
%TD*%
D20*
%TO.C,J3*%
X76735000Y-85500000D03*
X76735000Y-86300000D03*
D21*
X76735000Y-87000000D03*
X76735000Y-88000000D03*
X76735000Y-89500000D03*
X76735000Y-90500000D03*
D20*
X76735000Y-91200000D03*
X76735000Y-92000000D03*
X76735000Y-92000000D03*
X76735000Y-91200000D03*
D21*
X76735000Y-90000000D03*
X76735000Y-89000000D03*
X76735000Y-88500000D03*
X76735000Y-87500000D03*
D20*
X76735000Y-86300000D03*
X76735000Y-85500000D03*
%TD*%
D11*
%TO.C,R11*%
X85000000Y-86412500D03*
X85000000Y-84587500D03*
%TD*%
D22*
%TO.C,SW2*%
X77150000Y-103100000D03*
X70850000Y-103100000D03*
X70850000Y-106900000D03*
X77150000Y-106900000D03*
%TD*%
D23*
%TO.C,R10*%
X186892500Y-78015000D03*
X185067500Y-78015000D03*
%TD*%
%TO.C,R5*%
X73515000Y-81750000D03*
X71690000Y-81750000D03*
%TD*%
D24*
%TO.C,Y1*%
X98693750Y-74000000D03*
X98693750Y-71500000D03*
%TD*%
D13*
%TO.C,F1*%
X156125000Y-90500000D03*
X157875000Y-90500000D03*
%TD*%
D22*
%TO.C,SW1*%
X77150000Y-110150000D03*
X70850000Y-110150000D03*
X70850000Y-113950000D03*
X77150000Y-113950000D03*
%TD*%
D25*
%TO.C,IC1*%
X121050000Y-126525000D03*
X121050000Y-127175000D03*
X121050000Y-127825000D03*
X121050000Y-128475000D03*
X125450000Y-128475000D03*
X125450000Y-127825000D03*
X125450000Y-127175000D03*
X125450000Y-126525000D03*
%TD*%
D18*
%TO.C,R2*%
X96087500Y-107500000D03*
X97912500Y-107500000D03*
%TD*%
D16*
%TO.C,C14*%
X175137500Y-119500000D03*
X176862500Y-119500000D03*
%TD*%
D23*
%TO.C,R3*%
X97912500Y-109500000D03*
X96087500Y-109500000D03*
%TD*%
D26*
%TO.C,U1*%
X190600000Y-122018750D03*
X189400000Y-122018750D03*
X189400000Y-120668750D03*
X190600000Y-120668750D03*
%TD*%
D27*
%TO.C,U5*%
X107036200Y-86345000D03*
X107036200Y-87615000D03*
X107036200Y-88885000D03*
X107036200Y-90155000D03*
X111963800Y-90155000D03*
X111963800Y-88885000D03*
X111963800Y-87615000D03*
X111963800Y-86345000D03*
%TD*%
D17*
%TO.C,C15*%
X186862500Y-119500000D03*
X185137500Y-119500000D03*
%TD*%
D28*
%TO.C,IC2*%
X124750000Y-73000000D03*
X124750000Y-73950000D03*
X124750000Y-74900000D03*
X127250000Y-74900000D03*
X127250000Y-73000000D03*
%TD*%
D29*
%TO.C,U4*%
X105250000Y-69575000D03*
X105750000Y-69575000D03*
X106250000Y-69575000D03*
X106750000Y-69575000D03*
X107250000Y-69575000D03*
X107750000Y-69575000D03*
X108250000Y-69575000D03*
X108750000Y-69575000D03*
X109250000Y-69575000D03*
X109750000Y-69575000D03*
X110250000Y-69575000D03*
X110750000Y-69575000D03*
X111250000Y-69575000D03*
X111750000Y-69575000D03*
X112250000Y-69575000D03*
X112750000Y-69575000D03*
D30*
X114675000Y-71500000D03*
X114675000Y-72000000D03*
X114675000Y-72500000D03*
X114675000Y-73000000D03*
X114675000Y-73500000D03*
X114675000Y-74000000D03*
X114675000Y-74500000D03*
X114675000Y-75000000D03*
X114675000Y-75500000D03*
X114675000Y-76000000D03*
X114675000Y-76500000D03*
X114675000Y-77000000D03*
X114675000Y-77500000D03*
X114675000Y-78000000D03*
X114675000Y-78500000D03*
X114675000Y-79000000D03*
D29*
X112750000Y-80925000D03*
X112250000Y-80925000D03*
X111750000Y-80925000D03*
X111250000Y-80925000D03*
X110750000Y-80925000D03*
X110250000Y-80925000D03*
X109750000Y-80925000D03*
X109250000Y-80925000D03*
X108750000Y-80925000D03*
X108250000Y-80925000D03*
X107750000Y-80925000D03*
X107250000Y-80925000D03*
X106750000Y-80925000D03*
X106250000Y-80925000D03*
X105750000Y-80925000D03*
X105250000Y-80925000D03*
D30*
X103325000Y-79000000D03*
X103325000Y-78500000D03*
X103325000Y-78000000D03*
X103325000Y-77500000D03*
X103325000Y-77000000D03*
X103325000Y-76500000D03*
X103325000Y-76000000D03*
X103325000Y-75500000D03*
X103325000Y-75000000D03*
X103325000Y-74500000D03*
X103325000Y-74000000D03*
X103325000Y-73500000D03*
X103325000Y-73000000D03*
X103325000Y-72500000D03*
X103325000Y-72000000D03*
X103325000Y-71500000D03*
%TD*%
D18*
%TO.C,R7*%
X79587500Y-108000000D03*
X81412500Y-108000000D03*
%TD*%
D16*
%TO.C,C9*%
X105862500Y-84250000D03*
X104137500Y-84250000D03*
%TD*%
D17*
%TO.C,C3*%
X94831250Y-71750000D03*
X96556250Y-71750000D03*
%TD*%
D14*
%TO.C,C18*%
X91250000Y-82212500D03*
X91250000Y-84287500D03*
%TD*%
D10*
%TO.C,R1*%
X179000000Y-119587500D03*
X179000000Y-121412500D03*
%TD*%
D16*
%TO.C,C7*%
X190862500Y-118068750D03*
X189137500Y-118068750D03*
%TD*%
D31*
%TO.C,PS1*%
X180750000Y-119550000D03*
X180750000Y-120500000D03*
X180750000Y-121450000D03*
X183250000Y-121450000D03*
X183250000Y-119550000D03*
%TD*%
D32*
%TO.C,C2*%
X83212500Y-112500000D03*
X85287500Y-112500000D03*
%TD*%
D17*
%TO.C,C4*%
X94831250Y-73750000D03*
X96556250Y-73750000D03*
%TD*%
D33*
%TO.C,C1*%
X92000000Y-86637500D03*
X92000000Y-88362500D03*
%TD*%
D16*
%TO.C,C5*%
X108637500Y-91750000D03*
X110362500Y-91750000D03*
%TD*%
D32*
%TO.C,C17*%
X87212500Y-82500000D03*
X89287500Y-82500000D03*
%TD*%
D34*
%TO.C,D1*%
X191050000Y-78000000D03*
X189000000Y-78000000D03*
%TD*%
D23*
%TO.C,R4*%
X77015000Y-81750000D03*
X75190000Y-81750000D03*
%TD*%
D12*
%TO.C,C20*%
X83750000Y-108462500D03*
X83750000Y-110537500D03*
%TD*%
D16*
%TO.C,C10*%
X114750000Y-83750000D03*
X113025000Y-83750000D03*
%TD*%
D18*
%TO.C,R9*%
X79587500Y-106000000D03*
X81412500Y-106000000D03*
%TD*%
D35*
%TO.C,U2*%
X86000000Y-90600000D03*
X88000000Y-90600000D03*
X90000000Y-90600000D03*
X92000000Y-90600000D03*
X94000000Y-90600000D03*
X96000000Y-90600000D03*
X98000000Y-90600000D03*
X100000000Y-90600000D03*
X100000000Y-105400000D03*
X98000000Y-105400000D03*
X96000000Y-105400000D03*
X94000000Y-105400000D03*
X92000000Y-105400000D03*
X90000000Y-105400000D03*
X88000000Y-105400000D03*
X86000000Y-105400000D03*
%TD*%
D16*
%TO.C,C16*%
X125137500Y-76950000D03*
X126862500Y-76950000D03*
%TD*%
D31*
%TO.C,PS2*%
X86750000Y-84550000D03*
X86750000Y-85500000D03*
X86750000Y-86450000D03*
X89250000Y-86450000D03*
X89250000Y-84550000D03*
%TD*%
D16*
%TO.C,C12*%
X99862500Y-77750000D03*
X98137500Y-77750000D03*
%TD*%
D33*
%TO.C,C11*%
X102000000Y-69750000D03*
X102000000Y-68025000D03*
%TD*%
M02*
