M48
; DRILL file {KiCad 5.99.0-unknown-36d11f745e~142~ubuntu20.04.1} date Do 28 Okt 2021 09:48:51
; FORMAT={-:-/ absolute / inch / decimal}
; #@! TF.CreationDate,2021-10-28T09:48:51+02:00
; #@! TF.GenerationSoftware,Kicad,Pcbnew,5.99.0-unknown-36d11f745e~142~ubuntu20.04.1
; #@! TF.FileFunction,Plated,1,2,PTH
FMAT,2
INCH
; #@! TA.AperFunction,Plated,PTH,ViaDrill
T1C0.0157
; #@! TA.AperFunction,Plated,PTH,ComponentDrill
T2C0.0236
; #@! TA.AperFunction,Plated,PTH,ComponentDrill
T3C0.0315
; #@! TA.AperFunction,Plated,PTH,ComponentDrill
T4C0.0469
%
G90
G05
T1
X6.8386Y-3.8583
X6.8898Y-3.2382
X7.3346Y-4.7087
X7.4606Y-2.5591
X7.4606Y-5.1575
X7.6155Y-4.7361
X7.8346Y-4.9606
X7.8346Y-5.1575
X7.8543Y-4.7441
X7.9823Y-4.6457
X8.0906Y-4.4646
X8.1378Y-4.5984
X8.138Y-4.4176
X8.1693Y-2.753
X8.2126Y-4.8701
X8.2402Y-4.3071
X8.5039Y-5.1575
X8.878Y-2.5591
X8.878Y-5.1575
X9.6654Y-2.7559
X9.6654Y-4.9606
T2
X6.6732Y-2.8051
X6.6732Y-2.9469
X6.6732Y-3.0886
X6.6732Y-3.2303
X6.6732Y-4.3445
X6.6732Y-4.4862
X6.6732Y-4.628
X6.6732Y-4.7697
X6.6732Y-4.9114
T3
X7.8937Y-3.1706
X7.9724Y-3.1706
X8.0512Y-3.1706
X8.1299Y-3.1706
X8.2087Y-3.1706
X8.2874Y-3.1706
X8.3661Y-3.1706
X8.4449Y-3.1706
T4
X7.0894Y-3.5744
X7.0894Y-4.1421
X8.2492Y-4.1421
X9.2492Y-3.5744
X9.2492Y-4.1421
T0
M30
