%TF.GenerationSoftware,KiCad,Pcbnew,(5.99.0-12717-g57c7d663b0)*%
%TF.CreationDate,2021-10-22T11:27:59+02:00*%
%TF.ProjectId,Main_PCB,4d61696e-5f50-4434-922e-6b696361645f,rev?*%
%TF.SameCoordinates,Original*%
%TF.FileFunction,Soldermask,Top*%
%TF.FilePolarity,Negative*%
%FSLAX46Y46*%
G04 Gerber Fmt 4.6, Leading zero omitted, Abs format (unit mm)*
G04 Created by KiCad (PCBNEW (5.99.0-12717-g57c7d663b0)) date 2021-10-22 11:27:59*
%MOMM*%
%LPD*%
G01*
G04 APERTURE LIST*
G04 Aperture macros list*
%AMRoundRect*
0 Rectangle with rounded corners*
0 $1 Rounding radius*
0 $2 $3 $4 $5 $6 $7 $8 $9 X,Y pos of 4 corners*
0 Add a 4 corners polygon primitive as box body*
4,1,4,$2,$3,$4,$5,$6,$7,$8,$9,$2,$3,0*
0 Add four circle primitives for the rounded corners*
1,1,$1+$1,$2,$3*
1,1,$1+$1,$4,$5*
1,1,$1+$1,$6,$7*
1,1,$1+$1,$8,$9*
0 Add four rect primitives between the rounded corners*
20,1,$1+$1,$2,$3,$4,$5,0*
20,1,$1+$1,$4,$5,$6,$7,0*
20,1,$1+$1,$6,$7,$8,$9,0*
20,1,$1+$1,$8,$9,$2,$3,0*%
G04 Aperture macros list end*
%ADD10C,0.150000*%
%ADD11C,0.300000*%
%ADD12RoundRect,0.237500X-0.300000X-0.237500X0.300000X-0.237500X0.300000X0.237500X-0.300000X0.237500X0*%
%ADD13RoundRect,0.237500X-0.287500X-0.237500X0.287500X-0.237500X0.287500X0.237500X-0.287500X0.237500X0*%
%ADD14C,3.200000*%
%ADD15RoundRect,0.237500X-0.237500X0.250000X-0.237500X-0.250000X0.237500X-0.250000X0.237500X0.250000X0*%
%ADD16C,1.980000*%
%ADD17C,1.785000*%
%ADD18RoundRect,0.237500X0.300000X0.237500X-0.300000X0.237500X-0.300000X-0.237500X0.300000X-0.237500X0*%
%ADD19R,0.700000X0.750000*%
%ADD20R,1.200000X0.600000*%
%ADD21RoundRect,0.250000X-0.450000X0.325000X-0.450000X-0.325000X0.450000X-0.325000X0.450000X0.325000X0*%
%ADD22RoundRect,0.250000X0.350000X0.650000X-0.350000X0.650000X-0.350000X-0.650000X0.350000X-0.650000X0*%
%ADD23O,1.200000X1.800000*%
%ADD24RoundRect,0.250000X-0.550000X0.550000X-0.550000X-0.550000X0.550000X-0.550000X0.550000X0.550000X0*%
%ADD25C,1.600000*%
%ADD26RoundRect,0.250000X0.550000X-0.550000X0.550000X0.550000X-0.550000X0.550000X-0.550000X-0.550000X0*%
G04 APERTURE END LIST*
D10*
X176500000Y-70250000D02*
X180500000Y-70250000D01*
X180500000Y-70250000D02*
X180500000Y-73750000D01*
X180500000Y-73750000D02*
X176500000Y-73750000D01*
X176500000Y-73750000D02*
X176500000Y-70250000D01*
G36*
X176500000Y-70250000D02*
G01*
X180500000Y-70250000D01*
X180500000Y-73750000D01*
X176500000Y-73750000D01*
X176500000Y-70250000D01*
G37*
X199750000Y-69500000D02*
X206000000Y-69500000D01*
X206000000Y-69500000D02*
X206000000Y-74250000D01*
X206000000Y-74250000D02*
X199750000Y-74250000D01*
X199750000Y-74250000D02*
X199750000Y-69500000D01*
G36*
X199750000Y-69500000D02*
G01*
X206000000Y-69500000D01*
X206000000Y-74250000D01*
X199750000Y-74250000D01*
X199750000Y-69500000D01*
G37*
X197250000Y-70250000D02*
X206500000Y-70250000D01*
X206500000Y-70250000D02*
X206500000Y-72750000D01*
X206500000Y-72750000D02*
X197250000Y-72750000D01*
X197250000Y-72750000D02*
X197250000Y-70250000D01*
G36*
X197250000Y-70250000D02*
G01*
X206500000Y-70250000D01*
X206500000Y-72750000D01*
X197250000Y-72750000D01*
X197250000Y-70250000D01*
G37*
D11*
%TO.C,G\u002A\u002A\u002A*%
X218157428Y-72238000D02*
X218012285Y-72165428D01*
X217794571Y-72165428D01*
X217576857Y-72238000D01*
X217431714Y-72383142D01*
X217359142Y-72528285D01*
X217286571Y-72818571D01*
X217286571Y-73036285D01*
X217359142Y-73326571D01*
X217431714Y-73471714D01*
X217576857Y-73616857D01*
X217794571Y-73689428D01*
X217939714Y-73689428D01*
X218157428Y-73616857D01*
X218230000Y-73544285D01*
X218230000Y-73036285D01*
X217939714Y-73036285D01*
X219100857Y-72165428D02*
X219100857Y-72528285D01*
X218738000Y-72383142D02*
X219100857Y-72528285D01*
X219463714Y-72383142D01*
X218883142Y-72818571D02*
X219100857Y-72528285D01*
X219318571Y-72818571D01*
X220262000Y-72165428D02*
X220262000Y-72528285D01*
X219899142Y-72383142D02*
X220262000Y-72528285D01*
X220624857Y-72383142D01*
X220044285Y-72818571D02*
X220262000Y-72528285D01*
X220479714Y-72818571D01*
X221423142Y-72165428D02*
X221423142Y-72528285D01*
X221060285Y-72383142D02*
X221423142Y-72528285D01*
X221786000Y-72383142D01*
X221205428Y-72818571D02*
X221423142Y-72528285D01*
X221640857Y-72818571D01*
G36*
X220055044Y-73592074D02*
G01*
X220080490Y-73604315D01*
X220104153Y-73626592D01*
X220121639Y-73653625D01*
X220128553Y-73680135D01*
X220128554Y-73680403D01*
X220126449Y-73685791D01*
X220118456Y-73689421D01*
X220102058Y-73691619D01*
X220074737Y-73692710D01*
X220033978Y-73693019D01*
X220030980Y-73693020D01*
X219933405Y-73693020D01*
X219938844Y-73671351D01*
X219954763Y-73635863D01*
X219980638Y-73609079D01*
X220013062Y-73593323D01*
X220048627Y-73590921D01*
X220055044Y-73592074D01*
G37*
G36*
X219493906Y-74032324D02*
G01*
X219524944Y-74034597D01*
X219546847Y-74037864D01*
X219551630Y-74039245D01*
X219569264Y-74053236D01*
X219578817Y-74074799D01*
X219577807Y-74097101D01*
X219574876Y-74103230D01*
X219554046Y-74123071D01*
X219522112Y-74138269D01*
X219483627Y-74147995D01*
X219443146Y-74151424D01*
X219405222Y-74147729D01*
X219379125Y-74138751D01*
X219355810Y-74119524D01*
X219346944Y-74095358D01*
X219352982Y-74069314D01*
X219366170Y-74051752D01*
X219377245Y-74041998D01*
X219389342Y-74035989D01*
X219406547Y-74032830D01*
X219432945Y-74031628D01*
X219458818Y-74031472D01*
X219493906Y-74032324D01*
G37*
G36*
X218919343Y-73601426D02*
G01*
X218947673Y-73617299D01*
X218967499Y-73645011D01*
X218979411Y-73685455D01*
X218983996Y-73739525D01*
X218984087Y-73751606D01*
X218980473Y-73807699D01*
X218969688Y-73850197D01*
X218951307Y-73880141D01*
X218924910Y-73898573D01*
X218924344Y-73898812D01*
X218899525Y-73907774D01*
X218880671Y-73909134D01*
X218859535Y-73902894D01*
X218849895Y-73898838D01*
X218828241Y-73885470D01*
X218812081Y-73868947D01*
X218812073Y-73868934D01*
X218800005Y-73840143D01*
X218792397Y-73800893D01*
X218789360Y-73756247D01*
X218791007Y-73711265D01*
X218797451Y-73671010D01*
X218807088Y-73643685D01*
X218829963Y-73614544D01*
X218861114Y-73598981D01*
X218881920Y-73596499D01*
X218919343Y-73601426D01*
G37*
G36*
X219494926Y-73586431D02*
G01*
X219516777Y-73607402D01*
X219529044Y-73638572D01*
X219529864Y-73678137D01*
X219529744Y-73679057D01*
X219518503Y-73713341D01*
X219497177Y-73736871D01*
X219468607Y-73748104D01*
X219435636Y-73745494D01*
X219419417Y-73739040D01*
X219401757Y-73722726D01*
X219387737Y-73695704D01*
X219387432Y-73694838D01*
X219380494Y-73670539D01*
X219380481Y-73651034D01*
X219387394Y-73626667D01*
X219387432Y-73626558D01*
X219397854Y-73603172D01*
X219411897Y-73589838D01*
X219429914Y-73582306D01*
X219465350Y-73577464D01*
X219494926Y-73586431D01*
G37*
G36*
X222180802Y-73601391D02*
G01*
X222207212Y-73617707D01*
X222226613Y-73646915D01*
X222236783Y-73674997D01*
X222244220Y-73714801D01*
X222246102Y-73759419D01*
X222242685Y-73802950D01*
X222234227Y-73839494D01*
X222229105Y-73851587D01*
X222204898Y-73884043D01*
X222174046Y-73903188D01*
X222139026Y-73908056D01*
X222106248Y-73899546D01*
X222080513Y-73879213D01*
X222061874Y-73845063D01*
X222050701Y-73797928D01*
X222048007Y-73769343D01*
X222049118Y-73710691D01*
X222059280Y-73663340D01*
X222078079Y-73628028D01*
X222105100Y-73605490D01*
X222139928Y-73596463D01*
X222145470Y-73596319D01*
X222180802Y-73601391D01*
G37*
G36*
X221464663Y-71158477D02*
G01*
X221532432Y-71181775D01*
X221592252Y-71218891D01*
X221623389Y-71246955D01*
X221662436Y-71295903D01*
X221695674Y-71354893D01*
X221721017Y-71418922D01*
X221736385Y-71482987D01*
X221740110Y-71527331D01*
X221740229Y-71557550D01*
X220966625Y-71557550D01*
X220966625Y-71538694D01*
X220969866Y-71510502D01*
X220978595Y-71472638D01*
X220991322Y-71429955D01*
X221006556Y-71387308D01*
X221022807Y-71349552D01*
X221027660Y-71339900D01*
X221068844Y-71277425D01*
X221120280Y-71227317D01*
X221182071Y-71189509D01*
X221254317Y-71163932D01*
X221306959Y-71153831D01*
X221389366Y-71149121D01*
X221464663Y-71158477D01*
G37*
G36*
X215114212Y-73825373D02*
G01*
X214986206Y-73575708D01*
X214872925Y-73319586D01*
X214855926Y-73274291D01*
X214774433Y-73057142D01*
X214690794Y-72788514D01*
X214622070Y-72513836D01*
X214568324Y-72233247D01*
X214553072Y-72133724D01*
X214541398Y-72049205D01*
X214531860Y-71972096D01*
X214524263Y-71899293D01*
X214518408Y-71827693D01*
X214514099Y-71754191D01*
X214511139Y-71675685D01*
X214509331Y-71589069D01*
X214508478Y-71491240D01*
X214508344Y-71428616D01*
X214508635Y-71325016D01*
X214509721Y-71234322D01*
X214511813Y-71153337D01*
X214515122Y-71078861D01*
X214519860Y-71007696D01*
X214526236Y-70936642D01*
X214534463Y-70862501D01*
X214544752Y-70782073D01*
X214546177Y-70771859D01*
X214940282Y-70771859D01*
X215298382Y-71726776D01*
X215343339Y-71846655D01*
X215386989Y-71963035D01*
X215428967Y-72074947D01*
X215468912Y-72181426D01*
X215506460Y-72281505D01*
X215541248Y-72374217D01*
X215572914Y-72458594D01*
X215601095Y-72533671D01*
X215625428Y-72598480D01*
X215645550Y-72652055D01*
X215661098Y-72693428D01*
X215671710Y-72721633D01*
X215676993Y-72735626D01*
X215697503Y-72789558D01*
X215739282Y-72797886D01*
X215773574Y-72803730D01*
X215809845Y-72808471D01*
X215821352Y-72809592D01*
X215845258Y-72810620D01*
X215881802Y-72810991D01*
X215927701Y-72810780D01*
X215979673Y-72810066D01*
X216034436Y-72808924D01*
X216088708Y-72807431D01*
X216139207Y-72805664D01*
X216182651Y-72803700D01*
X216215758Y-72801615D01*
X216232001Y-72799995D01*
X216271964Y-72794511D01*
X216656186Y-71783185D01*
X216702578Y-71661024D01*
X216747343Y-71543054D01*
X216790150Y-71430148D01*
X216830670Y-71323178D01*
X216868575Y-71223017D01*
X216903534Y-71130538D01*
X216935218Y-71046612D01*
X216963298Y-70972113D01*
X216969042Y-70956842D01*
X217214129Y-70956842D01*
X217214459Y-71009674D01*
X217216000Y-71061369D01*
X217218696Y-71107853D01*
X217222490Y-71145048D01*
X217225605Y-71162690D01*
X217232213Y-71190894D01*
X217362839Y-71193109D01*
X217493465Y-71195323D01*
X217493465Y-71993155D01*
X217493503Y-72129361D01*
X217493625Y-72250241D01*
X217493840Y-72356586D01*
X217494157Y-72449186D01*
X217494588Y-72528833D01*
X217495142Y-72596317D01*
X217495829Y-72652429D01*
X217496659Y-72697959D01*
X217497642Y-72733699D01*
X217498787Y-72760440D01*
X217500105Y-72778971D01*
X217501606Y-72790084D01*
X217503300Y-72794569D01*
X217503538Y-72794708D01*
X217524525Y-72799312D01*
X217558851Y-72803207D01*
X217603751Y-72806361D01*
X217656460Y-72808742D01*
X217714216Y-72810315D01*
X217774252Y-72811050D01*
X217833806Y-72810913D01*
X217890112Y-72809871D01*
X217940407Y-72807892D01*
X217981927Y-72804943D01*
X218011906Y-72800992D01*
X218013230Y-72800731D01*
X218045464Y-72794238D01*
X218047509Y-71780960D01*
X218049550Y-70770020D01*
X218270251Y-70770020D01*
X218272750Y-70777696D01*
X218280585Y-70799584D01*
X218293429Y-70834807D01*
X218310957Y-70882487D01*
X218332842Y-70941747D01*
X218358760Y-71011710D01*
X218388383Y-71091497D01*
X218421387Y-71180233D01*
X218457445Y-71277038D01*
X218496230Y-71381036D01*
X218537419Y-71491350D01*
X218580683Y-71607102D01*
X218625699Y-71727414D01*
X218644699Y-71778159D01*
X218699160Y-71923377D01*
X218750255Y-72059199D01*
X218797790Y-72185122D01*
X218841571Y-72300643D01*
X218881405Y-72405259D01*
X218917097Y-72498465D01*
X218948455Y-72579759D01*
X218975284Y-72648637D01*
X218997391Y-72704596D01*
X219014582Y-72747132D01*
X219026664Y-72775743D01*
X219033442Y-72789925D01*
X219034586Y-72791425D01*
X219052198Y-72796643D01*
X219083392Y-72801096D01*
X219125646Y-72804743D01*
X219176442Y-72807543D01*
X219233259Y-72809455D01*
X219293577Y-72810438D01*
X219354877Y-72810450D01*
X219414639Y-72809450D01*
X219470343Y-72807398D01*
X219519469Y-72804252D01*
X219559324Y-72799995D01*
X219598502Y-72794511D01*
X219919968Y-71948382D01*
X219969216Y-71818756D01*
X220406843Y-71818756D01*
X220408666Y-71892508D01*
X220412736Y-71960584D01*
X220419051Y-72018655D01*
X220422008Y-72037024D01*
X220445629Y-72148006D01*
X220474597Y-72245886D01*
X220510101Y-72333135D01*
X220553335Y-72412224D01*
X220605490Y-72485621D01*
X220667757Y-72555799D01*
X220676523Y-72564680D01*
X220758759Y-72637917D01*
X220847548Y-72698872D01*
X220944357Y-72748225D01*
X221050649Y-72786658D01*
X221167890Y-72814851D01*
X221240610Y-72826658D01*
X221292408Y-72831921D01*
X221356086Y-72835494D01*
X221427494Y-72837377D01*
X221502483Y-72837568D01*
X221576905Y-72836068D01*
X221646610Y-72832875D01*
X221707449Y-72827991D01*
X221719015Y-72826714D01*
X221841931Y-72809218D01*
X221953555Y-72786550D01*
X222058129Y-72757828D01*
X222072302Y-72753321D01*
X222107711Y-72741988D01*
X222132779Y-72732639D01*
X222133641Y-72732093D01*
X222527752Y-72732093D01*
X222575187Y-72749850D01*
X222624010Y-72766178D01*
X222683438Y-72783044D01*
X222748065Y-72799131D01*
X222812487Y-72813121D01*
X222871298Y-72823696D01*
X222887854Y-72826116D01*
X222942294Y-72831716D01*
X223007274Y-72835523D01*
X223078509Y-72837536D01*
X223151718Y-72837751D01*
X223222616Y-72836167D01*
X223286921Y-72832782D01*
X223340350Y-72827594D01*
X223349347Y-72826341D01*
X223469484Y-72802241D01*
X223579977Y-72767326D01*
X223680191Y-72722102D01*
X223769489Y-72667076D01*
X223847236Y-72602757D01*
X223912795Y-72529650D01*
X223965530Y-72448263D01*
X224004806Y-72359103D01*
X224024996Y-72287670D01*
X224031069Y-72255654D01*
X224034690Y-72223622D01*
X224036100Y-72187072D01*
X224035539Y-72141504D01*
X224034454Y-72110385D01*
X224030865Y-72047203D01*
X224025110Y-71995764D01*
X224016227Y-71951739D01*
X224003254Y-71910801D01*
X223985232Y-71868619D01*
X223977017Y-71851681D01*
X223934362Y-71782024D01*
X223879855Y-71721789D01*
X223816173Y-71672013D01*
X223784883Y-71652144D01*
X223752646Y-71634169D01*
X223717176Y-71617168D01*
X223676184Y-71600221D01*
X223627385Y-71582409D01*
X223568490Y-71562813D01*
X223497212Y-71540513D01*
X223463724Y-71530329D01*
X223385266Y-71506137D01*
X223320946Y-71485052D01*
X223269255Y-71466311D01*
X223228686Y-71449146D01*
X223197732Y-71432794D01*
X223174886Y-71416488D01*
X223158640Y-71399464D01*
X223147486Y-71380957D01*
X223142001Y-71367012D01*
X223135918Y-71333756D01*
X223136279Y-71295917D01*
X223142442Y-71259866D01*
X223153767Y-71231971D01*
X223155905Y-71228837D01*
X223186388Y-71196959D01*
X223225538Y-71172994D01*
X223274919Y-71156429D01*
X223336091Y-71146754D01*
X223410618Y-71143454D01*
X223416371Y-71143449D01*
X223492379Y-71145996D01*
X223563973Y-71154002D01*
X223636313Y-71168379D01*
X223714560Y-71190040D01*
X223756699Y-71203614D01*
X223793213Y-71215699D01*
X223823960Y-71225650D01*
X223845842Y-71232481D01*
X223855760Y-71235204D01*
X223855920Y-71235215D01*
X223863883Y-71227823D01*
X223874864Y-71207360D01*
X223887986Y-71176392D01*
X223902375Y-71137488D01*
X223917157Y-71093215D01*
X223931455Y-71046141D01*
X223944395Y-70998835D01*
X223955101Y-70953863D01*
X223959894Y-70930122D01*
X223967571Y-70888515D01*
X223971486Y-70859733D01*
X223970283Y-70840666D01*
X223962606Y-70828201D01*
X223947097Y-70819229D01*
X223922400Y-70810637D01*
X223905457Y-70805280D01*
X223803107Y-70775044D01*
X223708438Y-70752566D01*
X223615603Y-70736846D01*
X223518750Y-70726888D01*
X223416371Y-70721815D01*
X223287508Y-70722377D01*
X223170947Y-70732180D01*
X223065556Y-70751562D01*
X222970201Y-70780865D01*
X222883749Y-70820427D01*
X222805066Y-70870590D01*
X222740485Y-70924585D01*
X222680764Y-70990109D01*
X222634381Y-71062367D01*
X222601005Y-71142278D01*
X222580307Y-71230758D01*
X222571958Y-71328726D01*
X222572722Y-71392054D01*
X222576596Y-71453835D01*
X222582715Y-71504060D01*
X222591970Y-71547235D01*
X222605248Y-71587864D01*
X222616965Y-71616188D01*
X222653316Y-71680115D01*
X222703401Y-71738240D01*
X222767556Y-71790796D01*
X222846116Y-71838012D01*
X222939415Y-71880121D01*
X223047790Y-71917353D01*
X223057773Y-71920319D01*
X223145610Y-71946398D01*
X223219282Y-71968997D01*
X223280210Y-71988742D01*
X223329814Y-72006256D01*
X223369516Y-72022163D01*
X223400736Y-72037086D01*
X223424895Y-72051650D01*
X223443414Y-72066478D01*
X223457713Y-72082195D01*
X223469214Y-72099424D01*
X223470399Y-72101491D01*
X223483469Y-72137152D01*
X223488874Y-72180034D01*
X223486254Y-72222992D01*
X223478041Y-72252844D01*
X223461792Y-72278605D01*
X223435345Y-72306919D01*
X223403149Y-72333608D01*
X223369915Y-72354363D01*
X223329774Y-72372083D01*
X223287179Y-72384776D01*
X223238732Y-72393027D01*
X223181037Y-72397426D01*
X223114182Y-72398568D01*
X223034125Y-72396252D01*
X222960483Y-72389110D01*
X222888145Y-72376245D01*
X222811999Y-72356757D01*
X222731545Y-72331315D01*
X222695882Y-72319386D01*
X222666407Y-72309800D01*
X222646098Y-72303505D01*
X222637931Y-72301450D01*
X222637897Y-72301471D01*
X222634685Y-72309104D01*
X222626948Y-72328431D01*
X222616010Y-72356131D01*
X222608426Y-72375476D01*
X222587040Y-72435725D01*
X222567439Y-72501322D01*
X222550917Y-72567155D01*
X222538769Y-72628113D01*
X222532639Y-72674660D01*
X222527752Y-72732093D01*
X222133641Y-72732093D01*
X222148866Y-72722450D01*
X222157332Y-72708599D01*
X222159537Y-72688263D01*
X222156839Y-72658621D01*
X222150598Y-72616850D01*
X222147561Y-72597081D01*
X222121032Y-72474040D01*
X222081019Y-72359359D01*
X222067230Y-72327028D01*
X222056491Y-72307447D01*
X222045520Y-72298546D01*
X222031035Y-72298253D01*
X222009754Y-72304499D01*
X221999624Y-72308010D01*
X221934966Y-72328016D01*
X221860168Y-72347046D01*
X221781203Y-72363707D01*
X221707995Y-72376038D01*
X221655133Y-72381768D01*
X221594647Y-72385155D01*
X221530310Y-72386278D01*
X221465893Y-72385217D01*
X221405167Y-72382051D01*
X221351903Y-72376858D01*
X221309874Y-72369718D01*
X221301047Y-72367496D01*
X221225487Y-72340636D01*
X221156492Y-72304388D01*
X221096475Y-72260479D01*
X221047851Y-72210635D01*
X221016957Y-72164282D01*
X220991358Y-72104470D01*
X220971325Y-72032934D01*
X220962569Y-71986659D01*
X220957150Y-71952411D01*
X221606014Y-71952411D01*
X221723645Y-71952395D01*
X221826198Y-71952334D01*
X221914710Y-71952205D01*
X221990219Y-71951986D01*
X222053765Y-71951654D01*
X222106385Y-71951186D01*
X222149118Y-71950561D01*
X222183000Y-71949755D01*
X222209072Y-71948748D01*
X222228371Y-71947515D01*
X222241934Y-71946035D01*
X222250801Y-71944285D01*
X222256009Y-71942243D01*
X222258597Y-71939886D01*
X222259325Y-71938309D01*
X222261398Y-71925494D01*
X222264068Y-71899879D01*
X222267039Y-71864757D01*
X222270018Y-71823420D01*
X222271079Y-71806957D01*
X222274347Y-71659685D01*
X222265134Y-71522539D01*
X222243406Y-71395404D01*
X222209126Y-71278165D01*
X222162259Y-71170709D01*
X222102770Y-71072921D01*
X222030624Y-70984685D01*
X222011126Y-70964622D01*
X221925733Y-70889535D01*
X221834027Y-70828513D01*
X221734115Y-70780473D01*
X221629070Y-70745654D01*
X221601464Y-70738505D01*
X221577069Y-70733176D01*
X221552763Y-70729400D01*
X221525427Y-70726909D01*
X221491940Y-70725438D01*
X221449184Y-70724717D01*
X221394037Y-70724481D01*
X221381631Y-70724469D01*
X221321029Y-70724653D01*
X221273384Y-70725447D01*
X221235543Y-70727070D01*
X221204351Y-70729743D01*
X221176654Y-70733685D01*
X221149296Y-70739118D01*
X221139401Y-70741369D01*
X221021949Y-70776263D01*
X220911911Y-70824763D01*
X220865504Y-70850478D01*
X220815298Y-70884437D01*
X220760781Y-70928698D01*
X220705718Y-70979619D01*
X220653874Y-71033555D01*
X220609014Y-71086862D01*
X220581506Y-71125332D01*
X220524646Y-71226897D01*
X220477580Y-71340513D01*
X220440695Y-71465145D01*
X220422008Y-71553521D01*
X220414848Y-71606709D01*
X220409934Y-71671529D01*
X220407265Y-71743653D01*
X220406843Y-71818756D01*
X219969216Y-71818756D01*
X219978995Y-71793018D01*
X220032561Y-71652021D01*
X220080928Y-71524691D01*
X220124357Y-71410327D01*
X220163111Y-71308230D01*
X220197451Y-71217700D01*
X220227639Y-71138036D01*
X220253936Y-71068540D01*
X220276605Y-71008510D01*
X220295906Y-70957246D01*
X220312102Y-70914050D01*
X220325454Y-70878221D01*
X220336224Y-70849058D01*
X220344674Y-70825862D01*
X220351066Y-70807933D01*
X220355660Y-70794571D01*
X220358720Y-70785076D01*
X220360506Y-70778748D01*
X220361280Y-70774887D01*
X220361304Y-70772792D01*
X220360840Y-70771765D01*
X220360150Y-70771105D01*
X220360137Y-70771093D01*
X220350566Y-70767898D01*
X220328814Y-70763261D01*
X220298664Y-70757939D01*
X220280243Y-70755051D01*
X220234960Y-70750080D01*
X220177742Y-70746579D01*
X220112708Y-70744565D01*
X220043974Y-70744060D01*
X219975658Y-70745084D01*
X219911877Y-70747656D01*
X219856749Y-70751796D01*
X219846070Y-70752933D01*
X219808243Y-70757639D01*
X219783384Y-70762049D01*
X219768394Y-70767077D01*
X219760169Y-70773635D01*
X219756993Y-70779123D01*
X219753714Y-70789192D01*
X219746314Y-70813637D01*
X219735118Y-70851344D01*
X219720449Y-70901196D01*
X219702635Y-70962078D01*
X219681998Y-71032876D01*
X219658865Y-71112475D01*
X219633560Y-71199759D01*
X219606409Y-71293613D01*
X219577736Y-71392922D01*
X219547866Y-71496571D01*
X219544230Y-71509200D01*
X219514267Y-71613215D01*
X219485489Y-71712969D01*
X219458218Y-71807354D01*
X219432776Y-71895260D01*
X219409486Y-71975579D01*
X219388671Y-72047201D01*
X219370652Y-72109016D01*
X219355752Y-72159916D01*
X219344294Y-72198792D01*
X219336600Y-72224534D01*
X219332992Y-72236033D01*
X219332844Y-72236413D01*
X219329465Y-72231452D01*
X219321763Y-72211075D01*
X219309770Y-72175383D01*
X219293517Y-72124476D01*
X219273034Y-72058457D01*
X219248353Y-71977426D01*
X219219505Y-71881485D01*
X219186521Y-71770735D01*
X219149432Y-71645277D01*
X219108922Y-71507439D01*
X218891098Y-70764419D01*
X218859112Y-70756338D01*
X218839635Y-70753613D01*
X218806700Y-70751430D01*
X218762956Y-70749781D01*
X218711051Y-70748660D01*
X218653636Y-70748059D01*
X218593359Y-70747970D01*
X218532869Y-70748388D01*
X218474815Y-70749305D01*
X218421847Y-70750714D01*
X218376614Y-70752608D01*
X218341765Y-70754979D01*
X218320151Y-70757778D01*
X218294614Y-70763403D01*
X218276452Y-70767915D01*
X218270251Y-70770020D01*
X218049550Y-70770020D01*
X218049555Y-70767682D01*
X217640561Y-70769770D01*
X217231568Y-70771859D01*
X217220980Y-70832297D01*
X217217332Y-70864078D01*
X217215068Y-70906952D01*
X217214129Y-70956842D01*
X216969042Y-70956842D01*
X216987446Y-70907913D01*
X217007331Y-70854883D01*
X217022624Y-70813898D01*
X217032996Y-70785829D01*
X217038119Y-70771548D01*
X217038621Y-70769850D01*
X217030422Y-70767883D01*
X217009749Y-70764187D01*
X216980075Y-70759360D01*
X216956917Y-70755795D01*
X216910634Y-70750321D01*
X216857286Y-70746505D01*
X216799135Y-70744264D01*
X216738440Y-70743516D01*
X216677462Y-70744176D01*
X216618462Y-70746164D01*
X216563699Y-70749395D01*
X216515436Y-70753788D01*
X216475931Y-70759259D01*
X216447446Y-70765726D01*
X216432242Y-70773106D01*
X216430796Y-70775051D01*
X216427701Y-70784513D01*
X216420486Y-70808373D01*
X216409471Y-70845535D01*
X216394974Y-70894902D01*
X216377313Y-70955379D01*
X216356808Y-71025870D01*
X216333777Y-71105278D01*
X216308538Y-71192509D01*
X216281411Y-71286464D01*
X216252714Y-71386050D01*
X216222766Y-71490170D01*
X216215581Y-71515178D01*
X216185463Y-71619874D01*
X216156557Y-71720057D01*
X216129175Y-71814656D01*
X216103633Y-71902601D01*
X216080245Y-71982821D01*
X216059323Y-72054244D01*
X216041183Y-72115800D01*
X216026137Y-72166418D01*
X216014500Y-72205028D01*
X216006585Y-72230557D01*
X216002707Y-72241937D01*
X216002401Y-72242446D01*
X215999570Y-72234897D01*
X215992538Y-72212940D01*
X215981623Y-72177637D01*
X215967142Y-72130050D01*
X215949415Y-72071240D01*
X215928758Y-72002270D01*
X215905490Y-71924201D01*
X215879927Y-71838096D01*
X215852389Y-71745018D01*
X215823192Y-71646026D01*
X215792655Y-71542185D01*
X215782382Y-71507186D01*
X215751435Y-71401839D01*
X215721700Y-71300892D01*
X215693498Y-71205417D01*
X215667150Y-71116488D01*
X215642975Y-71035177D01*
X215621295Y-70962557D01*
X215602430Y-70899700D01*
X215586701Y-70847680D01*
X215574427Y-70807569D01*
X215565930Y-70780441D01*
X215561530Y-70767367D01*
X215561041Y-70766327D01*
X215547385Y-70760812D01*
X215519962Y-70756092D01*
X215481105Y-70752188D01*
X215433144Y-70749122D01*
X215378413Y-70746914D01*
X215319241Y-70745585D01*
X215257962Y-70745156D01*
X215196906Y-70745648D01*
X215138405Y-70747083D01*
X215084792Y-70749480D01*
X215038397Y-70752862D01*
X215001552Y-70757248D01*
X214981927Y-70761122D01*
X214940282Y-70771859D01*
X214546177Y-70771859D01*
X214556645Y-70696814D01*
X214603882Y-70424029D01*
X214666722Y-70154077D01*
X214682363Y-70100717D01*
X217373299Y-70100717D01*
X217379450Y-70169321D01*
X217399005Y-70235748D01*
X217431972Y-70297793D01*
X217478354Y-70353247D01*
X217481357Y-70356121D01*
X217528222Y-70393755D01*
X217579808Y-70423889D01*
X217630463Y-70443290D01*
X217636468Y-70444804D01*
X217687515Y-70451853D01*
X217745137Y-70451910D01*
X217801534Y-70445269D01*
X217834327Y-70437350D01*
X217896336Y-70410280D01*
X217953078Y-70370285D01*
X218001785Y-70320145D01*
X218039692Y-70262640D01*
X218061689Y-70208921D01*
X218069458Y-70168961D01*
X218072990Y-70120115D01*
X218072283Y-70069048D01*
X218067338Y-70022424D01*
X218061689Y-69997106D01*
X218038177Y-69941338D01*
X218002711Y-69887213D01*
X217959046Y-69839987D01*
X217936017Y-69821122D01*
X217872355Y-69783757D01*
X217804113Y-69760820D01*
X217733555Y-69752175D01*
X217662942Y-69757684D01*
X217594537Y-69777209D01*
X217530602Y-69810612D01*
X217482637Y-69848696D01*
X217435222Y-69903928D01*
X217401191Y-69965814D01*
X217380548Y-70032146D01*
X217373299Y-70100717D01*
X214682363Y-70100717D01*
X214744776Y-69887795D01*
X214837654Y-69626024D01*
X214944965Y-69369600D01*
X215066321Y-69119363D01*
X215201331Y-68876152D01*
X215349605Y-68640805D01*
X215510754Y-68414162D01*
X215684388Y-68197060D01*
X215757679Y-68112595D01*
X215952986Y-67904656D01*
X216158107Y-67709352D01*
X216372556Y-67526921D01*
X216595849Y-67357600D01*
X216827502Y-67201626D01*
X217067030Y-67059237D01*
X217313949Y-66930670D01*
X217567773Y-66816162D01*
X217828019Y-66715952D01*
X218094202Y-66630275D01*
X218365837Y-66559371D01*
X218642440Y-66503475D01*
X218923527Y-66462826D01*
X219171579Y-66440032D01*
X219221607Y-66437489D01*
X219283783Y-66435664D01*
X219355372Y-66434527D01*
X219433637Y-66434051D01*
X219515841Y-66434208D01*
X219599250Y-66434969D01*
X219681126Y-66436307D01*
X219758734Y-66438193D01*
X219829336Y-66440598D01*
X219890197Y-66443496D01*
X219938581Y-66446858D01*
X219951269Y-66448056D01*
X220169995Y-66474177D01*
X220376708Y-66506327D01*
X220574567Y-66545095D01*
X220766731Y-66591067D01*
X220865895Y-66618140D01*
X221136443Y-66703043D01*
X221398640Y-66801472D01*
X221652973Y-66913691D01*
X221899935Y-67039964D01*
X222140014Y-67180555D01*
X222373700Y-67335727D01*
X222601484Y-67505745D01*
X222767672Y-67642245D01*
X222813624Y-67682879D01*
X222867877Y-67733131D01*
X222928015Y-67790578D01*
X222991623Y-67852799D01*
X223056285Y-67917373D01*
X223119588Y-67981878D01*
X223179114Y-68043893D01*
X223232450Y-68100995D01*
X223277180Y-68150765D01*
X223291886Y-68167801D01*
X223473849Y-68393555D01*
X223640918Y-68625408D01*
X223793134Y-68863461D01*
X223930539Y-69107812D01*
X224053175Y-69358562D01*
X224161086Y-69615808D01*
X224254313Y-69879652D01*
X224332898Y-70150192D01*
X224396883Y-70427527D01*
X224446312Y-70711758D01*
X224476531Y-70955106D01*
X224481411Y-71013516D01*
X224485611Y-71084843D01*
X224489080Y-71165900D01*
X224491767Y-71253499D01*
X224493622Y-71344452D01*
X224494594Y-71435573D01*
X224494634Y-71523673D01*
X224493690Y-71605566D01*
X224491713Y-71678064D01*
X224488864Y-71734835D01*
X224462229Y-72021912D01*
X224420831Y-72302683D01*
X224364564Y-72577542D01*
X224293323Y-72846885D01*
X224207001Y-73111107D01*
X224105493Y-73370603D01*
X223988693Y-73625769D01*
X223975337Y-73652728D01*
X223863231Y-73866161D01*
X223745631Y-74067462D01*
X223620531Y-74259518D01*
X223485929Y-74445219D01*
X223339819Y-74627450D01*
X223180199Y-74809100D01*
X223150454Y-74841338D01*
X223133711Y-74858912D01*
X223106110Y-74887307D01*
X223068205Y-74925966D01*
X223020550Y-74974332D01*
X222963699Y-75031848D01*
X222898208Y-75097956D01*
X222824632Y-75172099D01*
X222743524Y-75253720D01*
X222655439Y-75342261D01*
X222560932Y-75437166D01*
X222460558Y-75537876D01*
X222354871Y-75643835D01*
X222244427Y-75754486D01*
X222129778Y-75869270D01*
X222011481Y-75987631D01*
X221890090Y-76109012D01*
X221766159Y-76232855D01*
X221670264Y-76328628D01*
X221520760Y-76477912D01*
X221382201Y-76616258D01*
X221254124Y-76744109D01*
X221136062Y-76861909D01*
X221027549Y-76970101D01*
X220928121Y-77069127D01*
X220837311Y-77159431D01*
X220754654Y-77241456D01*
X220679685Y-77315646D01*
X220611938Y-77382442D01*
X220550947Y-77442289D01*
X220496248Y-77495629D01*
X220447374Y-77542906D01*
X220403860Y-77584562D01*
X220365240Y-77621040D01*
X220331049Y-77652785D01*
X220300822Y-77680239D01*
X220274093Y-77703844D01*
X220250396Y-77724045D01*
X220229265Y-77741283D01*
X220210237Y-77756003D01*
X220192843Y-77768648D01*
X220176621Y-77779659D01*
X220161103Y-77789482D01*
X220145824Y-77798558D01*
X220130319Y-77807331D01*
X220114122Y-77816244D01*
X220098252Y-77824924D01*
X219993921Y-77874933D01*
X219880244Y-77916350D01*
X219762469Y-77947423D01*
X219693401Y-77960160D01*
X219658526Y-77964063D01*
X219612369Y-77967167D01*
X219559114Y-77969396D01*
X219502944Y-77970676D01*
X219448044Y-77970931D01*
X219398596Y-77970085D01*
X219358786Y-77968064D01*
X219342862Y-77966469D01*
X219216401Y-77942848D01*
X219089684Y-77905387D01*
X218966718Y-77855589D01*
X218851508Y-77794955D01*
X218802307Y-77763896D01*
X218769753Y-77740504D01*
X218729968Y-77709453D01*
X218687311Y-77674276D01*
X218646144Y-77638510D01*
X218633597Y-77627150D01*
X218615208Y-77609791D01*
X218586263Y-77581783D01*
X218547387Y-77543750D01*
X218499204Y-77496317D01*
X218442336Y-77440111D01*
X218377407Y-77375757D01*
X218305041Y-77303880D01*
X218225862Y-77225107D01*
X218140492Y-77140062D01*
X218049557Y-77049372D01*
X217953679Y-76953661D01*
X217853482Y-76853556D01*
X217749589Y-76749682D01*
X217642625Y-76642665D01*
X217533212Y-76533129D01*
X217421975Y-76421702D01*
X217309537Y-76309008D01*
X217196521Y-76195673D01*
X217083552Y-76082322D01*
X216971253Y-75969582D01*
X216860247Y-75858077D01*
X216751158Y-75748434D01*
X216644610Y-75641277D01*
X216541226Y-75537233D01*
X216441630Y-75436927D01*
X216346445Y-75340984D01*
X216256296Y-75250031D01*
X216171806Y-75164693D01*
X216093597Y-75085595D01*
X216022295Y-75013362D01*
X215958522Y-74948622D01*
X215902903Y-74891998D01*
X215856060Y-74844118D01*
X215818618Y-74805605D01*
X215791200Y-74777086D01*
X215774429Y-74759187D01*
X215772221Y-74756726D01*
X215585947Y-74534256D01*
X215414146Y-74304783D01*
X215282202Y-74106498D01*
X219214422Y-74106498D01*
X219216074Y-74152310D01*
X219230225Y-74192726D01*
X219248766Y-74214320D01*
X219279406Y-74233946D01*
X219318129Y-74249423D01*
X219347831Y-74256609D01*
X219389704Y-74260896D01*
X219440037Y-74261318D01*
X219492357Y-74258210D01*
X219540193Y-74251907D01*
X219569713Y-74245142D01*
X219624852Y-74222415D01*
X219669358Y-74190998D01*
X219701849Y-74152436D01*
X219720938Y-74108276D01*
X219725635Y-74071021D01*
X219720628Y-74023791D01*
X219704862Y-73986165D01*
X219690850Y-73967981D01*
X219673769Y-73952195D01*
X219653752Y-73940358D01*
X219628108Y-73931794D01*
X219594149Y-73925824D01*
X219549186Y-73921771D01*
X219497334Y-73919211D01*
X219450127Y-73917174D01*
X219416451Y-73915012D01*
X219393722Y-73912341D01*
X219379354Y-73908773D01*
X219370766Y-73903924D01*
X219366936Y-73899736D01*
X219360270Y-73878086D01*
X219362436Y-73867503D01*
X219366528Y-73859780D01*
X219374059Y-73854495D01*
X219388042Y-73850957D01*
X219411493Y-73848473D01*
X219447424Y-73846352D01*
X219456571Y-73845901D01*
X219501351Y-73842960D01*
X219533953Y-73838737D01*
X219558306Y-73832533D01*
X219576661Y-73824550D01*
X219622757Y-73792507D01*
X219642286Y-73768268D01*
X219785423Y-73768268D01*
X219793556Y-73832869D01*
X219813489Y-73890889D01*
X219844434Y-73940414D01*
X219885605Y-73979525D01*
X219911682Y-73995573D01*
X219951643Y-74010077D01*
X220002539Y-74019257D01*
X220060010Y-74022872D01*
X220119698Y-74020681D01*
X220177242Y-74012444D01*
X220185386Y-74010680D01*
X220214559Y-74003604D01*
X220231332Y-73997570D01*
X220239110Y-73990462D01*
X220241296Y-73980162D01*
X220241371Y-73975874D01*
X220354188Y-73975874D01*
X220356726Y-73989641D01*
X220366264Y-73999876D01*
X220385684Y-74008350D01*
X220417871Y-74016832D01*
X220422684Y-74017924D01*
X220450404Y-74021378D01*
X220487909Y-74022505D01*
X220529255Y-74021499D01*
X220568498Y-74018556D01*
X220599693Y-74013870D01*
X220607530Y-74011879D01*
X220661009Y-73989115D01*
X220701571Y-73957139D01*
X220728842Y-73916418D01*
X220742446Y-73867421D01*
X220744012Y-73841646D01*
X220739242Y-73795661D01*
X220725495Y-73762067D01*
X220821289Y-73762067D01*
X220824494Y-73814459D01*
X220833161Y-73854992D01*
X220859541Y-73913903D01*
X220896076Y-73960310D01*
X220942818Y-73994269D01*
X220984138Y-74011454D01*
X221015443Y-74017674D01*
X221056868Y-74021126D01*
X221102650Y-74021778D01*
X221147023Y-74019596D01*
X221178254Y-74015355D01*
X221329091Y-74015355D01*
X221472894Y-74015355D01*
X221475613Y-73848144D01*
X221476688Y-73790902D01*
X221477950Y-73747414D01*
X221479623Y-73715320D01*
X221481929Y-73692256D01*
X221485091Y-73675861D01*
X221489332Y-73663773D01*
X221493798Y-73655374D01*
X221519054Y-73626443D01*
X221551352Y-73611944D01*
X221574904Y-73610038D01*
X221594813Y-73611840D01*
X221610489Y-73617129D01*
X221622429Y-73627612D01*
X221631130Y-73644998D01*
X221637088Y-73670994D01*
X221640801Y-73707311D01*
X221642767Y-73755655D01*
X221643481Y-73817735D01*
X221643528Y-73845870D01*
X221643528Y-74015355D01*
X221796637Y-74015355D01*
X221796637Y-73823417D01*
X221796438Y-73770670D01*
X221895079Y-73770670D01*
X221895230Y-73773476D01*
X221905413Y-73843747D01*
X221927156Y-73903455D01*
X221960144Y-73952146D01*
X222004065Y-73989366D01*
X222058605Y-74014663D01*
X222062512Y-74015884D01*
X222091430Y-74020866D01*
X222130087Y-74022516D01*
X222172491Y-74021012D01*
X222212651Y-74016535D01*
X222240400Y-74010567D01*
X222271383Y-73998534D01*
X222298940Y-73980168D01*
X222325404Y-73955436D01*
X222355901Y-73919351D01*
X222376898Y-73881725D01*
X222389729Y-73838698D01*
X222395727Y-73786407D01*
X222396583Y-73750241D01*
X222485629Y-73750241D01*
X222485841Y-73790896D01*
X222487043Y-73819900D01*
X222490080Y-73841718D01*
X222495801Y-73860815D01*
X222505050Y-73881657D01*
X222513898Y-73899321D01*
X222547301Y-73949678D01*
X222589511Y-73987893D01*
X222638873Y-74012517D01*
X222645706Y-74014637D01*
X222678412Y-74020314D01*
X222720240Y-74022372D01*
X222764634Y-74020926D01*
X222805038Y-74016090D01*
X222824984Y-74011507D01*
X222870711Y-73990419D01*
X222912442Y-73957240D01*
X222945464Y-73915982D01*
X222953048Y-73902471D01*
X222973619Y-73847428D01*
X222983983Y-73786551D01*
X222984368Y-73735767D01*
X223095200Y-73735767D01*
X223095631Y-73793301D01*
X223096783Y-73839428D01*
X223098817Y-73875719D01*
X223101897Y-73903743D01*
X223106186Y-73925070D01*
X223111845Y-73941269D01*
X223119037Y-73953910D01*
X223127926Y-73964562D01*
X223136545Y-73972869D01*
X223161353Y-73992675D01*
X223186395Y-74005154D01*
X223216259Y-74011639D01*
X223255534Y-74013461D01*
X223275349Y-74013172D01*
X223347875Y-74011326D01*
X223350475Y-73979447D01*
X223350905Y-73950603D01*
X223348464Y-73923118D01*
X223348095Y-73921024D01*
X223343736Y-73904376D01*
X223335580Y-73896710D01*
X223318463Y-73894566D01*
X223308467Y-73894479D01*
X223279552Y-73891010D01*
X223260274Y-73879431D01*
X223258467Y-73877529D01*
X223254450Y-73872239D01*
X223251157Y-73865031D01*
X223248487Y-73854283D01*
X223246340Y-73838373D01*
X223244615Y-73815678D01*
X223243211Y-73784576D01*
X223242028Y-73743444D01*
X223240964Y-73690659D01*
X223239919Y-73624600D01*
X223239087Y-73565267D01*
X223235058Y-73269955D01*
X223098065Y-73269955D01*
X223095847Y-73580203D01*
X223095326Y-73665258D01*
X223095200Y-73735767D01*
X222984368Y-73735767D01*
X222984461Y-73723580D01*
X222975377Y-73662251D01*
X222957053Y-73606306D01*
X222929813Y-73559482D01*
X222922695Y-73550820D01*
X222900733Y-73530492D01*
X222872324Y-73510068D01*
X222857039Y-73501116D01*
X222836636Y-73491177D01*
X222817856Y-73484831D01*
X222796127Y-73481291D01*
X222766875Y-73479769D01*
X222731409Y-73479473D01*
X222690743Y-73479979D01*
X222661891Y-73481928D01*
X222640573Y-73485968D01*
X222622504Y-73492745D01*
X222613479Y-73497293D01*
X222563267Y-73533060D01*
X222523663Y-73580943D01*
X222506443Y-73612387D01*
X222497241Y-73633632D01*
X222491212Y-73653324D01*
X222487703Y-73675795D01*
X222486061Y-73705373D01*
X222485630Y-73746389D01*
X222485629Y-73750241D01*
X222396583Y-73750241D01*
X222396602Y-73749429D01*
X222394048Y-73689751D01*
X222385507Y-73641721D01*
X222369659Y-73601561D01*
X222345183Y-73565492D01*
X222324422Y-73542849D01*
X222285363Y-73510451D01*
X222242707Y-73489363D01*
X222192672Y-73478190D01*
X222141987Y-73475444D01*
X222077237Y-73482306D01*
X222021157Y-73502336D01*
X221974441Y-73534695D01*
X221937781Y-73578545D01*
X221911872Y-73633050D01*
X221897406Y-73697371D01*
X221895079Y-73770670D01*
X221796438Y-73770670D01*
X221796385Y-73756508D01*
X221795554Y-73703596D01*
X221794033Y-73662568D01*
X221791711Y-73631311D01*
X221788476Y-73607712D01*
X221784351Y-73590106D01*
X221764287Y-73543284D01*
X221735252Y-73509170D01*
X221696460Y-73487269D01*
X221647123Y-73477087D01*
X221603968Y-73476771D01*
X221570155Y-73479874D01*
X221545620Y-73485989D01*
X221523550Y-73497231D01*
X221511072Y-73505603D01*
X221474699Y-73531241D01*
X221470273Y-73269955D01*
X221333281Y-73269955D01*
X221329091Y-74015355D01*
X221178254Y-74015355D01*
X221184226Y-74014544D01*
X221192259Y-74012692D01*
X221214296Y-74006217D01*
X221224807Y-73998668D01*
X221227913Y-73985110D01*
X221227901Y-73970023D01*
X221224734Y-73941182D01*
X221217785Y-73914059D01*
X221216576Y-73910937D01*
X221208251Y-73894151D01*
X221198345Y-73888550D01*
X221180351Y-73890991D01*
X221176905Y-73891775D01*
X221152528Y-73895473D01*
X221120486Y-73897910D01*
X221098149Y-73898481D01*
X221053009Y-73893322D01*
X221018692Y-73877323D01*
X220994619Y-73849781D01*
X220980210Y-73809995D01*
X220974884Y-73757264D01*
X220974828Y-73749429D01*
X220979965Y-73694115D01*
X220995114Y-73651404D01*
X221020255Y-73621320D01*
X221055363Y-73603885D01*
X221100418Y-73599124D01*
X221115705Y-73600154D01*
X221154183Y-73604066D01*
X221179682Y-73606006D01*
X221195292Y-73605233D01*
X221204103Y-73601003D01*
X221209206Y-73592575D01*
X221213691Y-73579207D01*
X221214610Y-73576401D01*
X221220995Y-73549401D01*
X221223091Y-73523893D01*
X221222856Y-73519993D01*
X221219421Y-73504337D01*
X221210048Y-73494913D01*
X221190228Y-73487773D01*
X221184201Y-73486165D01*
X221158153Y-73481499D01*
X221123070Y-73477929D01*
X221086030Y-73476152D01*
X221081759Y-73476092D01*
X221013760Y-73481280D01*
X220956261Y-73498508D01*
X220908680Y-73528111D01*
X220870438Y-73570425D01*
X220846980Y-73611900D01*
X220832876Y-73654733D01*
X220824198Y-73706806D01*
X220821289Y-73762067D01*
X220725495Y-73762067D01*
X220724014Y-73758449D01*
X220696953Y-73728459D01*
X220656682Y-73704143D01*
X220604699Y-73684816D01*
X220565175Y-73672091D01*
X220538935Y-73661446D01*
X220523541Y-73651431D01*
X220516553Y-73640594D01*
X220515356Y-73631677D01*
X220522288Y-73610061D01*
X220541825Y-73595917D01*
X220572080Y-73589672D01*
X220611163Y-73591751D01*
X220651887Y-73600958D01*
X220676424Y-73606843D01*
X220694507Y-73608602D01*
X220700600Y-73607002D01*
X220709213Y-73591122D01*
X220717469Y-73566338D01*
X220723312Y-73539774D01*
X220724873Y-73522902D01*
X220722744Y-73507930D01*
X220713548Y-73498519D01*
X220693077Y-73490607D01*
X220690625Y-73489857D01*
X220667738Y-73485407D01*
X220634125Y-73481911D01*
X220595169Y-73479838D01*
X220571764Y-73479473D01*
X220531040Y-73479980D01*
X220501846Y-73481973D01*
X220479616Y-73486158D01*
X220459782Y-73493242D01*
X220448342Y-73498581D01*
X220407799Y-73526717D01*
X220379995Y-73564593D01*
X220365439Y-73611448D01*
X220363961Y-73624106D01*
X220365250Y-73673539D01*
X220378678Y-73713997D01*
X220405081Y-73746555D01*
X220445295Y-73772289D01*
X220493031Y-73790222D01*
X220536850Y-73804129D01*
X220566931Y-73816116D01*
X220585357Y-73827359D01*
X220594206Y-73839035D01*
X220595816Y-73848351D01*
X220591392Y-73871285D01*
X220576041Y-73887520D01*
X220566250Y-73893273D01*
X220543516Y-73899656D01*
X220510908Y-73902157D01*
X220474164Y-73900886D01*
X220439024Y-73895953D01*
X220418655Y-73890450D01*
X220397662Y-73883204D01*
X220384285Y-73878889D01*
X220382137Y-73878363D01*
X220377570Y-73885400D01*
X220371084Y-73903141D01*
X220364128Y-73926527D01*
X220358152Y-73950502D01*
X220354605Y-73970007D01*
X220354188Y-73975874D01*
X220241371Y-73975874D01*
X220241371Y-73975853D01*
X220239308Y-73959331D01*
X220234102Y-73936399D01*
X220227232Y-73912098D01*
X220220176Y-73891470D01*
X220214410Y-73879558D01*
X220212802Y-73878363D01*
X220204097Y-73880231D01*
X220184444Y-73885078D01*
X220163516Y-73890450D01*
X220105277Y-73900805D01*
X220052838Y-73900697D01*
X220007974Y-73890683D01*
X219972456Y-73871320D01*
X219948058Y-73843164D01*
X219938883Y-73819939D01*
X219933405Y-73797779D01*
X220265239Y-73797779D01*
X220270517Y-73776751D01*
X220273453Y-73748485D01*
X220271892Y-73710955D01*
X220266571Y-73670143D01*
X220258229Y-73632027D01*
X220249507Y-73606648D01*
X220219591Y-73555504D01*
X220180512Y-73517370D01*
X220131716Y-73491878D01*
X220072654Y-73478663D01*
X220055008Y-73477160D01*
X219988614Y-73480074D01*
X219930190Y-73496760D01*
X219880511Y-73526572D01*
X219840351Y-73568858D01*
X219810488Y-73622972D01*
X219791696Y-73688263D01*
X219789876Y-73699005D01*
X219785423Y-73768268D01*
X219642286Y-73768268D01*
X219654808Y-73752725D01*
X219672578Y-73705622D01*
X219675831Y-73651616D01*
X219675622Y-73648907D01*
X219671930Y-73604378D01*
X219749810Y-73604378D01*
X219749810Y-73481506D01*
X219706542Y-73485095D01*
X219671791Y-73491374D01*
X219644251Y-73502759D01*
X219640669Y-73505149D01*
X219618064Y-73521615D01*
X219573575Y-73501247D01*
X219517667Y-73482918D01*
X219458425Y-73476198D01*
X219399689Y-73480745D01*
X219345294Y-73496218D01*
X219299079Y-73522276D01*
X219294276Y-73526089D01*
X219261698Y-73562729D01*
X219241330Y-73606730D01*
X219233367Y-73654713D01*
X219238005Y-73703296D01*
X219255439Y-73749099D01*
X219279482Y-73782277D01*
X219298874Y-73803038D01*
X219281766Y-73818521D01*
X219257455Y-73849521D01*
X219244062Y-73886071D01*
X219242134Y-73923819D01*
X219252215Y-73958418D01*
X219262299Y-73973618D01*
X219282466Y-73997585D01*
X219254963Y-74025088D01*
X219227524Y-74063146D01*
X219214422Y-74106498D01*
X215282202Y-74106498D01*
X215256879Y-74068443D01*
X215225720Y-74015355D01*
X218065610Y-74015355D01*
X218217572Y-74015355D01*
X218220160Y-73842668D01*
X218221118Y-73785192D01*
X218222191Y-73741542D01*
X218223608Y-73709429D01*
X218225596Y-73686563D01*
X218228384Y-73670654D01*
X218232200Y-73659414D01*
X218237272Y-73650552D01*
X218239634Y-73647253D01*
X218262535Y-73626398D01*
X218291731Y-73613017D01*
X218321117Y-73609347D01*
X218335156Y-73612281D01*
X218349928Y-73619044D01*
X218361419Y-73628061D01*
X218370074Y-73641315D01*
X218376343Y-73660792D01*
X218380673Y-73688473D01*
X218383512Y-73726344D01*
X218385307Y-73776387D01*
X218386493Y-73839704D01*
X218389071Y-74015355D01*
X218532995Y-74015355D01*
X218532917Y-73807852D01*
X218532845Y-73747765D01*
X218637754Y-73747765D01*
X218643253Y-73822481D01*
X218659697Y-73885438D01*
X218687010Y-73936556D01*
X218725114Y-73975753D01*
X218773932Y-74002949D01*
X218833388Y-74018064D01*
X218899651Y-74021159D01*
X218937748Y-74019131D01*
X218965448Y-74015262D01*
X218988465Y-74008264D01*
X219012510Y-73996848D01*
X219016211Y-73994863D01*
X219062891Y-73962061D01*
X219097865Y-73920062D01*
X219121585Y-73867951D01*
X219134502Y-73804814D01*
X219137373Y-73749429D01*
X219132520Y-73678386D01*
X219117530Y-73619068D01*
X219091765Y-73570176D01*
X219054583Y-73530410D01*
X219016498Y-73504472D01*
X218995412Y-73493168D01*
X218977399Y-73485905D01*
X218957877Y-73481794D01*
X218932268Y-73479949D01*
X218895990Y-73479480D01*
X218887564Y-73479473D01*
X218848778Y-73479779D01*
X218821537Y-73481289D01*
X218801272Y-73484891D01*
X218783414Y-73491473D01*
X218763394Y-73501923D01*
X218758830Y-73504498D01*
X218711776Y-73538303D01*
X218676819Y-73580102D01*
X218653309Y-73631202D01*
X218640595Y-73692910D01*
X218637754Y-73747765D01*
X218532845Y-73747765D01*
X218532841Y-73744461D01*
X218532553Y-73694973D01*
X218531883Y-73657173D01*
X218530659Y-73628848D01*
X218528710Y-73607784D01*
X218525865Y-73591767D01*
X218521954Y-73578583D01*
X218516804Y-73566017D01*
X218513717Y-73559284D01*
X218491695Y-73523359D01*
X218463041Y-73498799D01*
X218424963Y-73483901D01*
X218379093Y-73477258D01*
X218326498Y-73478311D01*
X218281526Y-73488891D01*
X218246960Y-73508216D01*
X218237837Y-73516900D01*
X218232243Y-73522548D01*
X218228148Y-73523870D01*
X218225219Y-73518866D01*
X218223126Y-73505536D01*
X218221534Y-73481880D01*
X218220113Y-73445898D01*
X218218719Y-73401779D01*
X218214689Y-73269955D01*
X218158449Y-73267530D01*
X218127208Y-73266940D01*
X218100216Y-73267756D01*
X218083909Y-73269698D01*
X218065610Y-73274291D01*
X218065610Y-74015355D01*
X215225720Y-74015355D01*
X215114212Y-73825373D01*
G37*
G36*
X222763104Y-73598522D02*
G01*
X222781840Y-73607422D01*
X222796415Y-73621072D01*
X222814107Y-73645677D01*
X222825227Y-73676236D01*
X222830659Y-73716185D01*
X222831498Y-73757487D01*
X222826624Y-73813958D01*
X222813517Y-73856719D01*
X222793628Y-73884583D01*
X222765028Y-73901148D01*
X222730393Y-73906658D01*
X222696241Y-73900169D01*
X222693653Y-73899072D01*
X222669240Y-73882001D01*
X222652043Y-73854786D01*
X222641264Y-73815623D01*
X222636441Y-73769575D01*
X222637087Y-73708666D01*
X222646454Y-73661157D01*
X222664682Y-73626802D01*
X222691915Y-73605357D01*
X222728293Y-73596577D01*
X222736853Y-73596319D01*
X222763104Y-73598522D01*
G37*
%TO.C,*%
G36*
X196208772Y-67490801D02*
G01*
X196380390Y-67491023D01*
X196547956Y-67491397D01*
X196709721Y-67491924D01*
X196863933Y-67492602D01*
X197008842Y-67493433D01*
X197142697Y-67494415D01*
X197263748Y-67495549D01*
X197370243Y-67496835D01*
X197460432Y-67498273D01*
X197532564Y-67499862D01*
X197539296Y-67500046D01*
X197705989Y-67505327D01*
X197854177Y-67511654D01*
X197985344Y-67519504D01*
X198100978Y-67529358D01*
X198202562Y-67541692D01*
X198291585Y-67556988D01*
X198369531Y-67575722D01*
X198437886Y-67598375D01*
X198498137Y-67625424D01*
X198551769Y-67657349D01*
X198600268Y-67694629D01*
X198645120Y-67737743D01*
X198687811Y-67787168D01*
X198729828Y-67843385D01*
X198764894Y-67895000D01*
X198809036Y-67963562D01*
X198862734Y-68049519D01*
X198925911Y-68152741D01*
X198998488Y-68273095D01*
X199080388Y-68410450D01*
X199171534Y-68564674D01*
X199271849Y-68735636D01*
X199381254Y-68923205D01*
X199499672Y-69127248D01*
X199627026Y-69347634D01*
X199763238Y-69584232D01*
X199887078Y-69800000D01*
X200013138Y-70020087D01*
X200129498Y-70223657D01*
X200236533Y-70411467D01*
X200334620Y-70584277D01*
X200424133Y-70742844D01*
X200505449Y-70887928D01*
X200578944Y-71020287D01*
X200644992Y-71140680D01*
X200703969Y-71249865D01*
X200756251Y-71348601D01*
X200802214Y-71437647D01*
X200842233Y-71517761D01*
X200876683Y-71589702D01*
X200905941Y-71654228D01*
X200930382Y-71712099D01*
X200950381Y-71764073D01*
X200966315Y-71810908D01*
X200978558Y-71853364D01*
X200987486Y-71892198D01*
X200993476Y-71928169D01*
X200996902Y-71962037D01*
X200998140Y-71994559D01*
X200997566Y-72026495D01*
X200996787Y-72041367D01*
X200994615Y-72069332D01*
X200991335Y-72097501D01*
X200986586Y-72126571D01*
X200980005Y-72157239D01*
X200971232Y-72190202D01*
X200959906Y-72226157D01*
X200945665Y-72265802D01*
X200928148Y-72309834D01*
X200906994Y-72358950D01*
X200881841Y-72413847D01*
X200852329Y-72475223D01*
X200818096Y-72543774D01*
X200778781Y-72620198D01*
X200734022Y-72705192D01*
X200683458Y-72799453D01*
X200626729Y-72903678D01*
X200563472Y-73018565D01*
X200493328Y-73144810D01*
X200415933Y-73283111D01*
X200330928Y-73434165D01*
X200237950Y-73598670D01*
X200136639Y-73777322D01*
X200026633Y-73970819D01*
X199907572Y-74179857D01*
X199779093Y-74405134D01*
X199702123Y-74540000D01*
X199585360Y-74744516D01*
X199478018Y-74932404D01*
X199379616Y-75104410D01*
X199289672Y-75261284D01*
X199207704Y-75403772D01*
X199133230Y-75532622D01*
X199065769Y-75648582D01*
X199004838Y-75752400D01*
X198949957Y-75844822D01*
X198900643Y-75926597D01*
X198856415Y-75998473D01*
X198816791Y-76061197D01*
X198781289Y-76115516D01*
X198749427Y-76162179D01*
X198720724Y-76201932D01*
X198694699Y-76235525D01*
X198670868Y-76263704D01*
X198648752Y-76287216D01*
X198627867Y-76306811D01*
X198607732Y-76323234D01*
X198587866Y-76337235D01*
X198567787Y-76349560D01*
X198547012Y-76360958D01*
X198525061Y-76372176D01*
X198520000Y-76374707D01*
X198452208Y-76407295D01*
X198390315Y-76433781D01*
X198330801Y-76454935D01*
X198270151Y-76471532D01*
X198204849Y-76484343D01*
X198131376Y-76494141D01*
X198046217Y-76501697D01*
X197945855Y-76507785D01*
X197905000Y-76509781D01*
X197850595Y-76511804D01*
X197780496Y-76513528D01*
X197694419Y-76514954D01*
X197592079Y-76516080D01*
X197473192Y-76516906D01*
X197337475Y-76517431D01*
X197184642Y-76517656D01*
X197014410Y-76517580D01*
X196826495Y-76517203D01*
X196620612Y-76516523D01*
X196396477Y-76515542D01*
X196153806Y-76514257D01*
X195892316Y-76512670D01*
X195611720Y-76510779D01*
X195311737Y-76508585D01*
X194992080Y-76506086D01*
X194944563Y-76505702D01*
X193624127Y-76495000D01*
X193525029Y-76420000D01*
X193467239Y-76375358D01*
X193421565Y-76337359D01*
X193383505Y-76301519D01*
X193348555Y-76263356D01*
X193312214Y-76218384D01*
X193280923Y-76176936D01*
X193243332Y-76124969D01*
X193202025Y-76065323D01*
X193156587Y-75997306D01*
X193106603Y-75920228D01*
X193051659Y-75833398D01*
X192991341Y-75736127D01*
X192925234Y-75627724D01*
X192852923Y-75507498D01*
X192773993Y-75374760D01*
X192688031Y-75228818D01*
X192594622Y-75068982D01*
X192493351Y-74894562D01*
X192383803Y-74704868D01*
X192265565Y-74499209D01*
X192138221Y-74276895D01*
X192102837Y-74215000D01*
X191989590Y-74016649D01*
X191885876Y-73834609D01*
X191791156Y-73667911D01*
X191704891Y-73515586D01*
X191626544Y-73376666D01*
X191555575Y-73250182D01*
X191491446Y-73135165D01*
X191433619Y-73030647D01*
X191381556Y-72935658D01*
X191334717Y-72849231D01*
X191292564Y-72770397D01*
X191254560Y-72698187D01*
X191220164Y-72631631D01*
X191193976Y-72580000D01*
X191134944Y-72459639D01*
X191086520Y-72352715D01*
X191048733Y-72256537D01*
X191021610Y-72168416D01*
X191005183Y-72085664D01*
X190999482Y-72005591D01*
X191004531Y-71925507D01*
X191020365Y-71842724D01*
X191047011Y-71754552D01*
X191084499Y-71658301D01*
X191132857Y-71551284D01*
X191192115Y-71430810D01*
X191206814Y-71401848D01*
X191238907Y-71340073D01*
X191261821Y-71297061D01*
X194587020Y-71297061D01*
X194593993Y-71431030D01*
X194602307Y-71577066D01*
X194612778Y-71738340D01*
X194625074Y-71910246D01*
X194638865Y-72088178D01*
X194653819Y-72267531D01*
X194655769Y-72290000D01*
X194664107Y-72382998D01*
X194671523Y-72458191D01*
X194678463Y-72517725D01*
X194685372Y-72563749D01*
X194692693Y-72598409D01*
X194700873Y-72623854D01*
X194710356Y-72642231D01*
X194721587Y-72655687D01*
X194733528Y-72665346D01*
X194757485Y-72677759D01*
X194780958Y-72677280D01*
X194809531Y-72665242D01*
X194833337Y-72648072D01*
X194855218Y-72620862D01*
X194876933Y-72580725D01*
X194900241Y-72524775D01*
X194908252Y-72503259D01*
X194943546Y-72422195D01*
X194990267Y-72343297D01*
X195050859Y-72262833D01*
X195109476Y-72196422D01*
X195144003Y-72157558D01*
X195174923Y-72119410D01*
X195198605Y-72086663D01*
X195210579Y-72066018D01*
X195226117Y-72017063D01*
X195237388Y-71952959D01*
X195244489Y-71877787D01*
X195247516Y-71795628D01*
X195246566Y-71710565D01*
X195241734Y-71626677D01*
X195233116Y-71548047D01*
X195220809Y-71478757D01*
X195204909Y-71422887D01*
X195194886Y-71399780D01*
X195176606Y-71374871D01*
X195148812Y-71354355D01*
X195109814Y-71337827D01*
X195057923Y-71324882D01*
X194991450Y-71315115D01*
X194908703Y-71308121D01*
X194807993Y-71303495D01*
X194791010Y-71302974D01*
X194688411Y-71300000D01*
X195300000Y-71300000D01*
X195300104Y-71372500D01*
X195300659Y-71412582D01*
X195302145Y-71468643D01*
X195304424Y-71537653D01*
X195307360Y-71616581D01*
X195310818Y-71702395D01*
X195314659Y-71792065D01*
X195318748Y-71882560D01*
X195322948Y-71970849D01*
X195327123Y-72053901D01*
X195331137Y-72128685D01*
X195334852Y-72192170D01*
X195338132Y-72241326D01*
X195340519Y-72270000D01*
X195354432Y-72377718D01*
X195373072Y-72470818D01*
X195396054Y-72547964D01*
X195422993Y-72607818D01*
X195447943Y-72643252D01*
X195479041Y-72668113D01*
X195521225Y-72689583D01*
X195555000Y-72700649D01*
X195591152Y-72705977D01*
X195638750Y-72708440D01*
X195690100Y-72708099D01*
X195737506Y-72705021D01*
X195773274Y-72699270D01*
X195775000Y-72698809D01*
X195823229Y-72679686D01*
X195860873Y-72650637D01*
X195889701Y-72609178D01*
X195911482Y-72552823D01*
X195926818Y-72485690D01*
X195932043Y-72443764D01*
X195936035Y-72384841D01*
X195938843Y-72311884D01*
X195940513Y-72227855D01*
X195941093Y-72135717D01*
X195940630Y-72038432D01*
X195939171Y-71938962D01*
X195936763Y-71840269D01*
X195933454Y-71745317D01*
X195931017Y-71693661D01*
X196075331Y-71693661D01*
X196075358Y-71755000D01*
X196075845Y-71872201D01*
X196077164Y-71971442D01*
X196079495Y-72054748D01*
X196083017Y-72124147D01*
X196087910Y-72181668D01*
X196094352Y-72229338D01*
X196102524Y-72269185D01*
X196112603Y-72303236D01*
X196124770Y-72333518D01*
X196126919Y-72338141D01*
X196137635Y-72361860D01*
X196144584Y-72382259D01*
X196148273Y-72404176D01*
X196149213Y-72432450D01*
X196147911Y-72471919D01*
X196145561Y-72515459D01*
X196142753Y-72575530D01*
X196143790Y-72618832D01*
X196150979Y-72648540D01*
X196166629Y-72667824D01*
X196193049Y-72679857D01*
X196232546Y-72687813D01*
X196275000Y-72693361D01*
X196311551Y-72696256D01*
X196358886Y-72697821D01*
X196412261Y-72698151D01*
X196466929Y-72697340D01*
X196518144Y-72695481D01*
X196561163Y-72692668D01*
X196591238Y-72688995D01*
X196599739Y-72686935D01*
X196626979Y-72672048D01*
X196646605Y-72651846D01*
X196647653Y-72650000D01*
X196657589Y-72612452D01*
X196654567Y-72569597D01*
X196639947Y-72530093D01*
X196625896Y-72511322D01*
X196614697Y-72500912D01*
X196602962Y-72493587D01*
X196587023Y-72488697D01*
X196563212Y-72485596D01*
X196527858Y-72483635D01*
X196477293Y-72482166D01*
X196458328Y-72481718D01*
X196317055Y-72478436D01*
X196323546Y-72316718D01*
X196325719Y-72261067D01*
X196328389Y-72190329D01*
X196331376Y-72109402D01*
X196334501Y-72023189D01*
X196337582Y-71936589D01*
X196339735Y-71875000D01*
X196342612Y-71792380D01*
X196345596Y-71707518D01*
X196346118Y-71692805D01*
X196750909Y-71692805D01*
X196751135Y-71784362D01*
X196752207Y-71879318D01*
X196754093Y-71975304D01*
X196756759Y-72069953D01*
X196760173Y-72160898D01*
X196764302Y-72245770D01*
X196769113Y-72322204D01*
X196774574Y-72387830D01*
X196780651Y-72440281D01*
X196784650Y-72464810D01*
X196793651Y-72505336D01*
X196803880Y-72541675D01*
X196813179Y-72566198D01*
X196813493Y-72566809D01*
X196847983Y-72612768D01*
X196897432Y-72651586D01*
X196957600Y-72681727D01*
X197024248Y-72701659D01*
X197093138Y-72709847D01*
X197160030Y-72704758D01*
X197181176Y-72699839D01*
X197231232Y-72680578D01*
X197269666Y-72652383D01*
X197298508Y-72612516D01*
X197319788Y-72558243D01*
X197334428Y-72493249D01*
X197344212Y-72425371D01*
X197352788Y-72341951D01*
X197360059Y-72246600D01*
X197365928Y-72142926D01*
X197370299Y-72034540D01*
X197373076Y-71925053D01*
X197374161Y-71818075D01*
X197373459Y-71717215D01*
X197370872Y-71626084D01*
X197366304Y-71548293D01*
X197361065Y-71497386D01*
X197352160Y-71436851D01*
X197343123Y-71393048D01*
X197332549Y-71362747D01*
X197319027Y-71342721D01*
X197301150Y-71329741D01*
X197285000Y-71323019D01*
X197233566Y-71311868D01*
X197191616Y-71316775D01*
X197160551Y-71337529D01*
X197156642Y-71342364D01*
X197147062Y-71361840D01*
X197139780Y-71392208D01*
X197134771Y-71434703D01*
X197132010Y-71490559D01*
X197131470Y-71561011D01*
X197133128Y-71647293D01*
X197136958Y-71750641D01*
X197142934Y-71872288D01*
X197145036Y-71910657D01*
X197151501Y-72035838D01*
X197155773Y-72142284D01*
X197157790Y-72231148D01*
X197157487Y-72303583D01*
X197154803Y-72360740D01*
X197149673Y-72403771D01*
X197142035Y-72433830D01*
X197131825Y-72452067D01*
X197118980Y-72459635D01*
X197114904Y-72460000D01*
X197099062Y-72453343D01*
X197084824Y-72432867D01*
X197072077Y-72397808D01*
X197060708Y-72347403D01*
X197050603Y-72280891D01*
X197041646Y-72197509D01*
X197033726Y-72096495D01*
X197026727Y-71977087D01*
X197020536Y-71838521D01*
X197020011Y-71825000D01*
X197015403Y-71711340D01*
X197010803Y-71616003D01*
X197005848Y-71537315D01*
X197000175Y-71473604D01*
X196993419Y-71423195D01*
X196985217Y-71384415D01*
X196975206Y-71355590D01*
X196963022Y-71335047D01*
X196948301Y-71321113D01*
X196930680Y-71312113D01*
X196909796Y-71306375D01*
X196907225Y-71305859D01*
X196856451Y-71302206D01*
X196812953Y-71311146D01*
X196780766Y-71331467D01*
X196769163Y-71347407D01*
X196763622Y-71368857D01*
X196759124Y-71407910D01*
X196755637Y-71462199D01*
X196753127Y-71529356D01*
X196751562Y-71607014D01*
X196750909Y-71692805D01*
X196346118Y-71692805D01*
X196348519Y-71625065D01*
X196351218Y-71549673D01*
X196353526Y-71485995D01*
X196354947Y-71447500D01*
X196360462Y-71300000D01*
X196264909Y-71300000D01*
X196208109Y-71301805D01*
X196163019Y-71306912D01*
X196135773Y-71314032D01*
X196120802Y-71321141D01*
X196108510Y-71330035D01*
X196098635Y-71342615D01*
X196090918Y-71360784D01*
X196085098Y-71386443D01*
X196080914Y-71421494D01*
X196078106Y-71467840D01*
X196076413Y-71527381D01*
X196075575Y-71602021D01*
X196075331Y-71693661D01*
X195931017Y-71693661D01*
X195929291Y-71657067D01*
X195924320Y-71578482D01*
X195918590Y-71512525D01*
X195912147Y-71462157D01*
X195910347Y-71451905D01*
X195897123Y-71396802D01*
X195880216Y-71358461D01*
X195856988Y-71333668D01*
X195824801Y-71319212D01*
X195796823Y-71313699D01*
X195750109Y-71307296D01*
X195733703Y-71346148D01*
X195728886Y-71362294D01*
X195725264Y-71386041D01*
X195722850Y-71418773D01*
X195721659Y-71461873D01*
X195721704Y-71516727D01*
X195723000Y-71584720D01*
X195725560Y-71667234D01*
X195729400Y-71765656D01*
X195734533Y-71881369D01*
X195740445Y-72005000D01*
X195745126Y-72121983D01*
X195746679Y-72220239D01*
X195745010Y-72300807D01*
X195740025Y-72364728D01*
X195731631Y-72413043D01*
X195719733Y-72446791D01*
X195704239Y-72467014D01*
X195698559Y-72470770D01*
X195674778Y-72474317D01*
X195653076Y-72458224D01*
X195633642Y-72423279D01*
X195625405Y-72393374D01*
X195618354Y-72345707D01*
X195612472Y-72279952D01*
X195607743Y-72195779D01*
X195604153Y-72092862D01*
X195601686Y-71970871D01*
X195600326Y-71829480D01*
X195600024Y-71712500D01*
X195600000Y-71300000D01*
X195300000Y-71300000D01*
X194688411Y-71300000D01*
X194587020Y-71297061D01*
X191261821Y-71297061D01*
X191279890Y-71263145D01*
X191329073Y-71172276D01*
X191385761Y-71068678D01*
X191449263Y-70953563D01*
X191518886Y-70828145D01*
X191593939Y-70693635D01*
X191673728Y-70551246D01*
X191757561Y-70402189D01*
X191844747Y-70247678D01*
X191934591Y-70088926D01*
X192026403Y-69927143D01*
X192119489Y-69763543D01*
X192213158Y-69599338D01*
X192306717Y-69435740D01*
X192399474Y-69273962D01*
X192490735Y-69115216D01*
X192579810Y-68960714D01*
X192666005Y-68811670D01*
X192748628Y-68669294D01*
X192826986Y-68534801D01*
X192900388Y-68409401D01*
X192968141Y-68294307D01*
X193029553Y-68190733D01*
X193083930Y-68099889D01*
X193130582Y-68022989D01*
X193168815Y-67961245D01*
X193195643Y-67919348D01*
X193276184Y-67813896D01*
X193372621Y-67718946D01*
X193452996Y-67656057D01*
X193490141Y-67630783D01*
X193527182Y-67608647D01*
X193565720Y-67589404D01*
X193607360Y-67572808D01*
X193653705Y-67558612D01*
X193706358Y-67546572D01*
X193766921Y-67536441D01*
X193836999Y-67527973D01*
X193918194Y-67520923D01*
X194012110Y-67515044D01*
X194120350Y-67510091D01*
X194244517Y-67505818D01*
X194386214Y-67501979D01*
X194470652Y-67499998D01*
X194554324Y-67498394D01*
X194654954Y-67496943D01*
X194770791Y-67495644D01*
X194900085Y-67494497D01*
X195041084Y-67493502D01*
X195192038Y-67492660D01*
X195351196Y-67491970D01*
X195516807Y-67491431D01*
X195687121Y-67491046D01*
X195860387Y-67490812D01*
X196034854Y-67490730D01*
X196208772Y-67490801D01*
G37*
G36*
X194937576Y-71698710D02*
G01*
X194941997Y-71726127D01*
X194943529Y-71772882D01*
X194943505Y-71783571D01*
X194941506Y-71833218D01*
X194936550Y-71869887D01*
X194929152Y-71891448D01*
X194919825Y-71895773D01*
X194916946Y-71893612D01*
X194913195Y-71880047D01*
X194910989Y-71852250D01*
X194910247Y-71815923D01*
X194910893Y-71776768D01*
X194912846Y-71740488D01*
X194916029Y-71712783D01*
X194919609Y-71700289D01*
X194930151Y-71690230D01*
X194937576Y-71698710D01*
G37*
%TD*%
D12*
%TO.C,C14*%
X192637500Y-119500000D03*
X194362500Y-119500000D03*
%TD*%
D13*
%TO.C,F1*%
X173625000Y-90500000D03*
X175375000Y-90500000D03*
%TD*%
D14*
%TO.C,REF5*%
X178500000Y-76250000D03*
%TD*%
D15*
%TO.C,R10*%
X207515000Y-75307500D03*
X207515000Y-77132500D03*
%TD*%
D16*
%TO.C,U3*%
X180070000Y-84060000D03*
D17*
X180070000Y-90790000D03*
X180070000Y-105210000D03*
X234930000Y-105210000D03*
X209530000Y-105210000D03*
X234930000Y-90790000D03*
%TD*%
D14*
%TO.C,REF6*%
X178500000Y-119750000D03*
%TD*%
%TO.C,REF8*%
X236500000Y-119750000D03*
%TD*%
D15*
%TO.C,R1*%
X196500000Y-119587500D03*
X196500000Y-121412500D03*
%TD*%
D18*
%TO.C,C15*%
X204362500Y-119500000D03*
X202637500Y-119500000D03*
%TD*%
D19*
%TO.C,U1*%
X208100000Y-120668750D03*
X206900000Y-120668750D03*
X206900000Y-122018750D03*
X208100000Y-122018750D03*
%TD*%
D14*
%TO.C,REF7*%
X236500000Y-76250000D03*
%TD*%
D20*
%TO.C,PS1*%
X198250000Y-119550000D03*
X198250000Y-120500000D03*
X198250000Y-121450000D03*
X200750000Y-121450000D03*
X200750000Y-119550000D03*
%TD*%
D13*
%TO.C,F2*%
X173625000Y-105000000D03*
X175375000Y-105000000D03*
%TD*%
D21*
%TO.C,D1*%
X207500000Y-71150000D03*
X207500000Y-73200000D03*
%TD*%
D12*
%TO.C,C7*%
X206637500Y-118068750D03*
X208362500Y-118068750D03*
%TD*%
D22*
%TO.C,J6*%
X214500000Y-80532500D03*
D23*
X212500000Y-80532500D03*
X210500000Y-80532500D03*
X208500000Y-80532500D03*
X206500000Y-80532500D03*
X204500000Y-80532500D03*
X202500000Y-80532500D03*
X200500000Y-80532500D03*
%TD*%
D24*
%TO.C,REF\u002A\u002A*%
X169500000Y-71250000D03*
D25*
X169500000Y-74850000D03*
X169500000Y-78450000D03*
X169500000Y-82050000D03*
%TD*%
D26*
%TO.C,REF\u002A\u002A*%
X169500000Y-124750000D03*
D25*
X169500000Y-121150000D03*
X169500000Y-117550000D03*
X169500000Y-113950000D03*
X169500000Y-110350000D03*
%TD*%
M02*
