%TF.GenerationSoftware,KiCad,Pcbnew,5.99.0-unknown-36d11f745e~142~ubuntu20.04.1*%
%TF.CreationDate,2021-10-28T09:48:47+02:00*%
%TF.ProjectId,Main_PCB_1,4d61696e-5f50-4434-925f-312e6b696361,rev?*%
%TF.SameCoordinates,Original*%
%TF.FileFunction,Profile,NP*%
%FSLAX46Y46*%
G04 Gerber Fmt 4.6, Leading zero omitted, Abs format (unit mm)*
G04 Created by KiCad (PCBNEW 5.99.0-unknown-36d11f745e~142~ubuntu20.04.1) date 2021-10-28 09:48:47*
%MOMM*%
%LPD*%
G01*
G04 APERTURE LIST*
%TA.AperFunction,Profile*%
%ADD10C,0.100000*%
%TD*%
G04 APERTURE END LIST*
D10*
X199000000Y-133000000D02*
G75*
G03*
X201000000Y-131000000I1J1999999D01*
G01*
X185500000Y-68000000D02*
G75*
G03*
X187500000Y-66000000I1J1999999D01*
G01*
X167500000Y-78500000D02*
X167500000Y-91500000D01*
X187500000Y-66000000D02*
X187500000Y-65000000D01*
X245500000Y-128000000D02*
G75*
G03*
X247500000Y-126000000I1J1999999D01*
G01*
X229500000Y-68000000D02*
X245500000Y-68000000D01*
X187500000Y-131000000D02*
X187500000Y-130000000D01*
X167500000Y-94500000D02*
G75*
G03*
X168000000Y-95000000I500001J1D01*
G01*
X201000000Y-131000000D02*
X201000000Y-127000000D01*
X203000000Y-125000000D02*
G75*
G03*
X201000000Y-127000000I-1J-1999999D01*
G01*
X229500000Y-128000000D02*
G75*
G03*
X227500000Y-130000000I-1J-1999999D01*
G01*
X214000000Y-131000000D02*
G75*
G03*
X216000000Y-133000000I1999999J-1D01*
G01*
X189500000Y-63000000D02*
G75*
G03*
X187500000Y-65000000I-1J-1999999D01*
G01*
X214000000Y-127000000D02*
G75*
G03*
X212000000Y-125000000I-1999999J1D01*
G01*
X185500000Y-128000000D02*
X169500000Y-128000000D01*
X187500000Y-130000000D02*
G75*
G03*
X185500000Y-128000000I-1999999J1D01*
G01*
X169500000Y-68000000D02*
X172500000Y-68000000D01*
X247000000Y-95000000D02*
G75*
G03*
X247500000Y-94500000I-1J500001D01*
G01*
X244500000Y-100500000D02*
G75*
G03*
X245000000Y-101000000I500001J1D01*
G01*
X247000000Y-95000000D02*
X245500000Y-95000000D01*
X167500000Y-121500000D02*
X167500000Y-126000000D01*
X247500000Y-101500000D02*
X247500000Y-126000000D01*
X245500000Y-95000000D02*
X245000000Y-95000000D01*
X203000000Y-125000000D02*
X212000000Y-125000000D01*
X167500000Y-108500000D02*
X167500000Y-121500000D01*
X244500000Y-95500000D02*
X244500000Y-100500000D01*
X170500000Y-95500000D02*
G75*
G03*
X170000000Y-95000000I-500001J-1D01*
G01*
X170000000Y-101000000D02*
G75*
G03*
X170500000Y-100500000I-1J500001D01*
G01*
X245500000Y-128000000D02*
X229500000Y-128000000D01*
X227500000Y-65000000D02*
X227500000Y-66000000D01*
X187500000Y-131000000D02*
G75*
G03*
X189500000Y-133000000I1999999J-1D01*
G01*
X214000000Y-127000000D02*
X214000000Y-131000000D01*
X247500000Y-101500000D02*
G75*
G03*
X247000000Y-101000000I-500001J-1D01*
G01*
X245000000Y-101000000D02*
X247000000Y-101000000D01*
X167500000Y-70000000D02*
X167500000Y-78500000D01*
X227500000Y-66000000D02*
G75*
G03*
X229500000Y-68000000I1999999J-1D01*
G01*
X189500000Y-133000000D02*
X199000000Y-133000000D01*
X168000000Y-101000000D02*
G75*
G03*
X167500000Y-101500000I1J-500001D01*
G01*
X247500000Y-70000000D02*
X247500000Y-94500000D01*
X216000000Y-133000000D02*
X225500000Y-133000000D01*
X168000000Y-95000000D02*
X170000000Y-95000000D01*
X169500000Y-68000000D02*
G75*
G03*
X167500000Y-70000000I-1J-1999999D01*
G01*
X167500000Y-91500000D02*
X167500000Y-94500000D01*
X170000000Y-101000000D02*
X168000000Y-101000000D01*
X167500000Y-126000000D02*
G75*
G03*
X169500000Y-128000000I1999999J-1D01*
G01*
X227500000Y-130000000D02*
X227500000Y-131000000D01*
X225500000Y-133000000D02*
G75*
G03*
X227500000Y-131000000I1J1999999D01*
G01*
X247500000Y-70000000D02*
G75*
G03*
X245500000Y-68000000I-1999999J1D01*
G01*
X167500000Y-101500000D02*
X167500000Y-108500000D01*
X170500000Y-95500000D02*
X170500000Y-100500000D01*
X227500000Y-65000000D02*
G75*
G03*
X225500000Y-63000000I-1999999J1D01*
G01*
X189500000Y-63000000D02*
X225500000Y-63000000D01*
X172500000Y-68000000D02*
X185500000Y-68000000D01*
X245000000Y-95000000D02*
G75*
G03*
X244500000Y-95500000I1J-500001D01*
G01*
M02*
