%TF.GenerationSoftware,KiCad,Pcbnew,(5.99.0-12717-g57c7d663b0)*%
%TF.CreationDate,2021-10-22T11:27:59+02:00*%
%TF.ProjectId,Main_PCB,4d61696e-5f50-4434-922e-6b696361645f,rev?*%
%TF.SameCoordinates,Original*%
%TF.FileFunction,Profile,NP*%
%FSLAX46Y46*%
G04 Gerber Fmt 4.6, Leading zero omitted, Abs format (unit mm)*
G04 Created by KiCad (PCBNEW (5.99.0-12717-g57c7d663b0)) date 2021-10-22 11:27:59*
%MOMM*%
%LPD*%
G01*
G04 APERTURE LIST*
%TA.AperFunction,Profile*%
%ADD10C,0.100000*%
%TD*%
G04 APERTURE END LIST*
D10*
X201000000Y-131000000D02*
G75*
G02*
X199000000Y-133000000I-2000000J0D01*
G01*
X187500000Y-66000000D02*
G75*
G02*
X185500000Y-68000000I-2000000J0D01*
G01*
X167500000Y-78500000D02*
X167500000Y-91500000D01*
X212000000Y-125000000D02*
G75*
G02*
X214000000Y-127000000I0J-2000000D01*
G01*
X201000000Y-131000000D02*
X201000000Y-127000000D01*
X185500000Y-128000000D02*
X169500000Y-128000000D01*
X185500000Y-128000000D02*
G75*
G02*
X187500000Y-130000000I0J-2000000D01*
G01*
X247500000Y-126000000D02*
G75*
G02*
X245500000Y-128000000I-2000000J0D01*
G01*
X227500000Y-130000000D02*
G75*
G02*
X229500000Y-128000000I2000000J0D01*
G01*
X169500000Y-68000000D02*
X172500000Y-68000000D01*
X187500000Y-65000000D02*
G75*
G02*
X189500000Y-63000000I2000000J0D01*
G01*
X187500000Y-66000000D02*
X187500000Y-65000000D01*
X216000000Y-133000000D02*
G75*
G02*
X214000000Y-131000000I0J2000000D01*
G01*
X229500000Y-68000000D02*
X245500000Y-68000000D01*
X187500000Y-131000000D02*
X187500000Y-130000000D01*
X168000000Y-95000000D02*
G75*
G02*
X167500000Y-94500000I0J500000D01*
G01*
X201000000Y-127000000D02*
G75*
G02*
X203000000Y-125000000I2000000J0D01*
G01*
X245500000Y-95000000D02*
X245000000Y-95000000D01*
X247000000Y-95000000D02*
X245500000Y-95000000D01*
X247000000Y-95000000D02*
G75*
G03*
X247500000Y-94500000I0J500000D01*
G01*
X167500000Y-121500000D02*
X167500000Y-126000000D01*
X203000000Y-125000000D02*
X212000000Y-125000000D01*
X245000000Y-101000000D02*
G75*
G02*
X244500000Y-100500000I0J500000D01*
G01*
X247500000Y-101500000D02*
X247500000Y-126000000D01*
X170500000Y-100500000D02*
G75*
G02*
X170000000Y-101000000I-500000J0D01*
G01*
X227500000Y-65000000D02*
X227500000Y-66000000D01*
X214000000Y-127000000D02*
X214000000Y-131000000D01*
X245500000Y-128000000D02*
X229500000Y-128000000D01*
X167500000Y-108500000D02*
X167500000Y-121500000D01*
X170000000Y-95000000D02*
G75*
G02*
X170500000Y-95500000I0J-500000D01*
G01*
X189500000Y-133000000D02*
G75*
G02*
X187500000Y-131000000I0J2000000D01*
G01*
X244500000Y-95500000D02*
X244500000Y-100500000D01*
X167500000Y-101500000D02*
G75*
G02*
X168000000Y-101000000I500000J0D01*
G01*
X245000000Y-101000000D02*
X247000000Y-101000000D01*
X229500000Y-68000000D02*
G75*
G02*
X227500000Y-66000000I0J2000000D01*
G01*
X189500000Y-133000000D02*
X199000000Y-133000000D01*
X247500000Y-101500000D02*
G75*
G03*
X247000000Y-101000000I-500000J0D01*
G01*
X247500000Y-70000000D02*
X247500000Y-94500000D01*
X167500000Y-70000000D02*
X167500000Y-78500000D01*
X216000000Y-133000000D02*
X225500000Y-133000000D01*
X169500000Y-128000000D02*
G75*
G02*
X167500000Y-126000000I0J2000000D01*
G01*
X227500000Y-130000000D02*
X227500000Y-131000000D01*
X168000000Y-95000000D02*
X170000000Y-95000000D01*
X167500000Y-91500000D02*
X167500000Y-94500000D01*
X245500000Y-68000000D02*
G75*
G02*
X247500000Y-70000000I0J-2000000D01*
G01*
X167500000Y-101500000D02*
X167500000Y-108500000D01*
X170500000Y-95500000D02*
X170500000Y-100500000D01*
X225500000Y-63000000D02*
G75*
G02*
X227500000Y-65000000I0J-2000000D01*
G01*
X167500000Y-70000000D02*
G75*
G02*
X169500000Y-68000000I2000000J0D01*
G01*
X170000000Y-101000000D02*
X168000000Y-101000000D01*
X227500000Y-131000000D02*
G75*
G02*
X225500000Y-133000000I-2000000J0D01*
G01*
X172500000Y-68000000D02*
X185500000Y-68000000D01*
X244500000Y-95500000D02*
G75*
G02*
X245000000Y-95000000I500000J0D01*
G01*
X189500000Y-63000000D02*
X225500000Y-63000000D01*
M02*
