%TF.GenerationSoftware,KiCad,Pcbnew,5.99.0-unknown-36d11f745e~142~ubuntu20.04.1*%
%TF.CreationDate,2021-10-28T09:48:46+02:00*%
%TF.ProjectId,Main_PCB_1,4d61696e-5f50-4434-925f-312e6b696361,rev?*%
%TF.SameCoordinates,Original*%
%TF.FileFunction,Legend,Top*%
%TF.FilePolarity,Positive*%
%FSLAX46Y46*%
G04 Gerber Fmt 4.6, Leading zero omitted, Abs format (unit mm)*
G04 Created by KiCad (PCBNEW 5.99.0-unknown-36d11f745e~142~ubuntu20.04.1) date 2021-10-28 09:48:46*
%MOMM*%
%LPD*%
G01*
G04 APERTURE LIST*
%ADD10C,0.750000*%
%ADD11C,0.150000*%
%ADD12C,0.254000*%
%ADD13C,0.500000*%
%ADD14C,0.120000*%
%ADD15C,0.100000*%
%ADD16C,0.200000*%
G04 APERTURE END LIST*
D10*
X239107142Y-87464285D02*
X241392857Y-87464285D01*
D11*
X171488095Y-110000000D02*
X171392857Y-109952380D01*
X171250000Y-109952380D01*
X171107142Y-110000000D01*
X171011904Y-110095238D01*
X170964285Y-110190476D01*
X170916666Y-110380952D01*
X170916666Y-110523809D01*
X170964285Y-110714285D01*
X171011904Y-110809523D01*
X171107142Y-110904761D01*
X171250000Y-110952380D01*
X171345238Y-110952380D01*
X171488095Y-110904761D01*
X171535714Y-110857142D01*
X171535714Y-110523809D01*
X171345238Y-110523809D01*
X171964285Y-110952380D02*
X171964285Y-109952380D01*
X172535714Y-110952380D01*
X172535714Y-109952380D01*
X173011904Y-110952380D02*
X173011904Y-109952380D01*
X173250000Y-109952380D01*
X173392857Y-110000000D01*
X173488095Y-110095238D01*
X173535714Y-110190476D01*
X173583333Y-110380952D01*
X173583333Y-110523809D01*
X173535714Y-110714285D01*
X173488095Y-110809523D01*
X173392857Y-110904761D01*
X173250000Y-110952380D01*
X173011904Y-110952380D01*
X199142857Y-65452380D02*
X199142857Y-64452380D01*
X199523809Y-64452380D01*
X199619047Y-64500000D01*
X199666666Y-64547619D01*
X199714285Y-64642857D01*
X199714285Y-64785714D01*
X199666666Y-64880952D01*
X199619047Y-64928571D01*
X199523809Y-64976190D01*
X199142857Y-64976190D01*
X200571428Y-64785714D02*
X200571428Y-65452380D01*
X200142857Y-64785714D02*
X200142857Y-65309523D01*
X200190476Y-65404761D01*
X200285714Y-65452380D01*
X200428571Y-65452380D01*
X200523809Y-65404761D01*
X200571428Y-65357142D01*
X201190476Y-65452380D02*
X201095238Y-65404761D01*
X201047619Y-65309523D01*
X201047619Y-64452380D01*
X202000000Y-64785714D02*
X202000000Y-65452380D01*
X201571428Y-64785714D02*
X201571428Y-65309523D01*
X201619047Y-65404761D01*
X201714285Y-65452380D01*
X201857142Y-65452380D01*
X201952380Y-65404761D01*
X202000000Y-65357142D01*
X203190476Y-65404761D02*
X203285714Y-65452380D01*
X203476190Y-65452380D01*
X203571428Y-65404761D01*
X203619047Y-65309523D01*
X203619047Y-65261904D01*
X203571428Y-65166666D01*
X203476190Y-65119047D01*
X203333333Y-65119047D01*
X203238095Y-65071428D01*
X203190476Y-64976190D01*
X203190476Y-64928571D01*
X203238095Y-64833333D01*
X203333333Y-64785714D01*
X203476190Y-64785714D01*
X203571428Y-64833333D01*
X204190476Y-65452380D02*
X204095238Y-65404761D01*
X204047619Y-65357142D01*
X204000000Y-65261904D01*
X204000000Y-64976190D01*
X204047619Y-64880952D01*
X204095238Y-64833333D01*
X204190476Y-64785714D01*
X204333333Y-64785714D01*
X204428571Y-64833333D01*
X204476190Y-64880952D01*
X204523809Y-64976190D01*
X204523809Y-65261904D01*
X204476190Y-65357142D01*
X204428571Y-65404761D01*
X204333333Y-65452380D01*
X204190476Y-65452380D01*
X204952380Y-65452380D02*
X204952380Y-64785714D01*
X204952380Y-64452380D02*
X204904761Y-64500000D01*
X204952380Y-64547619D01*
X205000000Y-64500000D01*
X204952380Y-64452380D01*
X204952380Y-64547619D01*
X205571428Y-65452380D02*
X205476190Y-65404761D01*
X205428571Y-65309523D01*
X205428571Y-64452380D01*
X206714285Y-65452380D02*
X206714285Y-64785714D01*
X206714285Y-64880952D02*
X206761904Y-64833333D01*
X206857142Y-64785714D01*
X207000000Y-64785714D01*
X207095238Y-64833333D01*
X207142857Y-64928571D01*
X207142857Y-65452380D01*
X207142857Y-64928571D02*
X207190476Y-64833333D01*
X207285714Y-64785714D01*
X207428571Y-64785714D01*
X207523809Y-64833333D01*
X207571428Y-64928571D01*
X207571428Y-65452380D01*
X208190476Y-65452380D02*
X208095238Y-65404761D01*
X208047619Y-65357142D01*
X208000000Y-65261904D01*
X208000000Y-64976190D01*
X208047619Y-64880952D01*
X208095238Y-64833333D01*
X208190476Y-64785714D01*
X208333333Y-64785714D01*
X208428571Y-64833333D01*
X208476190Y-64880952D01*
X208523809Y-64976190D01*
X208523809Y-65261904D01*
X208476190Y-65357142D01*
X208428571Y-65404761D01*
X208333333Y-65452380D01*
X208190476Y-65452380D01*
X208952380Y-64785714D02*
X208952380Y-65452380D01*
X208952380Y-64880952D02*
X209000000Y-64833333D01*
X209095238Y-64785714D01*
X209238095Y-64785714D01*
X209333333Y-64833333D01*
X209380952Y-64928571D01*
X209380952Y-65452380D01*
X209857142Y-65452380D02*
X209857142Y-64785714D01*
X209857142Y-64452380D02*
X209809523Y-64500000D01*
X209857142Y-64547619D01*
X209904761Y-64500000D01*
X209857142Y-64452380D01*
X209857142Y-64547619D01*
X210190476Y-64785714D02*
X210571428Y-64785714D01*
X210333333Y-64452380D02*
X210333333Y-65309523D01*
X210380952Y-65404761D01*
X210476190Y-65452380D01*
X210571428Y-65452380D01*
X211047619Y-65452380D02*
X210952380Y-65404761D01*
X210904761Y-65357142D01*
X210857142Y-65261904D01*
X210857142Y-64976190D01*
X210904761Y-64880952D01*
X210952380Y-64833333D01*
X211047619Y-64785714D01*
X211190476Y-64785714D01*
X211285714Y-64833333D01*
X211333333Y-64880952D01*
X211380952Y-64976190D01*
X211380952Y-65261904D01*
X211333333Y-65357142D01*
X211285714Y-65404761D01*
X211190476Y-65452380D01*
X211047619Y-65452380D01*
X211809523Y-65452380D02*
X211809523Y-64785714D01*
X211809523Y-64976190D02*
X211857142Y-64880952D01*
X211904761Y-64833333D01*
X212000000Y-64785714D01*
X212095238Y-64785714D01*
X213095238Y-64785714D02*
X213333333Y-65452380D01*
X213571428Y-64785714D01*
X214476190Y-65452380D02*
X213904761Y-65452380D01*
X214190476Y-65452380D02*
X214190476Y-64452380D01*
X214095238Y-64595238D01*
X214000000Y-64690476D01*
X213904761Y-64738095D01*
X214904761Y-65357142D02*
X214952380Y-65404761D01*
X214904761Y-65452380D01*
X214857142Y-65404761D01*
X214904761Y-65357142D01*
X214904761Y-65452380D01*
X215571428Y-64452380D02*
X215666666Y-64452380D01*
X215761904Y-64500000D01*
X215809523Y-64547619D01*
X215857142Y-64642857D01*
X215904761Y-64833333D01*
X215904761Y-65071428D01*
X215857142Y-65261904D01*
X215809523Y-65357142D01*
X215761904Y-65404761D01*
X215666666Y-65452380D01*
X215571428Y-65452380D01*
X215476190Y-65404761D01*
X215428571Y-65357142D01*
X215380952Y-65261904D01*
X215333333Y-65071428D01*
X215333333Y-64833333D01*
X215380952Y-64642857D01*
X215428571Y-64547619D01*
X215476190Y-64500000D01*
X215571428Y-64452380D01*
X170857142Y-70702380D02*
X171190476Y-71702380D01*
X171523809Y-70702380D01*
X172190476Y-71178571D02*
X172333333Y-71226190D01*
X172380952Y-71273809D01*
X172428571Y-71369047D01*
X172428571Y-71511904D01*
X172380952Y-71607142D01*
X172333333Y-71654761D01*
X172238095Y-71702380D01*
X171857142Y-71702380D01*
X171857142Y-70702380D01*
X172190476Y-70702380D01*
X172285714Y-70750000D01*
X172333333Y-70797619D01*
X172380952Y-70892857D01*
X172380952Y-70988095D01*
X172333333Y-71083333D01*
X172285714Y-71130952D01*
X172190476Y-71178571D01*
X171857142Y-71178571D01*
X172809523Y-71416666D02*
X173285714Y-71416666D01*
X172714285Y-71702380D02*
X173047619Y-70702380D01*
X173380952Y-71702380D01*
X173571428Y-70702380D02*
X174142857Y-70702380D01*
X173857142Y-71702380D02*
X173857142Y-70702380D01*
X170869047Y-124202380D02*
X171488095Y-124202380D01*
X171154761Y-124583333D01*
X171297619Y-124583333D01*
X171392857Y-124630952D01*
X171440476Y-124678571D01*
X171488095Y-124773809D01*
X171488095Y-125011904D01*
X171440476Y-125107142D01*
X171392857Y-125154761D01*
X171297619Y-125202380D01*
X171011904Y-125202380D01*
X170916666Y-125154761D01*
X170869047Y-125107142D01*
X171821428Y-124535714D02*
X172059523Y-125202380D01*
X172297619Y-124535714D01*
X172583333Y-124202380D02*
X173202380Y-124202380D01*
X172869047Y-124583333D01*
X173011904Y-124583333D01*
X173107142Y-124630952D01*
X173154761Y-124678571D01*
X173202380Y-124773809D01*
X173202380Y-125011904D01*
X173154761Y-125107142D01*
X173107142Y-125154761D01*
X173011904Y-125202380D01*
X172726190Y-125202380D01*
X172630952Y-125154761D01*
X172583333Y-125107142D01*
X173630952Y-125202380D02*
X173630952Y-124202380D01*
X173630952Y-124583333D02*
X173726190Y-124535714D01*
X173916666Y-124535714D01*
X174011904Y-124583333D01*
X174059523Y-124630952D01*
X174107142Y-124726190D01*
X174107142Y-125011904D01*
X174059523Y-125107142D01*
X174011904Y-125154761D01*
X173916666Y-125202380D01*
X173726190Y-125202380D01*
X173630952Y-125154761D01*
X174964285Y-125202380D02*
X174964285Y-124678571D01*
X174916666Y-124583333D01*
X174821428Y-124535714D01*
X174630952Y-124535714D01*
X174535714Y-124583333D01*
X174964285Y-125154761D02*
X174869047Y-125202380D01*
X174630952Y-125202380D01*
X174535714Y-125154761D01*
X174488095Y-125059523D01*
X174488095Y-124964285D01*
X174535714Y-124869047D01*
X174630952Y-124821428D01*
X174869047Y-124821428D01*
X174964285Y-124773809D01*
X175297619Y-124535714D02*
X175678571Y-124535714D01*
X175440476Y-124202380D02*
X175440476Y-125059523D01*
X175488095Y-125154761D01*
X175583333Y-125202380D01*
X175678571Y-125202380D01*
D10*
X173357142Y-87464285D02*
X175642857Y-87464285D01*
X174500000Y-88607142D02*
X174500000Y-86321428D01*
X239107142Y-107964285D02*
X241392857Y-107964285D01*
D11*
X171035714Y-117904761D02*
X171178571Y-117952380D01*
X171416666Y-117952380D01*
X171511904Y-117904761D01*
X171559523Y-117857142D01*
X171607142Y-117761904D01*
X171607142Y-117666666D01*
X171559523Y-117571428D01*
X171511904Y-117523809D01*
X171416666Y-117476190D01*
X171226190Y-117428571D01*
X171130952Y-117380952D01*
X171083333Y-117333333D01*
X171035714Y-117238095D01*
X171035714Y-117142857D01*
X171083333Y-117047619D01*
X171130952Y-117000000D01*
X171226190Y-116952380D01*
X171464285Y-116952380D01*
X171607142Y-117000000D01*
X172035714Y-117952380D02*
X172035714Y-116952380D01*
X172273809Y-116952380D01*
X172416666Y-117000000D01*
X172511904Y-117095238D01*
X172559523Y-117190476D01*
X172607142Y-117380952D01*
X172607142Y-117523809D01*
X172559523Y-117714285D01*
X172511904Y-117809523D01*
X172416666Y-117904761D01*
X172273809Y-117952380D01*
X172035714Y-117952380D01*
X172988095Y-117666666D02*
X173464285Y-117666666D01*
X172892857Y-117952380D02*
X173226190Y-116952380D01*
X173559523Y-117952380D01*
X170916666Y-77952380D02*
X171250000Y-78952380D01*
X171583333Y-77952380D01*
X172488095Y-78857142D02*
X172440476Y-78904761D01*
X172297619Y-78952380D01*
X172202380Y-78952380D01*
X172059523Y-78904761D01*
X171964285Y-78809523D01*
X171916666Y-78714285D01*
X171869047Y-78523809D01*
X171869047Y-78380952D01*
X171916666Y-78190476D01*
X171964285Y-78095238D01*
X172059523Y-78000000D01*
X172202380Y-77952380D01*
X172297619Y-77952380D01*
X172440476Y-78000000D01*
X172488095Y-78047619D01*
X173488095Y-78857142D02*
X173440476Y-78904761D01*
X173297619Y-78952380D01*
X173202380Y-78952380D01*
X173059523Y-78904761D01*
X172964285Y-78809523D01*
X172916666Y-78714285D01*
X172869047Y-78523809D01*
X172869047Y-78380952D01*
X172916666Y-78190476D01*
X172964285Y-78095238D01*
X173059523Y-78000000D01*
X173202380Y-77952380D01*
X173297619Y-77952380D01*
X173440476Y-78000000D01*
X173488095Y-78047619D01*
D10*
X173357142Y-107964285D02*
X175642857Y-107964285D01*
X174500000Y-109107142D02*
X174500000Y-106821428D01*
D11*
X171297619Y-104226190D02*
X171250000Y-104178571D01*
X171202380Y-104083333D01*
X171202380Y-103845238D01*
X171250000Y-103750000D01*
X171297619Y-103702380D01*
X171392857Y-103654761D01*
X171488095Y-103654761D01*
X171630952Y-103702380D01*
X172202380Y-104273809D01*
X172202380Y-103654761D01*
X172202380Y-103321428D02*
X171535714Y-102797619D01*
X171535714Y-103321428D02*
X172202380Y-102797619D01*
X172202380Y-101130952D02*
X172202380Y-101702380D01*
X172202380Y-101416666D02*
X171202380Y-101416666D01*
X171345238Y-101511904D01*
X171440476Y-101607142D01*
X171488095Y-101702380D01*
X171916666Y-100750000D02*
X171916666Y-100273809D01*
X172202380Y-100845238D02*
X171202380Y-100511904D01*
X172202380Y-100178571D01*
X171535714Y-99226190D02*
X171535714Y-98845238D01*
X172202380Y-99083333D02*
X171345238Y-99083333D01*
X171250000Y-99035714D01*
X171202380Y-98940476D01*
X171202380Y-98845238D01*
X172202380Y-98083333D02*
X171678571Y-98083333D01*
X171583333Y-98130952D01*
X171535714Y-98226190D01*
X171535714Y-98416666D01*
X171583333Y-98511904D01*
X172154761Y-98083333D02*
X172202380Y-98178571D01*
X172202380Y-98416666D01*
X172154761Y-98511904D01*
X172059523Y-98559523D01*
X171964285Y-98559523D01*
X171869047Y-98511904D01*
X171821428Y-98416666D01*
X171821428Y-98178571D01*
X171773809Y-98083333D01*
X172154761Y-97654761D02*
X172202380Y-97559523D01*
X172202380Y-97369047D01*
X172154761Y-97273809D01*
X172059523Y-97226190D01*
X172011904Y-97226190D01*
X171916666Y-97273809D01*
X171869047Y-97369047D01*
X171869047Y-97511904D01*
X171821428Y-97607142D01*
X171726190Y-97654761D01*
X171678571Y-97654761D01*
X171583333Y-97607142D01*
X171535714Y-97511904D01*
X171535714Y-97369047D01*
X171583333Y-97273809D01*
X171535714Y-96940476D02*
X171535714Y-96559523D01*
X171202380Y-96797619D02*
X172059523Y-96797619D01*
X172154761Y-96750000D01*
X172202380Y-96654761D01*
X172202380Y-96559523D01*
X172202380Y-95035714D02*
X171678571Y-95035714D01*
X171583333Y-95083333D01*
X171535714Y-95178571D01*
X171535714Y-95369047D01*
X171583333Y-95464285D01*
X172154761Y-95035714D02*
X172202380Y-95130952D01*
X172202380Y-95369047D01*
X172154761Y-95464285D01*
X172059523Y-95511904D01*
X171964285Y-95511904D01*
X171869047Y-95464285D01*
X171821428Y-95369047D01*
X171821428Y-95130952D01*
X171773809Y-95035714D01*
X172154761Y-94130952D02*
X172202380Y-94226190D01*
X172202380Y-94416666D01*
X172154761Y-94511904D01*
X172107142Y-94559523D01*
X172011904Y-94607142D01*
X171726190Y-94607142D01*
X171630952Y-94559523D01*
X171583333Y-94511904D01*
X171535714Y-94416666D01*
X171535714Y-94226190D01*
X171583333Y-94130952D01*
X171535714Y-93845238D02*
X171535714Y-93464285D01*
X171202380Y-93702380D02*
X172059523Y-93702380D01*
X172154761Y-93654761D01*
X172202380Y-93559523D01*
X172202380Y-93464285D01*
X172202380Y-93130952D02*
X171535714Y-93130952D01*
X171202380Y-93130952D02*
X171250000Y-93178571D01*
X171297619Y-93130952D01*
X171250000Y-93083333D01*
X171202380Y-93130952D01*
X171297619Y-93130952D01*
X171535714Y-92654761D02*
X172202380Y-92654761D01*
X171630952Y-92654761D02*
X171583333Y-92607142D01*
X171535714Y-92511904D01*
X171535714Y-92369047D01*
X171583333Y-92273809D01*
X171678571Y-92226190D01*
X172202380Y-92226190D01*
X171535714Y-91321428D02*
X172345238Y-91321428D01*
X172440476Y-91369047D01*
X172488095Y-91416666D01*
X172535714Y-91511904D01*
X172535714Y-91654761D01*
X172488095Y-91750000D01*
X172154761Y-91321428D02*
X172202380Y-91416666D01*
X172202380Y-91607142D01*
X172154761Y-91702380D01*
X172107142Y-91750000D01*
X172011904Y-91797619D01*
X171726190Y-91797619D01*
X171630952Y-91750000D01*
X171583333Y-91702380D01*
X171535714Y-91607142D01*
X171535714Y-91416666D01*
X171583333Y-91321428D01*
X171059523Y-121654761D02*
X171202380Y-121702380D01*
X171440476Y-121702380D01*
X171535714Y-121654761D01*
X171583333Y-121607142D01*
X171630952Y-121511904D01*
X171630952Y-121416666D01*
X171583333Y-121321428D01*
X171535714Y-121273809D01*
X171440476Y-121226190D01*
X171250000Y-121178571D01*
X171154761Y-121130952D01*
X171107142Y-121083333D01*
X171059523Y-120988095D01*
X171059523Y-120892857D01*
X171107142Y-120797619D01*
X171154761Y-120750000D01*
X171250000Y-120702380D01*
X171488095Y-120702380D01*
X171630952Y-120750000D01*
X172630952Y-121607142D02*
X172583333Y-121654761D01*
X172440476Y-121702380D01*
X172345238Y-121702380D01*
X172202380Y-121654761D01*
X172107142Y-121559523D01*
X172059523Y-121464285D01*
X172011904Y-121273809D01*
X172011904Y-121130952D01*
X172059523Y-120940476D01*
X172107142Y-120845238D01*
X172202380Y-120750000D01*
X172345238Y-120702380D01*
X172440476Y-120702380D01*
X172583333Y-120750000D01*
X172630952Y-120797619D01*
X173535714Y-121702380D02*
X173059523Y-121702380D01*
X173059523Y-120702380D01*
X170666666Y-113452380D02*
X171000000Y-114452380D01*
X171333333Y-113452380D01*
X172238095Y-114357142D02*
X172190476Y-114404761D01*
X172047619Y-114452380D01*
X171952380Y-114452380D01*
X171809523Y-114404761D01*
X171714285Y-114309523D01*
X171666666Y-114214285D01*
X171619047Y-114023809D01*
X171619047Y-113880952D01*
X171666666Y-113690476D01*
X171714285Y-113595238D01*
X171809523Y-113500000D01*
X171952380Y-113452380D01*
X172047619Y-113452380D01*
X172190476Y-113500000D01*
X172238095Y-113547619D01*
X173238095Y-114357142D02*
X173190476Y-114404761D01*
X173047619Y-114452380D01*
X172952380Y-114452380D01*
X172809523Y-114404761D01*
X172714285Y-114309523D01*
X172666666Y-114214285D01*
X172619047Y-114023809D01*
X172619047Y-113880952D01*
X172666666Y-113690476D01*
X172714285Y-113595238D01*
X172809523Y-113500000D01*
X172952380Y-113452380D01*
X173047619Y-113452380D01*
X173190476Y-113500000D01*
X173238095Y-113547619D01*
X171488095Y-81500000D02*
X171392857Y-81452380D01*
X171250000Y-81452380D01*
X171107142Y-81500000D01*
X171011904Y-81595238D01*
X170964285Y-81690476D01*
X170916666Y-81880952D01*
X170916666Y-82023809D01*
X170964285Y-82214285D01*
X171011904Y-82309523D01*
X171107142Y-82404761D01*
X171250000Y-82452380D01*
X171345238Y-82452380D01*
X171488095Y-82404761D01*
X171535714Y-82357142D01*
X171535714Y-82023809D01*
X171345238Y-82023809D01*
X171964285Y-82452380D02*
X171964285Y-81452380D01*
X172535714Y-82452380D01*
X172535714Y-81452380D01*
X173011904Y-82452380D02*
X173011904Y-81452380D01*
X173250000Y-81452380D01*
X173392857Y-81500000D01*
X173488095Y-81595238D01*
X173535714Y-81690476D01*
X173583333Y-81880952D01*
X173583333Y-82023809D01*
X173535714Y-82214285D01*
X173488095Y-82309523D01*
X173392857Y-82404761D01*
X173250000Y-82452380D01*
X173011904Y-82452380D01*
X171607142Y-75202380D02*
X171130952Y-75202380D01*
X171130952Y-74202380D01*
X171940476Y-74678571D02*
X172273809Y-74678571D01*
X172416666Y-75202380D02*
X171940476Y-75202380D01*
X171940476Y-74202380D01*
X172416666Y-74202380D01*
X172845238Y-75202380D02*
X172845238Y-74202380D01*
X173083333Y-74202380D01*
X173226190Y-74250000D01*
X173321428Y-74345238D01*
X173369047Y-74440476D01*
X173416666Y-74630952D01*
X173416666Y-74773809D01*
X173369047Y-74964285D01*
X173321428Y-75059523D01*
X173226190Y-75154761D01*
X173083333Y-75202380D01*
X172845238Y-75202380D01*
%TO.C,R10*%
X209397380Y-76862857D02*
X208921190Y-77196190D01*
X209397380Y-77434285D02*
X208397380Y-77434285D01*
X208397380Y-77053333D01*
X208445000Y-76958095D01*
X208492619Y-76910476D01*
X208587857Y-76862857D01*
X208730714Y-76862857D01*
X208825952Y-76910476D01*
X208873571Y-76958095D01*
X208921190Y-77053333D01*
X208921190Y-77434285D01*
X209397380Y-75910476D02*
X209397380Y-76481904D01*
X209397380Y-76196190D02*
X208397380Y-76196190D01*
X208540238Y-76291428D01*
X208635476Y-76386666D01*
X208683095Y-76481904D01*
X208397380Y-75291428D02*
X208397380Y-75196190D01*
X208445000Y-75100952D01*
X208492619Y-75053333D01*
X208587857Y-75005714D01*
X208778333Y-74958095D01*
X209016428Y-74958095D01*
X209206904Y-75005714D01*
X209302142Y-75053333D01*
X209349761Y-75100952D01*
X209397380Y-75196190D01*
X209397380Y-75291428D01*
X209349761Y-75386666D01*
X209302142Y-75434285D01*
X209206904Y-75481904D01*
X209016428Y-75529523D01*
X208778333Y-75529523D01*
X208587857Y-75481904D01*
X208492619Y-75434285D01*
X208445000Y-75386666D01*
X208397380Y-75291428D01*
%TO.C,F1*%
X174166666Y-91928571D02*
X173833333Y-91928571D01*
X173833333Y-92452380D02*
X173833333Y-91452380D01*
X174309523Y-91452380D01*
X175214285Y-92452380D02*
X174642857Y-92452380D01*
X174928571Y-92452380D02*
X174928571Y-91452380D01*
X174833333Y-91595238D01*
X174738095Y-91690476D01*
X174642857Y-91738095D01*
%TO.C,C14*%
X192857142Y-118427142D02*
X192809523Y-118474761D01*
X192666666Y-118522380D01*
X192571428Y-118522380D01*
X192428571Y-118474761D01*
X192333333Y-118379523D01*
X192285714Y-118284285D01*
X192238095Y-118093809D01*
X192238095Y-117950952D01*
X192285714Y-117760476D01*
X192333333Y-117665238D01*
X192428571Y-117570000D01*
X192571428Y-117522380D01*
X192666666Y-117522380D01*
X192809523Y-117570000D01*
X192857142Y-117617619D01*
X193809523Y-118522380D02*
X193238095Y-118522380D01*
X193523809Y-118522380D02*
X193523809Y-117522380D01*
X193428571Y-117665238D01*
X193333333Y-117760476D01*
X193238095Y-117808095D01*
X194666666Y-117855714D02*
X194666666Y-118522380D01*
X194428571Y-117474761D02*
X194190476Y-118189047D01*
X194809523Y-118189047D01*
D12*
%TO.C,U1*%
X209332380Y-120304523D02*
X209332380Y-121332619D01*
X209392857Y-121453571D01*
X209453333Y-121514047D01*
X209574285Y-121574523D01*
X209816190Y-121574523D01*
X209937142Y-121514047D01*
X209997619Y-121453571D01*
X210058095Y-121332619D01*
X210058095Y-120304523D01*
X211328095Y-121574523D02*
X210602380Y-121574523D01*
X210965238Y-121574523D02*
X210965238Y-120304523D01*
X210844285Y-120485952D01*
X210723333Y-120606904D01*
X210602380Y-120667380D01*
D11*
%TO.C,*%
%TO.C,C15*%
X202857142Y-121287142D02*
X202809523Y-121334761D01*
X202666666Y-121382380D01*
X202571428Y-121382380D01*
X202428571Y-121334761D01*
X202333333Y-121239523D01*
X202285714Y-121144285D01*
X202238095Y-120953809D01*
X202238095Y-120810952D01*
X202285714Y-120620476D01*
X202333333Y-120525238D01*
X202428571Y-120430000D01*
X202571428Y-120382380D01*
X202666666Y-120382380D01*
X202809523Y-120430000D01*
X202857142Y-120477619D01*
X203809523Y-121382380D02*
X203238095Y-121382380D01*
X203523809Y-121382380D02*
X203523809Y-120382380D01*
X203428571Y-120525238D01*
X203333333Y-120620476D01*
X203238095Y-120668095D01*
X204714285Y-120382380D02*
X204238095Y-120382380D01*
X204190476Y-120858571D01*
X204238095Y-120810952D01*
X204333333Y-120763333D01*
X204571428Y-120763333D01*
X204666666Y-120810952D01*
X204714285Y-120858571D01*
X204761904Y-120953809D01*
X204761904Y-121191904D01*
X204714285Y-121287142D01*
X204666666Y-121334761D01*
X204571428Y-121382380D01*
X204333333Y-121382380D01*
X204238095Y-121334761D01*
X204190476Y-121287142D01*
D12*
%TO.C,U3*%
X206532380Y-97304523D02*
X206532380Y-98332619D01*
X206592857Y-98453571D01*
X206653333Y-98514047D01*
X206774285Y-98574523D01*
X207016190Y-98574523D01*
X207137142Y-98514047D01*
X207197619Y-98453571D01*
X207258095Y-98332619D01*
X207258095Y-97304523D01*
X207741904Y-97304523D02*
X208528095Y-97304523D01*
X208104761Y-97788333D01*
X208286190Y-97788333D01*
X208407142Y-97848809D01*
X208467619Y-97909285D01*
X208528095Y-98030238D01*
X208528095Y-98332619D01*
X208467619Y-98453571D01*
X208407142Y-98514047D01*
X208286190Y-98574523D01*
X207923333Y-98574523D01*
X207802380Y-98514047D01*
X207741904Y-98453571D01*
D13*
X189042857Y-106207142D02*
X187328571Y-106207142D01*
X188185714Y-106207142D02*
X188185714Y-103207142D01*
X187900000Y-103635714D01*
X187614285Y-103921428D01*
X187328571Y-104064285D01*
X192471428Y-103064285D02*
X189900000Y-106921428D01*
X193328571Y-103492857D02*
X193471428Y-103350000D01*
X193757142Y-103207142D01*
X194471428Y-103207142D01*
X194757142Y-103350000D01*
X194900000Y-103492857D01*
X195042857Y-103778571D01*
X195042857Y-104064285D01*
X194900000Y-104492857D01*
X193185714Y-106207142D01*
X195042857Y-106207142D01*
X198471428Y-105350000D02*
X199900000Y-105350000D01*
X198185714Y-106207142D02*
X199185714Y-103207142D01*
X200185714Y-106207142D01*
X201042857Y-105350000D02*
X202471428Y-105350000D01*
X200757142Y-106207142D02*
X201757142Y-103207142D01*
X202757142Y-106207142D01*
X203928571Y-89542857D02*
X204071428Y-89400000D01*
X204357142Y-89257142D01*
X205071428Y-89257142D01*
X205357142Y-89400000D01*
X205500000Y-89542857D01*
X205642857Y-89828571D01*
X205642857Y-90114285D01*
X205500000Y-90542857D01*
X203785714Y-92257142D01*
X205642857Y-92257142D01*
X207357142Y-89257142D02*
X207357142Y-89971428D01*
X206642857Y-89685714D02*
X207357142Y-89971428D01*
X208071428Y-89685714D01*
X206928571Y-90542857D02*
X207357142Y-89971428D01*
X207785714Y-90542857D01*
X209071428Y-91400000D02*
X210500000Y-91400000D01*
X208785714Y-92257142D02*
X209785714Y-89257142D01*
X210785714Y-92257142D01*
X211642857Y-91400000D02*
X213071428Y-91400000D01*
X211357142Y-92257142D02*
X212357142Y-89257142D01*
X213357142Y-92257142D01*
D11*
%TO.C,R1*%
X196952380Y-123166666D02*
X196476190Y-123500000D01*
X196952380Y-123738095D02*
X195952380Y-123738095D01*
X195952380Y-123357142D01*
X196000000Y-123261904D01*
X196047619Y-123214285D01*
X196142857Y-123166666D01*
X196285714Y-123166666D01*
X196380952Y-123214285D01*
X196428571Y-123261904D01*
X196476190Y-123357142D01*
X196476190Y-123738095D01*
X196952380Y-122214285D02*
X196952380Y-122785714D01*
X196952380Y-122500000D02*
X195952380Y-122500000D01*
X196095238Y-122595238D01*
X196190476Y-122690476D01*
X196238095Y-122785714D01*
%TO.C,C7*%
X207333333Y-116995892D02*
X207285714Y-117043511D01*
X207142857Y-117091130D01*
X207047619Y-117091130D01*
X206904761Y-117043511D01*
X206809523Y-116948273D01*
X206761904Y-116853035D01*
X206714285Y-116662559D01*
X206714285Y-116519702D01*
X206761904Y-116329226D01*
X206809523Y-116233988D01*
X206904761Y-116138750D01*
X207047619Y-116091130D01*
X207142857Y-116091130D01*
X207285714Y-116138750D01*
X207333333Y-116186369D01*
X207666666Y-116091130D02*
X208333333Y-116091130D01*
X207904761Y-117091130D01*
D12*
%TO.C,PS1*%
X197957857Y-118474523D02*
X197957857Y-117204523D01*
X198441666Y-117204523D01*
X198562619Y-117265000D01*
X198623095Y-117325476D01*
X198683571Y-117446428D01*
X198683571Y-117627857D01*
X198623095Y-117748809D01*
X198562619Y-117809285D01*
X198441666Y-117869761D01*
X197957857Y-117869761D01*
X199167380Y-118414047D02*
X199348809Y-118474523D01*
X199651190Y-118474523D01*
X199772142Y-118414047D01*
X199832619Y-118353571D01*
X199893095Y-118232619D01*
X199893095Y-118111666D01*
X199832619Y-117990714D01*
X199772142Y-117930238D01*
X199651190Y-117869761D01*
X199409285Y-117809285D01*
X199288333Y-117748809D01*
X199227857Y-117688333D01*
X199167380Y-117567380D01*
X199167380Y-117446428D01*
X199227857Y-117325476D01*
X199288333Y-117265000D01*
X199409285Y-117204523D01*
X199711666Y-117204523D01*
X199893095Y-117265000D01*
X201102619Y-118474523D02*
X200376904Y-118474523D01*
X200739761Y-118474523D02*
X200739761Y-117204523D01*
X200618809Y-117385952D01*
X200497857Y-117506904D01*
X200376904Y-117567380D01*
D11*
%TO.C,F2*%
X174166666Y-103498571D02*
X173833333Y-103498571D01*
X173833333Y-104022380D02*
X173833333Y-103022380D01*
X174309523Y-103022380D01*
X174642857Y-103117619D02*
X174690476Y-103070000D01*
X174785714Y-103022380D01*
X175023809Y-103022380D01*
X175119047Y-103070000D01*
X175166666Y-103117619D01*
X175214285Y-103212857D01*
X175214285Y-103308095D01*
X175166666Y-103450952D01*
X174595238Y-104022380D01*
X175214285Y-104022380D01*
%TO.C,D1*%
X209602380Y-72913095D02*
X208602380Y-72913095D01*
X208602380Y-72675000D01*
X208650000Y-72532142D01*
X208745238Y-72436904D01*
X208840476Y-72389285D01*
X209030952Y-72341666D01*
X209173809Y-72341666D01*
X209364285Y-72389285D01*
X209459523Y-72436904D01*
X209554761Y-72532142D01*
X209602380Y-72675000D01*
X209602380Y-72913095D01*
X209602380Y-71389285D02*
X209602380Y-71960714D01*
X209602380Y-71675000D02*
X208602380Y-71675000D01*
X208745238Y-71770238D01*
X208840476Y-71865476D01*
X208888095Y-71960714D01*
%TO.C,*%
D14*
%TO.C,R10*%
X206992500Y-75965276D02*
X206992500Y-76474724D01*
X208037500Y-75965276D02*
X208037500Y-76474724D01*
%TO.C,F1*%
X174328733Y-91010000D02*
X174671267Y-91010000D01*
X174328733Y-89990000D02*
X174671267Y-89990000D01*
%TO.C,C14*%
X193353733Y-118990000D02*
X193646267Y-118990000D01*
X193353733Y-120010000D02*
X193646267Y-120010000D01*
D15*
%TO.C,U1*%
X208500000Y-121443750D02*
X208500000Y-121243750D01*
D16*
X208100000Y-119843750D02*
X208100000Y-119843750D01*
D15*
X207600000Y-122343750D02*
X207400000Y-122343750D01*
D16*
X208300000Y-119843750D02*
X208300000Y-119843750D01*
D15*
X206500000Y-121443750D02*
X206500000Y-121243750D01*
X207600000Y-120343750D02*
X207400000Y-120343750D01*
D16*
X208300000Y-119843750D02*
G75*
G03*
X208100000Y-119843750I-100000J0D01*
G01*
X208100000Y-119843750D02*
G75*
G03*
X208300000Y-119843750I100000J0D01*
G01*
D14*
%TO.C,C15*%
X203646267Y-118990000D02*
X203353733Y-118990000D01*
X203646267Y-120010000D02*
X203353733Y-120010000D01*
D15*
%TO.C,U3*%
X237465000Y-113000000D02*
X237465000Y-83000000D01*
X237465000Y-83000000D02*
X181500000Y-83000000D01*
X177535000Y-83000000D02*
X177535000Y-112985000D01*
X177535000Y-112985000D02*
X237465000Y-113000000D01*
D14*
X177535000Y-96725000D02*
X212075000Y-96725000D01*
X212075000Y-96725000D02*
X212075000Y-112985000D01*
X212075000Y-112985000D02*
X177535000Y-112985000D01*
X177535000Y-112985000D02*
X177535000Y-96725000D01*
%TO.C,R1*%
X197022500Y-120245276D02*
X197022500Y-120754724D01*
X195977500Y-120245276D02*
X195977500Y-120754724D01*
%TO.C,C7*%
X207353733Y-117558750D02*
X207646267Y-117558750D01*
X207353733Y-118578750D02*
X207646267Y-118578750D01*
D16*
%TO.C,PS1*%
X199800000Y-119050000D02*
X199800000Y-121950000D01*
X199200000Y-119050000D02*
X199800000Y-119050000D01*
X199800000Y-121950000D02*
X199200000Y-121950000D01*
X197650000Y-119000000D02*
X198850000Y-119000000D01*
X199200000Y-121950000D02*
X199200000Y-119050000D01*
D14*
%TO.C,F2*%
X174328733Y-104490000D02*
X174671267Y-104490000D01*
X174328733Y-105510000D02*
X174671267Y-105510000D01*
%TO.C,D1*%
X206540000Y-70315000D02*
X206540000Y-73175000D01*
X208460000Y-70315000D02*
X206540000Y-70315000D01*
X208460000Y-73175000D02*
X208460000Y-70315000D01*
%TD*%
M02*
